<svg width="200" height="201" viewBox="0 0 200 201" fill="none" xmlns="http://www.w3.org/2000/svg">
<path d="M110.256 19.3081H26.6876C25.097 19.3081 23.8076 20.5975 23.8076 22.1881V138.74C23.8076 140.331 25.097 141.62 26.6876 141.62H110.256C111.846 141.62 113.136 140.331 113.136 138.74V22.1881C113.136 20.5975 111.846 19.3081 110.256 19.3081Z" fill="#F5F5F5"/>
<path d="M178.096 26.5958L178.26 27.4438L176.58 36.5438C175.985 36.9805 175.308 37.2912 174.589 37.457C173.87 37.6227 173.125 37.64 172.4 37.5078L162.88 35.7478C162.88 35.7478 161.364 35.4078 161.788 33.4438C161.788 33.4438 161.86 32.4078 162.748 32.3398C162.748 32.3398 160.904 31.5878 161.108 30.1678C161.312 28.7478 162.36 28.7638 162.36 28.7638C162.36 28.7638 160.632 28.3278 160.812 26.7278C160.992 25.1278 161.924 25.1278 161.924 25.1278C161.924 25.1278 159.924 24.6398 160.416 22.8678C160.473 22.6324 160.576 22.4107 160.72 22.2155C160.863 22.0204 161.044 21.8556 161.251 21.731C161.459 21.6063 161.69 21.5241 161.929 21.4893C162.169 21.4544 162.413 21.4675 162.648 21.5278L169.42 22.7798L175.356 23.8758C176.032 24.0046 176.653 24.3323 177.142 24.817C177.63 25.3016 177.962 25.9211 178.096 26.5958Z" fill="#EBEBEB"/>
<path d="M176.4 24.2679C176.4 24.2679 174.316 22.3799 173.6 20.3279C173.268 19.3049 173.101 18.2355 173.104 17.1599C173.104 17.0799 173.24 16.3599 173.34 15.7759C173.378 15.5448 173.326 15.3079 173.194 15.1143C173.063 14.9207 172.861 14.7852 172.632 14.7359C171.914 14.6325 171.183 14.7955 170.576 15.1941C169.97 15.5927 169.53 16.1995 169.34 16.8999C168.54 19.6279 169.224 21.4879 169.248 22.3159L169.268 23.1479L176.4 24.2679Z" fill="#EBEBEB"/>
<path d="M175.109 37.9117L181.757 39.1401L184.254 25.6289L177.606 24.4005L175.109 37.9117Z" fill="#EBEBEB"/>
<path d="M175.112 37.904C175.112 37.904 175.644 34.876 176.332 31.148C177.02 27.42 177.6 24.392 177.6 24.396C177.6 24.4 177.068 27.424 176.376 31.156C175.684 34.888 175.124 37.908 175.112 37.904Z" fill="#E0E0E0"/>
<path d="M181.76 39.136C181.76 39.136 182.292 36.104 182.984 32.376C183.676 28.648 184.244 25.624 184.256 25.624C184.268 25.624 183.724 28.656 183.036 32.384C182.348 36.112 181.776 39.136 181.76 39.136Z" fill="#E0E0E0"/>
<path d="M179.384 27.924C179.341 28.1698 179.372 28.423 179.472 28.6516C179.572 28.8802 179.738 29.074 179.948 29.2084C180.159 29.3429 180.404 29.412 180.654 29.4072C180.904 29.4023 181.146 29.3236 181.351 29.181C181.556 29.0384 181.714 28.8384 181.806 28.606C181.897 28.3737 181.917 28.1195 181.865 27.8755C181.812 27.6315 181.688 27.4087 181.508 27.2351C181.329 27.0615 181.102 26.9449 180.856 26.9C180.692 26.87 180.524 26.8728 180.361 26.9081C180.198 26.9434 180.044 27.0106 179.907 27.1058C179.771 27.2009 179.654 27.3222 179.564 27.4626C179.474 27.6031 179.413 27.7599 179.384 27.924Z" fill="white"/>
<path d="M167.844 22.5C167.844 22.5 168.576 22.608 169.468 22.772C170.36 22.936 171.088 23.084 171.068 23.096C171.048 23.108 170.336 22.988 169.444 22.824C168.552 22.66 167.844 22.5 167.844 22.5Z" fill="#E0E0E0"/>
<path d="M162.196 28.8037C162.196 28.8037 162.664 28.8637 163.236 28.9677C163.584 29.0238 163.928 29.0972 164.268 29.1877C164.268 29.1877 163.8 29.1277 163.228 29.0197C162.881 28.966 162.536 28.8939 162.196 28.8037Z" fill="#E0E0E0"/>
<path d="M161.784 25.0679C161.784 25.0679 162.444 25.1639 163.256 25.3119C164.068 25.4599 164.724 25.5959 164.72 25.6119C164.716 25.6279 164.06 25.5159 163.248 25.3639C162.436 25.2119 161.78 25.0839 161.784 25.0679Z" fill="#E0E0E0"/>
<path d="M162.316 32.2798C162.316 32.2798 162.976 32.3758 163.788 32.5238C164.6 32.6718 165.256 32.8078 165.252 32.8198C165.248 32.8318 164.592 32.7278 163.78 32.5758C162.968 32.4238 162.312 32.2918 162.316 32.2798Z" fill="#E0E0E0"/>
<path d="M179.104 25.0679C179.104 25.0679 180.04 25.2159 181.184 25.4279C182.328 25.6399 183.256 25.8279 183.256 25.8279C183.256 25.8279 182.32 25.6839 181.176 25.4719C180.032 25.2599 179.104 25.0839 179.104 25.0679Z" fill="white"/>
<path d="M161.432 27.4118C161.417 27.3884 161.407 27.3627 161.4 27.3358C161.38 27.2637 161.365 27.1902 161.356 27.1158C161.346 27.0053 161.346 26.8942 161.356 26.7838C161.371 26.6477 161.401 26.5135 161.444 26.3838C161.49 26.2548 161.551 26.1314 161.624 26.0158C161.684 25.9227 161.753 25.8368 161.832 25.7598C161.884 25.7059 161.942 25.6577 162.004 25.6158L162.072 25.5718C162.072 25.5718 161.984 25.6478 161.86 25.7838C161.786 25.8637 161.721 25.9508 161.664 26.0438C161.595 26.1556 161.539 26.2751 161.496 26.3998C161.451 26.5295 161.421 26.6636 161.404 26.7998C161.394 26.9076 161.394 27.016 161.404 27.1238C161.408 27.2998 161.44 27.4078 161.432 27.4118Z" fill="white"/>
<path d="M161.08 23.808C161.023 23.7623 160.978 23.7032 160.948 23.636C160.865 23.4799 160.822 23.3051 160.824 23.128C160.83 22.9512 160.878 22.7784 160.964 22.624C160.998 22.5591 161.046 22.503 161.104 22.46C161.104 22.46 161.056 22.528 161 22.644C160.925 22.7949 160.884 22.9609 160.88 23.1297C160.877 23.2985 160.911 23.466 160.98 23.62C161.017 23.6809 161.05 23.7436 161.08 23.808Z" fill="white"/>
<path d="M161.928 31.3001C161.853 31.2599 161.788 31.2023 161.74 31.1321C161.615 30.9695 161.549 30.7692 161.552 30.5641C161.557 30.3602 161.628 30.1634 161.756 30.0041C161.856 29.8841 161.944 29.8361 161.948 29.8441C161.891 29.9005 161.837 29.9607 161.788 30.0241C161.673 30.1824 161.612 30.3728 161.612 30.5681C161.612 30.7635 161.673 30.9538 161.788 31.1121C161.856 31.2241 161.932 31.3001 161.928 31.3001Z" fill="white"/>
<path d="M162.688 34.7439C162.633 34.6941 162.589 34.6326 162.56 34.5639C162.481 34.4006 162.439 34.2215 162.439 34.0399C162.439 33.8584 162.481 33.6792 162.56 33.5159C162.59 33.4481 162.634 33.3869 162.688 33.3359C162.688 33.3359 162.644 33.4119 162.592 33.5319C162.525 33.6928 162.49 33.8655 162.49 34.0399C162.49 34.2144 162.525 34.387 162.592 34.5479C162.644 34.6719 162.696 34.7399 162.688 34.7439Z" fill="white"/>
<path d="M169.412 20.076C169.392 20.0283 169.378 19.9787 169.368 19.928C169.35 19.869 169.335 19.8089 169.324 19.748C169.324 19.676 169.292 19.596 169.28 19.504C169.248 19.2948 169.231 19.0836 169.228 18.872C169.224 18.6045 169.24 18.3371 169.276 18.072C169.316 17.8147 169.375 17.5607 169.452 17.312C169.515 17.108 169.593 16.9088 169.684 16.716C169.72 16.636 169.76 16.564 169.792 16.5L169.884 16.34C169.91 16.2941 169.94 16.2499 169.972 16.208C169.955 16.2573 169.933 16.3044 169.904 16.348L169.82 16.512C169.788 16.576 169.752 16.648 169.716 16.732C169.644 16.896 169.568 17.1 169.496 17.324C169.426 17.5726 169.37 17.8251 169.328 18.08C169.294 18.3359 169.277 18.5938 169.276 18.852C169.277 19.0619 169.291 19.2716 169.316 19.48C169.316 19.572 169.34 19.652 169.352 19.72C169.364 19.788 169.376 19.852 169.388 19.9C169.403 19.9575 169.411 20.0166 169.412 20.076Z" fill="white"/>
<path d="M167.8 109.816L168.252 110.332L170.7 117.24C170.464 117.776 170.121 118.258 169.692 118.656C169.263 119.054 168.756 119.361 168.204 119.556L160.98 122.1C160.98 122.1 159.808 122.468 159.32 120.956C159.32 120.956 158.96 120.216 159.544 119.816C159.544 119.816 157.98 120.032 157.544 118.976C157.108 117.92 157.848 117.52 157.848 117.52C157.848 117.52 156.488 117.92 155.98 116.72C155.472 115.52 156.108 115.18 156.108 115.18C156.108 115.18 154.536 115.64 154.18 114.228C154.126 114.044 154.109 113.851 154.13 113.66C154.151 113.469 154.21 113.284 154.303 113.117C154.396 112.949 154.521 112.801 154.672 112.682C154.822 112.563 154.995 112.475 155.18 112.424L160.316 110.604L164.82 109.004C165.341 108.821 165.904 108.801 166.437 108.946C166.969 109.091 167.444 109.394 167.8 109.816Z" fill="#EBEBEB"/>
<path d="M165.732 108.9C165.732 108.9 163.556 108.432 162.24 107.3C161.605 106.731 161.065 106.063 160.64 105.324L160.24 104.28C160.176 104.106 160.047 103.963 159.88 103.882C159.713 103.8 159.521 103.787 159.344 103.844C158.81 104.06 158.374 104.464 158.117 104.98C157.859 105.495 157.8 106.087 157.948 106.644C158.488 108.828 159.684 109.844 160.028 110.396L160.372 110.956L165.732 108.9Z" fill="#EBEBEB"/>
<path d="M170.23 118.764L175.274 116.976L171.64 106.725L166.596 108.513L170.23 118.764Z" fill="#EBEBEB"/>
<path d="M170.232 118.752C170.232 118.752 169.4 116.464 168.396 113.632C167.392 110.8 166.588 108.5 166.6 108.5C166.612 108.5 167.432 110.788 168.436 113.62C169.44 116.452 170.244 118.748 170.232 118.752Z" fill="#E0E0E0"/>
<path d="M175.276 116.964C175.276 116.964 174.444 114.676 173.44 111.844C172.436 109.012 171.632 106.716 171.644 106.712C171.656 106.708 172.476 109 173.48 111.832C174.484 114.664 175.288 116.96 175.276 116.964Z" fill="#E0E0E0"/>
<path d="M169.2 110.216C169.267 110.402 169.387 110.564 169.546 110.682C169.704 110.8 169.894 110.868 170.092 110.878C170.289 110.887 170.485 110.839 170.655 110.737C170.824 110.636 170.96 110.486 171.045 110.308C171.13 110.129 171.16 109.93 171.131 109.734C171.102 109.539 171.017 109.356 170.884 109.209C170.752 109.063 170.579 108.958 170.388 108.91C170.196 108.861 169.994 108.87 169.808 108.936C169.558 109.026 169.354 109.211 169.24 109.451C169.126 109.69 169.111 109.966 169.2 110.216Z" fill="white"/>
<path d="M159.148 111.056C159.148 111.056 159.692 110.84 160.372 110.6C161.052 110.36 161.604 110.172 161.608 110.2C161.612 110.228 161.064 110.416 160.384 110.656C159.704 110.896 159.152 111.064 159.148 111.056Z" fill="#E0E0E0"/>
<path d="M157.776 117.62C157.776 117.62 158.12 117.476 158.556 117.324C158.818 117.222 159.085 117.135 159.356 117.064C159.102 117.177 158.841 117.277 158.576 117.364C158.314 117.464 158.047 117.549 157.776 117.62Z" fill="#E0E0E0"/>
<path d="M156 115.224C156 115.224 156.492 115.028 157.108 114.824C157.724 114.62 158.224 114.424 158.228 114.448C158.232 114.472 157.736 114.644 157.12 114.848C156.504 115.052 156.02 115.236 156 115.224Z" fill="#E0E0E0"/>
<path d="M159.232 119.956C159.232 119.956 159.724 119.76 160.34 119.556C160.956 119.352 161.456 119.156 161.46 119.184C161.464 119.212 160.968 119.38 160.352 119.584C159.736 119.788 159.236 119.968 159.232 119.956Z" fill="#E0E0E0"/>
<path d="M167.892 108.372C167.892 108.372 168.588 108.1 169.46 107.792C170.332 107.484 171.036 107.244 171.06 107.256C171.084 107.268 170.364 107.524 169.492 107.832C168.62 108.14 167.896 108.38 167.892 108.372Z" fill="white"/>
<path d="M156.7 116.968L156.648 116.928C156.606 116.887 156.567 116.843 156.532 116.796C156.48 116.725 156.436 116.649 156.4 116.568C156.355 116.47 156.321 116.366 156.3 116.26C156.281 116.155 156.273 116.047 156.276 115.94C156.283 115.852 156.297 115.765 156.32 115.68C156.334 115.622 156.354 115.566 156.38 115.512C156.38 115.476 156.408 115.456 156.412 115.456C156.416 115.456 156.38 115.544 156.348 115.684C156.33 115.768 156.319 115.854 156.316 115.94C156.315 116.045 156.323 116.149 156.34 116.252C156.362 116.355 156.393 116.455 156.432 116.552C156.468 116.631 156.51 116.707 156.556 116.78C156.64 116.9 156.704 116.964 156.7 116.968Z" fill="white"/>
<path d="M155.032 114.636C154.975 114.627 154.922 114.605 154.876 114.572C154.757 114.498 154.659 114.394 154.592 114.272C154.523 114.15 154.487 114.012 154.488 113.872C154.483 113.815 154.492 113.757 154.516 113.704C154.516 113.704 154.516 113.768 154.516 113.872C154.526 114.005 154.564 114.135 154.628 114.252C154.693 114.369 154.783 114.47 154.892 114.548C154.976 114.608 155.036 114.632 155.032 114.636Z" fill="white"/>
<path d="M158.576 119.432C158.508 119.433 158.441 119.418 158.38 119.388C158.23 119.326 158.105 119.216 158.024 119.076C157.948 118.933 157.919 118.768 157.944 118.608C157.951 118.542 157.975 118.479 158.012 118.424C158.012 118.424 157.988 118.496 157.976 118.612C157.958 118.765 157.989 118.921 158.064 119.056C158.14 119.189 158.255 119.296 158.392 119.364C158.5 119.412 158.576 119.424 158.576 119.432Z" fill="white"/>
<path d="M160.464 121.5C160.407 121.487 160.352 121.462 160.304 121.428C160.184 121.348 160.084 121.241 160.012 121.116C159.94 120.994 159.898 120.857 159.888 120.716C159.874 120.658 159.874 120.598 159.888 120.54C159.888 120.54 159.888 120.608 159.888 120.712C159.905 120.853 159.95 120.989 160.02 121.112C160.091 121.231 160.183 121.335 160.292 121.42C160.351 121.443 160.409 121.47 160.464 121.5Z" fill="white"/>
<path d="M159.272 108.784L159.18 108.696C159.145 108.663 159.112 108.628 159.08 108.592C159.04 108.548 158.996 108.5 158.952 108.444C158.849 108.317 158.754 108.183 158.668 108.044C158.564 107.867 158.471 107.682 158.392 107.492C158.317 107.3 158.257 107.102 158.212 106.9C158.174 106.735 158.149 106.568 158.136 106.4C158.136 106.332 158.136 106.264 158.136 106.208C158.136 106.152 158.136 106.104 158.136 106.064C158.133 106.023 158.133 105.981 158.136 105.94C158.142 105.981 158.142 106.023 158.136 106.064C158.136 106.104 158.136 106.152 158.136 106.208C158.136 106.264 158.136 106.328 158.136 106.4C158.136 106.54 158.18 106.708 158.22 106.892C158.354 107.453 158.602 107.98 158.948 108.44C158.992 108.5 159.032 108.548 159.068 108.592L159.164 108.704C159.203 108.727 159.239 108.754 159.272 108.784Z" fill="white"/>
<path d="M105.348 158.996H85.8719C82.9315 158.996 80.5479 161.38 80.5479 164.32V183.796C80.5479 186.736 82.9315 189.12 85.8719 189.12H105.348C108.288 189.12 110.672 186.736 110.672 183.796V164.32C110.672 161.38 108.288 158.996 105.348 158.996Z" fill="#E0E0E0"/>
<path d="M99.9357 158.996H80.4597C77.5194 158.996 75.1357 161.38 75.1357 164.32V183.796C75.1357 186.736 77.5194 189.12 80.4597 189.12H99.9357C102.876 189.12 105.26 186.736 105.26 183.796V164.32C105.26 161.38 102.876 158.996 99.9357 158.996Z" fill="#EBEBEB"/>
<path d="M79.7998 174.492L82.8318 171.456L88.6838 176.66L98.4598 166.848L101.276 169.88L88.2518 182.512L79.7998 174.492Z" fill="white"/>
<path d="M35.7882 165.46H23.0642C20.1239 165.46 17.7402 167.844 17.7402 170.784V183.508C17.7402 186.448 20.1239 188.832 23.0642 188.832H35.7882C38.7286 188.832 41.1122 186.448 41.1122 183.508V170.784C41.1122 167.844 38.7286 165.46 35.7882 165.46Z" fill="#E0E0E0"/>
<path d="M31.5919 165.46H18.8679C15.9276 165.46 13.5439 167.844 13.5439 170.784V183.508C13.5439 186.448 15.9276 188.832 18.8679 188.832H31.5919C34.5323 188.832 36.9159 186.448 36.9159 183.508V170.784C36.9159 167.844 34.5323 165.46 31.5919 165.46Z" fill="#EBEBEB"/>
<path d="M17.1602 177.484L19.5162 175.128L24.0562 179.164L31.6362 171.552L33.8242 173.908L23.7202 183.704L17.1602 177.484Z" fill="white"/>
<path d="M178.764 188.144C178.764 188.2 142.764 188.248 98.4041 188.248C54.0441 188.248 18.0361 188.2 18.0361 188.144C18.0361 188.088 54.0121 188.04 98.4041 188.04C142.796 188.04 178.764 188.1 178.764 188.144Z" fill="#263238"/>
<path d="M162.655 176.684C162.655 176.684 160.987 165.224 161.127 158.552C161.267 151.88 161.127 144.38 161.127 144.38H161.895C161.895 144.38 161.375 157.62 161.943 165.604C162.511 173.588 163.999 176.684 163.999 176.684H162.663" fill="#263238"/>
<path d="M167.624 131.484C167.503 131.078 167.258 130.719 166.924 130.46C166.436 130.152 165.796 130.28 165.252 130.46C162.932 131.28 160.872 135.608 159.936 137.884L163.016 148.284C168.58 143.12 169.544 136.352 167.624 131.484Z" fill="#455A64"/>
<path d="M166.744 130.9C166.734 130.947 166.719 130.992 166.7 131.036L166.548 131.412C166.412 131.74 166.224 132.212 165.996 132.804C165.544 134.004 164.964 135.632 164.448 137.492C163.932 139.352 163.58 141.06 163.36 142.292C163.248 142.916 163.168 143.42 163.116 143.768C163.088 143.932 163.068 144.064 163.048 144.168C163.043 144.216 163.032 144.263 163.016 144.308C163.012 144.26 163.012 144.212 163.016 144.164C163.016 144.056 163.04 143.924 163.056 143.764C163.096 143.412 163.164 142.904 163.264 142.276C163.525 140.647 163.876 139.034 164.316 137.444C164.763 135.854 165.297 134.291 165.916 132.76C166.156 132.172 166.356 131.704 166.508 131.384C166.576 131.232 166.632 131.112 166.68 131.012C166.697 130.972 166.719 130.935 166.744 130.9Z" fill="#263238"/>
<path d="M161.648 150.772C160.245 149.974 159.071 148.828 158.239 147.445C157.407 146.063 156.944 144.489 156.896 142.876C156.788 140.572 157.496 138.312 158.296 136.148C158.345 135.952 158.461 135.779 158.624 135.66C158.756 135.61 158.899 135.595 159.039 135.616C159.179 135.637 159.312 135.693 159.424 135.78C161.52 136.98 162.792 139.256 163.472 141.576C163.955 143.113 164.115 144.734 163.944 146.336C163.679 148.022 162.878 149.577 161.66 150.772" fill="#455A64"/>
<path d="M161.648 150.772C161.642 150.725 161.642 150.678 161.648 150.632C161.648 150.528 161.648 150.396 161.648 150.232C161.648 149.888 161.648 149.388 161.604 148.768C161.522 147.158 161.343 145.556 161.068 143.968C160.748 142.108 160.36 140.444 160.072 139.24L159.732 137.812C159.696 137.656 159.664 137.528 159.644 137.412C159.625 137.376 159.61 137.339 159.6 137.3C159.62 137.342 159.636 137.386 159.648 137.432C159.676 137.532 159.712 137.66 159.76 137.812C159.856 138.148 159.984 138.612 160.16 139.228C160.468 140.428 160.872 142.092 161.196 143.96C161.471 145.547 161.638 147.15 161.696 148.76C161.696 149.376 161.696 149.88 161.696 150.224L161.676 150.624C161.672 150.674 161.663 150.724 161.648 150.772Z" fill="#263238"/>
<g opacity="0.3">
<path d="M161.648 150.772C160.245 149.974 159.071 148.828 158.239 147.445C157.407 146.063 156.944 144.489 156.896 142.876C156.788 140.572 157.496 138.312 158.296 136.148C158.345 135.952 158.461 135.779 158.624 135.66C158.756 135.61 158.899 135.595 159.039 135.616C159.179 135.637 159.312 135.693 159.424 135.78C161.52 136.98 162.792 139.256 163.472 141.576C163.955 143.113 164.115 144.734 163.944 146.336C163.679 148.022 162.878 149.577 161.66 150.772" fill="black"/>
</g>
<path d="M164.908 168.308C167.748 168.936 170.108 170.94 172.832 171.908C174.648 172.552 176.7 172.78 178.148 174.048C177.8 173.172 176.976 172.588 176.176 172.088C173.914 170.675 171.498 169.524 168.976 168.656C167.684 168.212 166.284 167.856 164.976 168.204" fill="#455A64"/>
<path d="M160.8 170.844C157.24 170.784 153.492 167.752 149.948 167.572C153.656 166.372 158.964 167.352 160.8 170.844Z" fill="#455A64"/>
<path d="M162.188 162.3C164.022 161.693 165.979 161.556 167.88 161.9C169.77 162.247 171.629 162.751 173.435 163.408C173.251 162.172 172.235 161.244 171.311 160.424C170.626 159.782 169.88 159.207 169.083 158.708C168.282 158.206 167.353 157.944 166.407 157.952C165.84 157.989 165.286 158.139 164.778 158.395C164.27 158.651 163.819 159.006 163.452 159.44C162.733 160.226 162.289 161.224 162.188 162.284" fill="#455A64"/>
<path d="M154.88 158.372C152.64 156.456 149.244 156.644 146.296 156.712C151.028 158.967 155.491 161.749 159.6 165.004C159.728 162.92 157.712 160.788 154.88 158.372Z" fill="#455A64"/>
<g opacity="0.3">
<path d="M154.88 158.372C152.64 156.456 149.244 156.644 146.296 156.712C151.028 158.967 155.491 161.749 159.6 165.004C159.728 162.92 157.712 160.788 154.88 158.372Z" fill="black"/>
</g>
<path d="M163.2 155.728C164.294 154.97 165.447 154.301 166.648 153.728C167.824 153.192 168.928 152.34 170.064 151.728C171.544 150.928 172.824 149.816 174.18 148.824C175.536 147.832 177.024 146.936 178.684 146.672C177.317 146.429 175.913 146.512 174.584 146.912C173.26 147.31 171.969 147.812 170.724 148.412C168.976 149.212 167.2 150.012 165.768 151.284C164.336 152.556 163.048 153.824 163.2 155.736" fill="#455A64"/>
<path d="M172.768 170.844L172.656 170.796L172.344 170.632C172.076 170.492 171.692 170.28 171.208 170.036C170.968 169.908 170.7 169.776 170.408 169.636C170.116 169.496 169.812 169.356 169.484 169.212C168.776 168.896 168.043 168.64 167.292 168.448C166.547 168.243 165.762 168.223 165.008 168.392C164.679 168.464 164.355 168.56 164.04 168.68C163.372 168.948 162.771 169.358 162.276 169.88C162.072 170.1 161.972 170.236 161.96 170.228C161.978 170.191 162 170.157 162.024 170.124C162.091 170.028 162.163 169.936 162.24 169.848C162.522 169.519 162.849 169.232 163.212 168.996C163.464 168.829 163.732 168.687 164.012 168.572C164.33 168.444 164.658 168.341 164.992 168.264C165.764 168.085 166.568 168.101 167.332 168.312C168.091 168.506 168.831 168.767 169.544 169.092C169.872 169.24 170.184 169.384 170.468 169.532C170.752 169.68 171.02 169.808 171.268 169.932C171.748 170.188 172.128 170.408 172.388 170.568L172.688 170.748C172.736 170.816 172.772 170.84 172.768 170.844Z" fill="#263238"/>
<path d="M158.14 169.08C158.218 169.089 158.293 169.11 158.364 169.144C158.562 169.216 158.756 169.3 158.944 169.396C160.196 170.033 161.232 171.027 161.92 172.252C162.023 172.437 162.114 172.628 162.192 172.824C162.227 172.894 162.252 172.968 162.268 173.044C162.248 173.044 162.116 172.752 161.84 172.3C161.481 171.714 161.05 171.177 160.556 170.7C160.058 170.23 159.501 169.827 158.9 169.5C158.44 169.22 158.132 169.1 158.14 169.08Z" fill="#263238"/>
<path d="M150.264 158.192L150.416 158.236L150.84 158.388L151.516 158.636C151.78 158.736 152.064 158.88 152.384 159.036C154.054 159.81 155.613 160.804 157.02 161.992C157.793 162.644 158.522 163.349 159.2 164.1C159.744 164.721 160.256 165.369 160.732 166.044C161.132 166.62 161.448 167.1 161.66 167.428L161.904 167.828C161.932 167.871 161.958 167.917 161.98 167.964C161.943 167.927 161.909 167.887 161.88 167.844C161.82 167.76 161.728 167.636 161.616 167.472C161.392 167.148 161.076 166.672 160.66 166.112C160.244 165.552 159.724 164.888 159.112 164.192C158.44 163.443 157.72 162.739 156.956 162.084C155.555 160.905 154.013 159.907 152.364 159.112C152.044 158.968 151.764 158.816 151.504 158.712L150.84 158.444L150.4 158.26C150.352 158.243 150.306 158.22 150.264 158.192Z" fill="#263238"/>
<path d="M167.528 160.3C167.432 160.299 167.337 160.287 167.244 160.264L166.92 160.204C166.792 160.18 166.644 160.176 166.48 160.16C165.636 160.088 164.789 160.256 164.036 160.644C163.622 160.859 163.246 161.139 162.92 161.472C162.648 161.738 162.408 162.035 162.204 162.356C162.019 162.655 161.856 162.966 161.716 163.288C161.726 163.193 161.75 163.1 161.788 163.012C161.878 162.767 161.992 162.531 162.128 162.308C162.326 161.974 162.563 161.665 162.836 161.388C163.166 161.042 163.551 160.753 163.976 160.532C164.748 160.129 165.623 159.969 166.488 160.072C166.652 160.096 166.804 160.1 166.932 160.132L167.256 160.216C167.349 160.234 167.441 160.262 167.528 160.3Z" fill="#263238"/>
<path d="M171.108 149.2C171.067 149.233 171.021 149.26 170.972 149.28L170.572 149.496C170.228 149.684 169.728 149.96 169.124 150.316C168.52 150.672 167.816 151.116 167.064 151.656C166.242 152.231 165.471 152.876 164.76 153.584C164.394 153.947 164.078 154.358 163.82 154.804C163.584 155.252 163.364 155.684 163.156 156.1C162.789 156.834 162.459 157.585 162.168 158.352C161.976 158.875 161.816 159.41 161.688 159.952C161.596 160.332 161.564 160.548 161.552 160.544C161.54 160.54 161.552 160.492 161.552 160.388C161.552 160.284 161.588 160.132 161.628 159.94C161.737 159.397 161.886 158.862 162.072 158.34C162.35 157.565 162.673 156.806 163.04 156.068C163.244 155.648 163.464 155.212 163.696 154.764C163.959 154.306 164.282 153.885 164.656 153.512C165.373 152.799 166.152 152.151 166.984 151.576C167.744 151.04 168.46 150.604 169.068 150.252C169.676 149.9 170.184 149.644 170.536 149.452L170.936 149.26C170.991 149.233 171.049 149.213 171.108 149.2Z" fill="#263238"/>
<path d="M161.124 159.98C161.092 159.882 161.067 159.782 161.052 159.68C161.012 159.46 160.96 159.184 160.896 158.856C160.728 157.952 160.503 157.06 160.224 156.184C159.936 155.312 159.597 154.457 159.208 153.624L158.86 152.86C158.812 152.77 158.775 152.675 158.748 152.576C158.811 152.657 158.863 152.746 158.904 152.84C159 153.012 159.132 153.268 159.304 153.584C160.142 155.236 160.716 157.01 161.004 158.84C161.06 159.192 161.1 159.476 161.12 159.672C161.131 159.774 161.133 159.878 161.124 159.98Z" fill="#263238"/>
<path d="M160.867 151.88C160.754 150.531 160.359 149.222 159.707 148.036C158.828 146.406 157.602 144.989 156.117 143.883C154.631 142.777 152.921 142.01 151.107 141.636L159.071 153.504L160.099 155.624C160.749 154.49 161.019 153.178 160.867 151.88Z" fill="#455A64"/>
<path d="M172.287 175.268H153.771V178.548H172.287V175.268Z" fill="#0C5DAC"/>
<path d="M155.156 177.9L156.732 188.08H169.024L170.904 177.9H155.156Z" fill="#0C5DAC"/>
<path d="M172.28 178.552C172.28 178.588 168.1 178.62 162.952 178.62C157.804 178.62 153.624 178.588 153.624 178.552C153.624 178.516 157.8 178.488 162.952 178.488C168.104 178.488 172.28 178.5 172.28 178.552Z" fill="#263238"/>
<path d="M57.2568 161.068H40.8328C37.8924 161.068 35.5088 163.452 35.5088 166.392V182.816C35.5088 185.756 37.8924 188.14 40.8328 188.14H57.2568C60.1972 188.14 62.5808 185.756 62.5808 182.816V166.392C62.5808 163.452 60.1972 161.068 57.2568 161.068Z" fill="#B5EB2E"/>
<g opacity="0.3">
<path d="M57.2568 161.068H40.8328C37.8924 161.068 35.5088 163.452 35.5088 166.392V182.816C35.5088 185.756 37.8924 188.14 40.8328 188.14H57.2568C60.1972 188.14 62.5808 185.756 62.5808 182.816V166.392C62.5808 163.452 60.1972 161.068 57.2568 161.068Z" fill="black"/>
</g>
<path d="M52.3964 161.068H35.9724C33.0321 161.068 30.6484 163.452 30.6484 166.392V182.816C30.6484 185.756 33.0321 188.14 35.9724 188.14H52.3964C55.3368 188.14 57.7204 185.756 57.7204 182.816V166.392C57.7204 163.452 55.3368 161.068 52.3964 161.068Z" fill="#B5EB2E"/>
<path d="M34.8369 174.996L37.5649 172.268L42.8249 176.944L51.6049 168.128L54.1369 170.852L42.4329 182.204L34.8369 174.996Z" fill="white"/>
<path d="M71.4722 170.824H60.7402C58.9221 170.824 57.4482 172.298 57.4482 174.116V184.848C57.4482 186.666 58.9221 188.14 60.7402 188.14H71.4722C73.2904 188.14 74.7642 186.666 74.7642 184.848V174.116C74.7642 172.298 73.2904 170.824 71.4722 170.824Z" fill="#263238"/>
<path d="M68.3648 170.824H57.6328C55.8147 170.824 54.3408 172.298 54.3408 174.116V184.848C54.3408 186.666 55.8147 188.14 57.6328 188.14H68.3648C70.1829 188.14 71.6568 186.666 71.6568 184.848V174.116C71.6568 172.298 70.1829 170.824 68.3648 170.824Z" fill="#455A64"/>
<path d="M57.0205 179.732L58.7645 177.988L62.1285 180.98L67.7485 175.34L69.3685 177.084L61.8805 184.344L57.0205 179.732Z" fill="white"/>
<path d="M114.276 13.9639H30.7081C29.1175 13.9639 27.8281 15.2533 27.8281 16.8439V133.396C27.8281 134.986 29.1175 136.276 30.7081 136.276H114.276C115.867 136.276 117.156 134.986 117.156 133.396V16.8439C117.156 15.2533 115.867 13.9639 114.276 13.9639Z" fill="white"/>
<path d="M114.276 136.276C114.637 136.269 114.993 136.198 115.328 136.064C115.741 135.898 116.109 135.636 116.4 135.3C116.808 134.842 117.06 134.266 117.12 133.656C117.14 130.856 117.12 126.76 117.12 121.468C117.12 110.884 117.1 95.5678 117.088 76.6438C117.088 67.1798 117.088 56.8158 117.088 45.6878C117.088 40.1251 117.088 34.3758 117.088 28.4398V17.1398C117.143 16.3815 116.896 15.6324 116.4 15.0558C116.159 14.7677 115.861 14.5318 115.526 14.3626C115.19 14.1934 114.823 14.0945 114.448 14.0718C113.684 14.0718 112.896 14.0718 112.116 14.0718H30.7081C30.2724 14.0732 29.8431 14.1762 29.4542 14.3727C29.0653 14.5693 28.7277 14.8538 28.4681 15.2038C28.2045 15.5565 28.0315 15.9686 27.9641 16.4038C27.9206 16.845 27.9072 17.2887 27.9241 17.7318V33.6998C27.9241 40.7318 27.9241 47.6558 27.9241 54.4718C27.9241 68.0718 27.9241 81.2238 27.9241 93.7358C27.9241 106.248 27.9241 118.136 27.9241 129.272V133.408C27.9305 134.075 28.1728 134.718 28.6081 135.224C29.0389 135.724 29.635 136.054 30.2881 136.152C30.6161 136.189 30.9463 136.203 31.2761 136.192H38.1641H53.0161L97.8401 136.224L110.028 136.244H97.8401L53.0161 136.28H31.2641C30.9264 136.292 30.5882 136.28 30.2521 136.244C29.5563 136.135 28.9218 135.783 28.4622 135.249C28.0027 134.716 27.7481 134.036 27.7441 133.332C27.7441 131.964 27.7441 130.585 27.7441 129.196C27.7441 118.064 27.7441 106.176 27.7441 93.6598C27.7441 81.1438 27.7441 68.0118 27.7441 54.3958V17.6998C27.7271 17.246 27.7418 16.7915 27.7881 16.3398C27.8622 15.877 28.0476 15.4392 28.3281 15.0638C28.6067 14.6903 28.9689 14.3872 29.3857 14.1788C29.8024 13.9704 30.2622 13.8625 30.7281 13.8638H112.136C112.936 13.8638 113.692 13.8638 114.48 13.8638C114.88 13.8898 115.271 13.9964 115.629 14.1772C115.988 14.358 116.305 14.6092 116.564 14.9158C117.076 15.5327 117.327 16.3247 117.264 17.1238V19.4198C117.264 22.4678 117.264 25.4731 117.264 28.4358C117.264 34.3638 117.264 40.1131 117.264 45.6838C117.264 56.8118 117.264 67.1758 117.264 76.6398C117.264 95.5638 117.236 110.88 117.228 121.464C117.228 126.76 117.228 130.864 117.196 133.656C117.135 134.276 116.875 134.859 116.456 135.32C116.158 135.652 115.785 135.909 115.368 136.068C115.112 136.169 114.843 136.231 114.568 136.252L114.276 136.276Z" fill="#263238"/>
<path d="M100.82 50.3438H61.2202C59.8284 50.3438 58.7002 51.472 58.7002 52.8638V53.1078C58.7002 54.4995 59.8284 55.6278 61.2202 55.6278H100.82C102.212 55.6278 103.34 54.4995 103.34 53.1078V52.8638C103.34 51.472 102.212 50.3438 100.82 50.3438Z" fill="#E0E0E0"/>
<path d="M51.8285 47.1919H43.7005C42.565 47.1919 41.6445 48.1124 41.6445 49.2479V57.3759C41.6445 58.5114 42.565 59.4319 43.7005 59.4319H51.8285C52.964 59.4319 53.8845 58.5114 53.8845 57.3759V49.2479C53.8845 48.1124 52.964 47.1919 51.8285 47.1919Z" fill="#0CA678"/>
<path d="M43.5361 53.4878L44.7721 52.2558L47.1481 54.3718L51.1201 50.3838L52.2641 51.6158L46.9721 56.7478L43.5361 53.4878Z" fill="white"/>
<path d="M100.82 69.3315H61.2202C59.8284 69.3315 58.7002 70.4598 58.7002 71.8515V72.0955C58.7002 73.4873 59.8284 74.6155 61.2202 74.6155H100.82C102.212 74.6155 103.34 73.4873 103.34 72.0955V71.8515C103.34 70.4598 102.212 69.3315 100.82 69.3315Z" fill="#E0E0E0"/>
<path d="M51.8285 66.1836H43.7005C42.565 66.1836 41.6445 67.1041 41.6445 68.2396V76.3676C41.6445 77.5031 42.565 78.4236 43.7005 78.4236H51.8285C52.964 78.4236 53.8845 77.5031 53.8845 76.3676V68.2396C53.8845 67.1041 52.964 66.1836 51.8285 66.1836Z" fill="#0CA678"/>
<path d="M43.5361 72.48L44.7721 71.248L47.1481 73.36L51.1201 69.376L52.2641 70.608L46.9721 75.74L43.5361 72.48Z" fill="white"/>
<path d="M100.82 88.3237H61.2202C59.8284 88.3237 58.7002 89.452 58.7002 90.8437V91.0877C58.7002 92.4795 59.8284 93.6077 61.2202 93.6077H100.82C102.212 93.6077 103.34 92.4795 103.34 91.0877V90.8437C103.34 89.452 102.212 88.3237 100.82 88.3237Z" fill="#E0E0E0"/>
<path d="M51.8285 85.1719H43.7005C42.565 85.1719 41.6445 86.0924 41.6445 87.2279V95.3559C41.6445 96.4914 42.565 97.4119 43.7005 97.4119H51.8285C52.964 97.4119 53.8845 96.4914 53.8845 95.3559V87.2279C53.8845 86.0924 52.964 85.1719 51.8285 85.1719Z" fill="#0CA678"/>
<path d="M43.5361 91.4678L44.7721 90.2358L47.1481 92.3518L51.1201 88.3638L52.2641 89.5958L46.9721 94.7278L43.5361 91.4678Z" fill="white"/>
<path d="M100.82 107.312H61.2202C59.8284 107.312 58.7002 108.44 58.7002 109.832V110.076C58.7002 111.468 59.8284 112.596 61.2202 112.596H100.82C102.212 112.596 103.34 111.468 103.34 110.076V109.832C103.34 108.44 102.212 107.312 100.82 107.312Z" fill="#E0E0E0"/>
<path d="M51.8285 104.164H43.7005C42.565 104.164 41.6445 105.084 41.6445 106.22V114.348C41.6445 115.483 42.565 116.404 43.7005 116.404H51.8285C52.964 116.404 53.8845 115.483 53.8845 114.348V106.22C53.8845 105.084 52.964 104.164 51.8285 104.164Z" fill="#0CA678"/>
<path d="M43.5361 110.46L44.7721 109.228L47.1481 111.34L51.1201 107.352L52.2641 108.588L46.9721 113.72L43.5361 110.46Z" fill="white"/>
<path d="M56.6453 39.2998L56.2293 37.9398H54.1493L53.7333 39.2998H52.4293L54.4453 33.5638H55.9253L57.9493 39.2998H56.6453ZM55.5253 35.5958C55.4986 35.5051 55.464 35.3905 55.4213 35.2518C55.3786 35.1131 55.336 34.9718 55.2933 34.8278C55.2506 34.6838 55.216 34.5585 55.1893 34.4518C55.1626 34.5585 55.1253 34.6918 55.0773 34.8518C55.0346 35.0065 54.992 35.1558 54.9493 35.2998C54.912 35.4385 54.8826 35.5371 54.8613 35.5958L54.4533 36.9238H55.9413L55.5253 35.5958ZM60.4967 33.5878C61.2327 33.5878 61.7687 33.7478 62.1047 34.0678C62.4461 34.3825 62.6167 34.8171 62.6167 35.3718C62.6167 35.6225 62.5794 35.8625 62.5047 36.0918C62.4301 36.3158 62.3047 36.5185 62.1287 36.6998C61.9581 36.8758 61.7314 37.0145 61.4487 37.1158C61.1661 37.2171 60.8167 37.2678 60.4007 37.2678H59.8807V39.2998H58.6727V33.5878H60.4967ZM60.4327 34.5798H59.8807V36.2758H60.2807C60.5101 36.2758 60.7074 36.2465 60.8727 36.1878C61.0381 36.1291 61.1661 36.0358 61.2567 35.9078C61.3474 35.7798 61.3927 35.6145 61.3927 35.4118C61.3927 35.1291 61.3154 34.9211 61.1607 34.7878C61.0061 34.6491 60.7634 34.5798 60.4327 34.5798ZM65.5202 33.5878C66.2562 33.5878 66.7922 33.7478 67.1282 34.0678C67.4695 34.3825 67.6402 34.8171 67.6402 35.3718C67.6402 35.6225 67.6028 35.8625 67.5282 36.0918C67.4535 36.3158 67.3282 36.5185 67.1522 36.6998C66.9815 36.8758 66.7548 37.0145 66.4722 37.1158C66.1895 37.2171 65.8402 37.2678 65.4242 37.2678H64.9042V39.2998H63.6962V33.5878H65.5202ZM65.4562 34.5798H64.9042V36.2758H65.3042C65.5335 36.2758 65.7308 36.2465 65.8962 36.1878C66.0615 36.1291 66.1895 36.0358 66.2802 35.9078C66.3708 35.7798 66.4162 35.6145 66.4162 35.4118C66.4162 35.1291 66.3388 34.9211 66.1842 34.7878C66.0295 34.6491 65.7868 34.5798 65.4562 34.5798ZM70.3836 33.5878C70.9009 33.5878 71.3276 33.6518 71.6636 33.7798C71.9996 33.9025 72.2503 34.0918 72.4156 34.3478C72.5809 34.5985 72.6636 34.9158 72.6636 35.2998C72.6636 35.5611 72.6129 35.7905 72.5116 35.9878C72.4156 36.1798 72.2849 36.3451 72.1196 36.4838C71.9596 36.6171 71.7863 36.7265 71.5996 36.8118L73.2796 39.2998H71.9356L70.5756 37.1078H69.9276V39.2998H68.7196V33.5878H70.3836ZM70.2956 34.5798H69.9276V36.1238H70.3196C70.5863 36.1238 70.8023 36.0945 70.9676 36.0358C71.1329 35.9771 71.2529 35.8891 71.3276 35.7718C71.4023 35.6491 71.4396 35.5025 71.4396 35.3318C71.4396 35.1505 71.3969 35.0065 71.3116 34.8998C71.2316 34.7878 71.1063 34.7078 70.9356 34.6598C70.7703 34.6065 70.5569 34.5798 70.2956 34.5798ZM79.1849 36.4358C79.1849 36.8785 79.1289 37.2811 79.0169 37.6438C78.9102 38.0011 78.7449 38.3105 78.5209 38.5718C78.3022 38.8331 78.0195 39.0331 77.6729 39.1718C77.3315 39.3105 76.9289 39.3798 76.4649 39.3798C76.0009 39.3798 75.5955 39.3105 75.2489 39.1718C74.9075 39.0278 74.6249 38.8278 74.4009 38.5718C74.1822 38.3105 74.0169 37.9985 73.9049 37.6358C73.7982 37.2731 73.7449 36.8705 73.7449 36.4278C73.7449 35.8358 73.8409 35.3211 74.0329 34.8838C74.2302 34.4465 74.5289 34.1078 74.9289 33.8678C75.3342 33.6225 75.8489 33.4998 76.4729 33.4998C77.0915 33.4998 77.6009 33.6225 78.0009 33.8678C78.4009 34.1078 78.6969 34.4491 78.8889 34.8918C79.0862 35.3291 79.1849 35.8438 79.1849 36.4358ZM75.0169 36.4358C75.0169 36.8358 75.0675 37.1798 75.1689 37.4678C75.2702 37.7558 75.4275 37.9771 75.6409 38.1318C75.8542 38.2865 76.1289 38.3638 76.4649 38.3638C76.8115 38.3638 77.0889 38.2865 77.2969 38.1318C77.5102 37.9771 77.6649 37.7558 77.7609 37.4678C77.8622 37.1798 77.9129 36.8358 77.9129 36.4358C77.9129 35.8331 77.8009 35.3611 77.5769 35.0198C77.3529 34.6785 76.9849 34.5078 76.4729 34.5078C76.1315 34.5078 75.8542 34.5851 75.6409 34.7398C75.4275 34.8945 75.2702 35.1158 75.1689 35.4038C75.0675 35.6918 75.0169 36.0358 75.0169 36.4358ZM84.7699 33.5878L82.8259 39.2998H81.5059L79.5699 33.5878H80.7939L81.8659 36.9878C81.8873 37.0465 81.9166 37.1558 81.9539 37.3158C81.9966 37.4705 82.0393 37.6358 82.0819 37.8118C82.1246 37.9825 82.1539 38.1265 82.1699 38.2438C82.1859 38.1265 82.2126 37.9825 82.2499 37.8118C82.2926 37.6358 82.3353 37.4705 82.3779 37.3158C82.4206 37.1558 82.4499 37.0465 82.4659 36.9878L83.5459 33.5878H84.7699ZM88.781 39.2998H85.493V33.5878H88.781V34.5798H86.701V35.8358H88.637V36.8278H86.701V38.2998H88.781V39.2998ZM94.7056 36.3878C94.7056 37.0278 94.5829 37.5638 94.3376 37.9958C94.0923 38.4278 93.7349 38.7531 93.2656 38.9718C92.8016 39.1905 92.2416 39.2998 91.5856 39.2998H89.9696V33.5878H91.7616C92.3589 33.5878 92.8763 33.6945 93.3136 33.9078C93.7563 34.1211 94.0976 34.4358 94.3376 34.8518C94.5829 35.2625 94.7056 35.7745 94.7056 36.3878ZM93.4496 36.4198C93.4496 35.9985 93.3883 35.6518 93.2656 35.3798C93.1429 35.1078 92.9589 34.9078 92.7136 34.7798C92.4736 34.6465 92.1776 34.5798 91.8256 34.5798H91.1776V38.2998H91.6976C92.2896 38.2998 92.7296 38.1425 93.0176 37.8278C93.3056 37.5131 93.4496 37.0438 93.4496 36.4198Z" fill="black"/>
<path d="M132.884 174.016L132.54 183.044C132.54 183.044 141.6 186.428 141.704 188.1L124.168 188.064L124.128 173.972L132.884 174.016Z" fill="#263238"/>
<path d="M127.12 182.272C126.954 182.323 126.813 182.432 126.722 182.579C126.631 182.727 126.596 182.902 126.624 183.072C126.667 183.243 126.775 183.389 126.924 183.482C127.073 183.575 127.252 183.608 127.424 183.572C127.602 183.518 127.754 183.4 127.85 183.24C127.946 183.081 127.979 182.891 127.944 182.708C127.879 182.536 127.75 182.395 127.583 182.316C127.417 182.236 127.227 182.223 127.052 182.28" fill="#E0E0E0"/>
<path d="M124.168 188.064L124.22 186.644L141.02 187.212C141.02 187.212 141.82 187.552 141.712 188.1L124.168 188.064Z" fill="#455A64"/>
<path d="M132.824 182.956C132.824 183.04 132.392 183.08 131.972 183.356C131.552 183.632 131.324 183.988 131.244 183.952C131.164 183.916 131.296 183.424 131.812 183.104C132.328 182.784 132.844 182.876 132.824 182.956Z" fill="white"/>
<path d="M134.66 183.72C134.68 183.804 134.312 183.948 134.02 184.308C133.728 184.668 133.644 185.056 133.556 185.052C133.468 185.048 133.42 184.564 133.788 184.12C134.156 183.676 134.66 183.64 134.66 183.72Z" fill="white"/>
<path d="M135.7 185.924C135.624 185.924 135.504 185.524 135.728 185.044C135.952 184.564 136.348 184.392 136.384 184.464C136.42 184.536 136.172 184.784 135.984 185.172C135.796 185.56 135.788 185.916 135.7 185.924Z" fill="white"/>
<path d="M132.676 180.9C132.64 180.98 132.244 180.86 131.76 180.9C131.276 180.94 130.9 181.084 130.856 181.012C130.812 180.94 131.176 180.612 131.744 180.612C132.312 180.612 132.716 180.824 132.676 180.9Z" fill="white"/>
<path d="M112.884 174.017L112.54 183.045C112.54 183.045 121.6 186.429 121.704 188.101L104.168 188.065L104.128 173.973L112.884 174.017Z" fill="#263238"/>
<path d="M107.12 182.272C106.954 182.323 106.813 182.432 106.722 182.579C106.631 182.727 106.596 182.902 106.624 183.072C106.667 183.243 106.775 183.389 106.924 183.482C107.073 183.575 107.252 183.608 107.424 183.572C107.602 183.518 107.754 183.4 107.85 183.24C107.946 183.081 107.979 182.891 107.944 182.708C107.879 182.536 107.75 182.395 107.583 182.316C107.417 182.236 107.227 182.223 107.052 182.28" fill="#E0E0E0"/>
<path d="M104.168 188.065L104.22 186.645L121.02 187.213C121.02 187.213 121.82 187.553 121.712 188.101L104.168 188.065Z" fill="#455A64"/>
<path d="M112.824 182.957C112.824 183.041 112.392 183.081 111.972 183.357C111.552 183.633 111.324 183.989 111.244 183.953C111.164 183.917 111.296 183.425 111.812 183.105C112.328 182.785 112.844 182.877 112.824 182.957Z" fill="white"/>
<path d="M114.66 183.72C114.68 183.804 114.312 183.948 114.02 184.308C113.728 184.668 113.644 185.056 113.556 185.052C113.468 185.048 113.42 184.564 113.788 184.12C114.156 183.676 114.66 183.64 114.66 183.72Z" fill="white"/>
<path d="M115.7 185.924C115.624 185.924 115.504 185.524 115.728 185.044C115.952 184.564 116.348 184.392 116.384 184.464C116.42 184.536 116.172 184.784 115.984 185.172C115.796 185.56 115.788 185.916 115.7 185.924Z" fill="white"/>
<path d="M112.676 180.9C112.64 180.98 112.244 180.86 111.76 180.9C111.276 180.94 110.9 181.084 110.856 181.012C110.812 180.94 111.176 180.612 111.744 180.612C112.312 180.612 112.716 180.824 112.676 180.9Z" fill="white"/>
<path d="M141.328 97.8884C142.174 101.629 142.46 105.475 142.176 109.3C142 111.732 133.8 178.86 133.8 178.86H122.744L125.852 115.768L124.948 115.964C124.948 115.964 118.912 142.872 118.42 147.228C117.98 151.144 112.888 179.596 112.888 179.596L102.8 179.7L106 142.1L109.756 105.992L111.2 95.4644L141.328 97.8884Z" fill="#263238"/>
<path d="M125.452 111.488C125.452 111.488 125.472 111.52 125.524 111.564C125.604 111.624 125.695 111.666 125.792 111.688C125.974 111.727 126.163 111.725 126.344 111.682C126.525 111.639 126.695 111.557 126.84 111.44C127.049 111.262 127.22 111.044 127.343 110.799C127.466 110.554 127.538 110.286 127.556 110.012C127.636 109.412 127.648 108.768 127.692 108.084C127.768 106.716 127.824 105.48 127.852 104.584C127.886 104.101 127.886 103.616 127.852 103.132C127.762 103.609 127.71 104.092 127.696 104.576C127.628 105.472 127.548 106.704 127.472 108.072C127.428 108.752 127.42 109.412 127.356 109.984C127.333 110.492 127.113 110.971 126.744 111.32C126.616 111.43 126.467 111.513 126.306 111.562C126.145 111.612 125.976 111.628 125.808 111.608C125.686 111.58 125.567 111.539 125.452 111.488Z" fill="#455A64"/>
<path d="M109.2 104.996C109.295 105.051 109.4 105.089 109.508 105.108C109.798 105.184 110.094 105.233 110.392 105.256C111.384 105.341 112.382 105.192 113.306 104.821C114.23 104.45 115.054 103.867 115.712 103.12C115.91 102.895 116.089 102.654 116.248 102.4C116.314 102.309 116.366 102.207 116.4 102.1C116.368 102.1 116.12 102.476 115.6 103.012C114.932 103.71 114.122 104.257 113.225 104.617C112.329 104.977 111.366 105.141 110.4 105.1C109.648 105.076 109.2 104.96 109.2 104.996Z" fill="#455A64"/>
<path d="M136.924 102.188C136.921 102.564 136.978 102.938 137.092 103.296C137.559 105.068 138.6 106.635 140.052 107.752C140.34 107.996 140.664 108.195 141.012 108.34C141.06 108.28 139.536 107.412 138.384 105.652C137.232 103.892 136.996 102.164 136.924 102.188Z" fill="#455A64"/>
<path d="M170.696 83.1962L173.232 83.9962L177.84 81.4482L180.456 88.7322L174.184 90.2242L169.432 89.7002L170.696 83.1962Z" fill="#AE7461"/>
<path d="M141.2 53.9561C141.2 53.9561 143.792 55.5121 145.94 60.8001C150.156 71.2001 152.808 76.8001 152.808 76.8001L172.152 82.9001L170.604 90.6601C170.604 90.6601 150.98 87.9241 148.352 86.9401C144.752 85.5921 142.088 78.5001 142.088 78.5001L141.2 53.9561Z" fill="#E0E0E0"/>
<path d="M135.864 30.6562C136.36 30.6746 136.847 30.5112 137.232 30.1969C137.617 29.8825 137.874 29.4387 137.955 28.9484C138.037 28.458 137.937 27.9548 137.674 27.533C137.411 27.1111 137.004 26.7994 136.528 26.6562C136.823 26.3215 137.006 25.902 137.05 25.4574C137.093 25.0129 136.996 24.5659 136.771 24.1801C136.546 23.7942 136.205 23.4891 135.796 23.3082C135.388 23.1273 134.933 23.0797 134.496 23.1722C134.455 22.7344 134.302 22.3145 134.051 21.9536C133.8 21.5926 133.459 21.3029 133.063 21.1128C132.666 20.9226 132.227 20.8384 131.789 20.8685C131.35 20.8985 130.927 21.0418 130.56 21.2842C130.045 20.9076 129.419 20.7137 128.781 20.7333C128.144 20.7528 127.531 20.9848 127.04 21.3922C126.609 21.3387 126.173 21.4242 125.795 21.6363C125.417 21.8484 125.116 22.1759 124.938 22.571C124.759 22.9661 124.711 23.408 124.801 23.8321C124.892 24.2562 125.115 24.6403 125.44 24.9282" fill="#263238"/>
<path d="M126.703 23.4163H127.151C129.327 23.3064 131.463 24.0202 133.136 25.4154C134.808 26.8106 135.894 28.7847 136.175 30.9443C136.719 35.1123 137.267 39.7203 137.351 41.9643C137.527 46.6123 132.915 47.5643 132.915 47.5643L133.587 53.1243L122.295 53.3363L120.295 33.1443C119.635 28.3243 121.883 23.9403 126.703 23.4163Z" fill="#AE7461"/>
<path d="M132.956 47.5401C130.805 47.6436 128.669 47.1301 126.8 46.0601C126.8 46.0601 128.4 49.3321 133.012 48.6841L132.956 47.5401Z" fill="#6F4439"/>
<path d="M134.504 35.2121C134.515 35.3847 134.458 35.5547 134.345 35.6856C134.232 35.8165 134.072 35.8978 133.9 35.9121C133.733 35.9301 133.565 35.8807 133.433 35.775C133.302 35.6692 133.218 35.5157 133.2 35.3481C133.191 35.1754 133.25 35.006 133.363 34.8755C133.476 34.7449 133.636 34.6634 133.808 34.6481C133.891 34.6393 133.975 34.6468 134.054 34.6704C134.134 34.694 134.209 34.7331 134.273 34.7855C134.338 34.8379 134.392 34.9026 134.431 34.9758C134.471 35.049 134.496 35.1293 134.504 35.2121Z" fill="#263238"/>
<path d="M135.292 33.2483C135.212 33.3403 134.692 32.9923 133.976 33.0283C133.26 33.0643 132.776 33.4483 132.676 33.3683C132.576 33.2883 132.712 33.1683 132.932 32.9923C133.23 32.7631 133.592 32.6318 133.968 32.6163C134.339 32.5964 134.708 32.6944 135.02 32.8963C135.248 33.0563 135.328 33.2083 135.292 33.2483Z" fill="#263238"/>
<path d="M128 35.3924C128.007 35.4794 127.996 35.5669 127.968 35.6497C127.941 35.7326 127.897 35.8091 127.84 35.875C127.783 35.9408 127.713 35.9946 127.634 36.0333C127.556 36.072 127.471 36.0948 127.384 36.1004C127.3 36.1115 127.215 36.1057 127.133 36.0832C127.051 36.0606 126.975 36.0219 126.908 35.9693C126.842 35.9167 126.787 35.8512 126.746 35.7769C126.706 35.7025 126.68 35.6207 126.672 35.5364C126.662 35.3641 126.719 35.1947 126.832 35.064C126.945 34.9333 127.104 34.8517 127.276 34.8364C127.36 34.8235 127.446 34.8278 127.529 34.849C127.612 34.8702 127.689 34.9079 127.757 34.9599C127.824 35.0118 127.881 35.0769 127.923 35.1512C127.964 35.2256 127.991 35.3076 128 35.3924Z" fill="#263238"/>
<path d="M128.28 33.7322C128.2 33.8202 127.68 33.4722 126.968 33.5122C126.256 33.5522 125.748 33.9122 125.664 33.8482C125.58 33.7842 125.7 33.6522 125.92 33.4722C126.218 33.243 126.58 33.1117 126.956 33.0962C127.328 33.0766 127.696 33.1761 128.008 33.3802C128.236 33.5362 128.316 33.7002 128.28 33.7322Z" fill="#263238"/>
<path d="M131.132 38.9003C131.503 38.7638 131.89 38.6738 132.284 38.6323C132.464 38.6043 132.636 38.5603 132.66 38.4363C132.665 38.2469 132.613 38.0603 132.512 37.9003C132.316 37.4683 132.112 37.0123 131.904 36.5403C131.056 34.6003 130.432 33.0003 130.512 32.9683C130.592 32.9363 131.34 34.4803 132.188 36.4203C132.392 36.8963 132.588 37.3523 132.772 37.7883C132.898 38.0026 132.945 38.2548 132.904 38.5003C132.881 38.566 132.843 38.6254 132.793 38.674C132.743 38.7226 132.682 38.7589 132.616 38.7803C132.516 38.8134 132.413 38.8336 132.308 38.8403C131.92 38.9103 131.525 38.9305 131.132 38.9003Z" fill="#263238"/>
<path d="M128.764 30.9523C128.676 31.1403 128.056 30.9723 127.3 30.9843C126.544 30.9963 125.92 31.1563 125.84 30.9843C125.808 30.8963 125.932 30.7243 126.196 30.5843C126.537 30.3904 126.923 30.2884 127.316 30.2883C127.702 30.2824 128.083 30.379 128.42 30.5683C128.68 30.6963 128.8 30.8643 128.764 30.9523Z" fill="#263238"/>
<path d="M135.2 30.3042C135.056 30.4722 134.46 30.3322 133.748 30.3602C133.036 30.3882 132.448 30.5362 132.3 30.3602C132.236 30.2802 132.32 30.1122 132.576 29.9602C132.928 29.7498 133.33 29.6379 133.74 29.6362C134.148 29.6174 134.553 29.7101 134.912 29.9042C135.152 30.0562 135.24 30.2202 135.2 30.3042Z" fill="#263238"/>
<path d="M135.624 28.8162C135.624 28.8162 134.252 25.9682 132.824 25.3602C131.084 24.6242 130.448 26.5242 128.824 26.1602C127.2 25.7962 125.52 25.0802 123.928 26.4122C122.188 27.8722 123.084 28.7882 123.072 30.8562C123.036 39.2362 121.628 41.6762 120.996 37.7602C120.928 37.3322 119.712 37.0482 119.444 35.2362C119.1 32.8842 118.864 30.0362 119.308 28.3162C119.684 26.8802 120.44 25.8642 121.832 24.7162C124.028 22.9042 127.16 22.7162 129.3 22.8202C131.44 22.9242 135.636 25.1642 135.624 28.8162Z" fill="#263238"/>
<path d="M121.264 37.6123C121.249 37.4419 121.201 37.2762 121.121 37.1252C121.041 36.9741 120.931 36.8409 120.797 36.7336C120.664 36.6262 120.511 36.5471 120.346 36.5008C120.182 36.4545 120.009 36.4421 119.84 36.4643C118.976 36.5883 118.04 37.1283 118.184 38.9163C118.444 42.0883 121.572 41.1723 121.572 41.0843C121.572 40.9963 121.384 38.9363 121.264 37.6123Z" fill="#AE7461"/>
<path d="M120.799 39.9444C120.799 39.9444 120.747 39.9884 120.659 40.0404C120.535 40.1024 120.393 40.1166 120.259 40.0804C119.911 39.9844 119.587 39.4764 119.523 38.9084C119.494 38.6382 119.525 38.3648 119.615 38.1084C119.637 38.0067 119.683 37.9118 119.749 37.8317C119.815 37.7516 119.9 37.6887 119.995 37.6484C120.058 37.627 120.125 37.6277 120.187 37.6503C120.249 37.6728 120.301 37.7159 120.335 37.7724C120.383 37.8604 120.367 37.9244 120.387 37.9284C120.407 37.9324 120.451 37.8684 120.415 37.7404C120.387 37.6646 120.337 37.5991 120.271 37.5524C120.226 37.5223 120.175 37.5018 120.121 37.4921C120.068 37.4825 120.012 37.4839 119.959 37.4964C119.831 37.5328 119.715 37.6016 119.621 37.6962C119.527 37.7907 119.459 37.9079 119.423 38.0364C119.311 38.3222 119.27 38.6311 119.303 38.9364C119.375 39.5724 119.751 40.1364 120.223 40.2404C120.31 40.2584 120.4 40.2563 120.486 40.2341C120.572 40.2119 120.652 40.1702 120.719 40.1124C120.799 40.0244 120.799 39.9524 120.799 39.9444Z" fill="#6F4439"/>
<path d="M121.02 31.4564C121.426 31.753 121.901 31.9428 122.4 32.0084C122.651 32.0333 122.902 31.9657 123.107 31.8185C123.312 31.6712 123.456 31.4543 123.512 31.2084C123.54 30.9844 123.472 30.7324 123.608 30.5524C123.744 30.3724 124.096 30.3884 124.364 30.4044C125.292 30.4564 126.32 29.3804 126.508 28.4724C126.638 28.6373 126.826 28.7467 127.034 28.7786C127.242 28.8105 127.454 28.7626 127.628 28.6444C127.912 28.45 128.159 28.2078 128.36 27.9284C128.475 27.7496 128.632 27.6016 128.818 27.4971C129.003 27.3925 129.211 27.3347 129.424 27.3284C129.651 27.3939 129.884 27.4328 130.12 27.4444C130.52 27.3884 130.716 26.8884 130.76 26.4724C130.804 26.0564 130.828 25.5684 131.16 25.3284C131.492 25.0884 131.908 25.2004 132.296 25.2404C132.684 25.2804 133.172 25.1644 133.252 24.7804C133.264 24.679 133.255 24.5762 133.225 24.4784C133.196 24.3807 133.146 24.2901 133.08 24.2124C132.802 23.8423 132.408 23.5764 131.962 23.4574C131.515 23.3384 131.041 23.3733 130.616 23.5564C130.426 23.0406 130.089 22.5919 129.647 22.2663C129.204 21.9406 128.675 21.7524 128.127 21.7251C127.578 21.6978 127.033 21.8327 126.56 22.1128C126.087 22.3929 125.708 22.8059 125.468 23.3004C125.115 23.0118 124.698 22.8125 124.252 22.7193C123.806 22.6261 123.344 22.6417 122.905 22.765C122.466 22.8882 122.064 23.1154 121.731 23.4272C121.399 23.739 121.147 24.1264 120.996 24.5564C120.602 24.4744 120.192 24.5099 119.818 24.6585C119.444 24.8071 119.121 25.0623 118.891 25.3925C118.661 25.7226 118.532 26.1131 118.522 26.5156C118.511 26.918 118.619 27.3147 118.832 27.6564C118.544 27.817 118.302 28.0481 118.129 28.328C117.955 28.608 117.856 28.9275 117.84 29.2564C117.84 29.9124 118.532 30.5364 119.16 30.3324C119.093 30.4664 119.052 30.6123 119.042 30.7617C119.031 30.9112 119.049 31.0614 119.097 31.2036C119.144 31.3459 119.218 31.4775 119.316 31.5909C119.415 31.7042 119.534 31.7972 119.668 31.8644C119.802 31.9317 119.948 31.9719 120.097 31.9827C120.247 31.9936 120.397 31.9749 120.539 31.9277C120.681 31.8806 120.813 31.8058 120.926 31.7078C121.04 31.6098 121.133 31.4904 121.2 31.3564" fill="#263238"/>
<path d="M130.899 24.5C130.899 24.5 130.899 24.52 130.899 24.56C130.899 24.6 130.899 24.656 130.899 24.732C130.866 24.9479 130.798 25.1571 130.699 25.352C130.542 25.6667 130.313 25.9406 130.031 26.152C129.663 26.4348 129.212 26.588 128.747 26.588L128.799 26.5C128.909 26.7846 128.901 27.1007 128.779 27.38C128.649 27.6686 128.479 27.9378 128.275 28.18C128.177 28.3251 128.063 28.4592 127.935 28.58C127.792 28.6906 127.623 28.7634 127.443 28.792C127.257 28.8283 127.065 28.8184 126.884 28.7634C126.703 28.7083 126.538 28.6096 126.403 28.476L126.519 28.436C126.492 28.7652 126.395 29.085 126.237 29.375C126.079 29.665 125.861 29.9187 125.599 30.12C125.309 30.3605 124.948 30.5008 124.571 30.52C124.219 30.5212 123.869 30.463 123.535 30.348L123.615 30.304C123.464 30.6905 123.217 31.0328 122.899 31.3C122.755 31.4366 122.582 31.5394 122.394 31.6009C122.205 31.6625 122.004 31.6813 121.807 31.656C121.473 31.6004 121.163 31.4491 120.913 31.2205C120.663 30.9919 120.485 30.6958 120.399 30.368L120.471 30.4C120.147 30.5942 119.765 30.6692 119.391 30.612C119.111 30.5758 118.844 30.4729 118.611 30.312C118.466 30.2103 118.339 30.0845 118.235 29.94C118.199 29.8911 118.169 29.8372 118.147 29.78C118.282 29.9709 118.45 30.1362 118.643 30.268C118.87 30.4164 119.13 30.5082 119.399 30.536C119.755 30.5836 120.115 30.5058 120.419 30.316L120.479 30.28V30.348C120.563 30.6556 120.733 30.9325 120.97 31.1454C121.207 31.3583 121.501 31.4981 121.815 31.548C121.995 31.5706 122.178 31.5521 122.35 31.4939C122.522 31.4357 122.678 31.3393 122.807 31.212C123.104 30.9499 123.33 30.6188 123.467 30.248L123.487 30.188H123.551C123.87 30.3 124.206 30.3568 124.543 30.356C124.891 30.3397 125.224 30.2105 125.491 29.988C125.742 29.7977 125.949 29.5569 126.1 29.2812C126.251 29.0056 126.342 28.7012 126.367 28.388V28.24L126.475 28.348C126.594 28.4658 126.739 28.5529 126.899 28.6017C127.058 28.6505 127.228 28.6595 127.391 28.628C127.551 28.6037 127.702 28.5405 127.831 28.444C127.949 28.3353 128.055 28.2146 128.147 28.084C128.35 27.8522 128.517 27.5921 128.643 27.312C128.702 27.1874 128.734 27.0523 128.739 26.9148C128.744 26.7774 128.721 26.6404 128.671 26.512L128.643 26.436H128.723C129.167 26.4406 129.599 26.3002 129.955 26.036C130.236 25.845 130.469 25.5935 130.639 25.3C130.772 25.0503 130.86 24.7797 130.899 24.5Z" fill="#455A64"/>
<path d="M131.099 41.3482C131.075 41.2282 130.299 41.4322 129.579 40.9162C128.859 40.4002 128.723 39.5522 128.615 39.5762C128.507 39.6002 128.511 39.7962 128.595 40.1482C128.709 40.6014 128.978 41.0005 129.355 41.2762C129.719 41.5406 130.17 41.6539 130.615 41.5922C130.947 41.5362 131.115 41.4002 131.099 41.3482Z" fill="#263238"/>
<path d="M149.952 70.7162C149.88 70.4642 145.744 59.2082 144.428 56.7442C142.848 53.7962 139.528 52.4922 137.468 52.3442C135.408 52.1962 113.368 53.9762 113.368 53.9762C113.368 53.9762 106.784 55.4482 105.944 61.1122C104.976 67.6322 104.132 82.5562 104.132 82.5562L114.164 77.4122L115.464 74.1402L136.224 78.7722L141.292 71.3002L149.952 70.7162Z" fill="#E0E0E0"/>
<path d="M111.911 54.6364L120.519 50.8404L121.483 47.1284L131.535 51.8804L133.639 49.5524L134.523 52.1764L136.723 52.8964L141.871 61.9484V81.2364L142.911 97.8764L141.779 100.5L132.559 101.86C131.551 102.008 130.527 102.008 129.519 101.86L110.799 98.8084L110.319 93.3004L112.319 78.1444L111.911 54.6364Z" fill="#E0E0E0"/>
<path d="M121.484 47.1284C121.484 47.1284 122.608 47.4524 125.484 48.9924C128.312 50.5004 131.524 51.8804 131.524 51.8804L131.28 56.4164L120.584 51.0484" fill="#E0E0E0"/>
<path d="M133.64 49.5522L131.536 51.8802L132.66 56.7442L134.536 52.3482" fill="#E0E0E0"/>
<g opacity="0.3">
<path d="M131.576 52.38C131.668 52.452 132.252 57.98 132.252 57.98L121.532 51.5L131.292 56.4L131.576 52.38Z" fill="black"/>
</g>
<path d="M131.503 73.0721C131.339 68.8321 132.007 58.0161 132.007 58.0161L133.407 57.7881C135.19 65.4886 136.393 73.3118 137.007 81.1921C137.407 86.3921 137.407 92.4521 137.407 92.4521L134.607 98.4761L131.503 92.4761C131.503 92.4761 131.699 78.2281 131.503 73.0721Z" fill="#455A64"/>
<path d="M111.271 55.3003C111.251 55.3203 111.559 55.5603 111.995 56.0083C113.128 57.1811 113.915 58.6444 114.267 60.2363C114.399 60.8443 114.431 61.2323 114.455 61.2283C114.47 61.1382 114.47 61.0464 114.455 60.9563C114.441 60.7079 114.41 60.4607 114.363 60.2163C114.221 59.4043 113.951 58.62 113.563 57.8923C113.173 57.1654 112.671 56.5041 112.075 55.9323C111.898 55.7591 111.708 55.5987 111.507 55.4523C111.435 55.3928 111.356 55.3418 111.271 55.3003Z" fill="#263238"/>
<path d="M131.504 54.0483L132.46 53.6763L133.368 55.2323L133.532 57.7883L132.252 57.9963L131.292 56.4163L131.504 54.0483Z" fill="#455A64"/>
<path d="M141.856 61.6562C141.816 61.6562 141.78 67.1922 141.78 74.0162C141.78 80.8402 141.816 86.3802 141.856 86.3802C141.896 86.3802 141.932 80.8482 141.932 74.0162C141.932 67.1842 141.896 61.6562 141.856 61.6562Z" fill="#263238"/>
<path d="M131.436 51.8404C131.601 52.1573 131.783 52.4657 131.98 52.7644C132.418 53.5038 132.818 54.2648 133.18 55.0444C133.216 55.1204 133.252 55.1924 133.284 55.2644L133.352 55.4084L133.42 55.2644C133.769 54.5299 134.067 53.7721 134.312 52.9964C134.404 52.7044 134.472 52.4644 134.512 52.2964C134.544 52.2122 134.56 52.1226 134.56 52.0324C134.54 52.0324 134.428 52.3884 134.216 52.9644C133.943 53.7249 133.632 54.4712 133.284 55.2004H133.42L133.316 54.9804C132.948 54.1953 132.527 53.4362 132.056 52.7084C131.872 52.4324 131.716 52.2124 131.604 52.0604C131.492 51.9084 131.444 51.8324 131.436 51.8404Z" fill="#263238"/>
<path d="M120.52 50.8403C120.565 50.8751 120.615 50.9046 120.668 50.9283L121.1 51.1563L122.7 51.9843C124.048 52.6843 125.9 53.6843 127.94 54.7843C129.184 55.4483 130.364 56.0643 131.392 56.5763L131.488 56.6243V56.5003C131.488 55.1683 131.512 54.0483 131.52 53.2363C131.52 52.8363 131.52 52.5483 131.52 52.3163C131.527 52.2071 131.527 52.0975 131.52 51.9883C131.501 52.0967 131.491 52.2064 131.492 52.3163C131.492 52.5443 131.472 52.8523 131.456 53.2323C131.436 54.0323 131.408 55.1683 131.372 56.4963L131.468 56.4403C130.448 55.9163 129.272 55.2963 128.024 54.6323C125.98 53.5403 124.124 52.5563 122.764 51.8763C122.084 51.5403 121.528 51.2723 121.144 51.0763L120.696 50.8763C120.639 50.8557 120.58 50.8436 120.52 50.8403Z" fill="#263238"/>
<path d="M140.564 54.3405C140.54 54.3405 140.708 54.6365 140.928 55.1405C141.206 55.7723 141.412 56.4339 141.54 57.1125C141.663 57.7932 141.705 58.4858 141.668 59.1765C141.64 59.7085 141.584 60.0325 141.608 60.0365C141.641 59.9655 141.664 59.8901 141.676 59.8125C141.719 59.605 141.751 59.3954 141.772 59.1845C141.915 57.778 141.654 56.3598 141.02 55.0965C140.928 54.9052 140.822 54.7207 140.704 54.5445C140.62 54.4005 140.572 54.3325 140.564 54.3405Z" fill="#263238"/>
<path d="M132.488 58.1604C132.488 58.1964 132.752 58.0804 133.028 57.9044C133.304 57.7284 133.516 57.5604 133.492 57.5244C133.294 57.5668 133.107 57.6544 132.948 57.7804C132.672 57.9564 132.464 58.1244 132.488 58.1604Z" fill="#263238"/>
<path d="M132.027 57.5364C132.286 57.1271 132.503 56.693 132.675 56.2404C132.892 55.8115 133.068 55.3628 133.199 54.9004C132.936 55.3062 132.717 55.7394 132.547 56.1924C132.328 56.6212 132.154 57.0716 132.027 57.5364Z" fill="#263238"/>
<path d="M110.148 55.5884C110.148 55.5884 106.832 57.9884 106.416 59.2964C106 60.6044 104.24 82.0524 103.928 84.6044C103.616 87.1564 103.304 91.9204 105.276 93.4764C107.248 95.0324 111.496 96.2004 111.496 96.2004L115.42 88.1004L113.34 83.7444L115.42 67.4644L110.148 55.5884Z" fill="#E0E0E0"/>
<path d="M110.548 95.9121C110.618 95.9052 110.689 95.9052 110.76 95.9121C110.964 95.911 111.169 95.8976 111.372 95.8721C112.133 95.8021 112.863 95.5376 113.492 95.1041C114.431 94.4074 115.137 93.4423 115.516 92.3361C116.028 90.9384 116.288 89.4608 116.284 87.9721L116.304 88.0281L113.256 83.8081L113.232 83.7761V83.7361C113.232 83.6281 113.26 83.5081 113.276 83.3921C113.86 78.8281 114.392 74.6921 114.78 71.6801C114.972 70.1961 115.128 68.9881 115.24 68.1321C115.292 67.7321 115.332 67.4041 115.364 67.1641C115.396 66.9241 115.408 66.8281 115.412 66.8281C115.419 66.8571 115.419 66.8872 115.412 66.9161C115.412 66.9721 115.412 67.0601 115.412 67.1681C115.388 67.4081 115.36 67.7321 115.324 68.1401C115.24 68.9801 115.104 70.1961 114.924 71.6961C114.572 74.7001 114.064 78.8441 113.48 83.4201C113.48 83.5361 113.452 83.6521 113.436 83.7601V83.6881L116.472 87.9121V87.9401V87.9681C116.471 89.48 116.2 90.9796 115.672 92.3961C115.269 93.5227 114.532 94.4995 113.56 95.1961C113.193 95.4468 112.788 95.6347 112.36 95.7521L112.088 95.8281L111.832 95.8721C111.684 95.9019 111.534 95.9193 111.384 95.9241C111.179 95.9417 110.973 95.9417 110.768 95.9241C110.694 95.9276 110.621 95.9236 110.548 95.9121Z" fill="#263238"/>
<path d="M106.539 85.2362C106.795 84.9845 107.09 84.7752 107.411 84.6162C108.928 83.768 110.676 83.4273 112.399 83.6442C112.757 83.6728 113.108 83.7564 113.439 83.8922C111.047 83.4827 108.588 83.9606 106.523 85.2362H106.539Z" fill="#263238"/>
<path d="M132.568 63.8924C132.568 63.8924 132.76 64.6044 133.06 65.8604C133.741 64.8819 134.612 64.0495 135.62 63.4124C135.62 63.4124 140.74 58.3244 142.376 52.9764C143.576 49.0924 143.268 44.7884 143.268 44.7884C143.22 44.5844 142.82 42.7604 142.496 41.2684C142.368 40.6805 142.472 40.0659 142.786 39.553C143.101 39.0402 143.602 38.6687 144.184 38.5164C146.716 37.8324 153.6 36.5004 155.2 41.1164C157.556 48.0164 153.744 55.4684 153.788 57.6004C153.788 58.0004 153.788 58.3324 153.788 58.5964C155.808 58.1284 157.388 57.7964 157.388 57.8284L170.644 54.7364C170.644 54.7364 175.024 53.4084 176.528 57.9004C178.032 62.3924 172.928 63.9004 172.928 63.9004C172.928 63.9004 175.328 63.7924 175.976 67.8764C176.624 71.9604 172.244 73.2844 172.244 73.2844C172.244 73.2844 174.928 73.1124 175.624 76.7324C176.3 80.2564 171.92 82.3804 171.684 82.4924C172.031 82.4053 172.384 82.3385 172.74 82.2924C172.479 82.3882 172.211 82.4657 171.94 82.5244C173.984 82.7844 174.28 85.2164 174.28 85.2164C175.596 90.2044 171.756 91.2524 171.756 91.2524L147.54 96.9004C145.127 97.4627 142.609 97.3715 140.244 96.6364C140.476 97.6684 140.6 98.2364 140.592 98.2364L123.684 102.184C123.648 102.184 121.824 94.5084 119.608 85.0284C117.392 75.5484 115.628 67.8284 115.664 67.8284L132.568 63.8924Z" fill="#0CA678"/>
<g opacity="0.3">
<path d="M132.568 63.8924C132.568 63.8924 132.76 64.6044 133.06 65.8604C133.741 64.8819 134.612 64.0495 135.62 63.4124C135.62 63.4124 140.74 58.3244 142.376 52.9764C143.576 49.0924 143.268 44.7884 143.268 44.7884C143.22 44.5844 142.82 42.7604 142.496 41.2684C142.368 40.6805 142.472 40.0659 142.786 39.553C143.101 39.0402 143.602 38.6687 144.184 38.5164C146.716 37.8324 153.6 36.5004 155.2 41.1164C157.556 48.0164 153.744 55.4684 153.788 57.6004C153.788 58.0004 153.788 58.3324 153.788 58.5964C155.808 58.1284 157.388 57.7964 157.388 57.8284L170.644 54.7364C170.644 54.7364 175.024 53.4084 176.528 57.9004C178.032 62.3924 172.928 63.9004 172.928 63.9004C172.928 63.9004 175.328 63.7924 175.976 67.8764C176.624 71.9604 172.244 73.2844 172.244 73.2844C172.244 73.2844 174.928 73.1124 175.624 76.7324C176.3 80.2564 171.92 82.3804 171.684 82.4924C172.031 82.4053 172.384 82.3385 172.74 82.2924C172.479 82.3882 172.211 82.4657 171.94 82.5244C173.984 82.7844 174.28 85.2164 174.28 85.2164C175.596 90.2044 171.756 91.2524 171.756 91.2524L147.54 96.9004C145.127 97.4627 142.609 97.3715 140.244 96.6364C140.476 97.6684 140.6 98.2364 140.592 98.2364L123.684 102.184C123.648 102.184 121.824 94.5084 119.608 85.0284C117.392 75.5484 115.628 67.8284 115.664 67.8284L132.568 63.8924Z" fill="black"/>
</g>
<path d="M135.836 68.7084L135.508 70.9084L140.916 94.0484C142.499 95.0998 144.281 95.8161 146.151 96.1532C148.022 96.4903 149.941 96.441 151.792 96.0084L176 90.3564C176 90.3564 179.84 89.3084 178.524 84.3204C178.524 84.3204 178.208 81.6724 175.924 81.6004C175.924 81.6004 180.564 79.4564 179.872 75.8364C179.18 72.2164 176.496 72.3924 176.496 72.3924C176.496 72.3924 180.876 71.0644 180.224 66.9804C179.572 62.8964 177.176 63.0044 177.176 63.0044C177.176 63.0044 182.276 61.5124 180.776 57.0044C179.276 52.4964 174.892 53.8404 174.892 53.8404L157.692 57.8404L142.604 61.3644C140.868 61.7651 139.293 62.6805 138.085 63.9908C136.878 65.3011 136.094 66.9453 135.836 68.7084Z" fill="#0CA678"/>
<path d="M139.859 62.5361C139.859 62.5361 144.979 57.4481 146.615 52.1001C147.815 48.2161 147.507 43.9161 147.507 43.9161C147.459 43.7081 147.059 41.8842 146.735 40.3921C146.607 39.8043 146.712 39.1897 147.026 38.6768C147.341 38.164 147.841 37.7925 148.423 37.6401C150.967 36.9521 155.555 38.2161 157.135 42.8401C159.491 49.7361 157.979 54.5882 158.019 56.7201L158.059 58.8521L139.859 62.5361Z" fill="#0CA678"/>
<path d="M136.823 62.9978L119.918 66.9473L127.942 101.294L144.847 97.3449L136.823 62.9978Z" fill="#0CA678"/>
<path d="M144.844 97.36C144.88 97.36 143.116 89.656 140.9 80.16C138.684 70.664 136.86 62.992 136.824 63C136.788 63.008 138.552 70.704 140.768 80.2C142.984 89.696 144.8 97.368 144.844 97.36Z" fill="#263238"/>
<path d="M127.94 101.3C127.976 101.3 126.208 93.5964 123.992 84.1004C121.776 74.6044 119.952 66.9324 119.916 66.9404C119.88 66.9484 121.644 74.6444 123.86 84.1404C126.076 93.6364 127.9 101.3 127.94 101.3Z" fill="#263238"/>
<path d="M132.692 72.2681C132.838 72.8936 132.796 73.5483 132.569 74.1495C132.343 74.7507 131.944 75.2714 131.422 75.6457C130.9 76.0201 130.279 76.2313 129.637 76.2527C128.995 76.2741 128.362 76.1046 127.816 75.7659C127.27 75.4271 126.837 74.9341 126.572 74.3493C126.306 73.7645 126.22 73.114 126.324 72.4802C126.428 71.8465 126.718 71.2577 127.156 70.7885C127.595 70.3193 128.163 69.9907 128.788 69.8441C129.627 69.6486 130.51 69.794 131.242 70.2485C131.974 70.703 132.495 71.4294 132.692 72.2681Z" fill="white"/>
<path d="M161.632 56.9481C161.632 56.9121 159.772 57.3121 157.5 57.8441C155.228 58.3761 153.388 58.8321 153.396 58.8681C153.404 58.9041 155.256 58.5041 157.528 57.9761C159.8 57.4481 161.64 56.9841 161.632 56.9481Z" fill="#263238"/>
<path d="M176.872 72.4722C176.872 72.4362 175.672 72.6842 174.224 73.0202C173.338 73.2004 172.462 73.4274 171.6 73.7002C171.6 73.7362 172.8 73.4882 174.248 73.1522C175.133 72.9698 176.009 72.7429 176.872 72.4722Z" fill="#263238"/>
<path d="M177.488 62.8403C177.488 62.8043 175.8 63.1683 173.736 63.6403C171.672 64.1123 170.008 64.5403 170.016 64.5803C170.024 64.6203 171.704 64.2523 173.768 63.7803C175.832 63.3083 177.496 62.9003 177.488 62.8403Z" fill="#263238"/>
<path d="M176.988 81.396C176.988 81.36 175.3 81.72 173.236 82.196C171.172 82.672 169.508 83.096 169.516 83.132C169.524 83.168 171.204 82.808 173.268 82.332C175.332 81.856 176.996 81.432 176.988 81.396Z" fill="#263238"/>
<g opacity="0.3">
<path d="M148.568 39.3403C148.328 39.6071 148.164 39.9336 148.094 40.2855C148.023 40.6374 148.049 41.0017 148.168 41.3403C148.421 42.0142 148.73 42.6658 149.092 43.2883C149.786 44.7347 149.986 46.3693 149.66 47.9403C149.56 48.4163 149.428 48.9643 149.732 49.3443C150.164 49.8803 151.032 49.5843 151.58 49.1643C152.599 48.3456 153.366 47.2545 153.791 46.0177C154.216 44.7808 154.281 43.4488 153.98 42.1763C153.742 41.0928 153.14 40.1232 152.276 39.4283C151.392 38.7723 150.036 38.1803 148.536 39.3283" fill="white"/>
</g>
<g opacity="0.3">
<path d="M176.468 54.4521C175.866 54.3833 175.255 54.4474 174.68 54.6401L164.464 57.2321C163.352 57.5161 161.264 57.7681 161.24 58.9041C161.016 59.5241 161.488 60.2281 162.096 60.4801C162.729 60.6843 163.406 60.7092 164.052 60.5521C165.416 60.3361 166.764 60.0161 168.112 59.6961C170.816 59.0481 173.528 58.3841 176.112 57.2961C176.501 57.1556 176.863 56.9514 177.184 56.6921C177.344 56.5607 177.473 56.3952 177.561 56.2076C177.649 56.0201 177.694 55.8152 177.692 55.6081C177.637 55.3106 177.489 55.0383 177.269 54.8305C177.049 54.6227 176.768 54.4902 176.468 54.4521Z" fill="white"/>
</g>
<path d="M133.064 64.9002C133.064 64.8642 130.664 65.3882 127.772 66.0682C124.88 66.7482 122.504 67.3282 122.512 67.3642C122.52 67.4002 124.888 66.8802 127.804 66.2002C130.72 65.5202 133.072 64.9562 133.064 64.9002Z" fill="white"/>
<path d="M178.672 68.8085C178.703 68.7456 178.725 68.6781 178.736 68.6085C178.785 68.4228 178.815 68.2324 178.824 68.0405C178.843 67.7562 178.834 67.4708 178.796 67.1885C178.741 66.8424 178.65 66.5031 178.524 66.1765C178.391 65.8518 178.222 65.5432 178.02 65.2565C177.854 65.0234 177.663 64.8089 177.452 64.6165C177.311 64.4859 177.159 64.3693 176.996 64.2685C176.94 64.2247 176.878 64.1909 176.812 64.1685C176.812 64.1925 177.048 64.3525 177.388 64.6885C177.583 64.8846 177.76 65.0989 177.916 65.3285C178.106 65.61 178.266 65.9102 178.396 66.2245C178.518 66.5416 178.611 66.8698 178.672 67.2045C178.714 67.4797 178.732 67.758 178.728 68.0365C178.716 68.5005 178.644 68.8005 178.672 68.8085Z" fill="white"/>
<path d="M179.14 59.5242C179.279 59.3982 179.389 59.2423 179.46 59.0682C179.655 58.6585 179.741 58.2049 179.708 57.7522C179.683 57.3 179.546 56.8612 179.308 56.4762C179.213 56.3166 179.085 56.1799 178.932 56.0762C178.912 56.0762 179.06 56.2442 179.224 56.5362C179.437 56.9139 179.561 57.3352 179.588 57.7682C179.616 58.2005 179.548 58.6337 179.388 59.0362C179.248 59.3362 179.12 59.5082 179.14 59.5242Z" fill="white"/>
<path d="M177.864 78.8085C178.048 78.6967 178.202 78.5432 178.316 78.3604C178.622 77.9304 178.772 77.4084 178.74 76.8813C178.708 76.3543 178.496 75.8542 178.14 75.4645C178.006 75.2929 177.833 75.1558 177.636 75.0645C177.636 75.0645 177.828 75.2204 178.068 75.5164C178.38 75.9065 178.567 76.3821 178.604 76.8805C178.629 77.3803 178.501 77.876 178.236 78.3005C178.036 78.6325 177.844 78.7925 177.864 78.8085Z" fill="white"/>
<path d="M176.328 87.7683C176.461 87.6305 176.564 87.4672 176.632 87.2883C176.82 86.8622 176.908 86.3983 176.888 85.9328C176.868 85.4672 176.74 85.0126 176.516 84.6043C176.433 84.4319 176.316 84.2782 176.172 84.1523C176.152 84.1523 176.284 84.3363 176.432 84.6483C176.622 85.0527 176.73 85.4902 176.752 85.9363C176.77 86.3831 176.699 86.8291 176.544 87.2483C176.424 87.5723 176.308 87.7563 176.328 87.7683Z" fill="white"/>
<path d="M157.324 50.952C157.369 50.8219 157.402 50.6881 157.424 50.552C157.452 50.428 157.484 50.272 157.512 50.088C157.54 49.904 157.576 49.688 157.592 49.464C157.651 48.9222 157.671 48.3768 157.652 47.832C157.612 46.492 157.357 45.167 156.896 43.908C156.708 43.3957 156.485 42.8972 156.228 42.416C156.124 42.204 156.012 42.016 155.92 41.868C155.828 41.72 155.74 41.576 155.664 41.468C155.595 41.3522 155.515 41.2437 155.424 41.144C155.479 41.2666 155.545 41.3843 155.62 41.496C155.688 41.608 155.768 41.744 155.852 41.896C155.936 42.048 156.048 42.24 156.144 42.452C156.384 42.9364 156.595 43.4346 156.776 43.944C156.993 44.5689 157.168 45.2077 157.3 45.856C157.419 46.5077 157.495 47.1665 157.528 47.828C157.55 48.3615 157.539 48.8959 157.496 49.428C157.496 49.66 157.456 49.868 157.436 50.048C157.416 50.228 157.392 50.388 157.372 50.516C157.34 50.6591 157.323 50.8054 157.324 50.952Z" fill="white"/>
<path d="M118.724 91.48C118.724 91.48 120.052 90.448 121.04 90.408C122.028 90.368 123.312 90.748 123.568 90.62C123.824 90.492 124.428 89.928 124.812 90.404C125.196 90.88 125.672 92.592 123.612 93.064H122.196C122.196 93.064 122.368 94.48 122.712 95.036C123.056 95.592 127.86 101.64 127.86 101.64C127.86 101.64 128.46 102.244 128.16 102.84C127.86 103.436 126.56 103.096 126.56 103.096C126.56 103.096 125.66 103.896 124.632 103.524C124.121 103.352 123.632 103.122 123.172 102.84C122.84 103.094 122.433 103.232 122.014 103.232C121.596 103.232 121.189 103.094 120.856 102.84C119.656 101.94 115.656 96.92 115.656 96.92L117.088 91.32L118.724 91.48Z" fill="#AE7461"/>
<path d="M114.556 88.1602L118.724 91.4802L115.664 96.9242L109.56 94.7082C109.56 94.7082 109.736 88.2762 114.556 88.1602Z" fill="#AE7461"/>
<path d="M179.567 80.7442C179.567 80.7442 179.435 79.2522 178.599 79.5442C177.763 79.8362 177.399 81.6082 177.399 81.6082L179.567 80.7442Z" fill="#AE7461"/>
<path d="M176.58 82.2164C176.58 82.2164 178.032 80.5924 180.048 80.7244C182.064 80.8564 180.796 82.5684 180.796 82.5684C180.796 82.5684 182.292 83.4884 181.196 84.8084L181.02 85.1604C181.02 85.1604 182.292 85.6404 180.976 87.0004C181.109 87.2439 181.164 87.5226 181.133 87.7984C181.101 88.0741 180.985 88.3333 180.8 88.5404C180.14 89.1964 178.496 88.3204 178.496 88.3204C178.496 88.3204 176.98 88.6724 176.848 88.0564C176.795 87.85 176.8 87.633 176.862 87.4292C176.924 87.2253 177.041 87.0424 177.2 86.9004C177.332 86.8124 178.124 86.5004 178.124 86.5004C178.124 86.5004 176.368 86.7204 176.324 86.2804C176.28 85.8404 176.104 85.3564 177.42 84.9204L178.124 84.7324C178.124 84.7324 176.3 84.7884 176.288 84.3324C176.276 83.8764 176.192 83.7164 176.848 83.4124C177.263 83.2199 177.664 82.9994 178.048 82.7524C178.048 82.7524 176.32 83.1404 176.58 82.2164Z" fill="#AE7461"/>
<path d="M176.26 83.9322C176.918 83.4446 177.651 83.0688 178.432 82.8202C179.227 82.6251 180.048 82.5603 180.864 82.6282C180.636 82.5339 180.394 82.4824 180.148 82.4762C178.95 82.3731 177.755 82.7101 176.788 83.4242C176.58 83.557 176.4 83.7296 176.26 83.9322Z" fill="#6F4439"/>
<path d="M176.46 86.4403C176.46 86.4403 176.42 86.3843 176.376 86.2843C176.325 86.1365 176.325 85.976 176.376 85.8283C176.443 85.6044 176.584 85.4099 176.776 85.2763C177.019 85.1161 177.291 85.0035 177.576 84.9443C178.338 84.8059 179.107 84.7124 179.88 84.6643C179.656 84.6021 179.424 84.5764 179.192 84.5883C178.635 84.5837 178.079 84.6441 177.536 84.7683C177.227 84.8332 176.934 84.9612 176.676 85.1443C176.461 85.3035 176.31 85.535 176.252 85.7963C176.227 85.8826 176.22 85.973 176.23 86.0623C176.24 86.1515 176.268 86.2379 176.312 86.3163C176.4 86.4243 176.456 86.4483 176.46 86.4403Z" fill="#6F4439"/>
<path d="M177.2 88.3724C177.2 88.3724 177.136 88.3324 177.048 88.2484C176.973 88.1763 176.914 88.0892 176.875 87.9929C176.837 87.8967 176.819 87.7933 176.822 87.6895C176.826 87.5858 176.852 87.484 176.897 87.3908C176.943 87.2976 177.008 87.215 177.088 87.1484C177.351 86.9704 177.641 86.8354 177.948 86.7484C178.526 86.6286 179.12 86.5976 179.708 86.6564C179.957 86.6889 180.211 86.6754 180.456 86.6164C180.211 86.5707 179.964 86.5413 179.716 86.5284C179.111 86.4304 178.494 86.4467 177.896 86.5764C177.567 86.6704 177.257 86.8206 176.98 87.0204C176.854 87.1242 176.763 87.2638 176.72 87.4204C176.692 87.5524 176.692 87.6885 176.72 87.8204C176.735 87.9169 176.77 88.0094 176.821 88.0925C176.873 88.1755 176.94 88.2476 177.02 88.3044C177.12 88.3804 177.2 88.3804 177.2 88.3724Z" fill="#6F4439"/>
<path d="M176.556 82.2882C176.556 82.2882 176.592 82.2322 176.684 82.1482C176.812 82.0331 176.945 81.925 177.084 81.8242C177.538 81.4854 178.039 81.2158 178.572 81.0242C179.1 80.8238 179.665 80.7419 180.228 80.7842C180.457 80.8359 180.682 80.9 180.904 80.9762C180.725 80.8062 180.497 80.6958 180.252 80.6602C179.668 80.5741 179.071 80.6402 178.52 80.8522C177.2 81.3242 176.448 82.2282 176.556 82.2882Z" fill="#6F4439"/>
</svg>
