<svg width="200" height="200" viewBox="0 0 200 200" fill="none" xmlns="http://www.w3.org/2000/svg">
<path d="M38.5518 162.2V165.208H61.0718V162.2H38.5518Z" fill="#E0E0E0"/>
<path d="M41.6235 162.32C41.6995 162.32 41.7635 162.952 41.7635 163.732C41.7635 164.512 41.6995 165.14 41.6235 165.14C41.5475 165.14 41.4795 164.508 41.4795 163.732C41.4795 162.956 41.5435 162.32 41.6235 162.32Z" fill="#FAFAFA"/>
<path d="M41.1312 162.26C41.2112 162.26 41.2712 162.892 41.2712 163.668C41.2712 164.444 41.2112 165.08 41.1312 165.08C41.0512 165.08 40.9912 164.448 40.9912 163.668C40.9912 162.888 41.0512 162.26 41.1312 162.26Z" fill="#FAFAFA"/>
<path d="M59.3314 162.32C59.4114 162.32 59.4754 162.952 59.4754 163.732C59.4754 164.512 59.4114 165.14 59.3314 165.14C59.2514 165.14 59.1914 164.508 59.1914 163.732C59.1914 162.956 59.2554 162.32 59.3314 162.32Z" fill="#FAFAFA"/>
<path d="M58.8432 162.26C58.9192 162.26 58.9832 162.892 58.9832 163.668C58.9832 164.444 58.9192 165.08 58.8432 165.08C58.7672 165.08 58.6992 164.448 58.6992 163.668C58.6992 162.888 58.7632 162.26 58.8432 162.26Z" fill="#FAFAFA"/>
<path d="M55.8999 163.792C55.8999 163.872 53.3199 163.932 50.1399 163.932C46.9599 163.932 44.3799 163.872 44.3799 163.792C44.3799 163.712 46.9599 163.652 50.1399 163.652C53.3199 163.652 55.8999 163.712 55.8999 163.792Z" fill="#FAFAFA"/>
<path d="M38.4551 175.744V181.76H60.9751V175.744H38.4551Z" fill="#E0E0E0"/>
<path d="M61.2638 180.068C61.2638 180.068 61.2278 180.096 61.1438 180.136C61.0598 180.176 60.9358 180.236 60.7678 180.308C60.2783 180.515 59.7651 180.662 59.2398 180.744C58.3981 180.897 57.5296 180.773 56.7638 180.392C56.2901 180.14 55.8861 179.774 55.5878 179.328C55.2454 178.82 55.1029 178.203 55.1878 177.596C55.237 177.266 55.3753 176.957 55.5878 176.7C55.7016 176.559 55.8465 176.447 56.011 176.372C56.1755 176.297 56.3551 176.262 56.5358 176.268C56.7218 176.283 56.9026 176.336 57.0671 176.425C57.2315 176.513 57.3761 176.634 57.4918 176.78C57.7381 177.07 57.8902 177.429 57.9278 177.808C57.9585 178.198 57.9051 178.59 57.7712 178.958C57.6374 179.326 57.4261 179.661 57.1518 179.94C56.5819 180.543 55.8134 180.919 54.9878 181C54.1377 181.082 53.2801 180.975 52.4758 180.688C51.6163 180.419 50.8534 179.906 50.2798 179.212C49.984 178.839 49.8058 178.386 49.7678 177.912C49.7439 177.665 49.7745 177.416 49.8574 177.183C49.9404 176.949 50.0736 176.736 50.2478 176.56C50.4384 176.377 50.688 176.268 50.9518 176.252C51.2126 176.245 51.4693 176.317 51.6878 176.46C52.1099 176.736 52.4071 177.167 52.5158 177.66C52.61 178.141 52.5777 178.638 52.422 179.103C52.2664 179.568 51.9927 179.985 51.6278 180.312C50.9129 180.915 50.025 181.277 49.0918 181.344C48.2073 181.446 47.3113 181.357 46.4638 181.084C45.632 180.822 44.9221 180.27 44.4638 179.528C44.2359 179.176 44.0947 178.775 44.0516 178.358C44.0085 177.941 44.0647 177.519 44.2158 177.128C44.2906 176.932 44.4139 176.758 44.574 176.622C44.7342 176.486 44.9261 176.393 45.1318 176.352C45.3297 176.316 45.5328 176.322 45.7283 176.369C45.9238 176.416 46.1075 176.503 46.2678 176.624C46.5486 176.87 46.7495 177.195 46.8449 177.556C46.9404 177.917 46.9261 178.299 46.8038 178.652C46.5849 179.282 46.1908 179.837 45.6678 180.252C44.8015 180.986 43.7143 181.408 42.5798 181.452C41.8893 181.476 41.2013 181.356 40.5604 181.097C39.9196 180.839 39.3402 180.449 38.8598 179.952C38.7636 179.853 38.6728 179.749 38.5878 179.64C38.5578 179.604 38.531 179.565 38.5078 179.524C38.9833 180.049 39.5515 180.481 40.1838 180.8C40.9289 181.166 41.7547 181.337 42.5838 181.296C43.6783 181.234 44.7217 180.812 45.5518 180.096C46.0391 179.701 46.4051 179.177 46.6078 178.584C46.7138 178.275 46.7259 177.941 46.6426 177.625C46.5593 177.309 46.3844 177.025 46.1398 176.808C46.0054 176.708 45.852 176.636 45.689 176.598C45.5259 176.559 45.3568 176.555 45.1918 176.584C45.0246 176.619 44.869 176.696 44.7401 176.808C44.6112 176.92 44.5133 177.063 44.4558 177.224C44.3243 177.577 44.2779 177.957 44.3203 178.331C44.3627 178.706 44.4927 179.065 44.6998 179.38C45.1293 180.065 45.7908 180.574 46.5638 180.812C47.3747 181.069 48.2309 181.151 49.0758 181.052C49.9491 180.987 50.7801 180.65 51.4518 180.088C51.7813 179.791 52.0282 179.414 52.1684 178.993C52.3086 178.573 52.3374 178.123 52.2518 177.688C52.1616 177.265 51.9106 176.893 51.5518 176.652C51.39 176.532 51.1912 176.473 50.9902 176.485C50.7892 176.496 50.5987 176.578 50.4518 176.716C50.3064 176.863 50.1951 177.04 50.126 177.235C50.0569 177.43 50.0315 177.638 50.0518 177.844C50.0855 178.264 50.2428 178.665 50.5038 178.996C51.0429 179.647 51.7581 180.129 52.5638 180.384C53.3318 180.66 54.1509 180.765 54.9638 180.692C55.7247 180.619 56.4342 180.275 56.9638 179.724C57.2163 179.471 57.4116 179.167 57.5365 178.833C57.6614 178.498 57.713 178.14 57.6878 177.784C57.6743 177.46 57.5515 177.151 57.3393 176.906C57.1272 176.661 56.8383 176.495 56.5198 176.436C56.3716 176.431 56.2242 176.46 56.089 176.521C55.9538 176.582 55.8344 176.674 55.7398 176.788C55.5447 177.015 55.416 177.292 55.3678 177.588C55.286 178.148 55.4158 178.718 55.7318 179.188C56.0092 179.615 56.3868 179.968 56.8318 180.216C57.5708 180.595 58.4118 180.728 59.2318 180.596C59.7508 180.525 60.2605 180.398 60.7518 180.216C61.0878 180.132 61.2598 180.056 61.2638 180.068Z" fill="#FAFAFA"/>
<path d="M40.4678 165.292V175.732H60.9758V165.292H40.4678Z" fill="#EBEBEB"/>
<path d="M43.8754 165.652C43.9514 165.652 44.0154 167.912 44.0154 170.704C44.0154 173.496 43.9514 175.756 43.8754 175.756C43.7994 175.756 43.7314 173.496 43.7314 170.704C43.7314 167.912 43.7954 165.652 43.8754 165.652Z" fill="#E0E0E0"/>
<path d="M45.4311 165.52C45.5071 165.52 45.5711 167.756 45.5711 170.508C45.5711 173.26 45.5071 175.496 45.4311 175.496C45.3551 175.496 45.2871 173.264 45.2871 170.508C45.2871 167.752 45.3511 165.52 45.4311 165.52Z" fill="#E0E0E0"/>
<path d="M58.6596 165.2C58.7356 165.2 58.7996 167.552 58.7996 170.456C58.7996 173.36 58.7356 175.708 58.6596 175.708C58.5836 175.708 58.5156 173.356 58.5156 170.456C58.5156 167.556 58.5796 165.2 58.6596 165.2Z" fill="#E0E0E0"/>
<path d="M56.8315 165.328C56.9075 165.328 56.9715 167.616 56.9715 170.444C56.9715 173.272 56.9075 175.56 56.8315 175.56C56.7555 175.56 56.6875 173.272 56.6875 170.444C56.6875 167.616 56.7515 165.328 56.8315 165.328Z" fill="#E0E0E0"/>
<path d="M167.227 142.504C169.355 141.404 171.855 141.264 174.219 141.652C175.487 141.864 176.807 142.24 177.671 143.196C178.535 144.152 178.695 145.824 177.707 146.64C177.115 147.128 176.295 147.204 175.527 147.192C173.679 147.172 171.631 146.848 170.155 147.96C169.311 148.592 168.751 149.648 167.755 149.96C166.759 150.272 165.659 149.684 165.139 148.796C164.659 147.87 164.553 146.794 164.843 145.792C164.961 145.098 165.238 144.44 165.651 143.87C166.065 143.299 166.604 142.832 167.227 142.504Z" fill="#EBEBEB"/>
<path d="M162.356 133.1C163.656 134.956 166.184 134.34 167.356 133.208C168.528 132.076 169.024 130.432 169.472 128.864C170.504 125.288 171.54 121.532 170.776 117.888C170.593 116.783 170.107 115.75 169.372 114.904C169 114.487 168.526 114.174 167.996 113.998C167.466 113.821 166.9 113.786 166.352 113.896C165.08 114.236 164.288 115.496 163.716 116.668C162.03 120.173 161.146 124.01 161.128 127.9C161.128 129.708 161.336 131.604 162.356 133.1Z" fill="#EBEBEB"/>
<path d="M158.8 135.764C160.212 134.088 160.48 131.644 159.852 129.548C159.224 127.452 157.804 125.66 156.168 124.204C154.243 122.491 152.002 121.169 149.572 120.312C148.631 119.934 147.62 119.762 146.608 119.808C146.101 119.838 145.61 119.99 145.176 120.253C144.743 120.516 144.38 120.881 144.12 121.316C143.424 122.64 144.092 124.244 144.812 125.556C146.081 127.863 147.528 130.067 149.14 132.148C150.44 133.824 151.94 135.476 153.904 136.232C155.868 136.988 157.94 136.896 158.988 135.524" fill="#EBEBEB"/>
<path d="M162.267 161.108C162.336 160.831 162.376 160.549 162.387 160.264C162.447 159.652 162.519 158.88 162.611 157.964C162.726 156.829 162.898 155.701 163.127 154.584C163.428 153.22 163.839 151.882 164.355 150.584C164.862 149.294 165.548 148.083 166.391 146.984C167.079 146.088 167.958 145.357 168.963 144.844C169.647 144.508 170.378 144.28 171.131 144.168C171.415 144.159 171.697 144.119 171.971 144.048C171.687 144.017 171.4 144.017 171.115 144.048C170.333 144.107 169.568 144.307 168.855 144.636C167.798 145.136 166.869 145.874 166.143 146.792C165.261 147.907 164.549 149.147 164.031 150.472C163.515 151.785 163.113 153.141 162.831 154.524C162.614 155.654 162.463 156.796 162.379 157.944C162.307 158.92 162.279 159.712 162.267 160.26C162.238 160.542 162.238 160.826 162.267 161.108Z" fill="#E0E0E0"/>
<path d="M162.428 159.336C162.452 159.204 162.46 159.07 162.452 158.936C162.452 158.644 162.452 158.272 162.452 157.816C162.452 156.848 162.452 155.44 162.5 153.704C162.588 150.232 162.9 146.504 163.464 141.224C164.012 136.272 164.744 130.504 165.52 126.756C165.684 125.904 165.852 125.136 166.012 124.464C166.172 123.792 166.288 123.212 166.412 122.744C166.536 122.276 166.604 121.944 166.672 121.656C166.708 121.525 166.732 121.391 166.744 121.256C166.682 121.372 166.637 121.496 166.608 121.624C166.52 121.904 166.412 122.26 166.28 122.696C166.148 123.132 165.988 123.736 165.82 124.408C165.652 125.08 165.46 125.844 165.28 126.696C164.319 131.129 163.596 135.61 163.116 140.12C162.54 145.4 162.28 150.208 162.256 153.688C162.236 155.428 162.256 156.836 162.316 157.808C162.344 158.264 162.368 158.636 162.384 158.928C162.381 159.065 162.396 159.202 162.428 159.336Z" fill="#E0E0E0"/>
<path d="M162.451 150.064C162.482 149.675 162.482 149.285 162.451 148.896C162.407 148.144 162.303 147.056 162.091 145.728C161.836 144.171 161.493 142.63 161.063 141.112C160.559 139.244 159.913 137.418 159.131 135.648C157.793 132.386 155.872 129.394 153.463 126.82C153.043 126.38 152.597 125.966 152.127 125.58C151.923 125.408 151.727 125.236 151.559 125.1L151.043 124.744C150.732 124.506 150.402 124.295 150.055 124.112C149.999 124.188 151.451 125.04 153.283 126.992C155.614 129.589 157.483 132.565 158.811 135.792C159.575 137.549 160.221 139.356 160.743 141.2C161.251 142.896 161.587 144.456 161.843 145.768C162.099 147.08 162.223 148.168 162.307 148.908C162.324 149.296 162.372 149.683 162.451 150.064Z" fill="#E0E0E0"/>
<path d="M152.867 165.012L153.799 177.74H170.147L171.079 165.012H152.867Z" fill="#EBEBEB"/>
<path d="M173.027 159.996H151.287V165.012H173.027V159.996Z" fill="#EBEBEB"/>
<path d="M151.287 177.252V178.644H152.311H172.671V177.252H151.287Z" fill="#E0E0E0"/>
<path d="M153.312 180.936L152.312 178.492H171.892L170.724 180.936H153.312Z" fill="#E0E0E0"/>
<path d="M170.775 169.172C170.755 169.214 170.73 169.253 170.699 169.288C170.631 169.376 170.551 169.48 170.455 169.612L169.499 170.832L169.459 170.888L169.419 170.828C168.819 170 168.019 168.896 167.079 167.592H167.199L164.895 170.856L164.823 170.956L164.743 170.86L162.023 167.6H162.179L162.031 167.788L159.599 170.86L159.515 170.964L159.443 170.856C158.611 169.684 157.843 168.584 157.135 167.596H157.271L154.431 170.832L154.383 170.888L154.343 170.824L153.455 169.332C153.359 169.168 153.287 169.036 153.227 168.932C153.198 168.889 153.174 168.842 153.155 168.792C153.192 168.83 153.224 168.871 153.251 168.916L153.503 169.316L154.435 170.784H154.347L157.147 167.508L157.215 167.428L157.279 167.516L159.607 170.764H159.447L161.887 167.696L162.035 167.504L162.115 167.408L162.195 167.504L164.919 170.76H164.767L167.095 167.512L167.163 167.416L167.227 167.512L169.519 170.784H169.435C169.855 170.28 170.183 169.884 170.427 169.584L170.691 169.276C170.739 169.2 170.771 169.168 170.775 169.172Z" fill="#F5F5F5"/>
<path d="M171.308 164.928C171.308 164.984 167.208 165.028 162.156 165.028C157.104 165.028 153.004 164.984 153.004 164.928C153.004 164.872 157.1 164.828 162.156 164.828C167.212 164.828 171.308 164.872 171.308 164.928Z" fill="#F5F5F5"/>
<path d="M78.0839 32.3362C78.0839 32.3362 78.0479 32.3362 77.9879 32.3082L77.7239 32.2042L76.7159 31.7842L73.0159 30.1842L60.8559 24.8882L60.4319 24.7002H60.5199L48.6039 29.8162L45.0039 31.3282L44.0199 31.7282C43.9077 31.7797 43.7913 31.8212 43.6719 31.8522C43.7781 31.7889 43.8891 31.7341 44.0039 31.6882L44.9719 31.2482L48.5719 29.6682L60.4599 24.5122H60.5039H60.5479L60.9719 24.6962L73.1079 30.0562L76.7759 31.7002L77.7679 32.1602L78.0239 32.2842C78.0458 32.2991 78.066 32.3166 78.0839 32.3362Z" fill="#E0E0E0"/>
<path d="M97.0516 30.5923H18.9355V89.0843H97.0516V30.5923Z" fill="#E0E0E0"/>
<path d="M94.616 33.312H21.668V86.68H94.616V33.312Z" fill="#FAFAFA"/>
<path d="M37.7793 56.6279C37.7793 56.6279 37.8553 65.5839 38.3113 68.3199L49.5473 67.7879C49.5473 67.7879 48.5633 58.9879 48.9433 56.6279H37.7793Z" fill="#E0E0E0"/>
<path d="M43.3152 57.8921H43.4792C43.6356 57.8863 43.7922 57.8943 43.9472 57.9161C44.1934 57.9526 44.4331 58.024 44.6592 58.1281C44.9585 58.2763 45.223 58.4862 45.4352 58.7441C45.6961 59.0576 45.8809 59.4272 45.9752 59.8241C46.0631 60.2887 46.023 60.7685 45.8592 61.2121C45.7755 61.4533 45.6697 61.6863 45.5432 61.9081C45.409 62.1338 45.2887 62.3676 45.1832 62.6081C44.9592 63.1182 44.8058 63.6565 44.7272 64.2081V64.2441H44.6912H43.5832H42.4192H42.3752V64.2041C42.3253 63.6552 42.1398 63.1274 41.8352 62.6681C41.6992 62.4361 41.5512 62.2241 41.4352 62.0041C41.29 61.797 41.1565 61.582 41.0352 61.3601C40.83 60.9351 40.7683 60.4551 40.8592 59.9921C40.9245 59.5923 41.0731 59.2108 41.2952 58.8721C41.4849 58.5999 41.7338 58.3743 42.0232 58.2121C42.3805 58.0225 42.7723 57.9069 43.1752 57.8721H43.3352C43.3352 57.8721 43.3352 57.8721 43.2952 57.8721H43.1752C43.0226 57.8901 42.8715 57.9195 42.7232 57.9601C42.4867 58.0218 42.2594 58.1146 42.0472 58.2361C41.7642 58.396 41.5219 58.6191 41.3392 58.8881C41.1326 59.2238 40.9965 59.5981 40.9392 59.9881C40.8519 60.4368 40.9137 60.9017 41.1152 61.3121C41.2377 61.5307 41.3712 61.743 41.5152 61.9481C41.6552 62.1601 41.8032 62.3801 41.9392 62.6121C42.255 63.0819 42.4463 63.6241 42.4952 64.1881L42.4512 64.1441H43.6152H44.7272L44.6832 64.1841C44.7632 63.6254 44.9193 63.0804 45.1472 62.5641C45.257 62.3216 45.3799 62.0853 45.5152 61.8561C45.6395 61.6392 45.7439 61.4117 45.8272 61.1761C45.9892 60.7461 46.032 60.2804 45.9512 59.8281C45.86 59.4408 45.6838 59.0787 45.4352 58.7681C45.2289 58.5134 44.9713 58.3049 44.6792 58.1561C44.4579 58.049 44.222 57.9749 43.9792 57.9361C43.8269 57.9127 43.6733 57.8994 43.5192 57.8961H43.3952C43.3312 57.8961 43.3152 57.8961 43.3152 57.8921Z" fill="white"/>
<path d="M43.8915 64.1361C43.8907 64.1241 43.8907 64.112 43.8915 64.1001V63.9961C43.8915 63.9041 43.8555 63.7681 43.8315 63.5961C43.7795 63.2441 43.7035 62.7401 43.6555 62.1121C43.6555 61.9561 43.6315 61.7921 43.6275 61.6201C43.6174 61.4402 43.6174 61.2599 43.6275 61.0801C43.6318 60.8871 43.6739 60.6968 43.7515 60.5201C43.8379 60.3291 43.9917 60.1767 44.1835 60.0921C44.2856 60.0492 44.3981 60.0373 44.5069 60.0579C44.6158 60.0785 44.7161 60.1308 44.7955 60.2081C44.8377 60.2472 44.871 60.2949 44.8931 60.3481C44.9152 60.4012 44.9256 60.4585 44.9235 60.5161C44.9212 60.6319 44.8819 60.744 44.8115 60.8361C44.7391 60.9295 44.646 61.0049 44.5395 61.0561C44.4337 61.1058 44.3222 61.1421 44.2075 61.1641C43.7389 61.2599 43.2575 61.2761 42.7835 61.2121C42.6662 61.1961 42.5518 61.1638 42.4435 61.1161C42.3378 61.0686 42.2427 61.0006 42.1635 60.9161C42.0823 60.8314 42.0256 60.7264 41.9995 60.6121C41.9743 60.5001 41.9884 60.3829 42.0395 60.2801C42.0858 60.1765 42.1704 60.0948 42.2755 60.0521C42.3254 60.0306 42.3791 60.0195 42.4335 60.0195C42.4878 60.0195 42.5416 60.0306 42.5915 60.0521C42.688 60.0959 42.771 60.165 42.8315 60.2521C42.8878 60.3375 42.9285 60.4323 42.9515 60.5321C42.9854 60.7223 43.0041 60.9149 43.0075 61.1081L43.0635 62.1361C43.0915 62.7641 43.1195 63.2721 43.1355 63.6281C43.1355 63.8001 43.1355 63.9361 43.1355 64.0281V64.1681C43.1363 64.1561 43.1363 64.144 43.1355 64.1321C43.1355 64.1081 43.1355 64.0721 43.1355 64.0281C43.1355 63.9841 43.1355 63.7961 43.1115 63.6281C43.1115 63.2721 43.0595 62.7641 43.0235 62.1361C43.0235 61.8241 42.9875 61.4801 42.9675 61.1081C42.9649 60.9173 42.9448 60.7272 42.9075 60.5401C42.8879 60.4443 42.8499 60.3533 42.7955 60.2721C42.7361 60.1906 42.6579 60.1247 42.5675 60.0801C42.5213 60.0604 42.4717 60.0502 42.4215 60.0502C42.3713 60.0502 42.3216 60.0604 42.2755 60.0801C42.1781 60.1206 42.0996 60.1963 42.0555 60.2921C42.0094 60.3893 41.9968 60.4989 42.0195 60.6041C42.0464 60.7105 42.1001 60.8082 42.1755 60.8881C42.3378 61.0482 42.549 61.1495 42.7755 61.1761C43.0101 61.2068 43.247 61.2176 43.4835 61.2081C43.72 61.2019 43.9556 61.1751 44.1875 61.1281C44.2998 61.1066 44.4087 61.0703 44.5115 61.0201C44.6128 60.9714 44.7017 60.9002 44.7715 60.8121C44.8375 60.7256 44.8752 60.6208 44.8795 60.5121C44.8793 60.4591 44.8685 60.4068 44.8479 60.358C44.8273 60.3093 44.7973 60.2651 44.7595 60.2281C44.6842 60.1563 44.59 60.1076 44.4879 60.0877C44.3858 60.0679 44.2801 60.0777 44.1835 60.1161C44.0059 60.1962 43.8636 60.3385 43.7835 60.5161C43.7074 60.6905 43.6653 60.8778 43.6595 61.0681C43.6595 61.2521 43.6595 61.4281 43.6595 61.6001C43.6595 61.7721 43.6595 61.9361 43.6875 62.0961C43.7355 62.7241 43.8075 63.2281 43.8515 63.5761C43.8755 63.7521 43.8955 63.8841 43.9075 63.9761V64.0801C43.9044 64.0993 43.899 64.1181 43.8915 64.1361Z" fill="white"/>
<path d="M42.3994 64.1959C42.4176 64.3191 42.4283 64.4434 42.4314 64.5679C42.4314 64.8346 42.4474 65.1586 42.4794 65.5399V65.5159L43.2394 66.3999H43.1994L44.0754 66.3519H44.0394L44.4714 65.8239L44.6914 65.5559V65.5919C44.6914 65.0759 44.6674 64.5919 44.6594 64.1519L44.7074 64.1959H43.0714H42.3994C42.4512 64.1885 42.5037 64.1885 42.5554 64.1959L43.0154 64.1719L44.6794 64.1079H44.7274V64.1559C44.7274 64.5999 44.7554 65.0839 44.7714 65.5959V65.5999C44.6994 65.6879 44.6274 65.7799 44.5514 65.8679L44.1154 66.3999H44.0914L43.2154 66.4439H43.1994L42.4554 65.5599C42.4554 65.1599 42.4554 64.8399 42.4554 64.5599C42.4296 64.4398 42.4109 64.3182 42.3994 64.1959Z" fill="white"/>
<path d="M44.672 65.4601C44.672 65.4601 44.64 65.4601 44.588 65.4241C44.5135 65.3908 44.4374 65.3614 44.36 65.3361C44.1031 65.2464 43.8318 65.2057 43.56 65.2161C43.2852 65.2221 43.0139 65.2791 42.76 65.3841L42.54 65.4881L42.46 65.5281C42.4806 65.5065 42.505 65.4889 42.532 65.4761C42.6029 65.433 42.6763 65.3943 42.752 65.3601C43.0042 65.2481 43.2761 65.1869 43.552 65.1801C43.8248 65.17 44.0968 65.2149 44.352 65.3121C44.4291 65.3397 44.504 65.3731 44.576 65.4121L44.672 65.4601Z" fill="white"/>
<path d="M44.668 65.1122L44.588 65.0762L44.36 64.9842C44.1026 64.8969 43.8316 64.8563 43.56 64.8642C43.2856 64.874 43.0151 64.9309 42.76 65.0322C42.664 65.0722 42.592 65.1082 42.54 65.1362L42.46 65.1762L42.532 65.1242C42.6022 65.0811 42.6758 65.0437 42.752 65.0122C43.0039 64.8987 43.2758 64.8362 43.552 64.8282C43.8245 64.8221 44.0958 64.8668 44.352 64.9602C44.448 65.0002 44.524 65.0362 44.576 65.0642C44.628 65.0922 44.672 65.1082 44.668 65.1122Z" fill="white"/>
<path d="M44.6475 64.7761L44.5675 64.7441C44.5115 64.7201 44.4355 64.6841 44.3395 64.6521C44.082 64.565 43.8111 64.5243 43.5395 64.5321C43.2646 64.5375 42.9933 64.5945 42.7395 64.7001C42.6435 64.7401 42.5715 64.7761 42.5195 64.8041L42.4395 64.8441L42.5115 64.7921C42.5819 64.7482 42.6554 64.7094 42.7315 64.6761C42.9844 64.5661 43.2558 64.5051 43.5315 64.4961C43.804 64.4903 44.0752 64.5351 44.3315 64.6281C44.4084 64.6575 44.4833 64.6923 44.5555 64.7321C44.5887 64.7405 44.62 64.7555 44.6475 64.7761Z" fill="white"/>
<path d="M25.2676 42C25.2676 42 25.3436 50.96 25.7996 53.692L37.0356 53.16C37.0356 53.16 36.0476 44.36 36.4276 42H25.2676Z" fill="#EBEBEB"/>
<path d="M34.7354 45.7442C33.4883 45.9288 32.2315 46.041 30.9714 46.0802C29.715 46.1961 28.4526 46.2348 27.1914 46.1962C28.4388 46.014 29.6954 45.9018 30.9554 45.8602C32.2121 45.7492 33.4742 45.7105 34.7354 45.7442Z" fill="white"/>
<path d="M34.7353 47.6398C33.4885 47.8276 32.2316 47.9412 30.9713 47.9798C29.7159 48.0909 28.4552 48.1296 27.1953 48.0958C28.4424 47.911 29.6992 47.7988 30.9593 47.7599C32.2146 47.6464 33.4754 47.6064 34.7353 47.6398Z" fill="white"/>
<path d="M32.8272 49.5039C32.1225 49.6559 31.4042 49.7363 30.6832 49.7439C29.9678 49.8167 29.2467 49.8167 28.5312 49.7439C29.2347 49.592 29.9517 49.5116 30.6712 49.5039C31.3881 49.431 32.1104 49.431 32.8272 49.5039Z" fill="white"/>
<path d="M24.7354 68.3398C24.7354 68.3398 24.8114 77.2958 25.2674 80.0318L36.5034 79.4998C36.5034 79.4998 35.5154 70.6998 35.8954 68.3398H24.7354Z" fill="#EBEBEB"/>
<path d="M34.2031 72.0998C32.9562 72.2871 31.6993 72.4006 30.4391 72.4398C29.1837 72.5508 27.9229 72.5896 26.6631 72.5558C27.9088 72.3708 29.1643 72.2586 30.4231 72.2198C31.6797 72.1064 32.9418 72.0663 34.2031 72.0998Z" fill="white"/>
<path d="M34.2031 74.0001C32.956 74.1852 31.6992 74.2974 30.4391 74.3361C29.1837 74.4471 27.9229 74.4858 26.6631 74.4521C27.9102 74.2672 29.167 74.155 30.4271 74.1161C31.6825 74.005 32.9432 73.9663 34.2031 74.0001Z" fill="white"/>
<path d="M32.296 75.8638C31.5926 76.0154 30.8755 76.0945 30.156 76.0998C29.4399 76.1794 28.7175 76.1861 28 76.1198C28.7034 75.968 29.4204 75.8876 30.14 75.8798C30.8562 75.8003 31.5787 75.795 32.296 75.8638Z" fill="white"/>
<path d="M55.4434 44.356L56.5554 70.196L88.8114 70.584L87.3634 44.696L55.4434 44.356Z" fill="#EBEBEB"/>
<path d="M87.1114 44.1719H55.0674V68.3679H87.1114V44.1719Z" fill="#F5F5F5"/>
<path d="M87.1112 68.3683C87.1112 68.3683 87.1112 68.2123 87.1112 67.9163C87.1112 67.6203 87.1112 67.1883 87.1112 66.6283C87.1112 65.4923 87.1112 63.8283 87.0872 61.7323C87.0872 57.5123 87.0592 51.4763 87.0392 44.1723L87.1312 44.2603H55.0912L55.2032 44.1523C55.2032 52.8523 55.2032 61.0923 55.2032 68.3483L55.1032 68.2483L78.2152 68.2963L84.7912 68.3243H86.5392H86.9912H87.1472H86.5592L84.7992 68.4003L78.2512 68.4283L55.0512 68.4763H54.9512V68.3803C54.9512 61.1243 54.9512 52.8843 54.9512 44.1843V44.0723H55.0632H87.1032H87.1992V44.1643C87.1992 51.4883 87.1632 57.5483 87.1512 61.7643C87.1512 63.8643 87.1512 65.5083 87.1272 66.6403C87.1272 67.1923 87.1272 67.6163 87.1272 67.9123C87.1192 68.2243 87.1112 68.3683 87.1112 68.3683Z" fill="#E0E0E0"/>
<path d="M71.9235 49.2959H58.9355V65.6439H71.9235V49.2959Z" fill="#F5F5F5"/>
<path d="M71.9234 65.6443C71.919 65.6164 71.919 65.5881 71.9234 65.5603V65.3283C71.9234 65.1123 71.9234 64.8163 71.9234 64.4363C71.9234 63.6363 71.9234 62.5123 71.8994 61.0803C71.8994 58.2043 71.8674 54.1323 71.8474 49.2963L71.9474 49.3963H58.9594C58.9314 49.3963 59.1674 49.1883 59.0674 49.2883V53.7323C59.0674 55.1843 59.0674 56.6003 59.0674 57.9723C59.0674 60.7203 59.0674 63.2923 59.0674 65.6283L58.9794 65.5363L68.3834 65.5843L71.0194 65.6083H71.7194H71.9674C71.8915 65.6138 71.8153 65.6138 71.7394 65.6083H71.0594L68.4394 65.6323L58.9794 65.6803H58.8874V65.5883C58.8874 63.2523 58.8874 60.6803 58.8874 57.9323C58.8874 56.5603 58.8874 55.1323 58.8874 53.6923V49.3043C58.7874 49.4003 59.0194 49.1643 58.9994 49.1923H71.9874H72.0874V49.2923C72.0674 54.1523 72.0474 58.2483 72.0354 61.1403L72.0114 64.4723C72.0114 64.8456 72.0114 65.1376 72.0114 65.3483C72.0114 65.4363 72.0114 65.5083 72.0114 65.5683C71.9852 65.597 71.9557 65.6225 71.9234 65.6443Z" fill="#E0E0E0"/>
<path d="M84.3236 45.5562H59.4316V47.9122H84.3236V45.5562Z" fill="#F5F5F5"/>
<path d="M84.3237 47.912C84.3237 47.912 84.3237 47.852 84.3237 47.752C84.3237 47.652 84.3237 47.484 84.3237 47.292C84.3237 46.892 84.3238 46.304 84.2958 45.556L84.3398 45.6C80.1438 45.64 70.5757 45.668 59.4477 45.668C59.6677 45.444 59.5077 45.604 59.5597 45.556V47.904L59.4518 47.792L77.0958 47.84L82.3917 47.872H83.8318H84.2118C84.2557 47.8687 84.2998 47.8687 84.3438 47.872H84.2278H83.8638H82.4477L77.1758 47.908L59.4518 47.952H59.3438V47.844C59.3438 47.468 59.3438 47.08 59.3438 46.688V45.488L59.4557 45.376C70.5837 45.376 80.1517 45.404 84.3477 45.444H84.3958V45.488C84.3958 46.244 84.3957 46.836 84.3717 47.252C84.3717 47.44 84.3717 47.584 84.3717 47.696C84.3685 47.7702 84.3522 47.8433 84.3237 47.912Z" fill="#E0E0E0"/>
<path d="M84.3237 49.2959H73.5117V59.1479H84.3237V49.2959Z" fill="#F5F5F5"/>
<path d="M84.3238 59.1481C84.3238 59.1481 84.3238 59.0801 84.3238 58.9601V58.4241C84.3238 57.9441 84.3238 57.2681 84.2998 56.4241C84.2998 54.6881 84.2718 52.2441 84.2518 49.3041L84.3438 49.4001H73.5438L73.6518 49.2921V51.9361C73.6518 52.8001 73.6518 53.6481 73.6518 54.4761C73.6518 56.1281 73.6518 57.6761 73.6518 59.1401L73.5518 59.0441L81.3518 59.0921L83.5638 59.1201H84.1558C84.225 59.1143 84.2946 59.1143 84.3638 59.1201C84.3013 59.1259 84.2383 59.1259 84.1758 59.1201H83.6038L81.4158 59.1441L73.5518 59.1921H73.4558V59.0921C73.4558 57.6481 73.4558 56.0801 73.4558 54.4281C73.4558 53.6001 73.4558 52.7521 73.4558 51.8881V49.2441C73.3558 49.3401 73.5878 49.1081 73.5678 49.1321H84.3678H84.4638V49.2241C84.4438 52.1881 84.4278 54.6561 84.4158 56.4241C84.4158 57.2641 84.3958 57.9321 84.3918 58.4241C84.3918 58.6348 84.3918 58.8068 84.3918 58.9401C84.3788 59.0122 84.3559 59.0822 84.3238 59.1481Z" fill="#E0E0E0"/>
<path d="M84.3237 60.6919H73.5117V65.6439H84.3237V60.6919Z" fill="#F5F5F5"/>
<path d="M84.3233 65.6441C84.3233 65.6441 84.3233 65.5161 84.3233 65.2841L84.3033 64.2921C84.3033 63.4161 84.2793 62.1961 84.2593 60.6921L84.3394 60.7721L73.5394 60.8041C73.4394 60.9041 73.6713 60.6681 73.6473 60.6961V63.2441C73.6473 64.0721 73.6473 64.8761 73.6473 65.6441L73.5394 65.5401L81.2713 65.5881L83.5274 65.6201H84.1353H84.3514C84.2875 65.626 84.2232 65.626 84.1593 65.6201H83.5713L81.3433 65.6521L73.5394 65.7001H73.4353V65.5961C73.4353 64.8281 73.4353 64.0241 73.4353 63.1961V60.6481C73.4113 60.6481 73.6433 60.4361 73.5473 60.5361L84.3473 60.5641H84.3993V60.6441C84.3993 62.1681 84.3673 63.4081 84.3593 64.2921C84.3593 64.6921 84.3593 65.0241 84.3593 65.2681C84.3595 65.3943 84.3474 65.5202 84.3233 65.6441Z" fill="#E0E0E0"/>
<path d="M71.5996 49.3242C67.5756 54.8802 62.9516 60.0882 58.9316 65.6442L71.5996 49.3242Z" fill="white"/>
<path d="M58.9355 65.6439C58.9355 65.6439 58.9636 65.5759 59.0396 65.4599L59.3795 64.9639C59.6755 64.5319 60.1195 63.9199 60.6795 63.1719C61.7955 61.6679 63.3916 59.6359 65.1836 57.4159C66.9756 55.1959 68.5875 53.1799 69.7315 51.7039L71.0875 49.9559L71.4595 49.4799C71.5475 49.3759 71.5955 49.3199 71.6035 49.3239C71.5746 49.3891 71.5383 49.4508 71.4956 49.5079L71.1555 50.0039C70.8595 50.4359 70.4155 51.0479 69.8555 51.7999C68.7395 53.2999 67.1436 55.3319 65.3516 57.5519C63.5596 59.7719 61.9515 61.7879 60.8035 63.2639L59.4475 65.0159L59.0755 65.4879C59.0351 65.5452 58.9881 65.5976 58.9355 65.6439Z" fill="#E0E0E0"/>
<path d="M71.9232 65.6442C71.8752 65.6802 68.9272 62.0442 65.3432 57.5402C61.7592 53.0362 58.8872 49.3362 58.9432 49.2962C58.9992 49.2562 61.9352 52.8962 65.5232 57.4042C69.1112 61.9122 71.9712 65.6002 71.9232 65.6442Z" fill="#E0E0E0"/>
<path d="M56.5552 49.3318C56.5552 49.7337 56.436 50.1266 56.2128 50.4607C55.9895 50.7949 55.6721 51.0553 55.3008 51.2091C54.9295 51.3629 54.521 51.4032 54.1268 51.3248C53.7326 51.2464 53.3706 51.0528 53.0864 50.7686C52.8022 50.4845 52.6087 50.1224 52.5303 49.7282C52.4518 49.3341 52.4921 48.9255 52.6459 48.5542C52.7997 48.1829 53.0601 47.8655 53.3943 47.6423C53.7285 47.419 54.1213 47.2998 54.5232 47.2998C55.0618 47.3009 55.578 47.5153 55.9589 47.8961C56.3397 48.277 56.5542 48.7932 56.5552 49.3318Z" fill="#E0E0E0"/>
<path d="M89.7915 44.4002C89.7915 44.8021 89.6724 45.1949 89.4491 45.5291C89.2258 45.8632 88.9084 46.1237 88.5371 46.2775C88.1658 46.4313 87.7573 46.4715 87.3631 46.3931C86.9689 46.3147 86.6069 46.1212 86.3227 45.837C86.0385 45.5528 85.845 45.1908 85.7666 44.7966C85.6882 44.4024 85.7284 43.9939 85.8822 43.6226C86.036 43.2513 86.2965 42.9339 86.6306 42.7106C86.9648 42.4873 87.3576 42.3682 87.7595 42.3682C88.2981 42.3692 88.8144 42.5836 89.1952 42.9645C89.5761 43.3453 89.7905 43.8616 89.7915 44.4002Z" fill="#E0E0E0"/>
<path d="M169.279 58.5522H145.863V92.4962H169.279V58.5522Z" fill="#E0E0E0"/>
<path d="M168.107 58.5522H144.691V92.4962H168.107V58.5522Z" fill="#F5F5F5"/>
<path d="M165.2 62.228H147.6V88.82H165.2V62.228Z" fill="white"/>
<path d="M165.2 88.8198C165.2 88.8198 165.2 88.7718 165.2 88.6878C165.2 88.6038 165.2 88.4758 165.2 88.3118C165.2 87.9758 165.2 87.4878 165.2 86.8518C165.2 85.5798 165.2 83.7198 165.2 81.3758C165.2 76.6878 165.2 70.0478 165.172 62.2278L165.232 62.2878H147.6L147.664 62.2238C147.664 72.2558 147.664 81.5038 147.664 88.8158L147.612 88.7638L160.412 88.7918H163.952H164.88H165.204H164.892H163.972H160.444L147.604 88.8158H147.552V88.7678C147.552 81.4558 147.552 72.2078 147.552 62.1758V62.1118H147.6H165.2H165.256V62.1678C165.256 70.0038 165.236 76.6558 165.228 81.3678C165.228 83.7078 165.228 85.5598 165.228 86.8318C165.228 87.4598 165.228 87.9438 165.228 88.2758C165.228 88.4398 165.228 88.5598 165.228 88.6478L165.2 88.8198Z" fill="#E0E0E0"/>
<path d="M168.172 58.5522C168.059 58.7677 167.925 58.9713 167.772 59.1602C167.5 59.5242 167.112 60.0162 166.672 60.5522C166.232 61.0882 165.82 61.5602 165.516 61.9002C165.361 62.0906 165.188 62.2661 165 62.4242C165.133 62.2179 165.283 62.0226 165.448 61.8402L166.576 60.4722L167.7 59.1042C167.844 58.909 168.001 58.7245 168.172 58.5522Z" fill="#E0E0E0"/>
<path d="M165.287 88.7319C166.161 90.1242 167.19 91.4125 168.355 92.5719L165.287 88.7319Z" fill="white"/>
<path d="M168.355 92.5719C168.16 92.4294 167.982 92.2657 167.823 92.0839C167.414 91.6697 167.027 91.2344 166.663 90.7799C166.3 90.3254 165.959 89.8528 165.643 89.3639C165.502 89.1665 165.383 88.9547 165.287 88.7319C165.444 88.915 165.589 89.1088 165.719 89.3119C165.975 89.6759 166.339 90.1679 166.763 90.6999C167.187 91.2319 167.591 91.6919 167.887 92.0239C168.057 92.1941 168.214 92.3774 168.355 92.5719Z" fill="#E0E0E0"/>
<path d="M144.688 92.4681L147.756 88.6841L144.688 92.4681Z" fill="white"/>
<path d="M147.756 88.6841C147.78 88.6841 147.116 89.5721 146.272 90.6161C145.772 91.2612 145.238 91.8794 144.672 92.4681C145.628 91.1538 146.652 89.8908 147.74 88.6841H147.756Z" fill="#E0E0E0"/>
<path d="M144.691 58.5522C145.217 59.1203 145.714 59.7143 146.179 60.3322C146.676 60.9262 147.139 61.5471 147.567 62.1922C147.04 61.6215 146.543 61.0234 146.079 60.4002C145.582 59.8114 145.118 59.1944 144.691 58.5522Z" fill="#E0E0E0"/>
<path d="M159.715 67.6279H153.823V84.3599H159.715V67.6279Z" fill="#E0E0E0"/>
<path d="M163.883 22.4848L160.531 22.5029L160.621 39.1827L163.973 39.1645L163.883 22.4848Z" fill="#E0E0E0"/>
<path d="M140.171 22.5292L131.491 22.5762L131.541 31.784L140.221 31.7371L140.171 22.5292Z" fill="#EBEBEB"/>
<path d="M148.807 22.4862L140.127 22.5332L140.177 31.7411L148.857 31.6941L148.807 22.4862Z" fill="#F5F5F5"/>
<path d="M131.504 25.1281C137.272 25.1761 143.056 25.1281 148.824 25.0481C148.848 25.0481 148.872 25.0384 148.889 25.0211C148.906 25.0039 148.916 24.9805 148.916 24.9561C148.916 24.9317 148.906 24.9083 148.889 24.891C148.872 24.8738 148.848 24.8641 148.824 24.8641C143.05 24.8321 137.277 24.8667 131.504 24.9681C131.483 24.9681 131.462 24.9765 131.447 24.9915C131.432 25.0065 131.424 25.0268 131.424 25.0481C131.424 25.0693 131.432 25.0896 131.447 25.1046C131.462 25.1196 131.483 25.1281 131.504 25.1281Z" fill="#E0E0E0"/>
<path d="M141.849 31.588L126.077 31.6733L126.118 39.1772L141.89 39.0919L141.849 31.588Z" fill="#EBEBEB"/>
<path d="M157.548 31.503L141.776 31.5884L141.817 39.0923L157.589 39.0069L157.548 31.503Z" fill="#F5F5F5"/>
<path d="M126.088 33.764C136.568 33.884 147.08 33.764 157.556 33.608C157.58 33.608 157.604 33.5983 157.621 33.5811C157.638 33.5638 157.648 33.5404 157.648 33.516C157.648 33.4916 157.638 33.4682 157.621 33.451C157.604 33.4337 157.58 33.424 157.556 33.424C147.076 33.368 136.564 33.376 126.088 33.604C126.067 33.604 126.046 33.6124 126.031 33.6274C126.016 33.6424 126.008 33.6628 126.008 33.684C126.008 33.7052 126.016 33.7256 126.031 33.7406C126.046 33.7556 126.067 33.764 126.088 33.764Z" fill="#E0E0E0"/>
<path d="M181.295 39.1802H120.191V41.8682H181.295V39.1802Z" fill="#E0E0E0"/>
<path d="M132.675 40.4722H130.195V49.6442H132.675V40.4722Z" fill="#E0E0E0"/>
<path d="M169.704 40.4722H167.224V49.6442H169.704V40.4722Z" fill="#E0E0E0"/>
<path d="M167.153 16.267L163.801 16.2852L163.925 39.2248L167.277 39.2067L167.153 16.267Z" fill="#EBEBEB"/>
<path d="M172.393 20.5387L167.185 20.5669L167.285 39.1586L172.493 39.1304L172.393 20.5387Z" fill="#F5F5F5"/>
<path d="M172.355 24.1239C170.624 24.2461 168.886 24.2461 167.155 24.1239C168.887 24.0069 170.624 24.0069 172.355 24.1239Z" fill="#E0E0E0"/>
<path d="M172.355 23.3441C170.624 23.4664 168.886 23.4664 167.155 23.3441C168.887 23.2271 170.624 23.2271 172.355 23.3441Z" fill="#E0E0E0"/>
<path d="M172.355 36.3363C170.624 36.4585 168.886 36.4585 167.155 36.3363C168.887 36.2193 170.624 36.2193 172.355 36.3363Z" fill="#E0E0E0"/>
<path d="M172.355 35.556C170.624 35.6783 168.886 35.6783 167.155 35.556C168.887 35.439 170.624 35.439 172.355 35.556Z" fill="#E0E0E0"/>
<path d="M169.835 33.8521C169.783 33.8521 169.743 31.9761 169.743 29.6641C169.743 27.3521 169.783 25.4761 169.835 25.4761C169.887 25.4761 169.923 27.3521 169.923 29.6641C169.923 31.9761 169.883 33.8521 169.835 33.8521Z" fill="#E0E0E0"/>
<path d="M178.079 25.1079H172.411V39.1399H178.079V25.1079Z" fill="#EBEBEB"/>
<path d="M175.408 35.504C175.239 35.5138 175.07 35.4879 174.912 35.4279C174.754 35.3679 174.61 35.2752 174.491 35.1559C174.371 35.0366 174.278 34.8933 174.217 34.7354C174.157 34.5776 174.13 34.4088 174.14 34.24C174.13 34.0561 174.168 33.8728 174.248 33.7071C174.329 33.5414 174.449 33.3986 174.6 33.292L174.728 33.472C174.607 33.5597 174.511 33.6756 174.446 33.8096C174.381 33.9435 174.35 34.0913 174.356 34.24C174.356 34.519 174.466 34.7866 174.664 34.9839C174.861 35.1812 175.128 35.292 175.408 35.292C175.687 35.292 175.954 35.1812 176.151 34.9839C176.349 34.7866 176.46 34.519 176.46 34.24C176.465 34.0908 176.434 33.9426 176.369 33.8085C176.303 33.6744 176.205 33.5588 176.084 33.472L176.216 33.292C176.364 33.4001 176.483 33.5432 176.563 33.7087C176.642 33.8741 176.68 34.0566 176.672 34.24C176.681 34.4084 176.654 34.5769 176.594 34.7344C176.534 34.892 176.441 35.0351 176.322 35.1543C176.203 35.2736 176.059 35.3664 175.902 35.4266C175.744 35.4869 175.576 35.5132 175.408 35.504Z" fill="#FAFAFA"/>
<path d="M176.352 32.944L176.164 32.836C176.36 32.5773 176.466 32.2608 176.464 31.936C176.464 31.412 176.276 31.2 175.996 31.2C175.268 31.2 175.804 32.856 174.824 32.856C174.448 32.856 174.14 32.54 174.14 31.908C174.135 31.6048 174.22 31.307 174.384 31.052L174.576 31.164C174.425 31.3839 174.347 31.6454 174.352 31.912C174.352 32.4 174.552 32.616 174.82 32.616C175.568 32.616 175.04 30.96 175.992 30.96C176.392 30.96 176.672 31.312 176.672 31.948C176.684 32.307 176.571 32.6592 176.352 32.944Z" fill="#FAFAFA"/>
<path d="M176.352 30.6603L176.164 30.5523C176.36 30.2936 176.466 29.9772 176.464 29.6523C176.464 29.1283 176.276 28.9163 175.996 28.9163C175.268 28.9163 175.804 30.5683 174.824 30.5683C174.448 30.5683 174.14 30.2563 174.14 29.6243C174.135 29.3211 174.22 29.0233 174.384 28.7683L174.576 28.8763C174.426 29.0979 174.347 29.3605 174.352 29.6283C174.352 30.1163 174.552 30.3323 174.82 30.3323C175.568 30.3323 175.04 28.6763 175.992 28.6763C176.392 28.6763 176.672 29.0243 176.672 29.6603C176.685 30.0207 176.571 30.3742 176.352 30.6603Z" fill="#FAFAFA"/>
<path d="M165.428 21.156C165.96 21.156 166.392 20.7244 166.392 20.192C166.392 19.6596 165.96 19.228 165.428 19.228C164.895 19.228 164.464 19.6596 164.464 20.192C164.464 20.7244 164.895 21.156 165.428 21.156Z" fill="#E0E0E0"/>
<path d="M165.724 22.8398H165.128V36.4878H165.724V22.8398Z" fill="#E0E0E0"/>
<path d="M188.324 181.6C188.324 181.656 149.688 181.704 102.04 181.704C54.3921 181.704 15.748 181.664 15.748 181.6C15.748 181.536 54.376 181.496 102.04 181.496C149.704 181.496 188.324 181.552 188.324 181.6Z" fill="#263238"/>
<path d="M62.4722 44.0958C56.0522 54.1918 56.4722 68.1918 63.4882 77.8838C68.1642 84.3478 75.1762 88.6838 80.7442 94.3878C86.3122 100.092 90.5442 108.512 87.6042 115.928C84.6122 123.476 75.8482 126.544 69.2882 131.328C62.0504 136.599 57.1369 144.471 55.5795 153.288C54.0221 162.106 55.9421 171.184 60.9362 178.616H129.104C129.104 178.616 141.08 155.796 125.684 138.4C110.288 121.004 102.02 120.724 102.588 109.316C103.156 97.9078 111.14 94.2078 115.704 89.9278C120.268 85.6478 142.504 75.6758 129.388 44.0918L62.4722 44.0958Z" fill="#FAFAFA"/>
<path d="M62.472 44.0961H63.644H67.1H80.404L129.388 44.0601H129.44V44.1081C130.444 46.4995 131.299 48.9509 132 51.4481C132.736 54.0626 133.221 56.7414 133.448 59.4481C133.684 62.2773 133.539 65.1255 133.016 67.9161C132.442 70.8087 131.402 73.589 129.936 76.1481C129.177 77.4533 128.318 78.6983 127.368 79.8721C126.398 81.0616 125.349 82.1842 124.228 83.2321C123.092 84.2991 121.903 85.3071 120.664 86.2521C119.424 87.2121 118.128 88.1161 116.864 89.0761C116.232 89.5521 115.664 90.0881 115.048 90.6241C114.432 91.1601 113.82 91.6601 113.188 92.1641C111.928 93.1721 110.656 94.1641 109.456 95.2801C106.951 97.4509 105.027 100.211 103.856 103.312C103.293 104.902 102.938 106.559 102.8 108.24C102.764 108.64 102.708 109.08 102.692 109.504C102.676 109.928 102.66 110.352 102.692 110.776C102.701 111.627 102.787 112.476 102.948 113.312C103.265 115.006 103.957 116.608 104.972 118C106.017 119.392 107.2 120.675 108.504 121.828C111.092 124.192 113.84 126.452 116.468 128.892C119.096 131.332 121.668 133.876 124.148 136.568C125.413 137.901 126.597 139.308 127.692 140.784C128.794 142.278 129.751 143.873 130.552 145.548C132.171 148.943 133.165 152.601 133.488 156.348C133.814 160.147 133.591 163.973 132.824 167.708C132.451 169.595 131.962 171.457 131.36 173.284C130.768 175.126 130.046 176.924 129.2 178.664L129.172 178.72H60.88L60.852 178.676C57.6552 173.863 55.6947 168.336 55.144 162.584C54.5899 157.059 55.4002 151.483 57.504 146.344C59.5034 141.432 62.582 137.033 66.512 133.472C68.4191 131.789 70.4786 130.286 72.664 128.984C74.792 127.664 76.94 126.44 78.968 125.104C80.9979 123.835 82.8628 122.32 84.52 120.592C86.1026 118.896 87.2765 116.86 87.952 114.64C88.544 112.474 88.637 110.203 88.224 107.996C87.8294 105.866 87.1189 103.808 86.116 101.888C85.1568 100.04 84.0065 98.2967 82.684 96.6881C81.4074 95.1448 80.0197 93.6969 78.532 92.3561C75.648 89.7001 72.692 87.3761 70.036 84.9881C68.704 83.7881 67.444 82.5881 66.28 81.3601C65.1518 80.1578 64.1118 78.8759 63.168 77.5241C61.4618 75.0449 60.1464 72.3185 59.268 69.4401C58.4985 66.9543 58.0521 64.3798 57.94 61.7801C57.884 61.1881 57.908 60.6041 57.908 60.0321C57.908 59.4601 57.908 58.9041 57.96 58.3641C58.012 57.8241 58.04 57.2961 58.08 56.7641C58.12 56.2321 58.228 55.7561 58.296 55.2721C58.7379 52.3256 59.6395 49.4669 60.968 46.8001C61.1479 46.3875 61.3536 45.9867 61.584 45.6001L62.076 44.7641C62.336 44.3201 62.476 44.0961 62.476 44.0961L62.076 44.7761L61.6 45.6001C61.3751 45.9884 61.1721 46.3891 60.992 46.8001C59.6755 49.4733 58.7848 52.3358 58.352 55.2841C58.284 55.7641 58.204 56.2601 58.144 56.7681C58.084 57.2761 58.064 57.8081 58.024 58.3481C57.984 58.8881 57.984 59.4441 57.98 60.0121C57.976 60.5801 57.96 61.1641 58.016 61.7561C58.1317 64.3472 58.5821 66.9125 59.356 69.3881C60.2334 72.2562 61.5475 74.9721 63.252 77.4401C64.1934 78.7862 65.2322 80.0616 66.36 81.2561C67.52 82.4881 68.78 83.6881 70.112 84.8561C72.768 87.2561 75.712 89.5561 78.616 92.2161C80.1153 93.5667 81.5137 95.0252 82.8 96.5801C84.1298 98.2004 85.2868 99.9553 86.252 101.816C87.2644 103.748 87.9817 105.82 88.38 107.964C88.7989 110.194 88.7059 112.491 88.108 114.68C87.4294 116.925 86.2443 118.985 84.644 120.7C82.9786 122.438 81.1059 123.964 79.068 125.244C77.032 126.584 74.884 127.808 72.76 129.128C70.5838 130.427 68.5324 131.924 66.632 133.6C62.7262 137.143 59.6656 141.517 57.676 146.4C55.585 151.513 54.7814 157.06 55.336 162.556C55.8868 168.275 57.8375 173.77 61.016 178.556L60.936 178.512H129.104L129.012 178.568C129.857 176.832 130.576 175.039 131.164 173.2C131.763 171.381 132.25 169.527 132.62 167.648C133.383 163.932 133.606 160.124 133.28 156.344C132.964 152.618 131.976 148.979 130.364 145.604C129.569 143.941 128.619 142.357 127.528 140.872C126.435 139.404 125.257 138.002 124 136.672C121.533 133.987 118.977 131.432 116.332 129.008C113.708 126.572 110.968 124.316 108.372 121.94C107.058 120.777 105.864 119.485 104.808 118.084C103.773 116.675 103.064 115.053 102.732 113.336C102.572 112.488 102.485 111.627 102.472 110.764C102.452 110.336 102.472 109.908 102.472 109.48C102.472 109.052 102.544 108.628 102.576 108.204C102.723 106.513 103.086 104.847 103.656 103.248C104.837 100.12 106.78 97.3359 109.308 95.1481C110.508 94.0361 111.792 93.0281 113.052 92.0241C113.684 91.5201 114.304 91.0121 114.908 90.4921C115.512 89.9721 116.108 89.4121 116.732 88.9321C118.004 87.9721 119.296 87.0681 120.532 86.1121C121.767 85.1713 122.954 84.1687 124.088 83.1081C125.202 82.0649 126.245 80.9491 127.212 79.7681C128.154 78.5983 129.009 77.3603 129.768 76.0641C131.225 73.5227 132.26 70.7614 132.832 67.8881C133.352 65.1201 133.499 62.295 133.268 59.4881C133.044 56.7818 132.564 54.1031 131.832 51.4881C131.141 48.984 130.297 46.5247 129.304 44.1241L129.372 44.1681L80.416 44.1321H67.104H63.64L62.472 44.0961Z" fill="#263238"/>
<path d="M126.668 62.6117C136.708 64.2637 120.88 82.0477 111.916 89.0637C106.716 93.1237 101.156 97.5317 98.6919 103.644C95.8919 110.58 97.9679 118.372 96.6159 125.348C96.5724 125.588 96.4394 125.803 96.2438 125.95C96.0481 126.097 95.8042 126.164 95.5611 126.138C95.318 126.112 95.0937 125.995 94.9332 125.811C94.7727 125.626 94.688 125.388 94.6959 125.144C94.7599 120.564 94.6399 115.988 93.8959 111.48C92.8199 105.08 90.3639 98.7637 85.8959 94.0797C82.2359 90.2517 77.4399 87.7117 73.5399 84.1357C67.8439 78.9157 61.9919 72.1837 61.4199 64.4797C61.4199 64.4797 72.3559 55.6797 78.4279 56.7797C85.5239 58.0797 92.5079 69.0277 103.5 67.7757C111.148 66.8997 115.024 60.6997 126.668 62.6117Z" fill="#BADBF7"/>
<path d="M127.56 157.792C127.308 155.28 126.636 152.44 124.408 151.256C123.06 150.536 121.416 150.616 119.936 151.004C118.456 151.392 117.068 152.068 115.604 152.504C112.693 153.36 109.585 153.26 106.736 152.22C104.012 151.22 101.676 149.42 99.1358 147.988C96.5958 146.556 93.6478 145.508 90.8318 146.208C85.9758 147.408 83.4478 153.264 78.6478 154.676C76.5118 155.3 74.2198 154.948 72.0518 154.46C69.8838 153.972 67.7038 153.336 65.4838 153.42C63.7398 153.484 61.9278 154.088 60.7078 155.28L60.6758 155.316C60.4727 155.515 60.2879 155.732 60.1238 155.964C58.6358 157.964 58.3958 160.616 58.8558 163.04C59.3678 165.756 60.6358 168.264 61.9958 170.668C63.5958 173.5 65.4198 176.316 68.0678 178.204C71.3398 180.536 75.4478 178.928 79.4518 179.244C88.7838 179.98 98.8238 180.48 108.16 179.76C113.092 179.36 117.712 179.912 121.624 176.884C124.376 174.756 126.168 171.548 127.032 168.18C127.896 164.812 127.908 161.252 127.56 157.792Z" fill="#BADBF7"/>
<g opacity="0.24">
<path d="M109.944 152.984C109.42 153.784 109.192 154.872 109.7 155.688C110.208 156.504 110.9 157.252 111.116 158.192C111.464 159.664 110.576 161.104 109.916 162.468C108.694 164.907 108.233 167.656 108.592 170.36C108.97 173.073 110.371 175.538 112.508 177.252C113.456 177.984 114.688 178.552 115.832 178.192C116.908 177.856 117.6 176.764 117.832 175.656C118.064 174.548 117.868 173.408 117.728 172.292C117.077 167.091 117.211 161.821 118.128 156.66C118.28 155.8 118.424 154.816 117.88 154.132C117.488 153.734 116.989 153.456 116.444 153.332C114.364 152.64 112.12 153.408 109.964 153" fill="black"/>
</g>
<path d="M55.932 181.712C55.932 181.712 55.744 178.584 59.824 176.84H131.524C131.524 176.84 135.264 178.736 135.724 181.64L55.932 181.712Z" fill="#263238"/>
<path d="M130 44.4759L129.884 44.5279L62.4644 44.0959C62.4644 44.0959 62.2244 43.9439 61.8684 43.6599C61.4481 43.3307 61.1415 42.8781 60.9915 42.3657C60.8416 41.8532 60.8559 41.3067 61.0324 40.8029C61.2089 40.299 61.5387 39.863 61.9756 39.5561C62.4125 39.2493 62.9346 39.0869 63.4684 39.0919L128.908 39.6199C131.6 39.6439 132.448 43.3239 130 44.4759Z" fill="#263238"/>
<g opacity="0.24">
<path d="M119.2 70.196C119.336 70.456 118.828 70.996 117.864 71.876C116.9 72.756 115.464 73.912 113.68 75.364C111.538 77.1337 109.264 78.7383 106.88 80.164C105.398 81.0218 103.839 81.7383 102.224 82.304C101.348 82.6066 100.454 82.8538 99.5476 83.044C98.5952 83.2463 97.6281 83.372 96.6556 83.42C94.685 83.5272 92.712 83.2557 90.8436 82.62C89.1918 82.0192 87.6221 81.2129 86.1716 80.22C84.8276 79.332 83.6716 78.452 82.5716 77.608C81.4716 76.764 80.4916 75.952 79.6036 75.184C76.0636 72.116 74.1996 69.86 74.5596 69.424C74.9196 68.988 77.4396 70.408 81.3596 72.808L84.5596 74.768C85.7076 75.464 86.9356 76.236 88.1916 76.948C89.438 77.6797 90.7588 78.2764 92.1316 78.728C93.5364 79.1487 95.0035 79.3219 96.4676 79.24C99.5396 79.08 102.52 78 105.1 76.752C107.68 75.504 110.016 74.048 112.04 72.912C113.641 71.9668 115.316 71.1508 117.048 70.472C118.316 70.028 119.084 69.944 119.2 70.196Z" fill="black"/>
</g>
<path d="M94.7439 133.704C95.0273 133.591 95.3437 133.594 95.6246 133.713C95.9055 133.832 96.1284 134.057 96.2448 134.339C96.3613 134.621 96.362 134.937 96.2469 135.219C96.1317 135.502 95.91 135.728 95.6296 135.848C95.3493 135.968 95.0329 135.973 94.749 135.861C94.465 135.75 94.2364 135.531 94.1126 135.252C93.9888 134.974 93.9797 134.657 94.0874 134.372C94.1951 134.087 94.4108 133.855 94.6879 133.728" fill="#BADBF7"/>
<path d="M70.6316 81.352C70.5439 81.28 70.4635 81.1996 70.3916 81.112L69.7396 80.4C69.4636 80.084 69.0996 79.716 68.7276 79.248L67.4556 77.648C67.0196 77.032 66.5276 76.368 66.0316 75.648L65.2996 74.484C65.1756 74.284 65.0436 74.084 64.9236 73.872L64.5716 73.224C63.507 71.3373 62.673 69.3296 62.0876 67.244C61.4992 65.1601 61.1819 63.009 61.1436 60.844C61.1436 60.344 61.1716 59.86 61.1796 59.384C61.1796 59.148 61.1796 58.916 61.2116 58.688C61.2436 58.46 61.2596 58.236 61.2836 58.016C61.3356 57.576 61.3676 57.148 61.4276 56.74C61.4876 56.332 61.5716 55.94 61.6396 55.576C61.7516 54.828 61.9516 54.176 62.0916 53.576C62.1676 53.288 62.2276 53.016 62.3036 52.776L62.5236 52.108L62.8316 51.192C62.861 51.0829 62.9012 50.9771 62.9516 50.876C62.9351 50.9876 62.9083 51.0974 62.8716 51.204C62.8036 51.436 62.7156 51.744 62.5996 52.132L62.3996 52.8C62.3316 53.044 62.2756 53.316 62.2036 53.6C62.0756 54.18 61.8876 54.836 61.8036 55.6C61.7396 55.968 61.6756 56.356 61.6076 56.76C61.5396 57.164 61.5236 57.588 61.4756 58.028C61.4756 58.248 61.4316 58.468 61.4076 58.696C61.3836 58.924 61.4076 59.156 61.3836 59.388C61.3836 59.86 61.3516 60.34 61.3556 60.836C61.3946 62.9883 61.7078 65.1269 62.2876 67.2C62.8699 69.2703 63.6928 71.2652 64.7396 73.144C64.8556 73.36 64.9716 73.576 65.0836 73.792C65.1956 74.008 65.3356 74.192 65.4556 74.4L66.1756 75.564C66.6636 76.3 67.1476 76.964 67.5716 77.564L68.8196 79.164C69.1796 79.64 69.5356 80.012 69.7996 80.34L70.4236 81.08C70.4985 81.1662 70.568 81.257 70.6316 81.352Z" fill="#263238"/>
<path d="M66.8359 140.776C66.8557 140.73 66.8798 140.686 66.9079 140.644L67.1479 140.268C67.2559 140.1 67.3879 139.9 67.5479 139.66L67.7999 139.26C67.8999 139.128 68.0159 138.996 68.1319 138.86L68.9319 137.9C69.2399 137.568 69.5919 137.224 69.9639 136.848C70.8265 136.018 71.7431 135.245 72.7079 134.536C74.8319 132.936 77.5719 131.336 80.5399 129.46C82.1006 128.498 83.6008 127.442 85.0319 126.296C86.5673 125.073 87.9232 123.64 89.0599 122.04C91.1405 118.843 92.271 115.122 92.3199 111.308C92.3706 108.2 91.85 105.108 90.7839 102.188C90.0778 100.217 89.1914 98.316 88.1359 96.5081C87.7639 95.8641 87.4599 95.3761 87.2519 95.0441L87.0159 94.6681C86.9639 94.5841 86.9399 94.5361 86.9399 94.5361C86.9756 94.572 87.0065 94.6124 87.0319 94.6561L87.2879 95.0241C87.5079 95.3441 87.8239 95.8241 88.2039 96.4681C89.2921 98.2663 90.203 100.166 90.9239 102.14C92.0186 105.073 92.5611 108.182 92.5239 111.312C92.507 112.215 92.4335 113.115 92.3039 114.008C92.1744 114.942 91.9778 115.866 91.7159 116.772C91.1696 118.691 90.3202 120.51 89.1999 122.16C88.0516 123.778 86.6807 125.225 85.1279 126.46C83.6882 127.607 82.1801 128.665 80.6119 129.628C77.6319 131.488 74.8879 133.072 72.7639 134.66C71.7994 135.36 70.8802 136.12 70.0119 136.936C69.6399 137.308 69.2839 137.644 68.9719 137.972L68.1719 138.912C68.0519 139.056 67.9359 139.188 67.8359 139.312L67.5759 139.692L67.1759 140.288L66.9199 140.652C66.8953 140.696 66.8672 140.737 66.8359 140.776Z" fill="#263238"/>
<path d="M63.1157 147.844C63.0916 147.909 63.0622 147.972 63.0277 148.032L62.7397 148.54C62.6117 148.756 62.4597 149.028 62.3037 149.34C62.1477 149.652 61.9477 150.02 61.7797 150.44C61.6917 150.648 61.5957 150.864 61.4997 151.088C61.4037 151.312 61.3237 151.56 61.2277 151.808C61.0357 152.304 60.8837 152.848 60.7077 153.408C60.012 155.916 59.7722 158.528 59.9997 161.12C60.0677 161.712 60.1157 162.28 60.2197 162.8C60.2637 163.06 60.2997 163.316 60.3517 163.556C60.4037 163.796 60.4597 164.028 60.5117 164.248C60.5997 164.692 60.7317 165.08 60.8277 165.424C60.9237 165.768 61.0197 166.064 61.1077 166.304L61.2957 166.856C61.3227 166.918 61.3402 166.984 61.3477 167.052C61.3092 166.996 61.2782 166.936 61.2557 166.872C61.1957 166.724 61.1237 166.548 61.0317 166.332C60.9108 166.047 60.8053 165.756 60.7157 165.46C60.6077 165.116 60.4677 164.728 60.3677 164.284C60.3117 164.064 60.2557 163.832 60.1957 163.592C60.1357 163.352 60.0997 163.092 60.0477 162.832C59.9357 162.304 59.8797 161.736 59.8077 161.14C59.5573 158.532 59.7988 155.899 60.5197 153.38C60.6997 152.804 60.8597 152.256 61.0637 151.76C61.1637 151.512 61.2437 151.268 61.3477 151.04L61.6437 150.388C61.8197 149.988 62.0437 149.616 62.1997 149.296C62.3407 149.021 62.4969 148.754 62.6677 148.496L62.9877 148.004C63.0677 147.896 63.1077 147.84 63.1157 147.844Z" fill="#263238"/>
<path d="M112.568 157.46L112.488 157.516L112.24 157.672L111.268 158.256L110.564 158.656C110.3 158.804 110.008 158.94 109.696 159.096C109.064 159.4 108.368 159.788 107.544 160.1L106.264 160.624C105.82 160.8 105.336 160.94 104.848 161.108C103.876 161.464 102.796 161.72 101.672 162.012C96.7367 163.168 91.6175 163.304 86.6279 162.412C85.4839 162.18 84.3959 161.98 83.4039 161.676C82.9079 161.532 82.4199 161.42 81.9639 161.276L80.6599 160.8C79.8239 160.532 79.1039 160.184 78.4599 159.912C78.1399 159.772 77.8399 159.648 77.5719 159.512L76.8439 159.132L75.8439 158.6L75.5879 158.456L75.5039 158.404C75.5039 158.404 75.5399 158.404 75.5999 158.44L75.8639 158.564L76.8799 159.06L77.6119 159.42C77.8839 159.548 78.1879 159.664 78.5079 159.8C79.1519 160.056 79.8719 160.396 80.7119 160.652L81.9999 161.12C82.4559 161.272 82.9439 161.38 83.4399 161.52C84.4279 161.816 85.5119 162.004 86.6399 162.232C91.6064 163.092 96.6944 162.956 101.608 161.832C102.728 161.544 103.804 161.3 104.776 160.952C105.264 160.788 105.744 160.656 106.188 160.48L107.468 159.972C108.292 159.668 108.992 159.292 109.624 159C109.936 158.848 110.232 158.716 110.496 158.6L111.208 158.2L112.196 157.648L112.456 157.512C112.536 157.468 112.568 157.456 112.568 157.46Z" fill="#263238"/>
<path d="M116.74 72.7998C116.716 72.8288 116.687 72.8543 116.656 72.8758L116.392 73.0918C116.148 73.2878 115.808 73.5638 115.372 73.8918C114.484 74.5958 113.196 75.6158 111.568 76.8318C109.674 78.2821 107.687 79.6075 105.62 80.7998C104.391 81.4876 103.11 82.0774 101.788 82.5638C100.362 83.0825 98.8752 83.4133 97.364 83.5478C94.4261 83.7127 91.4963 83.103 88.868 81.7798C87.7314 81.2025 86.6343 80.5504 85.584 79.8278C84.608 79.1398 83.716 78.4718 82.928 77.8278C81.328 76.5558 80.104 75.4798 79.24 74.7438L78.252 73.8878L78 73.6638L77.916 73.5798C77.916 73.5798 77.952 73.5798 78.012 73.6438L78.28 73.8558L79.292 74.6798C80.172 75.3998 81.428 76.4558 83.02 77.7118C83.82 78.3398 84.704 78.9998 85.684 79.6798C86.7306 80.3899 87.8223 81.0313 88.952 81.5998C91.5541 82.8968 94.4491 83.4937 97.352 83.3318C98.8451 83.1994 100.315 82.874 101.724 82.3638C103.037 81.8839 104.31 81.3021 105.532 80.6238C107.596 79.4532 109.585 78.1561 111.488 76.7398C113.12 75.5398 114.42 74.5398 115.328 73.8558L116.372 73.0558L116.648 72.8558C116.676 72.8326 116.707 72.8138 116.74 72.7998Z" fill="#263238"/>
<g opacity="0.24">
<path d="M80.6641 160.82C82.5601 159.356 85.2241 159.708 87.5681 160.204C89.9121 160.7 92.2721 161.496 94.6441 161.164C96.4321 160.912 98.0721 160.036 99.8441 159.652C101.616 159.268 103.748 159.552 104.728 161.068C96.8954 163.592 88.455 163.505 80.6761 160.82" fill="black"/>
</g>
<path d="M146.8 149.964L138.2 140.32L138.112 152.044L140.704 159.564L114.936 164.032L113.844 143.7L111.988 128.1C111.877 127.17 112.078 126.229 112.558 125.426C113.039 124.622 113.772 123.999 114.644 123.656L121.736 120.856L131.736 122.688L135.756 124.216C137.441 124.858 138.943 125.903 140.132 127.26L152.228 141.092" fill="#91BC25"/>
<path d="M137.6 138C138.085 137.994 138.57 137.959 139.052 137.896C140.212 137.719 141.293 137.2 142.156 136.404C143.019 135.609 143.625 134.574 143.896 133.432C143.995 132.955 144.069 132.473 144.116 131.988C144.148 132.119 144.16 132.254 144.152 132.388C144.155 132.751 144.117 133.114 144.04 133.468C143.797 134.656 143.188 135.737 142.297 136.559C141.406 137.381 140.279 137.902 139.076 138.048C138.716 138.095 138.353 138.103 137.992 138.072C137.858 138.07 137.726 138.045 137.6 138Z" fill="white"/>
<path d="M138.348 151.544C138.408 151.544 138.424 147.48 138.384 142.472C138.344 137.464 138.26 133.404 138.2 133.404C138.14 133.404 138.124 137.464 138.164 142.476C138.204 147.488 138.288 151.544 138.348 151.544Z" fill="#263238"/>
<path d="M137.404 154.524L121.836 148.256C121.22 148.008 120.686 147.594 120.294 147.059C119.902 146.524 119.667 145.89 119.616 145.228L118.476 130.3C118.476 130.3 118.612 123.948 114.644 123.64L112.4 124.528C109.484 126.076 108.764 130.324 109.16 133.6C109.724 138.256 109.96 144.848 110.588 148.888C111.108 152.196 112.988 155.104 116.236 155.956L135.412 160.108L137.404 154.524Z" fill="#91BC25"/>
<path d="M118.7 132.576C118.726 132.688 118.742 132.802 118.748 132.916C118.772 133.16 118.808 133.488 118.848 133.9C118.928 134.776 119.04 136.008 119.176 137.52C119.312 139.032 119.464 140.876 119.64 142.892C119.68 143.4 119.724 143.916 119.768 144.444C119.798 144.981 119.865 145.516 119.968 146.044C120.076 146.578 120.347 147.066 120.744 147.44C121.17 147.815 121.655 148.118 122.18 148.336C126.472 150.192 130.428 151.728 133.3 152.804L136.712 154.06L137.64 154.4C137.748 154.436 137.854 154.48 137.956 154.532C137.842 154.512 137.731 154.481 137.624 154.44L136.684 154.136C135.884 153.864 134.684 153.46 133.252 152.936C130.36 151.896 126.4 150.384 122.092 148.536C121.547 148.307 121.043 147.991 120.6 147.6C120.174 147.196 119.884 146.671 119.768 146.096C119.664 145.56 119.599 145.017 119.572 144.472C119.528 143.94 119.488 143.424 119.448 142.916C119.292 140.916 119.148 139.076 119.048 137.54C118.948 136.004 118.848 134.792 118.784 133.916C118.756 133.516 118.736 133.172 118.724 132.928C118.705 132.812 118.697 132.694 118.7 132.576Z" fill="#263238"/>
<path d="M109.78 140.692C109.796 140.757 109.805 140.824 109.808 140.892L109.86 141.468C109.908 142 109.968 142.716 110.044 143.588C110.12 144.46 110.24 145.544 110.396 146.72C110.549 147.993 110.783 149.256 111.096 150.5C111.243 151.141 111.5 151.751 111.856 152.304C112.203 152.812 112.593 153.289 113.02 153.732C113.748 154.481 114.589 155.111 115.512 155.6C116.372 156.037 117.295 156.339 118.248 156.496C118.18 156.505 118.112 156.505 118.044 156.496C117.85 156.483 117.658 156.458 117.468 156.42C116.764 156.289 116.083 156.059 115.444 155.736C114.495 155.258 113.63 154.628 112.884 153.872C112.442 153.424 112.04 152.939 111.684 152.42C111.31 151.852 111.04 151.222 110.884 150.56C110.566 149.307 110.335 148.033 110.192 146.748C110.048 145.548 109.952 144.5 109.888 143.604C109.824 142.708 109.788 141.98 109.768 141.476C109.768 141.244 109.768 141.052 109.768 140.896C109.761 140.828 109.765 140.759 109.78 140.692Z" fill="#263238"/>
<path d="M116.436 151.136C116.476 150.845 116.573 150.564 116.72 150.308C117.04 149.671 117.485 149.104 118.028 148.64C118.57 148.176 119.2 147.826 119.88 147.608C120.155 147.503 120.449 147.453 120.744 147.46C120.482 147.569 120.215 147.665 119.944 147.748C119.3 147.997 118.704 148.353 118.18 148.8C117.656 149.249 117.212 149.781 116.864 150.376C116.584 150.836 116.468 151.148 116.436 151.136Z" fill="#263238"/>
<path d="M119.5 139.784C119.534 139.794 119.566 139.809 119.596 139.828L119.876 139.976C120.237 140.154 120.608 140.31 120.988 140.444C122.388 140.935 123.889 141.064 125.352 140.82C127.525 140.432 129.467 139.225 130.776 137.448C131.559 136.421 132.049 135.202 132.196 133.92C132.269 133.246 132.198 132.564 131.988 131.92C131.767 131.262 131.381 130.671 130.868 130.204C130.362 129.73 129.725 129.421 129.04 129.316C128.715 129.258 128.382 129.274 128.065 129.363C127.747 129.453 127.454 129.613 127.208 129.832C126.985 130.051 126.856 130.348 126.848 130.66C126.855 130.971 126.961 131.271 127.152 131.516C127.351 131.753 127.594 131.948 127.869 132.09C128.144 132.233 128.444 132.319 128.752 132.344C129.835 132.479 130.935 132.34 131.95 131.939C132.966 131.539 133.865 130.89 134.564 130.052C135.094 129.4 135.494 128.651 135.74 127.848C135.924 127.239 136.023 126.608 136.036 125.972C136.04 125.57 136.011 125.169 135.948 124.772C135.924 124.648 135.904 124.544 135.892 124.464C135.889 124.428 135.889 124.392 135.892 124.356C136.057 124.873 136.138 125.413 136.132 125.956C136.136 126.601 136.047 127.244 135.868 127.864C135.423 129.358 134.461 130.646 133.155 131.498C131.849 132.35 130.283 132.711 128.736 132.516C128.406 132.487 128.084 132.393 127.791 132.239C127.497 132.085 127.236 131.875 127.024 131.62C126.807 131.34 126.686 130.998 126.68 130.644C126.68 130.28 126.824 129.931 127.08 129.672C127.349 129.432 127.668 129.256 128.014 129.156C128.361 129.056 128.725 129.036 129.08 129.096C129.808 129.204 130.485 129.532 131.02 130.036C131.562 130.525 131.967 131.147 132.196 131.84C132.414 132.51 132.487 133.219 132.412 133.92C132.256 135.23 131.749 136.474 130.944 137.52C129.834 139.035 128.257 140.145 126.457 140.68C124.656 141.214 122.729 141.144 120.972 140.48C120.453 140.314 119.958 140.08 119.5 139.784Z" fill="white"/>
<path d="M109.3 135.804C109.367 135.684 109.454 135.576 109.556 135.484C109.811 135.213 110.093 134.968 110.396 134.752C111.417 134.05 112.605 133.63 113.84 133.532C114.517 133.456 115.203 133.484 115.872 133.616C116.416 133.729 116.942 133.915 117.436 134.168C117.768 134.335 118.086 134.528 118.388 134.744C118.505 134.816 118.61 134.905 118.7 135.008C118.676 135.04 118.212 134.688 117.372 134.3C116.277 133.792 115.062 133.598 113.864 133.74C112.66 133.835 111.498 134.224 110.48 134.872C109.708 135.388 109.328 135.832 109.3 135.804Z" fill="white"/>
<path d="M111.792 125.128C112.172 125.485 112.595 125.793 113.052 126.044C113.551 126.3 114.094 126.46 114.652 126.516C115.331 126.584 116.017 126.488 116.652 126.236C117.274 125.97 117.823 125.559 118.252 125.036C118.606 124.599 118.877 124.102 119.052 123.568C119.196 123.066 119.278 122.549 119.296 122.028C119.335 122.166 119.352 122.309 119.348 122.452C119.355 122.844 119.302 123.235 119.192 123.612C119.029 124.174 118.757 124.698 118.392 125.156C117.954 125.73 117.371 126.177 116.703 126.452C116.036 126.728 115.307 126.821 114.592 126.724C114.012 126.658 113.451 126.479 112.94 126.196C112.596 126.007 112.283 125.767 112.012 125.484C111.917 125.38 111.843 125.259 111.792 125.128Z" fill="white"/>
<path d="M125.359 149.676C125.36 149.577 125.371 149.477 125.391 149.38C125.447 149.102 125.54 148.833 125.667 148.58C126.176 147.648 127.002 146.93 127.995 146.556C129.457 145.975 131.075 145.917 132.575 146.392C133.399 146.636 134.343 146.94 134.975 147.744C135.134 147.949 135.235 148.194 135.266 148.452C135.297 148.71 135.257 148.971 135.151 149.208C134.91 149.671 134.52 150.039 134.043 150.252C133.584 150.48 133.08 150.605 132.567 150.62C132.058 150.645 131.557 150.489 131.151 150.18C130.964 150.02 130.812 149.824 130.703 149.603C130.594 149.383 130.532 149.142 130.519 148.896C130.493 148.437 130.565 147.977 130.731 147.548C131.334 146.09 132.482 144.925 133.931 144.3C134.893 143.872 135.946 143.69 136.995 143.772C137.377 143.801 137.754 143.88 138.115 144.008C138.115 144.036 137.715 143.904 136.987 143.852C136.118 143.805 135.248 143.936 134.431 144.236C133.614 144.537 132.867 145.001 132.235 145.6C131.649 146.162 131.192 146.844 130.895 147.6C130.74 148.004 130.673 148.436 130.699 148.868C130.711 149.087 130.767 149.301 130.865 149.497C130.963 149.693 131.1 149.867 131.267 150.008C131.633 150.289 132.087 150.431 132.547 150.408C133.028 150.396 133.501 150.278 133.931 150.064C134.366 149.87 134.724 149.537 134.947 149.116C135.037 148.912 135.071 148.687 135.044 148.465C135.017 148.244 134.931 148.033 134.795 147.856C134.516 147.504 134.159 147.222 133.751 147.032C133.356 146.843 132.945 146.689 132.523 146.572C131.063 146.1 129.485 146.14 128.051 146.688C127.08 147.04 126.262 147.72 125.739 148.612C125.566 148.948 125.438 149.306 125.359 149.676Z" fill="white"/>
<path d="M114.991 155.296C114.991 155.256 115.583 155.208 116.483 154.896C117.658 154.482 118.711 153.781 119.545 152.856C120.379 151.931 120.969 150.812 121.259 149.6C121.487 148.672 121.479 148.068 121.519 148.072C121.547 148.21 121.554 148.352 121.539 148.492C121.53 148.876 121.484 149.257 121.403 149.632C121.144 150.883 120.556 152.041 119.699 152.988C118.843 153.935 117.749 154.637 116.531 155.02C116.167 155.139 115.792 155.223 115.411 155.272C115.273 155.301 115.132 155.309 114.991 155.296Z" fill="white"/>
<path d="M109.943 143.692C110.003 143.659 110.066 143.633 110.131 143.616C110.259 143.576 110.443 143.52 110.687 143.456C111.38 143.274 112.096 143.201 112.811 143.24C113.308 143.278 113.795 143.398 114.251 143.596C114.783 143.826 115.247 144.189 115.595 144.652C115.978 145.177 116.164 145.82 116.119 146.468C116.094 146.813 115.988 147.147 115.811 147.444C115.632 147.757 115.349 147.998 115.011 148.124C114.833 148.185 114.642 148.198 114.457 148.161C114.273 148.125 114.101 148.04 113.959 147.916C113.719 147.651 113.589 147.305 113.595 146.948C113.575 146.311 113.701 145.677 113.963 145.096C114.328 144.268 114.96 143.586 115.757 143.157C116.554 142.729 117.471 142.579 118.363 142.732C118.555 142.762 118.744 142.809 118.927 142.872C119.051 142.92 119.115 142.948 119.111 142.956C119.107 142.964 118.843 142.872 118.351 142.812C117.656 142.728 116.951 142.819 116.299 143.076C115.334 143.463 114.562 144.217 114.151 145.172C113.907 145.727 113.791 146.33 113.811 146.936C113.803 147.242 113.912 147.54 114.115 147.768C114.23 147.866 114.368 147.932 114.516 147.96C114.664 147.988 114.817 147.977 114.959 147.928C115.256 147.818 115.505 147.609 115.663 147.336C115.823 147.066 115.918 146.764 115.943 146.452C115.985 145.851 115.817 145.254 115.467 144.764C115.143 144.324 114.708 143.976 114.207 143.756C113.77 143.557 113.302 143.433 112.823 143.388C112.124 143.336 111.421 143.386 110.735 143.536C110.219 143.636 109.951 143.708 109.943 143.692Z" fill="white"/>
<g opacity="0.3">
<path d="M132.928 152.744C131.264 151.804 129.636 151.08 127.896 150.292C126.156 149.504 124.448 148.484 123.308 146.948C121.16 144.052 121.404 139.872 119.208 137.016C119.352 138.936 119.495 140.857 119.636 142.78C119.768 144.54 119.5 146.284 120.632 147.48C121.588 148.488 123.452 149.26 124.772 149.696C127.424 150.572 130.28 151.872 132.928 152.744Z" fill="black"/>
</g>
<path d="M159.999 174.684C159.999 174.684 173.027 178.284 173.551 178.476C174.351 178.752 174.203 181.628 172.983 181.58C172.403 181.56 162.983 181.932 161.783 181.86C160.583 181.788 156.983 180.368 156.983 180.368L159.999 174.684Z" fill="#91BC25"/>
<path d="M165.412 179.656C165.573 179.177 165.765 178.71 165.988 178.256C166.268 177.837 166.576 177.436 166.908 177.056C166.444 177.31 166.06 177.686 165.796 178.144C165.532 178.602 165.399 179.124 165.412 179.652V179.656Z" fill="#263238"/>
<path d="M164.052 179.04C164.116 179.04 164.248 178.436 164.596 177.756C164.944 177.076 165.352 176.6 165.308 176.556C164.928 176.852 164.618 177.229 164.4 177.659C164.183 178.089 164.064 178.562 164.052 179.044V179.04Z" fill="#263238"/>
<path d="M162.799 178.7C162.863 178.234 162.965 177.774 163.104 177.324C163.308 176.9 163.544 176.492 163.811 176.104C163.398 176.382 163.08 176.78 162.899 177.244C162.718 177.708 162.684 178.216 162.799 178.7Z" fill="#263238"/>
<path d="M163.012 177.016C163.126 176.707 163.174 176.377 163.152 176.048C163.148 175.689 163.103 175.332 163.02 174.984C162.97 174.778 162.904 174.576 162.824 174.38C162.786 174.256 162.714 174.145 162.616 174.06C162.55 174.011 162.469 173.987 162.387 173.991C162.306 173.996 162.228 174.028 162.168 174.084C162.067 174.181 162.005 174.312 161.996 174.452C161.986 174.566 161.986 174.681 161.996 174.796C161.997 175.01 162.024 175.224 162.076 175.432C162.162 175.781 162.297 176.116 162.476 176.428C162.619 176.728 162.817 177 163.06 177.228C163.092 177.228 162.872 176.904 162.612 176.372C162.46 176.064 162.346 175.739 162.272 175.404C162.23 175.208 162.208 175.008 162.208 174.808C162.208 174.608 162.208 174.36 162.328 174.264C162.351 174.242 162.382 174.231 162.414 174.231C162.445 174.231 162.476 174.242 162.5 174.264C162.565 174.328 162.614 174.406 162.644 174.492C162.72 174.68 162.786 174.872 162.84 175.068C162.931 175.4 162.989 175.74 163.012 176.084C163.036 176.644 162.976 177.012 163.012 177.016Z" fill="#263238"/>
<path d="M162.995 176.884C162.73 176.773 162.442 176.727 162.155 176.748C161.844 176.748 161.534 176.786 161.231 176.86C161.045 176.902 160.865 176.968 160.695 177.056C160.589 177.11 160.503 177.198 160.45 177.305C160.397 177.413 160.381 177.535 160.403 177.652C160.433 177.765 160.492 177.867 160.575 177.949C160.657 178.031 160.759 178.09 160.871 178.12C161.063 178.168 161.264 178.168 161.455 178.12C161.764 178.05 162.053 177.913 162.303 177.72C162.541 177.561 162.745 177.359 162.907 177.124C162.667 177.265 162.436 177.421 162.215 177.592C161.973 177.758 161.702 177.876 161.415 177.94C161.257 177.98 161.09 177.98 160.931 177.94C160.856 177.921 160.788 177.883 160.732 177.829C160.677 177.775 160.636 177.707 160.615 177.632C160.603 177.559 160.615 177.484 160.65 177.418C160.685 177.352 160.74 177.3 160.807 177.268C160.956 177.186 161.115 177.125 161.279 177.084C161.567 177.002 161.862 176.951 162.159 176.932C162.667 176.868 162.987 176.92 162.995 176.884Z" fill="#263238"/>
<path d="M167.411 179.796C167.467 179.398 167.554 179.005 167.671 178.62C167.854 178.263 168.067 177.922 168.307 177.6C167.928 177.807 167.631 178.138 167.468 178.539C167.305 178.939 167.285 179.383 167.411 179.796Z" fill="#263238"/>
<path d="M158.323 180.4C158.481 180.5 158.65 180.581 158.827 180.64C159.3 180.82 159.784 180.969 160.275 181.088C161.909 181.444 163.58 181.603 165.251 181.56C167.203 181.536 168.963 181.448 170.239 181.396L171.747 181.316C171.932 181.313 172.117 181.294 172.299 181.26C172.115 181.231 171.929 181.222 171.743 181.232H170.235L165.251 181.328C163.595 181.371 161.939 181.236 160.311 180.928C159.063 180.676 158.339 180.356 158.323 180.4Z" fill="#263238"/>
<path d="M157.939 180.696C157.939 180.724 158.311 180.516 158.915 180.252C159.683 179.89 160.537 179.751 161.379 179.852C162.208 180.032 162.956 180.475 163.511 181.116C163.743 181.389 163.993 181.646 164.259 181.884C164.088 181.566 163.874 181.273 163.623 181.012C163.367 180.714 163.077 180.445 162.759 180.212C162.362 179.918 161.9 179.723 161.411 179.644C160.527 179.537 159.632 179.706 158.847 180.128C158.516 180.267 158.21 180.459 157.939 180.696Z" fill="#263238"/>
<path d="M146.156 171.088C146.156 171.088 133.828 179.16 133.388 179.488C132.724 179.988 133.484 182.376 134.636 181.964C135.18 181.768 145.524 178.888 146.636 178.456C147.748 178.024 150.744 175.6 150.744 175.6L146.156 171.088Z" fill="#91BC25"/>
<path d="M142.495 177.472C142.347 176.965 142.061 176.508 141.67 176.152C141.28 175.795 140.798 175.553 140.279 175.452C140.713 175.712 141.128 176.001 141.523 176.316C141.871 176.681 142.196 177.067 142.495 177.472Z" fill="#263238"/>
<path d="M143.6 176.472C143.443 176.016 143.187 175.599 142.85 175.254C142.513 174.908 142.104 174.641 141.652 174.472C141.62 174.528 142.16 174.872 142.692 175.4C143.224 175.928 143.544 176.504 143.6 176.472Z" fill="#263238"/>
<path d="M144.712 175.76C144.71 175.257 144.519 174.772 144.176 174.404C143.889 173.997 143.461 173.712 142.976 173.604C143.347 173.894 143.696 174.211 144.02 174.552C144.282 174.936 144.513 175.34 144.712 175.76Z" fill="#263238"/>
<path d="M144 174.228C144.032 174.228 143.864 173.88 143.724 173.304C143.64 172.97 143.59 172.628 143.576 172.284C143.562 172.082 143.562 171.878 143.576 171.676C143.574 171.585 143.598 171.495 143.644 171.416C143.661 171.389 143.688 171.369 143.72 171.362C143.751 171.355 143.784 171.36 143.812 171.376C143.952 171.432 144.024 171.672 144.092 171.864C144.151 172.054 144.191 172.25 144.212 172.448C144.243 172.791 144.232 173.136 144.18 173.476C144.096 174.06 143.98 174.416 144.012 174.428C144.177 174.142 144.285 173.827 144.332 173.5C144.409 173.15 144.436 172.79 144.412 172.432C144.396 172.218 144.357 172.006 144.296 171.8C144.263 171.69 144.223 171.581 144.176 171.476C144.123 171.345 144.023 171.238 143.896 171.176C143.822 171.142 143.738 171.134 143.659 171.155C143.58 171.177 143.511 171.225 143.464 171.292C143.398 171.403 143.363 171.531 143.364 171.66C143.32 172.23 143.385 172.803 143.556 173.348C143.64 173.669 143.791 173.969 144 174.228Z" fill="#263238"/>
<path d="M143.956 174.096C143.956 174.128 144.26 173.984 144.756 173.86C145.046 173.791 145.342 173.75 145.64 173.74C145.81 173.728 145.981 173.739 146.148 173.772C146.222 173.782 146.29 173.816 146.343 173.867C146.397 173.919 146.432 173.987 146.444 174.06C146.447 174.14 146.43 174.218 146.392 174.289C146.355 174.359 146.3 174.418 146.232 174.46C146.094 174.547 145.938 174.599 145.776 174.612C145.484 174.641 145.189 174.611 144.908 174.524C144.647 174.426 144.38 174.348 144.108 174.288C144.334 174.468 144.592 174.604 144.868 174.688C145.165 174.802 145.483 174.849 145.8 174.828C145.997 174.818 146.189 174.757 146.356 174.652C146.455 174.591 146.536 174.505 146.59 174.402C146.644 174.299 146.67 174.184 146.664 174.068C146.65 173.949 146.597 173.838 146.514 173.751C146.431 173.664 146.322 173.607 146.204 173.588C146.017 173.555 145.826 173.547 145.636 173.564C145.325 173.585 145.017 173.643 144.72 173.736C144.441 173.796 144.18 173.919 143.956 174.096Z" fill="#263238"/>
<path d="M136.203 181.52C136.203 181.54 136.411 181.396 136.507 181.044C136.603 180.584 136.52 180.105 136.275 179.704C136.157 179.489 136.023 179.284 135.875 179.088C135.755 178.921 135.614 178.771 135.455 178.64C135.342 178.546 135.202 178.489 135.055 178.476C134.951 178.476 134.899 178.496 134.899 178.508C134.899 178.52 135.119 178.528 135.347 178.76C135.482 178.896 135.601 179.046 135.703 179.208C135.847 179.401 135.98 179.601 136.103 179.808C136.324 180.167 136.42 180.589 136.375 181.008C136.328 181.182 136.271 181.353 136.203 181.52Z" fill="#263238"/>
<path d="M140.631 178.212C140.648 177.996 140.617 177.778 140.542 177.574C140.467 177.371 140.349 177.186 140.195 177.032C140.072 176.853 139.911 176.703 139.724 176.594C139.537 176.484 139.328 176.416 139.111 176.396C139.438 176.628 139.745 176.888 140.027 177.172C140.258 177.501 140.46 177.849 140.631 178.212Z" fill="#263238"/>
<path d="M149.475 176.028C149.284 176.134 149.102 176.258 148.931 176.396C148.443 176.735 147.935 177.046 147.411 177.328C146.636 177.739 145.834 178.099 145.011 178.404C144.075 178.752 143.011 179.08 141.923 179.4C139.703 180.04 137.695 180.624 136.247 181.06L134.523 181.6C134.311 181.656 134.103 181.731 133.903 181.824C134.121 181.794 134.337 181.747 134.547 181.684L136.279 181.2C137.739 180.8 139.751 180.24 141.971 179.6C143.079 179.276 144.131 178.94 145.067 178.58C145.9 178.263 146.709 177.886 147.487 177.452C148.01 177.156 148.51 176.822 148.983 176.452C149.159 176.324 149.323 176.183 149.475 176.028Z" fill="#263238"/>
<path d="M149.931 176.192C149.6 176.046 149.248 175.951 148.887 175.912C148.011 175.75 147.106 175.861 146.295 176.232C145.857 176.461 145.481 176.793 145.199 177.2C144.967 177.521 144.773 177.867 144.619 178.232C144.459 178.556 144.344 178.9 144.279 179.256C144.46 178.947 144.621 178.626 144.759 178.296C145.093 177.515 145.671 176.863 146.407 176.44C147.182 176.092 148.038 175.968 148.879 176.084C149.519 176.136 149.923 176.224 149.931 176.192Z" fill="#263238"/>
<path d="M171.775 151.404C171.775 151.404 175.475 152.724 175.487 156.872C175.519 164.812 159.439 173.568 159.439 173.568L138.039 159.392L136.699 158.848C136.699 158.848 165.599 148 171.775 151.404Z" fill="#263238"/>
<path d="M148.88 166.552C149.077 166.443 149.264 166.317 149.44 166.176C149.788 165.92 150.288 165.544 150.9 165.068C152.128 164.124 153.792 162.78 155.588 161.24C157.384 159.7 158.96 158.256 160.08 157.188C160.64 156.656 161.088 156.216 161.396 155.908C161.562 155.758 161.715 155.593 161.852 155.416C161.668 155.545 161.495 155.689 161.336 155.848L159.976 157.076C158.828 158.112 157.236 159.54 155.444 161.076C153.652 162.612 152.004 163.972 150.808 164.948L149.388 166.108C149.207 166.242 149.037 166.391 148.88 166.552Z" fill="#455A64"/>
<path d="M165.736 154.372C164.336 154.224 162.935 154.637 161.84 155.52C161.876 155.58 162.64 155.08 163.736 154.768C164.832 154.456 165.736 154.44 165.736 154.372Z" fill="#455A64"/>
<path d="M163.892 153.12C163.397 153.33 162.961 153.659 162.624 154.078C162.286 154.496 162.057 154.992 161.956 155.52C162.02 155.52 162.252 154.876 162.792 154.216C163.332 153.556 163.928 153.176 163.892 153.12Z" fill="#455A64"/>
<path d="M172.952 178.272C172.952 178.248 172.696 178.196 172.4 178.44C172.051 178.765 171.832 179.206 171.784 179.68C171.714 180.147 171.781 180.623 171.976 181.052C172.128 181.376 172.296 181.528 172.316 181.512C172.263 181.334 172.198 181.161 172.12 180.992C171.98 180.581 171.939 180.142 172 179.712C172.047 179.284 172.223 178.879 172.504 178.552C172.732 178.316 172.956 178.308 172.952 178.272Z" fill="#263238"/>
<path d="M166.852 138.424L159.232 157.744L126.42 158.28L125.812 156.504L137.312 156.088L142.84 138.948L166.852 138.424Z" fill="#455A64"/>
<path d="M151.528 146.8C151.78 146.674 152.063 146.623 152.343 146.653C152.623 146.684 152.889 146.794 153.108 146.972C153.293 147.147 153.422 147.374 153.477 147.623C153.532 147.872 153.511 148.132 153.416 148.368C153.313 148.604 153.146 148.807 152.934 148.954C152.722 149.1 152.473 149.184 152.216 149.196C151.945 149.214 151.676 149.142 151.449 148.993C151.222 148.843 151.051 148.624 150.96 148.368C150.874 148.082 150.881 147.776 150.981 147.494C151.08 147.213 151.266 146.97 151.512 146.8" fill="#EBEBEB"/>
<path d="M161.463 174.536C161.463 174.536 131.231 154.704 129.999 154.292C128.767 153.88 125.767 151.92 122.779 152.744C119.791 153.568 117.103 156.252 115.763 160.172C114.995 162.412 114.635 166.232 114.463 169.1C114.234 172.53 115.345 175.914 117.563 178.54C118.546 179.765 119.851 180.692 121.331 181.216C121.647 181.316 121.975 181.4 122.311 181.472C128.027 182.712 133.911 180.144 137.111 175.256L137.815 174.184C137.815 174.184 157.595 181.448 157.903 181.348L161.463 174.536Z" fill="#263238"/>
<path d="M124.063 169.076C124.117 169.103 124.172 169.127 124.227 169.148L124.723 169.344L126.639 170.084L133.763 172.768C136.787 173.896 140.411 175.24 144.479 176.72C148.547 178.2 153.051 179.82 157.867 181.448L157.951 181.48L157.995 181.396L160.359 176.884L161.559 174.584L161.603 174.496L161.519 174.444L138.459 159.804L131.531 155.436L129.651 154.26L129.159 153.96C129.047 153.892 128.987 153.864 128.987 153.864L129.147 153.98L129.627 154.296L131.487 155.496L138.399 159.932L161.423 174.628L161.383 174.484C161.003 175.216 160.583 175.996 160.183 176.784L157.823 181.296L157.955 181.244C153.155 179.62 148.635 178.004 144.563 176.536L133.831 172.632L126.667 170L124.739 169.296L124.235 169.12L124.063 169.076Z" fill="#455A64"/>
<path d="M127.2 98.6561C127.716 97.2601 128.856 96.6561 130.3 96.3081C131.026 96.139 131.783 96.1479 132.505 96.3338C133.227 96.5197 133.894 96.8773 134.448 97.3761C135.18 98.0441 135.716 98.9761 136.62 99.3761C138.112 100.052 140.02 99.0641 141.42 99.8921C141.84 100.14 142.162 100.526 142.331 100.984C142.499 101.442 142.503 101.944 142.343 102.405C142.183 102.866 141.868 103.258 141.451 103.513C141.035 103.768 140.543 103.871 140.06 103.804C141.032 104.26 141.212 105.724 140.544 106.564C139.876 107.404 138.64 107.632 137.604 107.34C136.583 106.988 135.677 106.365 134.984 105.536C134.256 104.736 133.616 103.876 132.824 103.136C132.064 102.364 131.055 101.885 129.976 101.784C128.524 101.728 127.176 102.708 126.42 103.944C125.664 105.18 125.372 106.648 125.16 108.088C124.948 109.528 124.788 110.992 124.232 112.336C124.168 112.496 124.072 112.668 123.908 112.704C123.664 112.756 123.488 112.488 123.392 112.26C122.297 109.691 121.718 106.932 121.688 104.14C121.668 102.54 121.852 101.008 122.856 99.7401C123.86 98.4721 126.176 97.6841 127.188 98.6361" fill="#263238"/>
<path d="M123.791 105.108L121.567 121.26C121.478 121.912 121.523 122.576 121.698 123.21C121.873 123.845 122.176 124.437 122.588 124.951C122.999 125.464 123.511 125.889 124.092 126.199C124.673 126.508 125.311 126.697 125.967 126.752C127.209 126.86 128.445 126.486 129.419 125.708C130.393 124.93 131.03 123.807 131.199 122.572C131.363 121.372 131.503 120.344 131.531 120.22C131.531 120.22 135.695 120.4 136.551 116.372C136.951 114.424 137.491 110.344 137.927 106.648C138.147 104.735 137.64 102.81 136.506 101.254C135.372 99.6977 133.695 98.6247 131.807 98.2479L131.407 98.1719C127.147 97.5639 124.267 100.844 123.791 105.108Z" fill="#FFBE9D"/>
<path d="M131.527 120.164C129.655 119.82 127.927 118.928 126.563 117.6C126.563 117.6 127.227 120.752 131.327 121.2L131.527 120.164Z" fill="#EB996E"/>
<path d="M136.188 109.12C136.16 109.27 136.073 109.404 135.948 109.491C135.822 109.579 135.667 109.614 135.516 109.588C135.441 109.58 135.369 109.556 135.304 109.519C135.239 109.483 135.182 109.433 135.136 109.374C135.091 109.314 135.058 109.246 135.039 109.174C135.02 109.101 135.017 109.026 135.028 108.952C135.055 108.801 135.141 108.666 135.267 108.578C135.393 108.489 135.548 108.454 135.7 108.48C135.774 108.489 135.846 108.512 135.912 108.55C135.977 108.587 136.034 108.637 136.079 108.696C136.125 108.756 136.158 108.824 136.177 108.897C136.195 108.97 136.199 109.046 136.188 109.12Z" fill="#263238"/>
<path d="M136.644 108.456C136.556 108.52 136.184 108.108 135.564 107.984C134.944 107.86 134.424 108.084 134.364 107.984C134.304 107.884 134.44 107.824 134.668 107.72C134.972 107.585 135.311 107.55 135.636 107.62C135.959 107.682 136.253 107.846 136.476 108.088C136.648 108.28 136.684 108.432 136.644 108.456Z" fill="#263238"/>
<path d="M130.06 108.112C130.032 108.263 129.947 108.398 129.821 108.486C129.695 108.574 129.539 108.609 129.388 108.584C129.313 108.574 129.241 108.55 129.176 108.513C129.111 108.476 129.054 108.426 129.008 108.366C128.963 108.307 128.929 108.239 128.91 108.166C128.89 108.094 128.886 108.018 128.896 107.944C128.926 107.794 129.012 107.661 129.138 107.574C129.263 107.486 129.417 107.449 129.568 107.472C129.642 107.481 129.715 107.504 129.78 107.542C129.845 107.579 129.903 107.629 129.949 107.688C129.994 107.748 130.028 107.816 130.047 107.889C130.066 107.962 130.07 108.037 130.06 108.112Z" fill="#263238"/>
<path d="M130.52 107.356C130.432 107.416 130.06 107.004 129.44 106.88C128.82 106.756 128.3 106.98 128.24 106.88C128.18 106.78 128.316 106.72 128.544 106.616C128.848 106.483 129.187 106.448 129.512 106.516C129.835 106.582 130.129 106.745 130.356 106.984C130.524 107.2 130.56 107.328 130.52 107.356Z" fill="#263238"/>
<path d="M131.852 112.4C132.199 112.361 132.55 112.368 132.896 112.42C133.06 112.42 133.216 112.42 133.264 112.328C133.314 112.169 133.314 111.999 133.264 111.84C133.192 111.44 133.116 110.992 133.036 110.536C132.728 108.688 132.54 107.184 132.612 107.172C132.684 107.16 133.012 108.648 133.304 110.496C133.376 110.952 133.448 111.384 133.512 111.8C133.574 112.012 133.559 112.239 133.468 112.44C133.434 112.49 133.389 112.533 133.336 112.563C133.283 112.594 133.224 112.612 133.164 112.616C133.072 112.629 132.979 112.629 132.888 112.616C132.535 112.587 132.187 112.515 131.852 112.4Z" fill="#263238"/>
<path d="M129.94 112.472C130.044 112.472 129.908 113.16 130.388 113.752C130.868 114.344 131.588 114.416 131.588 114.512C131.588 114.608 131.404 114.608 131.1 114.556C130.704 114.483 130.346 114.273 130.088 113.964C129.844 113.664 129.725 113.281 129.756 112.896C129.788 112.608 129.896 112.456 129.94 112.472Z" fill="#263238"/>
<path d="M131.164 104.952C131.072 105.112 130.468 104.908 129.72 104.848C128.972 104.788 128.348 104.872 128.28 104.7C128.252 104.62 128.388 104.484 128.656 104.368C129.012 104.228 129.395 104.173 129.776 104.208C130.159 104.237 130.529 104.358 130.856 104.56C131.1 104.72 131.2 104.88 131.164 104.952Z" fill="#263238"/>
<path d="M136.772 106.616C136.636 106.736 136.24 106.504 135.724 106.392C135.208 106.28 134.756 106.3 134.688 106.132C134.656 106.052 134.752 105.924 134.972 105.828C135.258 105.715 135.573 105.694 135.872 105.768C136.173 105.831 136.447 105.99 136.652 106.22C136.8 106.4 136.836 106.556 136.772 106.616Z" fill="#263238"/>
<path d="M123.524 108.164C123.46 108.12 120.912 106.788 120.448 109.568C119.984 112.348 122.872 112.24 122.888 112.16C122.904 112.08 123.524 108.164 123.524 108.164Z" fill="#FFBE9D"/>
<path d="M122.216 110.964C122.216 110.964 122.164 110.992 122.076 111.016C121.952 111.046 121.822 111.027 121.712 110.964C121.55 110.821 121.429 110.637 121.363 110.432C121.297 110.226 121.287 110.007 121.336 109.796C121.368 109.556 121.454 109.326 121.588 109.124C121.625 109.041 121.683 108.968 121.754 108.912C121.826 108.856 121.91 108.817 122 108.8C122.058 108.795 122.117 108.811 122.165 108.844C122.213 108.878 122.248 108.927 122.264 108.984C122.288 109.064 122.264 109.12 122.264 109.124C122.264 109.128 122.332 109.088 122.328 108.972C122.323 108.901 122.295 108.833 122.248 108.78C122.215 108.744 122.176 108.715 122.132 108.695C122.088 108.675 122.04 108.665 121.992 108.664C121.874 108.667 121.76 108.701 121.659 108.761C121.558 108.821 121.474 108.906 121.416 109.008C121.257 109.23 121.154 109.486 121.116 109.756C121.04 110.32 121.24 110.892 121.624 111.072C121.695 111.106 121.773 111.124 121.852 111.124C121.931 111.124 122.008 111.106 122.08 111.072C122.2 111.032 122.224 110.972 122.216 110.964Z" fill="#EB996E"/>
<path d="M138.928 106C137.988 106.051 137.049 105.878 136.189 105.495C135.329 105.113 134.572 104.532 133.98 103.8C133.18 102.768 132.648 101.42 131.492 100.796C131.094 100.6 130.661 100.485 130.218 100.458C129.775 100.43 129.331 100.491 128.912 100.636C128.077 100.934 127.312 101.4 126.664 102.004C127.032 104.212 126.052 106.404 125.096 108.404C125.013 108.64 124.854 108.841 124.644 108.976C124.268 109.164 123.82 108.868 123.592 108.512C123.272 107.915 123.133 107.238 123.192 106.564C123.2 105.027 123.513 103.507 124.112 102.092C124.72 100.673 125.731 99.4625 127.02 98.612C128.673 97.6026 130.653 97.2742 132.544 97.696C134.423 98.1333 136.118 99.1506 137.388 100.604C138.006 101.248 138.456 102.036 138.696 102.896" fill="#263238"/>
<path d="M26.9839 171.14C27.0014 171.082 27.0255 171.025 27.0559 170.972L27.2799 170.488C27.5557 169.862 27.7791 169.215 27.9479 168.552C28.3879 166.832 28.5399 164.204 27.8879 161.084C27.5371 159.382 27.0748 157.705 26.5039 156.064C25.9159 154.284 25.2359 152.396 24.6799 150.352C24.0521 148.22 23.7487 146.006 23.7799 143.784C23.8639 141.46 24.5519 139.14 25.3079 136.832C26.0639 134.524 26.8439 132.26 27.0759 129.988C27.338 127.802 26.8997 125.589 25.8239 123.668C24.8199 121.82 23.5639 120.244 22.6239 118.608C21.7428 117.093 21.093 115.455 20.6959 113.748C20.1293 111.274 20.0884 108.708 20.5759 106.216C20.7552 105.306 21.0231 104.415 21.3759 103.556C21.3665 103.617 21.3518 103.678 21.3319 103.736L21.1719 104.244C20.2307 107.316 20.1299 110.584 20.8799 113.708C21.2807 115.396 21.9319 117.014 22.8119 118.508C23.7519 120.108 25.0159 121.708 26.0359 123.56C27.1284 125.519 27.5749 127.773 27.3119 130C27.0759 132.312 26.2879 134.588 25.5359 136.896C24.7839 139.204 24.0999 141.496 24.0159 143.78C23.981 145.98 24.2763 148.172 24.8919 150.284C25.4399 152.316 26.1159 154.204 26.6919 155.992C27.2579 157.643 27.7136 159.329 28.0559 161.04C28.6919 164.184 28.5079 166.84 28.0559 168.564C27.8795 169.229 27.6412 169.876 27.3439 170.496C27.2399 170.696 27.1559 170.852 27.0959 170.972C27.064 171.032 27.0265 171.088 26.9839 171.14Z" fill="#263238"/>
<path d="M23.8998 120.22C23.8998 120.22 21.9838 114.1 25.4198 110.516C25.4464 110.487 25.4805 110.466 25.5183 110.456C25.5561 110.445 25.5961 110.445 25.6338 110.456C25.6716 110.467 25.7056 110.488 25.732 110.517C25.7585 110.546 25.7764 110.581 25.7838 110.62C25.9678 111.632 26.1958 114.712 23.8998 120.22Z" fill="#202939"/>
<path d="M25.0478 112.556C25.0413 112.936 24.9971 113.313 24.9158 113.684C24.7918 114.484 24.6438 115.376 24.4798 116.384C24.3158 117.392 24.1758 118.308 24.0518 119.084C24.0194 119.463 23.9511 119.838 23.8478 120.204C23.8154 119.824 23.8275 119.441 23.8838 119.064C23.9478 118.364 24.0718 117.404 24.2438 116.348C24.4158 115.292 24.5998 114.348 24.7518 113.656C24.8078 113.279 24.9072 112.91 25.0478 112.556Z" fill="#263238"/>
<path d="M26.1475 134.66C26.1475 134.66 27.3195 128.352 32.0315 126.8C32.0686 126.787 32.1086 126.785 32.147 126.793C32.1854 126.802 32.2207 126.821 32.249 126.848C32.2772 126.875 32.2972 126.91 32.3069 126.948C32.3165 126.986 32.3153 127.026 32.3035 127.064C31.9995 128.032 30.7555 130.864 26.1475 134.66Z" fill="#202939"/>
<path d="M30.7477 128.42C30.5647 128.753 30.349 129.066 30.1037 129.356C29.6317 129.988 29.0717 130.724 28.4557 131.54L26.7997 133.728C26.593 134.046 26.3573 134.345 26.0957 134.62C26.2444 134.268 26.4337 133.936 26.6597 133.628C27.0597 133.04 27.5997 132.248 28.2597 131.396C28.9197 130.544 29.5157 129.796 29.9677 129.252C30.1947 128.945 30.4565 128.666 30.7477 128.42Z" fill="#263238"/>
<path d="M24.8762 150.48C24.8762 150.48 24.1642 144.104 28.2202 141.24C28.2521 141.217 28.2899 141.204 28.3292 141.201C28.3684 141.198 28.4077 141.206 28.4426 141.224C28.4775 141.243 28.5066 141.27 28.5267 141.304C28.5467 141.338 28.557 141.377 28.5562 141.416C28.5442 142.44 28.1802 145.508 24.8762 150.48Z" fill="#202939"/>
<path d="M27.4638 143.172C27.3877 143.545 27.2724 143.908 27.1198 144.256C26.8478 144.996 26.5318 145.856 26.1758 146.824L25.2438 149.392C25.1446 149.758 25.0107 150.113 24.8438 150.452C24.8861 150.073 24.9706 149.7 25.0958 149.34C25.2918 148.664 25.5957 147.74 25.9677 146.74C26.3397 145.74 26.7037 144.84 26.9797 144.196C27.1018 143.838 27.2642 143.494 27.4638 143.172Z" fill="#263238"/>
<path d="M28.4235 166.4C28.4235 166.4 27.9395 160 32.0955 157.288C32.128 157.266 32.1661 157.253 32.2055 157.251C32.2449 157.249 32.284 157.258 32.3185 157.278C32.353 157.297 32.3815 157.325 32.4007 157.359C32.42 157.394 32.4293 157.433 32.4275 157.472C32.3755 158.492 31.9035 161.544 28.4235 166.4Z" fill="#202939"/>
<path d="M31.2714 159.2C31.1754 159.57 31.0414 159.93 30.8714 160.272C30.5714 161 30.2234 161.872 29.8354 162.8L28.8074 165.336C28.7026 165.689 28.566 166.032 28.3994 166.36C28.4532 165.983 28.5512 165.614 28.6914 165.26C28.9074 164.592 29.2474 163.684 29.6554 162.696C30.0634 161.708 30.4554 160.82 30.7554 160.188C30.8906 159.841 31.0636 159.51 31.2714 159.2Z" fill="#263238"/>
<path d="M21.1478 114.844C21.1478 114.844 15.4638 111.876 15.3518 106.912C15.35 106.873 15.3593 106.834 15.3786 106.799C15.3978 106.765 15.4263 106.737 15.4608 106.717C15.4953 106.698 15.5344 106.689 15.5738 106.691C15.6132 106.693 15.6513 106.706 15.6838 106.728C16.5278 107.312 18.8678 109.324 21.1478 114.844Z" fill="#202939"/>
<path d="M16.5322 108.616C16.7979 108.887 17.0352 109.185 17.2402 109.504L18.8402 111.72L20.4402 113.932C20.684 114.223 20.9009 114.535 21.0882 114.864C20.7874 114.623 20.5186 114.345 20.2882 114.036C19.8362 113.5 19.2402 112.732 18.6162 111.864C17.9922 110.996 17.4482 110.192 17.0682 109.6C16.8526 109.294 16.6728 108.964 16.5322 108.616Z" fill="#263238"/>
<path d="M27.2522 128C27.2522 128 21.4002 125.384 20.9842 120.436C20.9808 120.397 20.9883 120.358 21.0058 120.323C21.0232 120.288 21.05 120.259 21.083 120.238C21.1161 120.218 21.1543 120.206 21.1933 120.206C21.2323 120.206 21.2707 120.216 21.3042 120.236C22.1842 120.752 24.6442 122.62 27.2522 128Z" fill="#202939"/>
<path d="M22.2676 122.056C22.5484 122.311 22.803 122.594 23.0276 122.9L24.7636 125.016L26.5036 127.124C26.7633 127.393 26.9964 127.686 27.1996 128C26.8946 127.765 26.6168 127.497 26.3716 127.2C25.8876 126.688 25.2476 125.96 24.5716 125.132C23.8956 124.304 23.3036 123.532 22.8916 122.968C22.6498 122.689 22.4404 122.383 22.2676 122.056Z" fill="#263238"/>
<path d="M23.8835 142.656C23.8835 142.656 19.8635 137.656 21.7515 133.056C21.7658 133.02 21.79 132.988 21.8212 132.964C21.8524 132.941 21.8896 132.927 21.9285 132.923C21.9674 132.919 22.0065 132.926 22.0417 132.943C22.0768 132.961 22.1065 132.987 22.1275 133.02C22.6675 133.904 23.9995 136.684 23.8835 142.656Z" fill="#202939"/>
<path d="M22.1478 135.1C22.2823 135.454 22.3802 135.822 22.4398 136.196C22.6078 136.968 22.8038 137.872 23.0238 138.872C23.2438 139.872 23.4238 140.772 23.6118 141.54C23.7188 141.905 23.7924 142.278 23.8318 142.656C23.6542 142.317 23.5198 141.957 23.4318 141.584C23.2318 140.908 22.9958 139.984 22.7718 138.92C22.5478 137.856 22.3718 136.92 22.2598 136.232C22.1812 135.86 22.1436 135.48 22.1478 135.1Z" fill="#263238"/>
<path d="M27.868 159.912C27.868 159.912 22.056 157.2 21.728 152.24C21.7255 152.201 21.7335 152.163 21.7513 152.129C21.7691 152.094 21.7959 152.066 21.8288 152.045C21.8618 152.025 21.8996 152.014 21.9382 152.014C21.9768 152.014 22.0148 152.024 22.048 152.044C22.92 152.592 25.348 154.5 27.868 159.912Z" fill="#202939"/>
<path d="M22.9795 153.892C23.2572 154.151 23.5078 154.438 23.7275 154.748C24.2155 155.368 24.7915 156.092 25.4275 156.892L27.1315 159.032C27.3877 159.312 27.618 159.615 27.8195 159.936C27.5219 159.702 27.2533 159.434 27.0195 159.136C26.5475 158.62 25.9195 157.88 25.2595 157.04C24.5995 156.2 23.9995 155.424 23.5995 154.852C23.3591 154.555 23.1512 154.233 22.9795 153.892Z" fill="#263238"/>
<path d="M39.4397 134.692C39.4453 134.74 39.4453 134.789 39.4397 134.836C39.4397 134.948 39.4397 135.08 39.4397 135.236C39.4397 135.636 39.3997 136.144 39.3717 136.792C39.2957 138.16 39.1917 140.064 39.0677 142.348C38.6677 144.668 37.4677 147.24 35.8677 149.736C34.7037 151.576 33.4678 153.252 32.4318 154.808C31.474 156.167 30.6119 157.59 29.8517 159.068C29.3548 160.071 28.953 161.118 28.6517 162.196C28.5477 162.576 28.4717 162.876 28.4277 163.08C28.4101 163.186 28.3819 163.289 28.3438 163.388C28.345 163.282 28.3571 163.176 28.3797 163.072C28.4077 162.864 28.4718 162.56 28.5598 162.172C28.8312 161.07 29.2145 159.997 29.7038 158.972C30.4472 157.476 31.2988 156.037 32.2517 154.664C33.2957 153.096 34.5117 151.42 35.6718 149.592C37.2718 147.104 38.4237 144.572 38.8717 142.288C39.0317 140.012 39.1637 138.108 39.2718 136.74C39.3238 136.092 39.3677 135.572 39.3957 135.188C39.3957 135.028 39.4277 134.892 39.4397 134.788C39.4363 134.756 39.4363 134.724 39.4397 134.692Z" fill="#263238"/>
<path d="M35.9996 149.28C35.9996 149.28 38.4596 143.356 35.3636 139.476C35.3396 139.445 35.3074 139.421 35.2706 139.407C35.2338 139.393 35.1939 139.39 35.1553 139.397C35.1168 139.405 35.081 139.423 35.0521 139.45C35.0231 139.476 35.0022 139.51 34.9916 139.548C34.6996 140.54 34.1916 143.6 35.9996 149.28Z" fill="#202939"/>
<path d="M35.5314 141.544C35.6375 141.909 35.7032 142.285 35.7274 142.664C35.8154 143.36 35.9114 144.324 35.9874 145.392C36.0634 146.46 36.0994 147.428 36.0994 148.128C36.124 148.508 36.1012 148.89 36.0314 149.264C35.9619 148.892 35.9284 148.514 35.9314 148.136C35.8794 147.336 35.8154 146.428 35.7474 145.408C35.6794 144.388 35.6114 143.464 35.5594 142.68C35.5127 142.303 35.5034 141.923 35.5314 141.544Z" fill="#263238"/>
<g opacity="0.3">
<path d="M35.9996 149.28C35.9996 149.28 38.4596 143.356 35.3636 139.476C35.3396 139.445 35.3074 139.421 35.2706 139.407C35.2338 139.393 35.1939 139.39 35.1553 139.397C35.1168 139.405 35.081 139.423 35.0521 139.45C35.0231 139.476 35.0022 139.51 34.9916 139.548C34.6996 140.54 34.1916 143.6 35.9996 149.28Z" fill="black"/>
</g>
<path d="M28.3598 163.552C28.3598 163.552 30.3318 157.452 26.9318 153.836C26.9055 153.807 26.8717 153.786 26.8342 153.775C26.7967 153.765 26.7569 153.764 26.7192 153.775C26.6816 153.785 26.6475 153.806 26.6208 153.834C26.5941 153.862 26.5758 153.898 26.5678 153.936C26.3718 154.944 26.1158 158.02 28.3598 163.552Z" fill="#202939"/>
<path d="M27.2842 155.876C27.4201 156.232 27.5154 156.602 27.5682 156.98C27.7122 157.664 27.8882 158.616 28.0522 159.676C28.2162 160.736 28.3282 161.696 28.3842 162.396C28.4385 162.774 28.4466 163.156 28.4082 163.536C28.3108 163.169 28.2465 162.794 28.2162 162.416C28.1002 161.616 27.9642 160.724 27.8162 159.712C27.6682 158.7 27.5242 157.788 27.4162 157.008C27.3351 156.636 27.2909 156.257 27.2842 155.876Z" fill="#263238"/>
<g opacity="0.3">
<path d="M28.3598 163.552C28.3598 163.552 30.3318 157.452 26.9318 153.836C26.9055 153.807 26.8717 153.786 26.8342 153.775C26.7967 153.765 26.7569 153.764 26.7192 153.775C26.6816 153.785 26.6475 153.806 26.6208 153.834C26.5941 153.862 26.5758 153.898 26.5678 153.936C26.3718 154.944 26.1158 158.02 28.3598 163.552Z" fill="black"/>
</g>
<path d="M39.1113 142.044C39.1113 142.044 44.3673 138.364 43.8353 133.428C43.8319 133.389 43.8177 133.352 43.7942 133.32C43.7708 133.289 43.739 133.264 43.7025 133.25C43.666 133.235 43.6261 133.231 43.5874 133.238C43.5487 133.245 43.5127 133.262 43.4833 133.288C42.7233 134 40.6593 136.276 39.1113 142.044Z" fill="#202939"/>
<g opacity="0.3">
<path d="M39.1113 142.044C39.1113 142.044 44.3673 138.364 43.8353 133.428C43.8319 133.389 43.8177 133.352 43.7942 133.32C43.7708 133.289 43.739 133.264 43.7025 133.25C43.666 133.235 43.6261 133.231 43.5874 133.238C43.5487 133.245 43.5127 133.262 43.4833 133.288C42.7233 134 40.6593 136.276 39.1113 142.044Z" fill="black"/>
</g>
<path d="M42.8881 135.272C42.7819 135.636 42.6357 135.988 42.4521 136.32C42.1521 136.956 41.7161 137.82 41.2081 138.764C40.7001 139.708 40.2121 140.544 39.8321 141.136C39.6504 141.47 39.4258 141.78 39.1641 142.056C39.3083 141.705 39.4837 141.368 39.6881 141.048L40.9961 138.648L42.3001 136.248C42.4619 135.903 42.659 135.576 42.8881 135.272Z" fill="#263238"/>
<path d="M30.4756 157.504C30.4756 157.504 36.7996 156.516 38.5116 151.852C38.5257 151.815 38.5294 151.775 38.522 151.737C38.5147 151.698 38.4968 151.662 38.4702 151.633C38.4436 151.604 38.4094 151.583 38.3715 151.572C38.3336 151.561 38.2935 151.561 38.2556 151.572C37.2676 151.852 34.3996 153.008 30.4756 157.504Z" fill="#202939"/>
<g opacity="0.3">
<path d="M30.4756 157.504C30.4756 157.504 36.7996 156.516 38.5116 151.852C38.5257 151.815 38.5294 151.775 38.522 151.737C38.5147 151.698 38.4968 151.662 38.4702 151.633C38.4436 151.604 38.4094 151.583 38.3715 151.572C38.3336 151.561 38.2935 151.561 38.2556 151.572C37.2676 151.852 34.3996 153.008 30.4756 157.504Z" fill="black"/>
</g>
<path d="M36.8474 153.088C36.5919 153.367 36.3077 153.618 35.9994 153.836C35.4514 154.276 34.6794 154.86 33.8074 155.48C32.9354 156.1 32.1274 156.64 31.5314 157.008C31.2181 157.226 30.8796 157.404 30.5234 157.54C30.8063 157.288 31.1116 157.062 31.4354 156.864L33.6714 155.288L35.8994 153.688C36.1938 153.456 36.5115 153.255 36.8474 153.088Z" fill="#263238"/>
<path d="M24.432 169.168L22.584 181.608H34.104L32.608 169.168H24.432Z" fill="#455A64"/>
<path d="M33.0713 173.02C33.0713 173.088 30.9913 173.14 28.4233 173.14C25.8553 173.14 23.7793 173.088 23.7793 173.02C25.3243 172.901 26.8743 172.861 28.4233 172.9C29.9737 172.861 31.525 172.901 33.0713 173.02Z" fill="#263238"/>
<path d="M33.3002 174C33.3002 174.064 31.1522 174.12 28.5002 174.12C25.8482 174.12 23.7002 174.064 23.7002 174C23.7002 173.936 25.8482 173.88 28.5002 173.88C31.1522 173.88 33.3002 173.944 33.3002 174Z" fill="#263238"/>
</svg>
