<svg width="160" height="151" viewBox="0 0 160 151" fill="none" xmlns="http://www.w3.org/2000/svg">
<path d="M87.6413 119.681H50.958V147.974H87.6413V119.681Z" fill="#EBEBEB"/>
<path d="M78.4524 147.777C78.4031 147.777 78.3608 141.469 78.3608 133.688C78.3608 125.908 78.4031 119.6 78.4524 119.6C78.5017 119.6 78.544 125.908 78.544 133.688C78.544 141.469 78.5017 147.777 78.4524 147.777Z" fill="#E0E0E0"/>
<path d="M84.5314 141.535H81.7207V144.716H84.5314V141.535Z" fill="#FAFAFA"/>
<path d="M66.3181 119.754H62.1514V125.791H66.3181V119.754Z" fill="#E0E0E0"/>
<path d="M66.3181 141.853H62.1514V147.89H66.3181V141.853Z" fill="#E0E0E0"/>
<path d="M154.207 112.587H107.951V148.263H154.207V112.587Z" fill="#EBEBEB"/>
<path d="M142.615 148.01C142.566 148.01 142.523 140.06 142.523 130.251C142.523 120.442 142.566 112.492 142.615 112.492C142.664 112.492 142.707 120.442 142.707 130.251C142.707 140.06 142.668 148.01 142.615 148.01Z" fill="#E0E0E0"/>
<path d="M150.283 140.141H146.736V144.149H150.283V140.141Z" fill="#FAFAFA"/>
<path d="M127.315 112.679H122.06V120.29H127.315V112.679Z" fill="#E0E0E0"/>
<path d="M127.315 140.542H122.06V148.153H127.315V140.542Z" fill="#E0E0E0"/>
<path d="M20.826 113.637C22.6998 112.672 24.9047 112.545 26.9828 112.89C28.0993 113.073 29.2616 113.408 30.0224 114.246C30.7832 115.085 30.9241 116.56 30.0541 117.282C29.5328 117.712 28.8108 117.775 28.1345 117.768C26.5073 117.747 24.7039 117.462 23.4043 118.441C22.6611 119.001 22.168 119.928 21.291 120.202C20.414 120.477 19.4454 119.959 18.9875 119.177C18.5639 118.362 18.4705 117.415 18.7268 116.532C18.8305 115.921 19.0739 115.341 19.438 114.839C19.8021 114.337 20.2771 113.926 20.826 113.637Z" fill="#EBEBEB"/>
<path d="M16.5363 105.356C17.681 106.99 19.907 106.452 20.939 105.451C21.971 104.451 22.4077 103.007 22.8022 101.63C23.7109 98.4774 24.6232 95.1701 23.9504 91.9614C23.7884 90.9883 23.3606 90.079 22.7141 89.3339C22.3869 88.9679 21.9696 88.6938 21.5038 88.5388C21.038 88.3837 20.5398 88.353 20.0584 88.4498C18.9349 88.7457 18.2375 89.8587 17.7338 90.8907C16.2488 93.9758 15.4715 97.3535 15.4585 100.777C15.4585 102.373 15.6381 104.042 16.5363 105.356Z" fill="#EBEBEB"/>
<path d="M13.3943 107.702C14.6376 106.226 14.8736 104.078 14.3206 102.228C13.7676 100.379 12.5173 98.8084 11.0767 97.5228C9.3824 96.0157 7.41088 94.8529 5.27219 94.0992C4.44329 93.7644 3.55172 93.613 2.65875 93.6554C2.21329 93.6809 1.7808 93.8148 1.39896 94.0457C1.01712 94.2765 0.697508 94.5972 0.467963 94.9798C-0.144893 96.1456 0.443307 97.558 1.0773 98.7133C2.19375 100.746 3.46799 102.688 4.88827 104.521C6.03298 105.994 7.35379 107.448 9.08317 108.114C10.8125 108.78 12.637 108.702 13.5598 107.494" fill="#EBEBEB"/>
<path d="M16.4584 130.019C16.5196 129.776 16.555 129.529 16.5641 129.279C16.6169 128.737 16.6803 128.057 16.7613 127.25C16.8623 126.252 17.014 125.26 17.2157 124.277C17.4804 123.076 17.842 121.898 18.297 120.755C18.7433 119.62 19.3468 118.553 20.0898 117.585C20.6972 116.799 21.4704 116.155 22.3545 115.701C22.9558 115.405 23.6001 115.205 24.2635 115.109C24.5133 115.1 24.7613 115.063 25.0032 115C24.7539 114.973 24.5023 114.973 24.253 115C23.564 115.052 22.8899 115.227 22.263 115.518C21.3294 115.958 20.5107 116.609 19.8714 117.42C19.0938 118.4 18.467 119.491 18.0117 120.657C17.5572 121.813 17.2037 123.007 16.9551 124.225C16.7634 125.22 16.6305 126.225 16.5571 127.236C16.4937 128.099 16.469 128.796 16.4584 129.279C16.4325 129.525 16.4325 129.773 16.4584 130.019Z" fill="#E0E0E0"/>
<path d="M16.5992 128.461C16.6201 128.345 16.6272 128.227 16.6203 128.109C16.6203 127.848 16.6203 127.521 16.6203 127.123C16.6203 126.267 16.6203 125.027 16.6626 123.499C16.7401 120.441 17.0148 117.159 17.5114 112.513C17.994 108.149 18.6385 103.074 19.3218 99.7733C19.4662 99.023 19.6142 98.3468 19.7551 97.7551C19.8959 97.1633 19.9981 96.6491 20.1073 96.237C20.2165 95.8249 20.2763 95.5326 20.3397 95.279C20.3742 95.1645 20.3943 95.0462 20.3996 94.9268C20.3466 95.0294 20.3063 95.1383 20.2799 95.2508C20.2024 95.5009 20.1073 95.8108 19.991 96.1947C19.8748 96.5787 19.7339 97.114 19.586 97.7022C19.4381 98.2904 19.269 98.9667 19.1105 99.7169C18.2644 103.62 17.6283 107.566 17.205 111.537C16.6978 116.187 16.4689 120.42 16.4478 123.484C16.4478 125.017 16.4478 126.26 16.5006 127.116C16.5252 127.514 16.5464 127.841 16.5605 128.098C16.5587 128.221 16.5718 128.342 16.5992 128.461Z" fill="#E0E0E0"/>
<path d="M16.6207 120.297C16.6475 119.953 16.6475 119.608 16.6207 119.265C16.5819 118.603 16.4903 117.648 16.3037 116.475C16.0733 115.104 15.7652 113.747 15.3809 112.411C14.9367 110.766 14.368 109.158 13.6797 107.599C12.5012 104.728 10.81 102.095 8.68875 99.8294C8.3207 99.4404 7.92773 99.0756 7.51235 98.7376C7.33272 98.5826 7.16013 98.4311 7.0122 98.3114L6.57546 97.9979C6.30134 97.7887 6.01035 97.6026 5.70548 97.4414C5.65617 97.5083 6.93472 98.2621 8.54787 99.9774C10.5998 102.264 12.246 104.885 13.4155 107.726C14.0919 109.274 14.6627 110.866 15.1237 112.492C15.5111 113.816 15.832 115.158 16.0853 116.514C16.2966 117.673 16.4375 118.627 16.4939 119.275C16.5089 119.619 16.5513 119.96 16.6207 120.297Z" fill="#E0E0E0"/>
<path d="M8.18115 133.456L8.99829 144.667H23.4004L24.2175 133.456H8.18115Z" fill="#EBEBEB"/>
<path d="M25.933 129.039H6.79004V133.456H25.933V129.039Z" fill="#EBEBEB"/>
<path d="M6.79004 144.237V145.459H7.69171H25.6195V144.237H6.79004Z" fill="#E0E0E0"/>
<path d="M8.57195 147.481L7.69141 145.325H24.9324L23.9039 147.481H8.57195Z" fill="#E0E0E0"/>
<path d="M23.95 137.119C23.932 137.157 23.9095 137.192 23.8831 137.225C23.8267 137.299 23.7528 137.394 23.6682 137.51L22.83 138.567L22.7912 138.616L22.756 138.567L20.6955 135.717H20.8118L18.783 138.588L18.7196 138.679L18.6491 138.595L16.2435 135.731H16.3809L16.2506 135.9L14.0985 138.595L14.0246 138.686L13.9612 138.591L11.9289 135.721H12.0486L9.54789 138.567L9.50562 138.62L9.4704 138.56L8.68848 137.264C8.60395 137.123 8.54055 137.006 8.48772 136.911C8.46116 136.872 8.43985 136.829 8.42432 136.785C8.45727 136.818 8.48569 136.856 8.50885 136.897L8.73074 137.232L9.55141 138.524H9.47392L11.9394 135.643L11.9993 135.569L12.0557 135.647L14.1056 138.507H13.9717L16.1167 135.805C16.1625 135.749 16.2083 135.693 16.247 135.64L16.3175 135.552L16.3879 135.636L18.7865 138.507H18.6527L20.7026 135.65L20.7624 135.566L20.8188 135.65C21.6324 136.809 22.3228 137.792 22.837 138.532H22.763L23.6365 137.475C23.7316 137.366 23.8091 137.278 23.869 137.204C23.8939 137.174 23.921 137.145 23.95 137.119Z" fill="#F5F5F5"/>
<path d="M24.4187 133.382C24.4187 133.431 20.8085 133.474 16.36 133.474C11.9115 133.474 8.30127 133.431 8.30127 133.382C8.30127 133.333 11.908 133.294 16.36 133.294C20.812 133.294 24.4187 133.333 24.4187 133.382Z" fill="#F5F5F5"/>
<path d="M125.421 6.28579L122.47 6.30176L122.549 20.989L125.501 20.973L125.421 6.28579Z" fill="#E0E0E0"/>
<path d="M104.542 6.32388L96.8994 6.36523L96.9433 14.4731L104.586 14.4318L104.542 6.32388Z" fill="#EBEBEB"/>
<path d="M112.15 6.28384L104.507 6.3252L104.551 14.4331L112.194 14.3917L112.15 6.28384Z" fill="#F5F5F5"/>
<path d="M96.9083 8.60908C101.99 8.65135 107.073 8.62787 112.159 8.53864C112.181 8.53864 112.201 8.5301 112.217 8.51491C112.232 8.49972 112.24 8.47911 112.24 8.45763C112.24 8.43614 112.232 8.41554 112.217 8.40034C112.201 8.38515 112.181 8.37662 112.159 8.37662C107.08 8.34844 101.987 8.37662 96.9083 8.47172C96.8927 8.47526 96.8788 8.48399 96.8689 8.49647C96.8589 8.50895 96.8535 8.52444 96.8535 8.5404C96.8535 8.55636 96.8589 8.57185 96.8689 8.58433C96.8788 8.59681 96.8927 8.60553 96.9083 8.60908Z" fill="#E0E0E0"/>
<path d="M106.022 14.2969L92.1343 14.3721L92.17 20.9795L106.058 20.9044L106.022 14.2969Z" fill="#EBEBEB"/>
<path d="M119.842 14.2217L105.955 14.2969L105.99 20.9044L119.878 20.8292L119.842 14.2217Z" fill="#F5F5F5"/>
<path d="M92.1427 16.2172C101.367 16.3194 110.623 16.2172 119.852 16.0799C119.873 16.0799 119.894 16.0713 119.909 16.0562C119.924 16.041 119.933 16.0204 119.933 15.9989C119.933 15.9774 119.924 15.9568 119.909 15.9416C119.894 15.9264 119.873 15.9179 119.852 15.9179C110.627 15.8686 101.367 15.8721 92.1427 16.0764C92.124 16.0764 92.1061 16.0838 92.0929 16.097C92.0797 16.1102 92.0723 16.1281 92.0723 16.1468C92.0723 16.1655 92.0797 16.1834 92.0929 16.1966C92.1061 16.2098 92.124 16.2172 92.1427 16.2172Z" fill="#E0E0E0"/>
<path d="M140.752 20.9863H86.9473V23.3532H140.752V20.9863Z" fill="#E0E0E0"/>
<path d="M97.9406 22.124H95.7568V30.2003H97.9406V22.124Z" fill="#E0E0E0"/>
<path d="M130.545 22.124H128.361V30.2003H130.545V22.124Z" fill="#E0E0E0"/>
<path d="M128.3 0.806296L125.349 0.822266L125.458 21.0216L128.409 21.0056L128.3 0.806296Z" fill="#EBEBEB"/>
<path d="M132.91 4.56796L128.325 4.59277L128.413 20.9635L132.999 20.9387L132.91 4.56796Z" fill="#F5F5F5"/>
<path d="M132.88 7.72959C131.355 7.83727 129.825 7.83727 128.301 7.72959C129.825 7.62659 131.355 7.62659 132.88 7.72959Z" fill="#E0E0E0"/>
<path d="M132.88 7.05927C132.118 7.13636 131.352 7.16225 130.587 7.13676C129.822 7.16211 129.056 7.13622 128.294 7.05927C129.818 6.9516 131.348 6.9516 132.873 7.05927H132.88Z" fill="#E0E0E0"/>
<path d="M132.88 18.4815C131.355 18.5892 129.825 18.5892 128.301 18.4815C129.825 18.3785 131.355 18.3785 132.88 18.4815Z" fill="#E0E0E0"/>
<path d="M132.88 17.7956C131.355 17.8986 129.825 17.8986 128.301 17.7956C129.825 17.6879 131.355 17.6879 132.88 17.7956Z" fill="#E0E0E0"/>
<path d="M130.661 16.2949C130.619 16.2949 130.583 14.6431 130.583 12.6072C130.583 10.5714 130.619 8.91602 130.661 8.91602C130.703 8.91602 130.742 10.5679 130.742 12.6072C130.742 14.6466 130.707 16.2949 130.661 16.2949Z" fill="#E0E0E0"/>
<path d="M137.925 8.59473H132.934V20.9505H137.925V8.59473Z" fill="#EBEBEB"/>
<path d="M126.78 5.11174C127.248 5.11174 127.628 4.73171 127.628 4.2629C127.628 3.7941 127.248 3.41406 126.78 3.41406C126.311 3.41406 125.931 3.7941 125.931 4.2629C125.931 4.73171 126.311 5.11174 126.78 5.11174Z" fill="#E0E0E0"/>
<path d="M127.044 6.59766H126.519V18.6153H127.044V6.59766Z" fill="#E0E0E0"/>
<path d="M155.795 148.07C155.795 148.123 121.94 148.162 80.1923 148.162C38.4441 148.162 4.58203 148.123 4.58203 148.07C4.58203 148.017 38.43 147.979 80.1923 147.979C121.955 147.979 155.795 148.021 155.795 148.07Z" fill="#263238"/>
<path d="M44.6887 18.8057C46.3497 20.8384 47.2491 23.3871 47.2317 26.012C47.2141 27.4984 46.9394 29.1362 47.8058 30.3443C48.4609 31.26 49.6585 31.7214 50.1903 32.7147C50.8314 33.9087 50.2854 35.4197 50.6799 36.7159C51.2364 38.5544 53.392 39.3258 54.6705 40.7593C55.2155 41.3932 55.5968 42.1511 55.781 42.9665C55.9652 43.7819 55.9467 44.6301 55.7272 45.4367C55.4942 46.24 55.073 46.9761 54.4983 47.5838C53.9237 48.1915 53.2124 48.6532 52.4234 48.9307C51.5809 49.2628 50.6412 49.2476 49.8099 48.8884C48.947 48.4587 48.4011 47.5747 47.9784 46.7117C47.1296 45.0141 39.6731 35.8388 39.2505 33.9862" fill="#263238"/>
<path d="M39.2643 16.6435C36.2141 16.1504 33.2766 18.1756 31.998 20.9863C30.7195 23.797 30.6772 26.974 30.5892 30.0735C30.5011 33.173 30.2757 36.3852 28.7013 39.0409C27.701 40.728 26.1513 42.2108 25.9082 44.1515C25.6899 45.8915 26.5915 47.6455 26.2921 49.3749C26.0315 50.8824 24.8833 52.1926 24.9291 53.7177C24.9854 55.5563 26.8768 56.9405 28.7119 56.9898C30.5469 57.0391 32.2657 56.0776 33.7063 54.9364C36.0533 53.0729 37.9315 50.6857 39.1903 47.966" fill="#263238"/>
<path d="M34.2452 23.9127C34.1494 23.1454 34.2087 22.3667 34.4196 21.6228C34.6305 20.8789 34.9886 20.185 35.4729 19.5821C35.9571 18.9793 36.5575 18.4799 37.2384 18.1136C37.9194 17.7472 38.667 17.5214 39.4368 17.4495C42.5117 17.1537 45.2484 19.4466 45.7098 22.5038C46.1149 25.1842 46.46 27.8892 46.4495 28.8719C46.4107 31.834 44.6884 32.9858 43.984 33.3345C43.7306 33.4254 43.4686 33.4903 43.202 33.5282V33.5493L43.8572 36.9517C44.1565 39.1813 42.9132 41.1783 40.6872 41.4918C38.4612 41.8053 36.7107 40.1041 36.369 37.8746L34.2452 23.9127Z" fill="#FFBE9D"/>
<path d="M45.1041 23.8008C45.0548 23.8713 44.6639 23.6635 44.1637 23.7374C43.6636 23.8114 43.329 24.1143 43.2656 24.0615C43.2022 24.0086 43.2656 23.9206 43.4205 23.7797C43.6131 23.5921 43.8593 23.469 44.125 23.4275C44.3856 23.3873 44.6523 23.4317 44.8858 23.5543C45.0619 23.667 45.1288 23.7727 45.1041 23.8008Z" fill="#263238"/>
<path d="M40.6452 24.885C40.5958 24.9554 40.2049 24.7441 39.7012 24.818C39.1975 24.892 38.87 25.1984 38.8066 25.1456C38.7432 25.0928 38.8066 25.0012 38.9616 24.8638C39.1542 24.6762 39.4003 24.5531 39.666 24.5116C39.927 24.4745 40.193 24.52 40.4268 24.6419C40.5994 24.7511 40.6698 24.8533 40.6452 24.885Z" fill="#263238"/>
<path d="M42.4733 27.573C42.7252 27.4518 42.9915 27.3631 43.2657 27.3089C43.3925 27.2772 43.5088 27.2349 43.5193 27.1433C43.5079 27.0147 43.4589 26.8922 43.3785 26.7911L42.8537 25.8542C42.1246 24.544 41.5786 23.4592 41.6315 23.4275C41.6843 23.3958 42.3359 24.4418 43.0403 25.7521C43.22 26.0761 43.3925 26.3861 43.5475 26.6784C43.6499 26.8217 43.6996 26.9958 43.6884 27.1715C43.6768 27.2196 43.6542 27.2643 43.6224 27.3022C43.5907 27.3401 43.5506 27.3701 43.5053 27.3899C43.4366 27.4199 43.3644 27.4412 43.2904 27.4533C43.0244 27.5287 42.7497 27.5689 42.4733 27.573Z" fill="#263238"/>
<path d="M43.1741 33.5323C43.1741 33.5323 41.2615 33.9726 38.627 32.8701C38.627 32.8701 39.7646 35.318 43.3537 34.448L43.1741 33.5323Z" fill="#EB996E"/>
<path d="M40.3881 23.5715C40.3599 23.7159 39.8492 23.7229 39.2716 23.8814C38.6939 24.0399 38.2396 24.2654 38.1445 24.1562C38.1022 24.1033 38.1656 23.9625 38.3382 23.804C38.5706 23.6052 38.8452 23.4619 39.1411 23.385C39.4371 23.3082 39.7467 23.2996 40.0465 23.3602C40.2789 23.413 40.3881 23.5046 40.3881 23.5715Z" fill="#263238"/>
<path d="M44.6921 22.6908C44.6217 22.8176 44.2589 22.7507 43.8433 22.8035C43.4277 22.8563 43.086 22.9937 42.9874 22.8845C42.9452 22.8317 42.9874 22.7119 43.1213 22.5816C43.306 22.4179 43.5378 22.3168 43.7834 22.2928C44.026 22.2636 44.2718 22.309 44.4879 22.4231C44.6569 22.5182 44.7238 22.6274 44.6921 22.6908Z" fill="#263238"/>
<path d="M39.557 25.5334C39.5648 25.5879 39.5833 25.6404 39.6115 25.6877C39.6396 25.735 39.6769 25.7762 39.7211 25.809C39.7654 25.8417 39.8157 25.8654 39.8691 25.8785C39.9226 25.8917 39.9781 25.8941 40.0325 25.8856C40.0854 25.8796 40.1366 25.863 40.183 25.837C40.2294 25.8109 40.2702 25.7759 40.303 25.734C40.3358 25.692 40.3599 25.6439 40.3739 25.5926C40.388 25.5412 40.3916 25.4876 40.3848 25.4348C40.3682 25.3251 40.3089 25.2265 40.2198 25.1605C40.1307 25.0944 40.019 25.0664 39.9093 25.0826C39.8562 25.0882 39.8048 25.1045 39.7581 25.1304C39.7114 25.1563 39.6704 25.1913 39.6376 25.2334C39.6047 25.2754 39.5807 25.3237 39.5668 25.3752C39.553 25.4268 39.5497 25.4806 39.557 25.5334Z" fill="#263238"/>
<path d="M43.9985 24.5715C44.015 24.6812 44.0743 24.7798 44.1634 24.8459C44.2526 24.9119 44.3642 24.9399 44.4739 24.9237C44.5268 24.9176 44.578 24.9011 44.6244 24.8751C44.6709 24.849 44.7116 24.814 44.7444 24.772C44.7772 24.7301 44.8013 24.682 44.8153 24.6307C44.8294 24.5793 44.8331 24.5257 44.8262 24.4729C44.8096 24.3632 44.7503 24.2646 44.6612 24.1985C44.5721 24.1325 44.4604 24.1045 44.3507 24.1207C44.2976 24.1263 44.2462 24.1426 44.1995 24.1685C44.1528 24.1944 44.1119 24.2294 44.079 24.2714C44.0461 24.3135 44.0221 24.3617 44.0082 24.4133C43.9944 24.4648 43.9911 24.5187 43.9985 24.5715Z" fill="#263238"/>
<path d="M43.2622 28.5446C43.1239 28.5016 42.9749 28.5083 42.8411 28.5636C42.7073 28.619 42.5971 28.7194 42.5295 28.8475C42.4651 28.9651 42.4389 29.1 42.4547 29.2332C42.4705 29.3664 42.5274 29.4914 42.6176 29.5907C42.7136 29.685 42.84 29.7421 42.9742 29.7517C43.1084 29.7614 43.2417 29.7231 43.3502 29.6435C43.4861 29.5198 43.5682 29.3479 43.5792 29.1645C43.6031 28.9963 43.5628 28.8253 43.4664 28.6855C43.417 28.6171 43.3463 28.5669 43.2655 28.5427C43.1846 28.5186 43.098 28.5217 43.0191 28.5516" fill="#EB996E"/>
<path d="M45.3192 20.0917C45.0427 18.9757 44.3528 18.0064 43.389 17.3796C42.6001 16.8098 41.663 16.4807 40.6911 16.4321C39.7131 16.39 38.7582 16.737 38.0354 17.3972C37.5225 17.9056 37.2291 18.5947 37.2182 19.3168L37.2746 18.8237C37.1266 19.2249 37.1266 19.6658 37.2746 20.067C37.3556 20.2819 37.4542 20.5002 37.5387 20.7151C37.7909 21.336 38.2586 21.845 38.856 22.1486C39.1266 22.2937 39.4296 22.3677 39.7366 22.3635C39.8902 22.3604 40.0414 22.3238 40.1795 22.2563C40.3176 22.1887 40.4393 22.0919 40.5361 21.9725C40.7548 21.5907 40.8226 21.1409 40.7263 20.7116C40.9574 21.1358 41.2872 21.4982 41.6878 21.7682C41.8924 21.8989 42.1357 21.9552 42.3769 21.9277C42.6181 21.9001 42.8424 21.7903 43.0122 21.6168C43.301 21.2645 43.1883 20.708 43.0122 20.2713C43.2847 20.6833 43.6664 21.0113 44.1146 21.2188C44.2326 21.2864 44.3633 21.3289 44.4985 21.3434C44.6337 21.358 44.7704 21.3443 44.9001 21.3033C45.0037 21.2519 45.0943 21.1776 45.1651 21.0861C45.2359 20.9946 45.2849 20.8882 45.3086 20.775C45.3609 20.5506 45.3645 20.3176 45.3192 20.0917Z" fill="#263238"/>
<path d="M42.7726 21.0289C42.7409 21.0289 42.748 20.6097 42.6106 19.9722C42.4521 19.1251 42.0262 18.3511 41.3954 17.7638C41.0487 17.4486 40.6305 17.2225 40.1768 17.1052C39.8052 17.014 39.4183 17.0044 39.0426 17.077C38.6964 17.1579 38.3657 17.2947 38.0635 17.4821C38.0635 17.4821 38.1234 17.394 38.2783 17.2813C38.5008 17.1257 38.7505 17.0134 39.0145 16.9502C39.4095 16.8577 39.8205 16.8577 40.2155 16.9502C40.7022 17.0717 41.1505 17.314 41.5187 17.6546C42.1792 18.2661 42.6105 19.0852 42.7409 19.9758C42.7828 20.239 42.804 20.5052 42.8043 20.7718C42.8087 20.8587 42.7979 20.9456 42.7726 21.0289Z" fill="#455A64"/>
<path d="M75.2114 62.0934L61.6687 56.7221C61.6687 56.7221 54.7336 47.6244 54.878 47.4482L50.0068 52.7808L57.0864 62.3576L73.4961 66.2038L76.3139 65.4218C75.694 62.4315 75.2114 62.0934 75.2114 62.0934Z" fill="#FFBE9D"/>
<path d="M45.6965 36.138L43.8509 35.4336L35.8837 36.4445V37.8533L35.6548 37.8815C33.9374 38.2466 32.2902 38.8865 30.7766 39.7764C29.3588 40.6419 28.2323 41.9116 27.5419 43.4224C26.8515 44.9331 26.6287 46.6159 26.9022 48.2543C27.2263 50.2689 27.8532 52.7168 29.0648 54.1327C31.3789 56.8413 33.4922 53.4952 33.4922 53.4952C33.4922 53.4952 34.9433 56.8061 34.8588 58.3734C34.7883 59.6872 34.2107 62.4204 34.024 63.2728C34.0164 63.3068 34.0157 63.3421 34.0221 63.3764C34.0285 63.4107 34.0419 63.4434 34.0613 63.4724C34.0808 63.5014 34.1059 63.5261 34.1352 63.5451C34.1645 63.5641 34.1974 63.5769 34.2318 63.5827L51.0396 66.6928L51.1206 62.5824L50.5852 45.676L49.828 39.1107C49.828 39.1107 49.8526 35.976 45.6965 36.138Z" fill="#3498DB"/>
<path d="M49.5708 38.0195L55.9811 47.2793L50.8212 53.5628L49.5708 38.0195Z" fill="#3498DB"/>
<path d="M50.9546 57.5044C50.9316 57.3057 50.9233 57.1056 50.9299 56.9057C50.9299 56.4901 50.9299 55.9441 50.9088 55.2784C50.8776 53.4918 50.7495 51.7081 50.5249 49.9353C50.2607 47.8572 49.8557 46.0011 49.5493 44.6521L49.1759 43.0671C49.1218 42.8754 49.0818 42.68 49.0562 42.4824C49.1363 42.6654 49.1999 42.8552 49.2463 43.0495C49.3555 43.4017 49.5035 43.9547 49.6725 44.6239C50.1273 46.3617 50.4731 48.1262 50.708 49.9071C50.9345 51.6873 51.0451 53.4804 51.0391 55.2749C51.0391 55.9793 51.0215 56.5218 51.0004 56.9057C51.0022 57.1062 50.9869 57.3065 50.9546 57.5044Z" fill="#263238"/>
<path d="M35.1749 43.4257C35.1749 43.4539 34.6888 43.4504 33.9104 43.4891C32.8948 43.5442 31.8846 43.6749 30.8884 43.8801C29.8924 44.0891 28.913 44.3704 27.958 44.7219C27.2254 44.9931 26.7851 45.1938 26.771 45.1656C26.8613 45.0949 26.9608 45.0368 27.0669 44.9931C27.2606 44.8874 27.5494 44.7536 27.9122 44.6021C29.8127 43.8173 31.8439 43.3967 33.8999 43.3623C34.2943 43.3623 34.6043 43.3623 34.8332 43.3834C34.9486 43.3797 35.0639 43.394 35.1749 43.4257Z" fill="#FAFAFA"/>
<path d="M50.0214 47.6633C49.7638 47.7569 49.495 47.8161 49.2219 47.8394C47.9195 48.0295 46.6 48.0744 45.2876 47.9732C45.0136 47.9685 44.7413 47.9282 44.4775 47.8535C44.7494 47.8293 45.0228 47.8293 45.2947 47.8535C45.7948 47.8535 46.4887 47.8535 47.253 47.8535C48.0173 47.8535 48.7077 47.776 49.2078 47.7302C49.4764 47.6833 49.7487 47.6609 50.0214 47.6633Z" fill="#FAFAFA"/>
<path d="M52.9624 43.4754C52.5742 43.9239 52.109 44.2996 51.5888 44.5848C51.0977 44.9168 50.5497 45.1556 49.9721 45.2893C49.951 45.24 50.6766 44.937 51.4937 44.4158C52.3108 43.8945 52.9272 43.4331 52.9624 43.4754Z" fill="#FAFAFA"/>
<path d="M50.3733 39.1813C49.262 40.1809 47.8461 40.7765 46.3545 40.8719C46.3545 40.8155 47.3231 40.6676 48.4361 40.1921C49.5491 39.7166 50.3381 39.1355 50.3733 39.1813Z" fill="#FAFAFA"/>
<path d="M50.7224 54.8347C50.6188 54.9043 50.5077 54.9622 50.3913 55.0073C50.1694 55.1129 49.8489 55.2432 49.4403 55.3947C48.3788 55.7761 47.2831 56.0545 46.1682 56.2259C45.0534 56.398 43.9245 56.4605 42.7975 56.4126C42.3643 56.395 42.0156 56.3633 41.7761 56.3316C41.6507 56.3233 41.5266 56.3008 41.4062 56.2647C41.4062 56.233 41.9416 56.2647 42.8151 56.2858C45.0545 56.3067 47.2825 55.9641 49.4121 55.2714C50.2152 55.0073 50.7118 54.8065 50.7224 54.8347Z" fill="#FAFAFA"/>
<path d="M50.8523 59.6074C50.8523 59.6074 50.8029 59.6426 50.7008 59.6955L50.25 59.8927C49.8625 60.0759 49.2884 60.3154 48.5699 60.5971C47.8514 60.8789 46.9814 61.1501 46.0022 61.4178C43.8735 61.991 41.6886 62.33 39.4862 62.4287C38.4719 62.4674 37.5596 62.4639 36.7918 62.4287C36.024 62.3934 35.4076 62.3371 34.9814 62.2772L34.4918 62.2103C34.4342 62.2061 34.3773 62.1943 34.3228 62.1751C34.3799 62.166 34.4382 62.166 34.4953 62.1751L34.9884 62.2068C35.4146 62.242 36.0451 62.2772 36.7953 62.2984C37.5455 62.3195 38.4719 62.2984 39.4792 62.2631C40.4865 62.2279 41.5925 62.1011 42.7442 61.9109C43.896 61.7207 44.9808 61.4918 45.96 61.2452C46.9391 60.9987 47.8056 60.7204 48.5241 60.4633C49.2426 60.2062 49.8273 59.9913 50.2218 59.8293L50.6797 59.6497C50.7356 59.6296 50.7934 59.6154 50.8523 59.6074Z" fill="#FAFAFA"/>
<path d="M19.9595 134.484L18.054 143.089L14.5776 149.461C14.5185 149.569 14.4823 149.689 14.4713 149.812C14.4604 149.936 14.4748 150.06 14.5137 150.178C14.5527 150.295 14.6154 150.403 14.6978 150.496C14.7803 150.588 14.8808 150.663 14.9932 150.714C15.1237 150.774 15.2666 150.802 15.41 150.795C15.5534 150.789 15.6931 150.748 15.8174 150.676C17.4306 149.746 23.3513 146.284 23.4535 145.646C23.5767 144.91 26.0669 136.703 26.0669 136.703L19.9595 134.484Z" fill="#3498DB"/>
<g opacity="0.6">
<path d="M14.9927 150.715L23.5973 145.079L23.5057 145.431C23.4304 145.746 23.2456 146.023 22.9845 146.213C22.28 146.717 20.3182 148.069 15.845 150.683C15.7166 150.758 15.5716 150.8 15.4228 150.806C15.2741 150.811 15.1263 150.78 14.9927 150.715Z" fill="white"/>
</g>
<g opacity="0.6">
<path d="M22.517 141.877C22.3927 141.929 22.292 142.025 22.2341 142.146C22.1763 142.268 22.1654 142.407 22.2035 142.536C22.2506 142.662 22.3439 142.764 22.4645 142.823C22.585 142.882 22.7235 142.893 22.8516 142.853C22.9847 142.798 23.0924 142.695 23.1536 142.565C23.2149 142.434 23.2252 142.286 23.1827 142.148C23.1203 142.024 23.0126 141.928 22.8816 141.88C22.7506 141.832 22.6063 141.836 22.4783 141.891" fill="white"/>
</g>
<path d="M17.8675 147.453C17.7254 147.136 17.526 146.849 17.2793 146.604C16.9952 146.406 16.676 146.264 16.3389 146.185C16.3389 146.16 16.4621 146.122 16.67 146.143C16.9404 146.178 17.1949 146.29 17.4026 146.467C17.6119 146.637 17.7663 146.865 17.8464 147.122C17.9062 147.323 17.8886 147.453 17.8675 147.453Z" fill="#263238"/>
<path d="M16.9764 148.45C16.9271 148.478 16.7193 148.133 16.3072 147.897C16.0443 147.775 15.7737 147.67 15.4971 147.583C15.6491 147.533 15.8109 147.521 15.9689 147.546C16.1269 147.571 16.2767 147.633 16.4058 147.728C16.8742 147.999 17.0257 148.439 16.9764 148.45Z" fill="#263238"/>
<path d="M19.3601 146.262C19.0606 145.93 18.7355 145.621 18.388 145.339C18.005 145.106 17.6047 144.902 17.1904 144.73C17.6668 144.72 18.1311 144.88 18.5007 145.181C18.9081 145.426 19.2133 145.81 19.3601 146.262Z" fill="#263238"/>
<path d="M20.1601 143.695C20.1249 143.741 19.6987 143.427 19.1035 143.255C18.5082 143.082 17.9693 143.11 17.9658 143.05C18.3578 142.949 18.77 142.955 19.1588 143.069C19.5475 143.182 19.8983 143.398 20.1742 143.695H20.1601Z" fill="#263238"/>
<path d="M20.7836 141.184C20.44 140.972 20.0691 140.807 19.6811 140.695C19.2815 140.64 18.8762 140.64 18.4766 140.695C18.4766 140.673 18.5857 140.589 18.8112 140.522C19.1075 140.441 19.4185 140.431 19.7194 140.493C20.0203 140.554 20.3027 140.684 20.5441 140.874C20.7237 141.043 20.7977 141.17 20.7836 141.184Z" fill="#263238"/>
<path d="M19.8116 140.218C19.8118 140.107 19.8358 139.996 19.882 139.894C19.9818 139.604 20.14 139.336 20.3469 139.109C20.4823 138.929 20.6727 138.798 20.8894 138.736C20.9631 138.724 21.0388 138.734 21.1066 138.765C21.1744 138.797 21.2312 138.848 21.2697 138.912C21.3345 139.043 21.3483 139.194 21.3085 139.334C21.2182 139.617 21.0325 139.859 20.7832 140.02C20.5339 140.181 20.2365 140.249 19.9419 140.215C19.6514 140.174 19.3797 140.047 19.1609 139.852C18.9422 139.656 18.7862 139.4 18.7127 139.116C18.6957 139.044 18.6942 138.969 18.7082 138.896C18.7221 138.823 18.7513 138.754 18.7937 138.693C18.8423 138.637 18.9078 138.597 18.9806 138.58C19.0535 138.563 19.1298 138.569 19.1987 138.598C19.3978 138.698 19.5677 138.847 19.6918 139.032C19.8785 139.276 20.0204 139.551 20.111 139.845C20.1539 139.95 20.1743 140.063 20.1708 140.176C20.0288 139.797 19.8306 139.44 19.5826 139.12C19.4672 138.969 19.3174 138.848 19.1459 138.767C19.1082 138.751 19.0661 138.747 19.0261 138.757C18.9861 138.766 18.9503 138.789 18.924 138.82C18.8994 138.862 18.8835 138.908 18.8775 138.956C18.8714 139.004 18.8753 139.052 18.8888 139.098C18.9622 139.337 19.1017 139.551 19.2911 139.714C19.4806 139.877 19.7122 139.984 19.9595 140.021C20.2086 140.05 20.4602 139.994 20.6732 139.861C20.8862 139.729 21.0481 139.528 21.1324 139.292C21.1665 139.196 21.1665 139.092 21.1324 138.996C21.1124 138.96 21.0816 138.931 21.0443 138.914C21.0071 138.896 20.9652 138.89 20.9246 138.898C20.741 138.948 20.5774 139.054 20.4561 139.201C20.1859 139.502 19.9681 139.846 19.8116 140.218Z" fill="#263238"/>
<g opacity="0.3">
<path d="M19.7265 135.418L19.3145 137.39L25.5452 138.426L26.0664 136.703L19.9484 134.484L19.7265 135.418Z" fill="black"/>
</g>
<path d="M47.7853 137.669L47.271 144.544C47.271 144.544 54.0899 147.362 54.1181 148.658L40.7339 148.14L41.0861 137.391L47.7853 137.669Z" fill="#3498DB"/>
<g opacity="0.6">
<path d="M43.1679 143.804C43.038 143.839 42.9254 143.92 42.8514 144.033C42.7774 144.145 42.7472 144.28 42.7664 144.413C42.796 144.544 42.8744 144.659 42.9857 144.734C43.0969 144.81 43.2326 144.84 43.3652 144.819C43.5033 144.782 43.623 144.695 43.701 144.576C43.7791 144.456 43.81 144.312 43.7878 144.17C43.7433 144.037 43.6488 143.925 43.5241 143.86C43.3993 143.794 43.2541 143.779 43.1186 143.818" fill="white"/>
</g>
<g opacity="0.6">
<path d="M40.7407 148.14L40.8182 147.055L53.6213 147.946C53.6213 147.946 54.2095 148.228 54.1249 148.65L40.7407 148.14Z" fill="white"/>
</g>
<path d="M47.4952 144.484C47.4952 144.551 47.1641 144.569 46.8366 144.766C46.509 144.963 46.3259 145.231 46.266 145.203C46.2061 145.175 46.3188 144.801 46.7204 144.569C47.1219 144.336 47.5128 144.424 47.4952 144.484Z" fill="#263238"/>
<path d="M48.8765 145.129C48.8765 145.196 48.6018 145.294 48.3693 145.562C48.1369 145.83 48.0629 146.119 47.996 146.115C47.9291 146.112 47.9044 145.738 48.2003 145.411C48.4961 145.083 48.8765 145.058 48.8765 145.129Z" fill="#263238"/>
<path d="M49.6097 146.83C49.5498 146.83 49.4723 146.509 49.6519 146.16C49.8316 145.812 50.1451 145.678 50.1697 145.734C50.1944 145.79 50.0006 145.974 49.8562 146.262C49.7118 146.551 49.6731 146.826 49.6097 146.83Z" fill="#263238"/>
<path d="M47.4324 142.906C47.4042 142.963 47.1084 142.861 46.728 142.871C46.3476 142.882 46.0658 142.987 46.0235 142.931C45.9813 142.875 46.2771 142.653 46.728 142.646C47.1788 142.639 47.4747 142.857 47.4324 142.906Z" fill="#263238"/>
<g opacity="0.3">
<path d="M47.6897 139.032L47.5981 140.257L41.0293 139.94L41.0751 138.524L47.6897 139.032Z" fill="black"/>
</g>
<path d="M47.5199 141.514C47.2986 141.568 47.0667 141.558 46.8507 141.486C46.6065 141.435 46.3698 141.354 46.1462 141.243C46.0158 141.179 45.8899 141.106 45.7694 141.025C45.6958 140.979 45.6294 140.924 45.5721 140.859C45.5333 140.808 45.5122 140.747 45.5122 140.683C45.5122 140.619 45.5333 140.557 45.5721 140.507C45.6063 140.462 45.6507 140.426 45.7016 140.403C45.7525 140.379 45.8083 140.367 45.8645 140.369C45.9493 140.373 46.0333 140.387 46.1145 140.412C46.2555 140.453 46.3923 140.507 46.5231 140.574C46.7455 140.682 46.9489 140.826 47.1254 141C47.4248 141.299 47.5199 141.549 47.4987 141.56C47.4776 141.57 47.3261 141.37 47.0197 141.12C46.8398 140.979 46.6435 140.861 46.435 140.767C46.3108 140.716 46.1838 140.671 46.0546 140.634C45.9138 140.591 45.794 140.588 45.7553 140.634C45.7165 140.679 45.7553 140.669 45.7553 140.711C45.7975 140.758 45.8461 140.798 45.8997 140.831C46.0127 140.909 46.1303 140.981 46.2519 141.046C46.455 141.158 46.6685 141.25 46.8894 141.32C47.1039 141.37 47.3146 141.435 47.5199 141.514Z" fill="#263238"/>
<path d="M47.4319 141.606C47.3149 141.409 47.262 141.18 47.2805 140.951C47.2819 140.703 47.3223 140.457 47.4002 140.222C47.4508 140.084 47.5132 139.951 47.5869 139.824C47.6265 139.737 47.6877 139.661 47.7648 139.605C47.8419 139.548 47.9322 139.512 48.0272 139.5C48.0873 139.504 48.1451 139.525 48.1937 139.56C48.2424 139.596 48.2799 139.645 48.3019 139.701C48.3325 139.78 48.3515 139.863 48.3582 139.947C48.3814 140.097 48.3814 140.249 48.3582 140.398C48.3111 140.647 48.2035 140.881 48.0448 141.078C47.77 141.43 47.4953 141.483 47.4883 141.462C47.4812 141.441 47.6996 141.31 47.9144 140.983C48.0377 140.796 48.1183 140.584 48.1504 140.363C48.1683 140.234 48.1683 140.104 48.1504 139.975C48.1328 139.835 48.0835 139.715 48.0307 139.729C47.9778 139.743 47.8475 139.828 47.7877 139.94C47.7189 140.053 47.6588 140.171 47.608 140.292C47.5265 140.505 47.4744 140.728 47.453 140.955C47.4073 141.349 47.4671 141.606 47.4319 141.606Z" fill="#263238"/>
<path d="M33.9499 63.5195C33.9499 63.5195 31.8366 63.6146 30.4277 70.8421C29.0189 78.0696 18.2798 136.633 18.2798 136.633L26.0673 136.703L40.7406 81.0247L39.765 138.436L47.6757 139.042C47.6757 139.042 53.6106 75.5407 53.6634 71.8459C53.7339 67.2389 51.0887 62.5791 51.0887 62.5791L33.9499 63.5195Z" fill="#263238"/>
<path d="M44.6533 62.9033C44.7026 62.9033 43.8925 67.0419 42.8464 72.1244C41.8004 77.2068 40.9128 81.3207 40.8635 81.3102C40.8142 81.2996 41.6207 77.1716 42.6668 72.0891C43.7129 67.0067 44.6146 62.8928 44.6533 62.9033Z" fill="#455A64"/>
<path d="M45.8653 63.9354C45.8653 63.9143 46.0766 63.8509 46.3196 64.0657C46.3887 64.1283 46.4433 64.2051 46.4798 64.2909C46.5163 64.3766 46.5337 64.4692 46.531 64.5623C46.5222 64.6801 46.4801 64.793 46.4096 64.8877C46.3391 64.9825 46.2432 65.0553 46.133 65.0977C46.0254 65.1465 45.9063 65.1642 45.7893 65.1486C45.6722 65.133 45.5618 65.0849 45.4708 65.0097C45.4027 64.9458 45.3489 64.8682 45.3131 64.7819C45.2773 64.6957 45.2602 64.6029 45.263 64.5095C45.263 64.1855 45.4814 64.0728 45.4849 64.0939C45.4255 64.2232 45.3943 64.3637 45.3933 64.506C45.398 64.5775 45.417 64.6474 45.449 64.7115C45.4811 64.7756 45.5256 64.8327 45.58 64.8793C45.6495 64.9272 45.7299 64.9569 45.8138 64.9656C45.8978 64.9743 45.9826 64.9618 46.0604 64.9292C46.1383 64.8966 46.2067 64.8449 46.2594 64.779C46.312 64.713 46.3473 64.6349 46.3619 64.5518C46.3671 64.4804 46.3579 64.4087 46.3349 64.341C46.3119 64.2732 46.2756 64.2108 46.2281 64.1573C46.0555 63.9565 45.8618 63.9636 45.8653 63.9354Z" fill="#455A64"/>
<path d="M45.5303 66.7956C45.5303 66.7745 45.7487 66.7956 45.8825 67.0879C45.9166 67.1714 45.932 67.2613 45.9277 67.3513C45.9235 67.4413 45.8996 67.5294 45.8579 67.6092C45.7973 67.7042 45.712 67.7808 45.6112 67.8309C45.5103 67.8811 45.3977 67.9027 45.2854 67.8937C45.1732 67.8846 45.0655 67.8452 44.974 67.7795C44.8825 67.7139 44.8106 67.6246 44.766 67.5212C44.7379 67.4363 44.7286 67.3463 44.739 67.2574C44.7493 67.1686 44.779 67.0831 44.8259 67.0069C44.9914 66.7428 45.2168 66.7498 45.2098 66.7709C45.2028 66.7921 45.0407 66.8414 44.9386 67.0668C44.8869 67.1932 44.8869 67.3349 44.9386 67.4613C44.9754 67.5312 45.0292 67.5906 45.0951 67.6341C45.1611 67.6776 45.2369 67.7038 45.3156 67.7101C45.3943 67.7164 45.4734 67.7027 45.5454 67.6703C45.6174 67.6379 45.6801 67.5878 45.7276 67.5247C45.7939 67.4043 45.8103 67.2626 45.7733 67.1302C45.6712 66.8907 45.5127 66.8203 45.5303 66.7956Z" fill="#455A64"/>
<path d="M38.0668 64.006C38.0523 64.127 38.0215 64.2455 37.9752 64.3582C37.8652 64.6807 37.7273 64.993 37.5631 65.2916C37.0257 66.288 36.2495 67.1355 35.3041 67.7582C34.3587 68.3808 33.2736 68.7593 32.146 68.8596C31.8073 68.8891 31.4668 68.8891 31.1281 68.8596C31.0088 68.8558 30.8904 68.8368 30.7759 68.8032C30.7759 68.768 31.3077 68.8279 32.1495 68.7222C33.2466 68.5891 34.2979 68.2033 35.2208 67.5952C36.1436 66.9871 36.9128 66.1733 37.468 65.2176C37.8801 64.5062 38.0351 63.9955 38.0668 64.006Z" fill="#455A64"/>
<path d="M53.2195 69.1452C53.2195 69.1452 53.1279 69.1029 52.9835 69.0043C52.7817 68.8592 52.5931 68.6965 52.4199 68.5183C51.8407 67.9319 51.3887 67.2323 51.0924 66.4632C50.796 65.6941 50.6616 64.8721 50.6976 64.0486C50.7057 63.8008 50.7375 63.5543 50.7927 63.3125C50.8314 63.1399 50.8561 63.0483 50.8702 63.0519C50.8843 63.0554 50.8279 63.4358 50.8279 64.0521C50.8285 65.6701 51.4297 67.2303 52.515 68.4302C52.9271 68.8846 53.2371 69.117 53.2195 69.1452Z" fill="#455A64"/>
<path d="M80.5406 69.3488C80.6568 69.067 80.6251 69.1797 78.7583 67.9399C78.7583 67.9399 81.4352 69.701 81.1569 68.8627C80.9162 68.5452 80.6218 68.2722 80.287 68.0561C80.9914 68.4717 81.4 68.5175 81.5232 68.3485C81.7346 68.0561 80.2024 66.9396 79.4733 66.4359C80.1399 66.9128 80.839 67.3424 81.5655 67.7215C81.9987 67.8554 81.7909 67.3482 81.4986 66.9783C81.2062 66.6085 78.938 64.4248 78.3286 63.7732C78.2706 63.7236 78.2241 63.662 78.1922 63.5927C78.1602 63.5234 78.1437 63.448 78.1437 63.3717C78.1437 63.2953 78.1602 63.2199 78.1922 63.1506C78.2241 63.0813 78.2706 63.0197 78.3286 62.9701C79.4205 62.2657 79.8995 61.1421 79.8854 60.7723C79.8733 60.689 79.8351 60.6118 79.7763 60.5516C79.7175 60.4914 79.6412 60.4513 79.5582 60.4373C79.4753 60.4232 79.39 60.4357 79.3146 60.4732C79.2392 60.5106 79.1777 60.5709 79.1387 60.6455C78.8631 60.9881 78.5419 61.2914 78.1842 61.5472C77.9068 61.7636 77.5948 61.9315 77.2614 62.0438C76.874 62.1706 74.9685 62.0649 74.5599 61.8571L73.2603 66.2634C73.2603 66.2634 77.9764 68.4682 78.8711 68.8979C79.97 69.4192 80.4596 69.5636 80.5406 69.3488Z" fill="#FFBE9D"/>
<path d="M77.9099 67.2889C77.8712 67.3417 78.4841 67.7891 79.2765 68.2927C80.069 68.7964 80.7347 69.1592 80.7664 69.1063C80.7981 69.0535 80.1853 68.6027 79.3963 68.1025C78.6073 67.6024 77.9452 67.222 77.9099 67.2889Z" fill="#EB996E"/>
<path d="M78.353 66.4257C78.3178 66.4785 78.9447 66.9928 79.7618 67.5774C80.579 68.1621 81.2552 68.5954 81.2905 68.546C81.3257 68.4967 80.7023 67.979 79.8816 67.3943C79.0609 66.8096 78.3917 66.3764 78.353 66.4257Z" fill="#EB996E"/>
<path d="M78.8218 65.5518C78.7866 65.6011 79.3713 66.1013 80.1285 66.6648C80.8858 67.2284 81.5374 67.644 81.5656 67.5947C81.5938 67.5454 81.0197 67.0452 80.2624 66.4817C79.5051 65.9181 78.8606 65.5025 78.8218 65.5518Z" fill="#EB996E"/>
<path d="M30.8537 49.5937L34.3125 49.7839C34.5575 50.7494 34.8851 51.6922 35.2917 52.6016C38.0777 47.7692 40.2227 41.2919 40.7721 38.6891C40.6946 38.4331 40.5996 38.1443 40.4868 37.8226C40.4025 37.3363 40.4168 36.838 40.5291 36.3574C40.6242 35.7797 40.7862 34.9978 40.832 34.6386C40.9835 33.5397 41.1596 33.3635 41.5364 33.4903C42.0577 33.6594 41.3216 36.5793 41.7478 36.6427C41.9802 36.6744 42.2585 35.6741 42.343 34.8534C42.4276 34.0328 42.7939 31.5109 43.0651 31.3313C43.4631 31.0847 43.8082 31.4757 43.7096 32.2928C43.611 33.1099 43.4807 35.586 43.9139 35.6177C44.3471 35.6494 44.6993 31.4651 44.6993 31.4651C44.6993 31.4651 44.6324 30.5564 45.1326 30.5775C46.0378 30.6163 45.3333 35.0295 45.2558 35.4487C45.1995 35.7375 45.6715 35.8009 45.7137 35.4768C45.756 35.1528 45.9744 31.289 46.8937 31.3207C47.5981 31.3453 46.3477 34.9556 46.7457 35.7938C47.1437 36.6321 47.4185 32.9514 48.0947 33.0008C48.3448 33.0219 48.5315 33.0712 48.0701 35.1528C47.6197 36.808 47.0801 38.4377 46.4534 40.0345C45.3967 45.8109 40.6806 64.2881 33.3122 60.9068C29.1913 59.0154 27.2646 49.6359 27.2646 49.6359L30.8537 49.5937Z" fill="#FFBE9D"/>
<path d="M46.4603 40.0652C46.4664 40.0215 46.4782 39.9789 46.4955 39.9384C46.5272 39.8468 46.566 39.727 46.6188 39.5861C46.735 39.2515 46.8935 38.7866 47.1014 38.1773C47.3092 37.5679 47.5592 36.8283 47.8058 35.9548C47.9326 35.5216 48.0382 35.0496 48.1333 34.5459C48.1827 34.2923 48.2284 34.0317 48.2601 33.764C48.2689 33.6315 48.2689 33.4985 48.2601 33.366C48.2601 33.2286 48.2284 33.1159 48.1193 33.1124C48.0101 33.1089 47.9326 33.1758 47.8551 33.292C47.7849 33.4164 47.7271 33.5474 47.6825 33.683C47.5839 33.9612 47.5064 34.2571 47.4289 34.5565C47.3514 34.8559 47.281 35.1694 47.1894 35.4863C47.1495 35.66 47.0778 35.8248 46.9781 35.9724C46.953 36.0013 46.9199 36.0222 46.883 36.0323C46.8597 36.0374 46.8356 36.0372 46.8124 36.0317C46.7893 36.0262 46.7676 36.0156 46.7491 36.0006C46.7087 35.9635 46.6752 35.9193 46.6505 35.8703C46.6133 35.7838 46.5884 35.6925 46.5766 35.5991C46.5605 34.8886 46.6315 34.1789 46.7879 33.4858C46.8478 33.1335 46.9112 32.7813 46.9569 32.4291C46.9781 32.2495 46.9992 32.0769 47.0027 31.8867C47.0063 31.6965 46.9781 31.4957 46.9041 31.464C46.8301 31.4323 46.6505 31.531 46.5519 31.6789C46.4545 31.8351 46.3776 32.0032 46.323 32.179C46.2029 32.547 46.1122 32.9238 46.0517 33.3061C45.9848 33.6936 45.932 34.088 45.8862 34.4896C45.8686 34.6903 45.8475 34.8911 45.8299 35.0954L45.8017 35.4018C45.8054 35.4673 45.7948 35.5327 45.7704 35.5936C45.7461 35.6545 45.7086 35.7092 45.6608 35.754C45.6005 35.7981 45.5277 35.8219 45.453 35.8219C45.3783 35.8219 45.3055 35.7981 45.2452 35.754C45.211 35.7315 45.182 35.7019 45.1602 35.6673C45.1383 35.6327 45.1241 35.5938 45.1184 35.5533C45.113 35.5159 45.113 35.4779 45.1184 35.4406V35.3666L45.2135 34.7502C45.2734 34.3346 45.3227 33.919 45.3614 33.4963C45.4001 33.0737 45.4318 32.6475 45.4389 32.2213C45.4595 31.7994 45.4168 31.3767 45.3121 30.9674C45.2878 30.8636 45.2248 30.7729 45.136 30.7138C45.0935 30.7002 45.0478 30.7003 45.0054 30.7142C44.963 30.7282 44.9261 30.7551 44.9 30.7913C44.786 30.9998 44.7392 31.2385 44.7662 31.4746C44.6887 32.3023 44.6006 33.1159 44.4809 33.9155C44.421 34.3135 44.3541 34.7115 44.2554 35.1024C44.2273 35.1975 44.1991 35.2961 44.1639 35.3948C44.1304 35.5143 44.0601 35.6203 43.9631 35.6977C43.9202 35.7188 43.8714 35.7247 43.8247 35.7144C43.778 35.7042 43.7362 35.6784 43.706 35.6413C43.663 35.5961 43.6305 35.542 43.6109 35.4828C43.5729 35.3851 43.5457 35.2835 43.5299 35.1799C43.4473 34.4135 43.4403 33.6407 43.5087 32.8729C43.5608 32.515 43.5808 32.1531 43.5686 31.7916C43.5572 31.6373 43.4865 31.4934 43.3714 31.3901C43.3443 31.3733 43.3142 31.3621 43.2827 31.3573C43.2512 31.3524 43.2191 31.354 43.1882 31.3619C43.1553 31.373 43.1235 31.3871 43.0931 31.4042C43.0614 31.4323 43.065 31.4042 43.0438 31.464C42.9164 31.7808 42.8232 32.1102 42.7656 32.4467C42.6951 32.7989 42.6353 33.1195 42.5824 33.4505C42.5296 33.7816 42.4803 34.1057 42.438 34.4297C42.3957 34.7537 42.3746 35.0707 42.3112 35.3877C42.2565 35.6974 42.174 36.0016 42.0647 36.2964C42.0356 36.3715 42.0015 36.4444 41.9625 36.5148C41.9132 36.5817 41.885 36.6663 41.7512 36.7085C41.7169 36.7148 41.6816 36.7108 41.6496 36.697C41.6177 36.6832 41.5905 36.6603 41.5716 36.6311C41.5469 36.5904 41.528 36.5465 41.5152 36.5007C41.4994 36.4242 41.49 36.3464 41.487 36.2683C41.487 35.666 41.568 35.1165 41.5997 34.5847C41.6227 34.3304 41.6227 34.0746 41.5997 33.8204C41.5997 33.7077 41.5469 33.5738 41.4835 33.5492C41.4391 33.5274 41.3903 33.5161 41.3409 33.5161C41.2914 33.5161 41.2426 33.5274 41.1982 33.5492C41.0504 33.7079 40.9588 33.9109 40.9376 34.1268C40.8847 34.3416 40.8636 34.56 40.8249 34.7678C40.6769 35.5991 40.522 36.3176 40.448 36.9023C40.4133 37.1594 40.4133 37.42 40.448 37.6771C40.4973 37.8885 40.5713 38.0787 40.61 38.2266C40.6488 38.3745 40.6875 38.4802 40.7122 38.5788C40.7253 38.6166 40.7347 38.6555 40.7403 38.695C40.7192 38.6609 40.7026 38.6242 40.691 38.5858L40.5713 38.2336C40.522 38.0822 40.448 37.9131 40.3881 37.6807C40.3504 37.4167 40.3504 37.1486 40.3881 36.8846C40.455 36.2894 40.5959 35.5779 40.7403 34.7432C40.7791 34.5354 40.8002 34.317 40.846 34.0916C40.8712 33.9725 40.903 33.8549 40.9411 33.7394C40.9763 33.6112 41.0531 33.4985 41.1595 33.4188C41.2235 33.3849 41.2948 33.3672 41.3673 33.3672C41.4397 33.3672 41.5111 33.3849 41.5751 33.4188C41.6439 33.4622 41.7005 33.5226 41.7394 33.5942C41.7782 33.6657 41.7981 33.746 41.797 33.8274C41.8216 34.0922 41.8216 34.3587 41.797 34.6234C41.7723 35.1588 41.6878 35.7188 41.7019 36.2894C41.7045 36.3569 41.7127 36.424 41.7265 36.4902C41.7265 36.5571 41.7758 36.5853 41.7688 36.5712C41.7618 36.5571 41.8357 36.5148 41.8639 36.4585C41.8986 36.396 41.9292 36.3312 41.9555 36.2647C42.0598 35.9792 42.1365 35.6844 42.1844 35.3842C42.2443 35.0778 42.2654 34.7608 42.3077 34.4332C42.35 34.1057 42.3922 33.7816 42.4451 33.447C42.4979 33.1124 42.5578 32.7778 42.6247 32.4362C42.682 32.0793 42.7813 31.7306 42.9205 31.3971C42.9487 31.3412 42.9912 31.2938 43.0438 31.2598C43.0906 31.2341 43.1403 31.214 43.1918 31.1999C43.2508 31.183 43.3128 31.179 43.3736 31.1881C43.4344 31.1972 43.4925 31.2192 43.544 31.2527C43.6257 31.3176 43.6932 31.3986 43.7423 31.4907C43.7914 31.5828 43.821 31.684 43.8293 31.7881C43.8557 31.9797 43.8557 32.1741 43.8293 32.3657C43.8117 32.5453 43.794 32.7179 43.7835 32.9152C43.7148 33.6654 43.7219 34.4206 43.8046 35.1694C43.8197 35.2583 43.8433 35.3456 43.8751 35.43C43.8856 35.4641 43.9037 35.4954 43.9279 35.5216C43.9279 35.5216 43.9279 35.5216 43.9455 35.5216C43.9455 35.6026 43.9455 35.5216 43.9455 35.5533C43.9455 35.585 43.9455 35.5533 43.9455 35.5251C43.9894 35.4662 44.0239 35.4009 44.0476 35.3314C44.0805 35.2445 44.1087 35.1529 44.1322 35.0566C44.2273 34.6833 44.2907 34.2888 44.3505 33.8943C44.4703 33.1018 44.5584 32.2882 44.6323 31.464V31.4816C44.601 31.1913 44.664 30.8986 44.8119 30.6469C44.8684 30.5749 44.9459 30.5224 45.0337 30.4965C45.1214 30.4706 45.215 30.4727 45.3015 30.5025C45.3754 30.5435 45.4403 30.5989 45.4923 30.6655C45.5444 30.732 45.5825 30.8083 45.6044 30.8899C45.7172 31.323 45.7635 31.7708 45.7418 32.2178C45.7418 32.6545 45.7031 33.0842 45.6643 33.5104C45.6256 33.9366 45.5727 34.3557 45.5129 34.7713C45.4812 34.9827 45.4495 35.187 45.4178 35.3948C45.3896 35.5251 45.3966 35.5286 45.4178 35.5674C45.4422 35.5839 45.471 35.5927 45.5005 35.5927C45.53 35.5927 45.5589 35.5839 45.5833 35.5674C45.6256 35.5357 45.6326 35.4758 45.6432 35.3595L45.6678 35.0531L45.7312 34.4438C45.7735 34.0423 45.8299 33.6407 45.8968 33.2498C45.9619 32.8571 46.0561 32.4698 46.1785 32.091C46.2425 31.8995 46.3288 31.7163 46.4357 31.545C46.4938 31.4527 46.5706 31.3736 46.6611 31.3126C46.7113 31.2763 46.7695 31.2525 46.8308 31.2433C46.892 31.2341 46.9546 31.2397 47.0133 31.2598C47.0673 31.293 47.1128 31.3383 47.1464 31.3921C47.18 31.4458 47.2007 31.5066 47.207 31.5697C47.2215 31.6688 47.2274 31.769 47.2246 31.8691C47.2246 32.0628 47.2 32.2495 47.1788 32.4362C47.1295 32.7884 47.0626 33.1617 46.9992 33.5175C46.8479 34.1865 46.7746 34.8709 46.7808 35.5568C46.7908 35.6304 46.8097 35.7026 46.8372 35.7716C46.85 35.7966 46.8653 35.8203 46.883 35.8421C46.883 35.8421 46.883 35.8421 46.883 35.8174C46.9621 35.6901 47.0203 35.551 47.0556 35.4053C47.1471 35.0989 47.2211 34.789 47.3021 34.4861C47.3748 34.1847 47.4629 33.8872 47.5663 33.5949C47.6151 33.4502 47.6788 33.3109 47.7565 33.1793C47.7985 33.1076 47.8534 33.0443 47.9185 32.9927C47.9539 32.9619 47.9962 32.9402 48.0418 32.9293C48.0873 32.9221 48.1336 32.9221 48.1791 32.9293C48.2272 32.9341 48.2731 32.9516 48.3121 32.9801C48.3511 33.0086 48.3818 33.047 48.401 33.0913C48.4304 33.1653 48.446 33.2441 48.4468 33.3237C48.4496 33.4662 48.4413 33.6087 48.4222 33.7499C48.3905 34.0246 48.3376 34.2853 48.2883 34.5424C48.1862 35.0461 48.0735 35.5251 47.9361 35.9513C47.6719 36.8248 47.4078 37.5644 47.1929 38.1667C46.9781 38.769 46.7949 39.2234 46.6716 39.5474C46.6118 39.6953 46.5625 39.8116 46.5272 39.8996C46.5115 39.9572 46.489 40.0128 46.4603 40.0652Z" fill="#EB996E"/>
<path d="M27.2329 49.9915C27.9021 52.3549 29.2124 56.0004 30.6177 59.8536C30.662 59.9777 30.7422 60.0859 30.848 60.1645C30.9539 60.243 31.0806 60.2884 31.2123 60.2948C31.3439 60.3012 31.4745 60.2684 31.5875 60.2005C31.7005 60.1326 31.7908 60.0327 31.8469 59.9135L35.2916 52.6261C35.2916 52.6261 34.4604 46.6385 34.5308 46.8533C34.6013 47.0682 27.4231 47.6282 27.4231 47.6282L27.2329 49.9915Z" fill="#3498DB"/>
<path d="M34.9956 48.8175C34.9956 48.8457 34.5659 48.9725 33.8861 49.2331C32.9977 49.5704 32.1418 49.9877 31.329 50.48C30.5173 50.9746 29.7512 51.5403 29.0396 52.1706C28.4937 52.6532 28.1802 52.9842 28.1591 52.9631C28.138 52.942 28.219 52.8645 28.3528 52.706C28.5415 52.4857 28.7413 52.2753 28.9516 52.0755C29.6459 51.407 30.4112 50.8165 31.2339 50.3144C32.0569 49.8186 32.9307 49.4124 33.8403 49.1028C34.1153 49.0081 34.3951 48.9281 34.6786 48.8633C34.7812 48.8312 34.8882 48.8158 34.9956 48.8175Z" fill="#FAFAFA"/>
<path d="M36.3621 50.6354C36.1383 50.4097 35.9442 50.1564 35.7845 49.8816C35.3732 49.2403 35.0196 48.5637 34.7279 47.8599C34.4359 47.1539 34.2084 46.4231 34.0481 45.6762C33.966 45.3706 33.9245 45.0556 33.9248 44.7393C34.0299 45.0346 34.1134 45.3371 34.1749 45.6445C34.3636 46.3738 34.5989 47.0903 34.8793 47.7895C35.1723 48.485 35.5088 49.1614 35.8866 49.8147C36.0625 50.0778 36.2214 50.3519 36.3621 50.6354Z" fill="#263238"/>
<path d="M38.6583 18.3664C38.0608 19.3513 37.6903 20.457 37.5739 21.603C37.4576 22.7491 37.5982 23.9067 37.9856 24.9916C38.3378 25.9602 38.9013 26.9147 38.7992 27.9432C38.697 28.9716 37.894 29.9895 38.1758 31.0039C38.3448 31.6062 38.8591 32.0606 39.0598 32.6452C39.2888 33.3497 39.0598 34.0929 38.9366 34.8149C38.6548 36.6605 39.2465 38.5167 39.3909 40.3764C39.5353 42.2361 39.0387 44.4163 37.3762 45.2264C36.8726 45.473 36.2139 45.5434 35.7948 45.1665C35.2594 44.691 35.4073 43.8316 35.5553 43.1272C37.0135 36.0829 32.5086 29.2076 33.5371 22.0788C33.7026 20.9376 34.3401 19.0004 35.1608 18.2044C35.9815 17.4084 38.2603 17.5 39.0352 18.3453" fill="#263238"/>
<path d="M31.7202 38.8015C31.7202 38.8015 31.9351 38.5479 32.2521 38.0478C32.6969 37.3414 33.0085 36.5595 33.1713 35.7408C33.2776 35.1768 33.3143 34.6019 33.2805 34.029C33.2189 33.3628 33.1942 32.6938 33.2066 32.0249C33.2276 31.6586 33.295 31.2964 33.4073 30.9471C33.5361 30.5873 33.6988 30.2405 33.8934 29.9116C34.2879 29.2459 34.7845 28.626 35.2424 27.9638C35.7126 27.338 36.0396 26.6166 36.2004 25.8505C36.2785 25.129 36.2368 24.3995 36.0771 23.6915C35.9439 23.0334 35.8918 22.3616 35.9222 21.6909C35.9641 21.105 36.0825 20.5272 36.2744 19.9721C36.5434 19.1665 36.9669 18.4212 37.5212 17.7778C37.6684 17.6028 37.8286 17.4392 38.0002 17.2882C38.0547 17.2302 38.1162 17.1793 38.1834 17.1367C38.1834 17.1367 37.9474 17.3657 37.574 17.8412C36.6848 18.9449 36.1649 20.3002 36.0877 21.7155C36.0641 22.3753 36.1221 23.0354 36.2603 23.6809C36.4283 24.4079 36.4735 25.1579 36.3941 25.8999C36.2272 26.6873 35.8906 27.4289 35.4079 28.073C34.9465 28.7458 34.4499 29.3621 34.0625 30.0102C33.8719 30.3269 33.7138 30.6621 33.5905 31.0105C33.4791 31.3455 33.4116 31.6936 33.3897 32.046C33.3741 32.7076 33.3929 33.3694 33.4461 34.029C33.474 34.6135 33.4291 35.1991 33.3122 35.7725C33.1357 36.6024 32.8009 37.3905 32.326 38.0936C32.1975 38.2837 32.0563 38.4649 31.9034 38.636C31.8486 38.6977 31.7871 38.7532 31.7202 38.8015Z" fill="#455A64"/>
<path d="M28.3813 39.3254C28.4097 39.2433 28.4463 39.1642 28.4905 39.0894C28.5786 38.9239 28.6913 38.7055 28.8427 38.4308C29.1386 37.8567 29.5789 37.0219 30.0121 35.9653C30.542 34.7311 30.8359 33.4086 30.8786 32.0662C30.8788 31.6794 30.8493 31.2932 30.7905 30.9109C30.7306 30.5165 30.6391 30.1185 30.5792 29.7028C30.5059 29.2729 30.5155 28.833 30.6074 28.4067C30.7265 27.969 30.9714 27.5759 31.3118 27.2761C31.974 26.6738 32.7735 26.2793 33.1891 25.5714C33.5492 24.8694 33.7614 24.1009 33.8125 23.3136C33.8871 22.5919 34.0503 21.8821 34.2986 21.2004C34.8569 19.7367 35.8516 18.4801 37.148 17.6007C37.3547 17.4616 37.57 17.3357 37.7926 17.2238C37.8677 17.1788 37.9482 17.1433 38.0321 17.1182C38.0321 17.1182 37.7151 17.2872 37.1903 17.6606C36.4506 18.1884 35.8102 18.8431 35.2989 19.5942C34.9442 20.1092 34.6555 20.6665 34.4395 21.2532C34.2021 21.9366 34.0484 22.6462 33.9816 23.3665C33.8759 24.1167 33.7914 24.955 33.3405 25.6981C32.8897 26.4413 32.0655 26.864 31.4351 27.4592C31.1138 27.738 30.8821 28.1057 30.7694 28.5159C30.6837 28.9192 30.6754 29.3351 30.7447 29.7416C30.8011 30.1466 30.8891 30.5482 30.949 30.9462C31.0099 31.3376 31.0382 31.7335 31.0335 32.1296C30.9857 33.4966 30.676 34.8417 30.1213 36.092C29.761 36.937 29.3517 37.7602 28.8956 38.5576L28.5222 39.1105C28.483 39.1869 28.4358 39.259 28.3813 39.3254Z" fill="#455A64"/>
<path d="M144.915 138.851C144.931 138.799 144.953 138.75 144.978 138.703C145.028 138.597 145.095 138.456 145.176 138.277C145.421 137.726 145.618 137.156 145.764 136.572C146.151 135.057 146.289 132.743 145.715 129.996C145.403 128.498 144.995 127.021 144.492 125.576C143.978 124.008 143.376 122.346 142.886 120.546C142.334 118.669 142.066 116.719 142.094 114.763C142.168 112.716 142.774 110.677 143.439 108.641C144.105 106.605 144.792 104.622 144.996 102.615C145.223 100.689 144.836 98.7417 143.89 97.0497C143.01 95.4259 141.9 94.0347 141.072 92.5976C140.297 91.2623 139.726 89.8188 139.378 88.3147C138.878 86.1371 138.841 83.8789 139.269 81.686C139.425 80.8836 139.661 80.099 139.973 79.3438C139.964 79.3966 139.95 79.4484 139.931 79.4987L139.79 79.946C139.671 80.3405 139.512 80.9322 139.361 81.7071C138.967 83.8901 139.026 86.1307 139.533 88.29C139.887 89.7758 140.46 91.2004 141.234 92.5166C142.062 93.9255 143.175 95.3344 144.077 96.9651C145.046 98.6914 145.444 100.68 145.214 102.646C145.007 104.682 144.316 106.686 143.651 108.719C142.985 110.751 142.386 112.769 142.312 114.78C142.281 116.717 142.542 118.648 143.087 120.507C143.57 122.297 144.161 123.959 144.672 125.533C145.169 126.987 145.57 128.472 145.87 129.978C146.43 132.747 146.271 135.085 145.87 136.604C145.712 137.189 145.501 137.758 145.239 138.305L145.021 138.724C144.99 138.77 144.955 138.813 144.915 138.851Z" fill="#263238"/>
<path d="M142.199 94.0165C142.199 94.0165 140.515 88.6241 143.537 85.4682C143.561 85.4429 143.591 85.4245 143.624 85.4151C143.657 85.4058 143.693 85.4059 143.726 85.4154C143.759 85.4249 143.789 85.4434 143.812 85.4689C143.836 85.4944 143.851 85.5259 143.858 85.5598C144.02 86.4509 144.221 89.163 142.199 94.0165Z" fill="#3498DB"/>
<path d="M143.21 87.2656C143.205 87.5996 143.167 87.9322 143.098 88.2589C142.985 88.9457 142.855 89.7488 142.714 90.6363C142.573 91.5239 142.442 92.3305 142.333 93.0138C142.302 93.3469 142.244 93.6768 142.157 94C142.124 93.6669 142.131 93.3311 142.178 92.9997C142.235 92.3833 142.344 91.538 142.495 90.6082C142.647 89.6783 142.812 88.8471 142.943 88.2377C142.994 87.9045 143.084 87.5782 143.21 87.2656Z" fill="#263238"/>
<path d="M144.179 106.735C144.179 106.735 145.211 101.181 149.36 99.8073C149.393 99.7959 149.428 99.7938 149.462 99.8013C149.496 99.8087 149.527 99.8255 149.552 99.8496C149.577 99.8737 149.594 99.9043 149.603 99.9379C149.611 99.9715 149.61 100.007 149.6 100.04C149.325 100.896 148.237 103.386 144.179 106.735Z" fill="#3498DB"/>
<path d="M148.229 101.234C148.068 101.528 147.879 101.805 147.666 102.062L146.211 103.982L144.767 105.908C144.585 106.188 144.379 106.451 144.15 106.694C144.279 106.384 144.445 106.09 144.643 105.82C144.996 105.302 145.475 104.605 146.052 103.855C146.63 103.105 147.155 102.446 147.553 101.967C147.751 101.699 147.977 101.453 148.229 101.234Z" fill="#263238"/>
<path d="M143.058 120.659C143.058 120.659 142.431 115.045 146.003 112.526C146.03 112.505 146.064 112.491 146.098 112.488C146.133 112.485 146.168 112.491 146.199 112.507C146.23 112.523 146.256 112.548 146.274 112.578C146.292 112.608 146.3 112.643 146.299 112.678C146.288 113.583 145.968 116.281 143.058 120.659Z" fill="#3498DB"/>
<path d="M145.348 114.224C145.283 114.552 145.182 114.872 145.049 115.178L144.217 117.439C143.907 118.285 143.629 119.049 143.393 119.701C143.303 120.021 143.185 120.334 143.041 120.634C143.074 120.3 143.147 119.971 143.259 119.655C143.432 119.063 143.7 118.246 144.027 117.365C144.355 116.485 144.675 115.692 144.918 115.125C145.031 114.811 145.174 114.509 145.348 114.224Z" fill="#263238"/>
<path d="M146.183 134.67C146.183 134.67 145.76 129.034 149.416 126.646C149.445 126.626 149.478 126.615 149.513 126.614C149.548 126.612 149.582 126.62 149.613 126.637C149.643 126.654 149.668 126.678 149.685 126.709C149.702 126.739 149.71 126.774 149.709 126.808C149.666 127.713 149.251 130.401 146.183 134.67Z" fill="#3498DB"/>
<path d="M148.691 128.323C148.612 128.649 148.5 128.965 148.356 129.267C148.096 129.908 147.786 130.676 147.444 131.497C147.103 132.317 146.803 133.082 146.543 133.726C146.438 134.044 146.305 134.352 146.145 134.646C146.191 134.312 146.278 133.986 146.402 133.673C146.595 133.089 146.891 132.286 147.25 131.416C147.61 130.546 147.955 129.764 148.219 129.207C148.344 128.897 148.503 128.6 148.691 128.323Z" fill="#263238"/>
<path d="M139.776 89.2797C139.776 89.2797 134.782 86.6592 134.672 82.2953C134.672 82.2611 134.681 82.2274 134.698 82.1979C134.716 82.1683 134.74 82.1439 134.77 82.1274C134.8 82.1108 134.834 82.1026 134.868 82.1036C134.903 82.1046 134.936 82.1149 134.965 82.1333C135.708 82.6475 137.772 84.4227 139.776 89.2797Z" fill="#3498DB"/>
<path d="M135.711 83.7959C135.946 84.0354 136.155 84.2987 136.335 84.5813C136.743 85.1414 137.219 85.8035 137.744 86.5326L139.153 88.4769C139.367 88.7326 139.558 89.0073 139.723 89.2975C139.466 89.0832 139.235 88.8384 139.036 88.5684C138.638 88.0965 138.117 87.4202 137.568 86.6559C137.018 85.8916 136.536 85.1836 136.205 84.6659C136.01 84.3938 135.845 84.1022 135.711 83.7959Z" fill="#263238"/>
<path d="M145.154 100.857C145.154 100.857 139.998 98.5497 139.635 94.1928C139.632 94.1586 139.639 94.1242 139.654 94.0935C139.669 94.0627 139.693 94.0368 139.722 94.0186C139.751 94.0004 139.785 93.9906 139.819 93.9902C139.853 93.9899 139.887 93.9991 139.917 94.0167C140.688 94.4851 142.854 96.1265 145.154 100.857Z" fill="#3498DB"/>
<path d="M140.769 95.6299C141.017 95.8535 141.242 96.1026 141.438 96.3731L142.967 98.2363L144.499 100.092C144.729 100.335 144.936 100.598 145.119 100.878C144.849 100.678 144.603 100.448 144.386 100.191C143.964 99.7402 143.4 99.0992 142.805 98.3701C142.21 97.641 141.688 96.9613 141.322 96.4646C141.107 96.2077 140.922 95.9277 140.769 95.6299Z" fill="#263238"/>
<path d="M142.178 113.78C142.178 113.78 138.656 109.377 140.301 105.327C140.314 105.295 140.335 105.268 140.363 105.247C140.391 105.227 140.424 105.215 140.458 105.212C140.492 105.209 140.526 105.215 140.557 105.231C140.588 105.246 140.614 105.27 140.632 105.299C141.122 106.063 142.294 108.514 142.178 113.78Z" fill="#3498DB"/>
<path d="M140.657 107.116C140.777 107.429 140.864 107.754 140.917 108.085C141.065 108.761 141.238 109.557 141.428 110.438C141.618 111.318 141.798 112.111 141.946 112.787C142.04 113.108 142.105 113.437 142.139 113.77C141.985 113.47 141.866 113.153 141.787 112.826C141.615 112.23 141.403 111.417 141.206 110.48C141.009 109.543 140.854 108.719 140.755 108.113C140.686 107.785 140.653 107.451 140.657 107.116Z" fill="#263238"/>
<path d="M145.7 128.965C145.7 128.965 140.582 126.573 140.293 122.213C140.29 122.178 140.296 122.143 140.312 122.112C140.327 122.08 140.351 122.054 140.381 122.036C140.411 122.017 140.445 122.008 140.48 122.008C140.515 122.008 140.549 122.018 140.579 122.037C141.336 122.519 143.474 124.199 145.7 128.965Z" fill="#3498DB"/>
<path d="M141.393 123.663C141.635 123.894 141.854 124.148 142.048 124.42L143.545 126.305L145.046 128.189C145.271 128.436 145.474 128.702 145.651 128.985C145.389 128.779 145.153 128.543 144.947 128.281C144.528 127.823 143.978 127.171 143.394 126.432C142.809 125.692 142.302 125.005 141.943 124.501C141.727 124.244 141.543 123.963 141.393 123.663Z" fill="#263238"/>
<path d="M155.883 106.761C155.883 106.761 155.883 106.803 155.883 106.884C155.883 106.965 155.883 107.099 155.883 107.236C155.883 107.588 155.847 108.036 155.823 108.606C155.759 109.811 155.664 111.491 155.555 113.499C155.203 115.541 154.146 117.806 152.737 120.008C151.712 121.628 150.624 123.1 149.708 124.47C148.872 125.673 148.122 126.932 147.461 128.239C147.024 129.122 146.67 130.044 146.405 130.993C146.316 131.328 146.246 131.592 146.207 131.772C146.191 131.865 146.166 131.957 146.133 132.046C146.135 131.951 146.146 131.857 146.169 131.765C146.193 131.581 146.246 131.314 146.327 130.972C146.564 130.007 146.9 129.068 147.331 128.172C147.985 126.855 148.735 125.587 149.574 124.379C150.497 122.998 151.564 121.522 152.586 119.912C153.977 117.722 155.013 115.492 155.404 113.481C155.545 111.477 155.661 109.8 155.756 108.596C155.802 108.025 155.84 107.571 155.869 107.229C155.869 107.088 155.893 106.969 155.904 106.877C155.892 106.839 155.885 106.8 155.883 106.761Z" fill="#263238"/>
<path d="M152.837 119.602C152.837 119.602 155.003 114.389 152.28 110.969C152.259 110.942 152.231 110.921 152.198 110.909C152.166 110.896 152.131 110.893 152.097 110.9C152.063 110.906 152.031 110.922 152.006 110.946C151.98 110.969 151.962 110.999 151.953 111.033C151.709 111.906 151.262 114.586 152.837 119.602Z" fill="#3498DB"/>
<path d="M152.442 112.79C152.535 113.111 152.593 113.442 152.614 113.776C152.692 114.389 152.776 115.238 152.843 116.178C152.91 117.119 152.942 117.971 152.942 118.591C152.963 118.926 152.943 119.262 152.882 119.591C152.821 119.263 152.792 118.929 152.794 118.595C152.748 117.89 152.692 117.091 152.632 116.192C152.572 115.294 152.516 114.481 152.466 113.79C152.425 113.459 152.417 113.123 152.442 112.79Z" fill="#263238"/>
<g opacity="0.3">
<path d="M152.837 119.601C152.837 119.601 155.003 114.388 152.28 110.968C152.259 110.941 152.231 110.92 152.198 110.908C152.166 110.895 152.131 110.892 152.097 110.899C152.063 110.905 152.031 110.921 152.006 110.945C151.98 110.968 151.962 110.998 151.953 111.032C151.709 111.905 151.262 114.585 152.837 119.601Z" fill="black"/>
</g>
<path d="M146.127 132.173C146.127 132.173 147.863 126.798 144.869 123.614C144.846 123.589 144.816 123.571 144.783 123.561C144.75 123.551 144.715 123.551 144.682 123.56C144.649 123.569 144.619 123.588 144.595 123.613C144.572 123.638 144.556 123.669 144.549 123.702C144.38 124.59 144.151 127.302 146.127 132.173Z" fill="#3498DB"/>
<path d="M145.179 125.403C145.301 125.716 145.386 126.043 145.432 126.375C145.559 126.978 145.711 127.82 145.855 128.749C145.999 129.679 146.098 130.528 146.151 131.144C146.197 131.477 146.202 131.814 146.168 132.148C146.085 131.825 146.028 131.495 145.999 131.162C145.897 130.475 145.777 129.672 145.647 128.781C145.517 127.89 145.39 127.087 145.295 126.4C145.224 126.072 145.185 125.739 145.179 125.403Z" fill="#263238"/>
<g opacity="0.3">
<path d="M146.127 132.173C146.127 132.173 147.863 126.798 144.87 123.614C144.846 123.589 144.817 123.571 144.784 123.561C144.751 123.551 144.716 123.551 144.682 123.56C144.649 123.569 144.619 123.588 144.596 123.613C144.572 123.638 144.556 123.669 144.549 123.702C144.38 124.59 144.151 127.302 146.127 132.173Z" fill="black"/>
</g>
<path d="M155.598 113.23C155.598 113.23 160.222 109.99 159.757 105.644C159.754 105.61 159.741 105.577 159.72 105.55C159.699 105.522 159.671 105.501 159.639 105.489C159.607 105.477 159.572 105.473 159.538 105.48C159.504 105.486 159.473 105.501 159.447 105.524C158.775 106.13 156.971 108.144 155.598 113.23Z" fill="#3498DB"/>
<g opacity="0.3">
<path d="M155.598 113.229C155.598 113.229 160.222 109.989 159.757 105.643C159.754 105.609 159.741 105.576 159.72 105.549C159.699 105.522 159.671 105.501 159.639 105.488C159.607 105.476 159.572 105.472 159.538 105.479C159.504 105.485 159.473 105.5 159.447 105.523C158.775 106.129 156.971 108.143 155.598 113.229Z" fill="black"/>
</g>
<path d="M158.918 107.268C158.826 107.59 158.698 107.901 158.534 108.194C158.27 108.75 157.886 109.511 157.439 110.342C156.992 111.174 156.562 111.91 156.231 112.431C156.068 112.724 155.87 112.996 155.643 113.241C155.766 112.931 155.92 112.634 156.1 112.354C156.432 111.744 156.822 111.033 157.252 110.24L158.4 108.127C158.545 107.824 158.718 107.536 158.918 107.268Z" fill="#263238"/>
<path d="M147.993 126.844C147.993 126.844 153.572 125.974 155.066 121.867C155.078 121.835 155.081 121.8 155.074 121.766C155.068 121.733 155.053 121.702 155.03 121.676C155.007 121.651 154.977 121.632 154.945 121.622C154.912 121.612 154.877 121.612 154.844 121.62C153.974 121.881 151.452 122.885 147.993 126.844Z" fill="#3498DB"/>
<g opacity="0.3">
<path d="M147.993 126.843C147.993 126.843 153.572 125.973 155.066 121.866C155.078 121.834 155.081 121.799 155.074 121.765C155.068 121.732 155.053 121.701 155.03 121.675C155.007 121.65 154.977 121.631 154.945 121.621C154.912 121.611 154.877 121.611 154.844 121.619C153.974 121.88 151.452 122.884 147.993 126.843Z" fill="black"/>
</g>
<path d="M153.6 122.955C153.374 123.202 153.122 123.423 152.847 123.614C152.364 124.001 151.684 124.515 150.92 125.065C150.156 125.614 149.441 126.083 148.912 126.407C148.637 126.599 148.339 126.756 148.025 126.875C148.275 126.652 148.545 126.453 148.831 126.28L150.797 124.892L152.759 123.483C153.02 123.278 153.302 123.101 153.6 122.955Z" fill="#263238"/>
<path d="M142.668 137.114L141.041 148.068H151.184L149.871 137.114H142.668Z" fill="#455A64"/>
<path d="M150.279 140.506C150.279 140.566 148.448 140.612 146.19 140.612C143.932 140.612 142.097 140.566 142.097 140.506C143.459 140.402 144.825 140.366 146.19 140.4C147.554 140.366 148.919 140.402 150.279 140.506Z" fill="#263238"/>
<path d="M150.477 141.38C150.477 141.44 148.585 141.486 146.25 141.486C143.915 141.486 142.023 141.44 142.023 141.38C142.023 141.32 143.915 141.274 146.25 141.274C148.585 141.274 150.477 141.32 150.477 141.38Z" fill="#263238"/>
<path d="M111.032 30.8482C111.032 30.8482 110.937 30.8482 110.754 30.8482C110.486 30.8323 110.218 30.8323 109.951 30.8482C108.916 30.9087 107.9 31.147 106.946 31.5526C105.435 32.1862 104.119 33.2111 103.135 34.5218C102.529 35.3402 102.077 36.263 101.804 37.2444C101.187 39.5821 101.52 42.0688 102.73 44.1619C103.06 44.7415 103.462 45.2765 103.928 45.754C104.397 46.2598 104.944 46.6878 105.548 47.0219C106.168 47.3706 106.869 47.547 107.58 47.5326C108.313 47.5238 109.016 47.2397 109.549 46.7366C109.807 46.4666 110.009 46.1485 110.144 45.8004C110.278 45.4523 110.343 45.081 110.335 44.7079C110.329 43.9326 110.083 43.1781 109.63 42.5488C108.718 41.2632 107.239 40.4003 105.664 39.9353C104.032 39.4768 102.308 39.4525 100.663 39.8649C99.8231 40.0833 99.0139 40.4051 98.2536 40.8229C97.486 41.2561 96.7888 41.8036 96.1861 42.4466C96.0417 42.6122 95.8761 42.7636 95.7458 42.9468L95.3478 43.4822C95.1058 43.8594 94.8893 44.2524 94.6997 44.6586C94.323 45.4831 94.0656 46.3572 93.9354 47.2544C93.6797 49.0467 93.9235 50.8749 94.6398 52.5376C95.3245 54.1623 96.517 55.5216 98.0387 56.412C98.7765 56.8336 99.6001 57.0828 100.448 57.1411C101.279 57.1876 102.106 56.9892 102.825 56.5705C103.54 56.1758 104.104 55.5569 104.431 54.8094C104.74 54.0728 104.762 53.247 104.491 52.4954C104.213 51.7701 103.758 51.126 103.167 50.6216C102.594 50.1264 101.933 49.7429 101.219 49.491C99.8265 49.0518 98.3363 49.0261 96.9292 49.417C95.6127 49.7737 94.4035 50.4473 93.4071 51.3788C92.4995 52.2483 91.8083 53.3183 91.3889 54.503C90.6552 56.5586 90.689 58.8102 91.484 60.8429C92.104 62.3604 93.1019 63.6941 94.3827 64.7173C95.1895 65.3644 96.0881 65.8879 97.049 66.2705C97.3801 66.3938 97.6372 66.4854 97.8133 66.5347L98.0739 66.6192C98.0739 66.6192 97.9824 66.6016 97.8063 66.5523C97.546 66.4827 97.2897 66.3992 97.0384 66.3022C96.0649 65.9364 95.1546 65.4206 94.3404 64.7736C93.0379 63.7512 92.0203 62.4109 91.3854 60.8816C90.5763 58.8297 90.535 56.5547 91.2691 54.4748C91.6894 53.2721 92.3882 52.1859 93.3085 51.3049C94.3189 50.3546 95.5461 49.6655 96.8835 49.2972C98.32 48.8964 99.8421 48.9209 101.265 49.3677C102 49.6241 102.68 50.0172 103.269 50.5265C103.883 51.0475 104.356 51.715 104.643 52.4672C104.932 53.2525 104.92 54.1174 104.608 54.894C104.26 55.6709 103.671 56.3146 102.927 56.729C102.181 57.1639 101.325 57.372 100.462 57.3278C99.5935 57.2672 98.7503 57.0094 97.9965 56.574C96.4399 55.6712 95.2178 54.2884 94.513 52.6327C93.7813 50.9395 93.5303 49.0774 93.7875 47.2509C93.9219 46.3355 94.1852 45.4438 94.5694 44.6022C94.7629 44.1874 94.9841 43.7862 95.2316 43.4011L95.6401 42.8552C95.7704 42.6685 95.9395 42.503 96.0874 42.341C96.7044 41.6857 97.4169 41.1276 98.2007 40.6856C98.9787 40.2598 99.807 39.9332 100.666 39.7134C102.343 39.2934 104.099 39.3189 105.763 39.7874C107.369 40.2664 108.873 41.1434 109.82 42.4748C110.297 43.1304 110.555 43.9187 110.56 44.729C110.577 45.5264 110.277 46.2979 109.725 46.874C109.162 47.403 108.42 47.7009 107.647 47.7088C106.908 47.7255 106.177 47.5417 105.534 47.1769C104.916 46.8358 104.357 46.3969 103.878 45.8772C103.407 45.389 102.999 44.8435 102.663 44.2535C101.432 42.1215 101.097 39.5877 101.733 37.2092C102.015 36.2165 102.477 35.284 103.097 34.4584C104.099 33.1377 105.437 32.11 106.971 31.4822C107.932 31.0844 108.957 30.8602 109.996 30.82C110.266 30.8022 110.537 30.8022 110.807 30.82L111.032 30.8482Z" fill="#263238"/>
<path d="M122.793 66.0908H73.4087V104.179H122.793V66.0908Z" fill="#E19E05"/>
<path d="M73.4087 66.0908L82.5311 74.6004H131.077L122.793 66.0908H73.4087Z" fill="#E19E05"/>
<path d="M73.4087 66.092L122.807 66.0039H122.846L122.874 66.0286L131.074 74.45L131.158 74.5381L131.31 74.6931H131.091L82.5452 74.6543H82.524L73.4087 66.092L82.5663 74.5451H82.5276L131.074 74.5099L131.01 74.6649L130.922 74.5768L122.726 66.1554L122.789 66.1835L73.4087 66.092Z" fill="#263238"/>
<path d="M88.2437 83.6562C87.9762 83.6659 87.7232 83.7803 87.5391 83.9746C87.355 84.169 87.2546 84.4278 87.2594 84.6955C87.2643 84.9631 87.374 85.2182 87.565 85.4058C87.756 85.5933 88.013 85.6984 88.2807 85.6984C88.5484 85.6984 88.8054 85.5933 88.9964 85.4058C89.1874 85.2182 89.2971 84.9631 89.302 84.6955C89.3068 84.4278 89.2064 84.169 89.0223 83.9746C88.8382 83.7803 88.5852 83.6659 88.3177 83.6562" fill="#263238"/>
<path d="M99.9128 83.6562C99.6463 83.6664 99.3945 83.7807 99.2115 83.9745C99.0284 84.1683 98.9287 84.4262 98.9338 84.6928C98.9389 84.9593 99.0483 85.2133 99.2386 85.4C99.4289 85.5867 99.6849 85.6913 99.9515 85.6913C100.218 85.6913 100.474 85.5867 100.664 85.4C100.855 85.2133 100.964 84.9593 100.969 84.6928C100.974 84.4262 100.875 84.1683 100.692 83.9745C100.508 83.7807 100.257 83.6664 99.9902 83.6562" fill="#263238"/>
<path d="M99.9796 92.7713C99.7759 91.9932 99.4451 91.2542 99.0004 90.584C98.5058 89.8673 97.8707 89.2586 97.1337 88.7948C96.2445 88.2047 95.2074 87.8763 94.1407 87.8471C93.0739 87.8178 92.0204 88.0888 91.1002 88.6292C90.3402 89.0535 89.6731 89.626 89.1384 90.3128C88.6568 90.9582 88.2865 91.6797 88.043 92.4473C88.0457 92.39 88.0551 92.3333 88.0712 92.2782C88.1049 92.1195 88.1484 91.9631 88.2015 91.8098C88.3945 91.244 88.6762 90.7126 89.0362 90.2353C89.5671 89.5164 90.2426 88.9166 91.0192 88.4743C91.9631 87.9108 93.0479 87.6275 94.1468 87.6574C95.2457 87.6874 96.3134 88.0293 97.2252 88.6433C97.975 89.1253 98.6157 89.7587 99.1061 90.503C99.4407 90.9998 99.6939 91.5467 99.8563 92.1232C99.8996 92.2796 99.9338 92.4383 99.9584 92.5987C99.9706 92.6555 99.9777 92.7133 99.9796 92.7713Z" fill="#263238"/>
<path opacity="0.5" d="M73.521 66.5107L82.256 77.5844H122.792V74.6011H82.5307L73.521 66.5107Z" fill="black"/>
<path d="M113.054 104.095C113.005 104.095 112.962 97.4698 112.962 89.3019C112.962 81.134 113.005 74.5088 113.054 74.5088C113.103 74.5088 113.149 81.1305 113.149 89.3019C113.149 97.4733 113.107 104.095 113.054 104.095Z" fill="#263238"/>
<path d="M120.81 95.459H116.457V100.379H120.81V95.459Z" fill="#F5F5F5"/>
<path d="M73.4088 66.0908L63.272 74.6004H73.4088V66.0908Z" fill="#3498DB"/>
<g opacity="0.4">
<path d="M73.4088 66.0908L63.272 74.6004H73.4088V66.0908Z" fill="#B3740B"/>
</g>
<path d="M124.251 104.18H67.4702V147.974H124.251V104.18Z" fill="#3498DB"/>
<path opacity="0.3" d="M124.251 104.18H67.4702V147.974H124.251V104.18Z" fill="black"/>
<path d="M110.025 147.664C109.975 147.664 109.933 137.904 109.933 125.866C109.933 113.827 109.975 104.063 110.025 104.063C110.074 104.063 110.116 113.823 110.116 125.866C110.116 137.908 110.074 147.664 110.025 147.664Z" fill="#263238"/>
<path d="M119.436 138.007H115.083V142.927H119.436V138.007Z" fill="#F5F5F5"/>
<path d="M91.2416 104.296H84.7925V113.64H91.2416V104.296Z" fill="#263238"/>
<path d="M91.2416 138.5H84.7925V147.844H91.2416V138.5Z" fill="#263238"/>
<path d="M123.758 104.18H123.61H123.184L121.546 104.197L115.512 104.226L95.6158 104.271L75.7121 104.247L69.6821 104.219L68.0443 104.201L69.6821 104.183L75.7121 104.155L95.6158 104.127L115.512 104.155L121.546 104.183L123.184 104.201H123.61L123.758 104.18Z" fill="#263238"/>
<path d="M26.4469 28.3581L20.262 26.8365H20.3078C18.7108 27.8524 16.8641 28.407 14.9717 28.4391C13.8514 28.4442 12.7366 28.2816 11.6644 27.9566C9.77941 27.3513 8.10707 26.2191 6.84504 24.6937C5.58302 23.1683 4.78407 21.3134 4.54261 19.3484C4.35297 17.8623 4.49257 16.3526 4.95152 14.9265C5.41047 13.5003 6.17753 12.1926 7.19832 11.096C7.73492 10.5066 8.33632 9.97964 8.9911 9.52511C9.32218 9.31731 9.65327 9.10246 9.99844 8.92282L10.5232 8.66923L10.7839 8.54243L11.0586 8.44381C12.4729 7.89559 13.9901 7.66357 15.5036 7.76403C17.532 7.89574 19.476 8.62494 21.0906 9.85972C22.7052 11.0945 23.9182 12.7796 24.5767 14.7027C24.9425 15.7785 25.1351 16.9055 25.1473 18.0417C25.1561 19.93 24.6429 21.7839 23.6644 23.3989V23.3426C25.3832 26.4456 26.2497 28.0129 26.4434 28.3581C26.2426 28.0059 25.3445 26.4667 23.5658 23.3954V23.3672V23.339C24.5092 21.7397 24.9964 19.9125 24.9747 18.0558C24.9583 16.9378 24.7633 15.8296 24.397 14.7731C23.7457 12.8894 22.5532 11.2397 20.9687 10.0305C19.3843 8.82131 17.4783 8.10643 15.4895 7.97536C14.0058 7.87867 12.5189 8.10705 11.1326 8.64457L10.8649 8.73967L10.6078 8.86647L10.0935 9.11302C9.74132 9.29265 9.43137 9.50046 9.10381 9.70475C8.46166 10.1471 7.87097 10.6598 7.34273 11.2334C6.3406 12.3099 5.58738 13.5935 5.13636 14.9934C4.68535 16.3933 4.54758 17.8753 4.73281 19.3343C5.05935 22.0074 6.43075 24.4425 8.54731 26.1075C9.49356 26.8572 10.5674 27.43 11.7173 27.7981C12.7702 28.1236 13.8661 28.2886 14.9682 28.2877C16.8379 28.2676 18.666 27.7326 20.2514 26.7414H20.2726H20.3113L26.4469 28.3581Z" fill="#263238"/>
<path d="M13.9718 13.5047L14.2853 18.6823C14.2978 18.8865 14.3846 19.0791 14.5293 19.2238C14.6739 19.3685 14.8665 19.4552 15.0708 19.4677C15.2856 19.4799 15.497 19.4093 15.6614 19.2704C15.8259 19.1315 15.9308 18.9349 15.9548 18.721L16.5289 13.5329C16.5389 13.4401 16.5291 13.3462 16.5 13.2575C16.471 13.1687 16.4234 13.0872 16.3605 13.0183C16.2975 12.9493 16.2206 12.8945 16.1349 12.8576C16.0492 12.8206 15.9566 12.8023 15.8632 12.8038H14.6058C14.5176 12.8064 14.4308 12.8269 14.3507 12.8639C14.2705 12.9009 14.1987 12.9537 14.1395 13.0192C14.0803 13.0846 14.0349 13.1614 14.0061 13.2448C13.9773 13.3283 13.9656 13.4167 13.9718 13.5047Z" fill="#3498DB"/>
<path d="M16.4367 22.3607C16.3579 22.5973 16.2107 22.8051 16.0138 22.958C15.8169 23.1109 15.5791 23.202 15.3304 23.2198C15.0818 23.2376 14.8334 23.1813 14.6167 23.058C14.4001 22.9347 14.2248 22.7499 14.1131 22.527C14.0014 22.3041 13.9583 22.0531 13.9892 21.8058C14.0201 21.5584 14.1237 21.3257 14.2868 21.1372C14.4499 20.9486 14.6652 20.8126 14.9056 20.7464C15.1459 20.6802 15.4005 20.6868 15.6372 20.7652C15.7945 20.8174 15.94 20.9 16.0654 21.0085C16.1907 21.1169 16.2935 21.249 16.3677 21.3972C16.442 21.5454 16.4863 21.7068 16.4981 21.8721C16.51 22.0374 16.4891 22.2035 16.4367 22.3607Z" fill="#3498DB"/>
</svg>
