<svg width="250" height="250" viewBox="0 0 250 250" fill="none" xmlns="http://www.w3.org/2000/svg">
<path d="M46.9911 140.272L12.9717 146.638L18.0616 173.836L52.081 167.469L46.9911 140.272Z" fill="#F5F5F5"/>
<path d="M46.9998 140.28L46.8348 140.32L46.3348 140.415L44.4898 140.775L37.5248 142.11L12.9998 146.76L13.0948 146.62C14.5948 154.715 16.3548 163.995 18.1998 173.815L18.0448 173.705L52.0448 167.365L51.9598 167.495C50.4598 159.305 49.1998 152.52 48.3248 147.765C47.8948 145.39 47.5548 143.525 47.3248 142.265C47.2098 141.63 47.1248 141.145 47.0648 140.805C47.0048 140.465 46.9798 140.305 46.9798 140.305C46.9798 140.305 47.0198 140.465 47.0798 140.805L47.3648 142.24C47.6098 143.515 47.9648 145.37 48.4198 147.74C49.3248 152.505 50.6148 159.31 52.1748 167.52L52.1998 167.625L52.0898 167.65L18.0698 174L17.9398 174.025L17.9148 173.89C16.0848 164.07 14.3498 154.79 12.8398 146.69V146.575L12.9598 146.55L37.5798 142L44.5248 140.73L46.3598 140.4L46.8248 140.32L46.9998 140.28Z" fill="#E0E0E0"/>
<path d="M46.0938 142.21L14.4629 148.129L18.9118 171.902L50.5426 165.982L46.0938 142.21Z" fill="#EBEBEB"/>
<path d="M18.8994 171.91L27.1844 155.065L35.7544 163.03L39.4744 157.22L50.5294 165.995L18.8994 171.91Z" fill="#E0E0E0"/>
<path d="M36.5951 151.435C36.6873 151.928 36.6314 152.437 36.4344 152.898C36.2373 153.359 35.9081 153.751 35.4882 154.025C35.0683 154.299 34.5766 154.442 34.0754 154.436C33.5741 154.431 33.0858 154.277 32.672 153.994C32.2583 153.711 31.9377 153.311 31.7509 152.846C31.5641 152.381 31.5195 151.871 31.6225 151.38C31.7256 150.89 31.9718 150.441 32.33 150.09C32.6883 149.739 33.1424 149.503 33.6351 149.41C33.9624 149.349 34.2987 149.352 34.6246 149.421C34.9506 149.489 35.2598 149.621 35.5347 149.809C35.8096 149.997 36.0447 150.238 36.2267 150.517C36.4086 150.796 36.5338 151.108 36.5951 151.435Z" fill="#E0E0E0"/>
<path d="M97.9609 26.3237L80.5439 122.545L151.786 135.441L169.203 39.2192L97.9609 26.3237Z" fill="#FAFAFA"/>
<path d="M151.785 135.445C151.785 135.445 151.81 135.285 151.86 134.985L152.1 133.63C152.31 132.44 152.625 130.68 153.03 128.395C153.855 123.815 155.055 117.125 156.575 108.655L169.075 39.205L169.175 39.345L97.9499 26.46L98.1049 26.35C91.6049 62.245 85.5699 95.495 80.6599 122.565L80.5749 122.44L132.34 131.87L146.705 134.5L150.485 135.2C151.34 135.355 151.785 135.445 151.785 135.445L150.505 135.225L146.74 134.555L132.375 132L80.5249 122.67H80.4199V122.565C85.3149 95.485 91.3299 62.235 97.8199 26.34V26.21H97.9549L169.225 39.105L169.345 39.13V39.245C164.16 67.745 159.78 91.81 156.7 108.745L153.1 128.445C152.68 130.72 152.36 132.445 152.14 133.655C152.03 134.24 151.95 134.685 151.895 134.99L151.785 135.445Z" fill="#E0E0E0"/>
<path d="M134.228 41.9675L103.979 36.4922L99.2096 62.844L129.458 68.3192L134.228 41.9675Z" fill="#E0E0E0"/>
<path d="M158.354 46.3344L138.988 42.8291L138.366 46.2682L157.731 49.7735L158.354 46.3344Z" fill="#E0E0E0"/>
<path d="M153.888 78.2878L98.6162 68.2831L97.9937 71.7222L153.266 81.7269L153.888 78.2878Z" fill="#E0E0E0"/>
<path d="M152.797 84.3409L97.5254 74.3362L96.9029 77.7753L152.175 87.78L152.797 84.3409Z" fill="#E0E0E0"/>
<path d="M151.702 90.3941L96.4307 80.3894L95.8082 83.8285L151.08 93.8333L151.702 90.3941Z" fill="#E0E0E0"/>
<path d="M150.601 96.4464L95.3291 86.4417L94.7066 89.8808L149.978 99.8855L150.601 96.4464Z" fill="#E0E0E0"/>
<path d="M149.506 102.495L94.2344 92.4899L93.6119 95.929L148.884 105.934L149.506 102.495Z" fill="#E0E0E0"/>
<path d="M145.75 123.249L90.4785 113.244L89.856 116.683L145.128 126.688L145.75 123.249Z" fill="#E0E0E0"/>
<path d="M123.485 104.038L93.1426 98.5457L92.5201 101.985L122.862 107.477L123.485 104.038Z" fill="#E0E0E0"/>
<path d="M157.349 51.9014L137.983 48.3961L137.361 51.8352L156.726 55.3405L157.349 51.9014Z" fill="#E0E0E0"/>
<path d="M155.607 57.5386L136.32 53.9962L135.691 57.4213L154.978 60.9637L155.607 57.5386Z" fill="#E0E0E0"/>
<path d="M147.908 61.6822L135.967 59.5208L135.344 62.9599L147.285 65.1213L147.908 61.6822Z" fill="#E0E0E0"/>
<path d="M184 25.88L177.855 26.13L177.19 27.85C177 28.2981 176.898 28.7785 176.89 29.265C176.884 29.4801 176.938 29.6928 177.045 29.8791C177.153 30.0654 177.31 30.2181 177.5 30.32C178.055 30.4971 178.637 30.5766 179.22 30.555V31.055L173.5 31.265V30.765C174.081 30.6643 174.61 30.3679 175 29.925C175.592 29.1051 176.059 28.202 176.385 27.245L182 13.135H182.245L189.09 27.135C189.757 28.4683 190.283 29.3017 190.67 29.635C191.028 29.9105 191.468 30.0568 191.92 30.05V30.52L183.505 30.86V30.385H183.855C184.348 30.408 184.837 30.2901 185.265 30.045C185.356 29.9755 185.428 29.8839 185.473 29.7789C185.519 29.6738 185.537 29.5589 185.525 29.445C185.517 29.2845 185.485 29.126 185.43 28.975C185.43 28.9 185.265 28.58 185.005 28.03L184 25.88ZM183.525 24.95L180.695 19.06L178.265 25.16L183.525 24.95Z" fill="#E0E0E0"/>
<path d="M195.636 62.2105L167.532 71.5975L175.037 94.0673L203.141 84.6802L195.636 62.2105Z" fill="#F5F5F5"/>
<path d="M195.095 63.9609L168.969 72.6874L175.528 92.3259L201.654 83.5994L195.095 63.9609Z" fill="#EBEBEB"/>
<path d="M175.53 92.335L180.58 77.08L188.78 82.83L191.25 77.465L201.655 83.61L175.53 92.335Z" fill="#E0E0E0"/>
<path d="M188.13 72.895C188.266 73.302 188.279 73.7404 188.166 74.1545C188.053 74.5686 187.82 74.9399 187.496 75.2214C187.172 75.5029 186.771 75.682 186.345 75.7361C185.92 75.7901 185.487 75.7166 185.103 75.5249C184.719 75.3333 184.401 75.032 184.188 74.6592C183.975 74.2864 183.878 73.8589 183.908 73.4307C183.938 73.0026 184.094 72.5929 184.357 72.2537C184.62 71.9145 184.978 71.6609 185.385 71.525C185.655 71.4341 185.941 71.3975 186.225 71.4172C186.51 71.4369 186.787 71.5126 187.042 71.6399C187.297 71.7671 187.525 71.9435 187.711 72.1589C187.898 72.3743 188.04 72.6244 188.13 72.895Z" fill="#E0E0E0"/>
<path d="M196.416 36.0792L189.537 71.207L233.473 79.8109L240.352 44.6831L196.416 36.0792Z" fill="#F5F5F5"/>
<path d="M240.36 44.6851L240.145 44.6501L239.525 44.5401L237.135 44.0851L228.135 42.3551L196.4 36.2001L196.54 36.1051C194.495 46.5601 192.155 58.5451 189.675 71.2301L189.57 71.0701L233.5 79.7051L233.37 79.7901C235.465 69.2201 237.2 60.4551 238.415 54.3301C239.03 51.2651 239.51 48.8601 239.84 47.2151C240.005 46.3951 240.13 45.7701 240.22 45.3351C240.31 44.9001 240.36 44.6851 240.36 44.6851C240.36 44.6851 240.325 44.9001 240.245 45.3201C240.165 45.7401 240.05 46.3701 239.895 47.1801C239.58 48.8201 239.12 51.2201 238.535 54.2801C237.345 60.4301 235.64 69.2251 233.59 79.8351L233.565 79.9451H233.46L189.5 71.3401L189.37 71.3151L189.395 71.1851C191.895 58.5051 194.24 46.5201 196.29 36.0651L196.315 35.9451L196.43 35.9701L228.235 42.2501L237.195 44.0401L239.56 44.5401L240.16 44.6651L240.36 44.6851Z" fill="#E0E0E0"/>
<path d="M197.503 38.5884L191.49 69.2903L232.339 77.2898L238.352 46.5879L197.503 38.5884Z" fill="#EBEBEB"/>
<path d="M191.49 69.295L209.495 53.005L215.995 66.675L223.24 61.465L232.34 77.295L191.49 69.295Z" fill="#E0E0E0"/>
<path d="M222.545 53.13C222.421 53.767 222.111 54.3529 221.654 54.8136C221.197 55.2744 220.614 55.5892 219.978 55.7184C219.342 55.8475 218.682 55.7852 218.081 55.5392C217.481 55.2932 216.967 54.8746 216.605 54.3365C216.242 53.7983 216.047 53.1647 216.045 52.5158C216.043 51.8669 216.233 51.2319 216.591 50.6912C216.95 50.1504 217.461 49.7281 218.06 49.4778C218.658 49.2275 219.318 49.1604 219.955 49.285C220.377 49.367 220.78 49.5316 221.139 49.7693C221.498 50.0071 221.806 50.3132 222.047 50.6704C222.288 51.0275 222.455 51.4286 222.541 51.8507C222.626 52.2727 222.627 52.7075 222.545 53.13Z" fill="#E0E0E0"/>
<path d="M27.3701 16.605L29.6401 43.095L39.9151 45.88L59.8451 43.565L57.0401 13.745L27.3701 16.605Z" fill="#F5F5F5"/>
<path d="M32.7745 40.715L29.6445 43.095C30.8342 44.1264 32.2253 44.8995 33.7295 45.365C35.7405 45.9244 37.8398 46.0941 39.9145 45.865C39.9145 45.865 35.1695 45.06 32.7745 40.715Z" fill="#EBEBEB"/>
<path d="M54.64 23.5C54.64 23.55 49.6 24.075 43.375 24.68C37.15 25.285 32.09 25.735 32.085 25.68C32.08 25.625 37.125 25.09 43.355 24.5C49.585 23.91 54.635 23.435 54.64 23.5Z" fill="#E0E0E0"/>
<path d="M54.9349 27.56C54.9349 27.61 49.8949 28.14 43.6699 28.745C37.4449 29.35 32.3849 29.795 32.3799 29.745C32.3749 29.695 37.4199 29.165 43.6499 28.56C49.8799 27.955 54.9299 27.5 54.9349 27.56Z" fill="#E0E0E0"/>
<path d="M55.4094 31.155C55.4094 31.205 50.3694 31.735 44.1444 32.335C37.9194 32.935 32.8644 33.39 32.8594 33.335C32.8544 33.28 37.8944 32.76 44.1244 32.155C50.3544 31.55 55.4044 31.105 55.4094 31.155Z" fill="#E0E0E0"/>
<path d="M55.7249 34.63C55.7249 34.675 50.6849 35.205 44.4549 35.81C38.2249 36.415 33.1749 36.865 33.1699 36.81C33.1649 36.755 38.2099 36.23 44.4399 35.63C50.6699 35.03 55.7199 34.58 55.7249 34.63Z" fill="#E0E0E0"/>
<path d="M242.195 229.95C242.195 230.02 189.495 230.08 124.505 230.08C59.5147 230.08 6.80469 230.02 6.80469 229.95C6.80469 229.88 59.4897 229.815 124.505 229.815C189.52 229.815 242.195 229.875 242.195 229.95Z" fill="#263238"/>
<path d="M20.9697 62.675L42.0497 183.385L130.94 169.43L135.06 159.475L111.01 47.86L27.6897 52.83L20.9697 62.675Z" fill="#E0E0E0"/>
<path opacity="0.3" d="M42.0497 183.385L48.3647 173.71L27.2847 52.995L20.9697 62.675L42.0497 183.385Z" fill="black"/>
<path d="M27.2842 52.995L48.3642 173.71L135.059 159.475L113.154 40.75L27.2842 52.995Z" fill="#FAFAFA"/>
<path d="M27.2842 53L113.139 40.65H113.244V40.75C119.389 73.905 126.999 115 135.189 159.45L135.214 159.585L135.079 159.61L133.649 159.845L48.3842 173.845H48.2642V173.725C35.8642 102.43 27.4692 54.06 27.2842 53C27.4692 54.065 35.9642 102.415 48.4842 173.69L48.3442 173.595L133.604 159.595L135.034 159.36L134.924 159.515C126.734 115.06 119.164 73.965 113.049 40.785L113.169 40.87L27.2842 53Z" fill="#263238"/>
<path d="M96.7945 110.163C97.8695 102.074 92.1836 94.645 84.0947 93.57C76.0058 92.495 68.5771 98.1809 67.5021 106.27C66.4271 114.359 72.113 121.787 80.2019 122.862C88.2908 123.937 95.7196 118.252 96.7945 110.163Z" fill="#FAB317"/>
<path d="M75.3692 112.09L74.6992 107.835L89.4342 105.5L90.0642 109.5C90.0642 109.5 89.1642 112.94 83.2042 113.88C77.2442 114.82 75.3692 112.09 75.3692 112.09Z" fill="white"/>
<path d="M72.375 107.86L82.89 109.73L92.01 104.6L81.48 102.935L72.375 107.86Z" fill="white"/>
<path d="M101.794 66.5865L49.5473 74.8428C48.9063 74.9441 48.4688 75.5459 48.5701 76.1868L48.7465 77.303C48.8478 77.944 49.4495 78.3815 50.0905 78.2802L102.337 70.0238C102.978 69.9225 103.416 69.3208 103.314 68.6798L103.138 67.5637C103.037 66.9227 102.435 66.4852 101.794 66.5865Z" fill="#E0E0E0"/>
<path d="M93.5288 75.2772L60.395 80.5133C59.754 80.6145 59.3165 81.2163 59.4178 81.8573L59.5942 82.9734C59.6955 83.6144 60.2972 84.0519 60.9382 83.9506L94.072 78.7146C94.713 78.6133 95.1505 78.0115 95.0492 77.3706L94.8728 76.2544C94.7715 75.6134 94.1698 75.1759 93.5288 75.2772Z" fill="#E0E0E0"/>
<path d="M105.463 149.342L72.3295 154.578C71.6886 154.68 71.2511 155.281 71.3523 155.922L71.5287 157.038C71.63 157.679 72.2318 158.117 72.8727 158.016L106.007 152.78C106.648 152.678 107.085 152.077 106.984 151.436L106.807 150.319C106.706 149.678 106.104 149.241 105.463 149.342Z" fill="#E0E0E0"/>
<path d="M130.594 162.83L130.174 162.91L128.934 163.125L124.139 163.925L106.334 166.845L46.1842 176.62L46.0542 176.645V176.515C45.2142 171.74 44.3292 166.74 43.4292 161.645C38.5892 134.27 34.2292 109.5 31.0742 91.555C29.5092 82.585 28.2442 75.33 27.3642 70.31C26.9342 67.81 26.5992 65.855 26.3642 64.53C26.2542 63.87 26.1692 63.37 26.1092 63.03C26.0492 62.69 26.0342 62.53 26.0342 62.53C26.0342 62.53 26.0742 62.705 26.1392 63.03C26.2042 63.355 26.2942 63.875 26.4142 64.53C26.6542 65.855 27.0042 67.8 27.4592 70.3C28.3542 75.3 29.6492 82.57 31.2492 91.53C34.4242 109.47 38.8142 134.24 43.6592 161.61C44.5592 166.7 45.4392 171.705 46.2842 176.48L46.1292 176.37L106.299 166.68L124.114 163.84L128.914 163.085L130.159 162.895L130.594 162.83Z" fill="#263238"/>
<path d="M123.999 167.37L123.604 167.45L122.434 167.655L117.904 168.425L101.064 171.235L43.9144 180.695H43.7844V180.57L40.4994 162.735C35.6044 135.735 31.1744 111.31 27.9644 93.62C26.3744 84.78 25.0844 77.62 24.1944 72.67C23.7594 70.2 23.4144 68.28 23.1944 66.97C23.0844 66.325 22.9944 65.83 22.9394 65.47C22.8844 65.11 22.8594 64.97 22.8594 64.97C22.8594 64.97 22.8994 65.135 22.9644 65.47L23.2494 66.97C23.4894 68.275 23.8494 70.19 24.3094 72.655L28.1594 93.59C31.3894 111.28 35.8494 135.705 40.7744 162.69C41.8844 168.805 42.9744 174.79 44.0194 180.545L43.8694 180.44L101.024 171.07L117.874 168.335L122.409 167.61L123.584 167.43L123.999 167.37Z" fill="#263238"/>
<path d="M29.3798 104.115L27.4248 106.875L32.1698 135.32L34.9948 136.28L29.3798 104.115Z" fill="#263238"/>
<path d="M42.9188 101.746L29.3838 104.111L35.0029 136.274L48.5379 133.909L42.9188 101.746Z" fill="#263238"/>
<path d="M43.3505 100.499L42.4688 100.653C41.9656 100.741 41.6288 101.22 41.7167 101.723L47.4023 134.301C47.4902 134.804 47.9694 135.141 48.4726 135.053L49.3543 134.899C49.8575 134.811 50.1943 134.332 50.1065 133.829L44.4208 101.251C44.3329 100.748 43.8538 100.411 43.3505 100.499Z" fill="#263238"/>
<path d="M27.0396 127.385C25.5398 127.379 24.0929 126.83 22.9661 125.841C21.8393 124.851 21.1088 123.487 20.9096 122C20.7376 120.73 20.9635 119.438 21.556 118.302C22.1485 117.165 23.0787 116.24 24.2184 115.654C25.3581 115.068 26.6514 114.85 27.9204 115.029C29.1894 115.208 30.3717 115.776 31.3046 116.655L39.7546 111.855C39.9163 111.763 40.0977 111.712 40.2835 111.705C40.4693 111.698 40.6541 111.736 40.8222 111.815C40.9903 111.895 41.1369 112.013 41.2495 112.161C41.3622 112.309 41.4377 112.482 41.4696 112.665L43.4696 124.11C43.5025 124.292 43.4912 124.48 43.4366 124.656C43.382 124.833 43.2857 124.994 43.1558 125.126C43.0259 125.258 42.8663 125.357 42.6903 125.414C42.5143 125.471 42.3272 125.485 42.1446 125.455L32.6046 123.955C32.0881 124.989 31.2938 125.858 30.3109 126.466C29.3279 127.073 28.1952 127.395 27.0396 127.395V127.385ZM27.0396 115.98C26.7885 115.978 26.5377 115.997 26.2896 116.035C24.9445 116.254 23.7356 116.983 22.915 118.071C22.0944 119.159 21.7252 120.522 21.8846 121.875C22.036 123.007 22.5559 124.057 23.3638 124.864C24.1717 125.671 25.2228 126.19 26.3548 126.34C27.4868 126.49 28.6367 126.264 29.6271 125.695C30.6175 125.127 31.3932 124.248 31.8346 123.195L31.9846 122.835L42.3046 124.5C42.3291 124.505 42.3545 124.504 42.3782 124.496C42.402 124.488 42.4232 124.474 42.4396 124.455C42.4573 124.438 42.4707 124.417 42.4785 124.393C42.4863 124.37 42.4884 124.345 42.4846 124.32L40.4846 112.87C40.4798 112.845 40.4691 112.822 40.4535 112.802C40.4378 112.782 40.4176 112.766 40.3946 112.755C40.3721 112.744 40.3473 112.738 40.3221 112.738C40.2969 112.738 40.272 112.744 40.2496 112.755L31.1246 117.915L30.8546 117.63C30.3658 117.114 29.7765 116.703 29.123 116.422C28.4695 116.142 27.7656 115.998 27.0546 116L27.0396 115.98Z" fill="#455A64"/>
<path d="M47.3395 133.875C47.3063 133.771 47.2829 133.664 47.2695 133.555C47.2245 133.315 47.1695 133.01 47.0945 132.635C46.9445 131.8 46.7345 130.635 46.4745 129.235C45.9745 126.34 45.2545 122.39 44.4745 118.025C43.6945 113.66 43.0295 109.7 42.5295 106.795C42.2945 105.385 42.1045 104.23 41.9695 103.39C41.9095 103.01 41.8645 102.7 41.8295 102.46C41.8061 102.353 41.796 102.244 41.7995 102.135C41.8335 102.238 41.8602 102.343 41.8795 102.45C41.9295 102.69 41.9945 102.995 42.0695 103.37C42.2295 104.205 42.4495 105.37 42.7145 106.765C43.2495 109.63 43.9645 113.595 44.7145 117.975C45.4645 122.355 46.1645 126.33 46.6345 129.205C46.8745 130.645 47.0545 131.81 47.1745 132.615C47.2295 133.02 47.2795 133.33 47.2995 133.55C47.3262 133.656 47.3396 133.765 47.3395 133.875Z" fill="#455A64"/>
<path d="M34.7243 136.39C34.6946 136.283 34.6713 136.175 34.6543 136.065C34.6093 135.83 34.5543 135.525 34.4843 135.145C34.3293 134.31 34.1193 133.145 33.8593 131.75C33.3593 128.85 32.6393 124.9 31.8593 120.535C31.0793 116.17 30.4193 112.21 29.9143 109.31C29.6793 107.895 29.4893 106.74 29.3543 105.905C29.2943 105.52 29.2493 105.215 29.2143 104.975C29.1908 104.867 29.1807 104.756 29.1843 104.645C29.2222 104.749 29.2506 104.856 29.2693 104.965C29.3143 105.205 29.3793 105.51 29.4543 105.885C29.6143 106.72 29.8343 107.885 30.0993 109.275C30.6343 112.145 31.3493 116.105 32.0993 120.49C32.8493 124.875 33.5493 128.84 34.0243 131.715C34.2593 133.155 34.4443 134.32 34.5593 135.13C34.6143 135.535 34.6643 135.845 34.6843 136.06C34.711 136.168 34.7244 136.279 34.7243 136.39Z" fill="#455A64"/>
<path d="M91.9993 104.6C91.7815 104.767 91.5508 104.915 91.3093 105.045L89.3793 106.18C87.7393 107.13 85.4643 108.425 82.9443 109.845L82.8993 109.87H82.8543H82.7493C79.8743 109.37 77.2493 108.87 75.3993 108.525L73.1743 108.09C72.8988 108.048 72.6277 107.981 72.3643 107.89C72.6428 107.902 72.9201 107.934 73.1943 107.985L75.4293 108.34C77.3193 108.65 79.9293 109.1 82.7993 109.61H82.8993H82.8093C85.3343 108.195 87.6243 106.925 89.3093 106.015L91.2843 104.955C91.5111 104.815 91.7505 104.696 91.9993 104.6Z" fill="#263238"/>
<path d="M99.5906 162.895H142.221V185.265H99.5906C97.2501 185.265 95.0054 184.335 93.3504 182.68C91.6954 181.025 90.7656 178.781 90.7656 176.44V171.715C90.7656 169.374 91.6954 167.13 93.3504 165.475C95.0054 163.82 97.2501 162.89 99.5906 162.89V162.895Z" fill="#106FA4"/>
<path d="M131.075 162.895H221C221.389 162.895 221.761 163.049 222.036 163.324C222.311 163.599 222.465 163.971 222.465 164.36V165.145C222.465 165.534 222.311 165.906 222.036 166.181C221.761 166.456 221.389 166.61 221 166.61H131.075V162.895Z" fill="#106FA4"/>
<path d="M131.075 181.555H221C221.193 181.555 221.383 181.593 221.561 181.667C221.739 181.74 221.9 181.848 222.036 181.984C222.172 182.12 222.28 182.282 222.354 182.459C222.427 182.637 222.465 182.828 222.465 183.02V183.805C222.465 184.194 222.311 184.566 222.036 184.841C221.761 185.116 221.389 185.27 221 185.27H131.075V181.555Z" fill="#106FA4"/>
<path d="M219.731 181.555H141.276C140.294 181.555 139.323 181.362 138.416 180.986C137.509 180.61 136.686 180.059 135.992 179.365C135.298 178.671 134.748 177.847 134.373 176.94C133.998 176.033 133.805 175.061 133.806 174.08C133.806 172.099 134.593 170.199 135.994 168.798C137.394 167.397 139.294 166.61 141.276 166.61H219.731C218.691 168.964 218.154 171.509 218.154 174.082C218.154 176.656 218.691 179.201 219.731 181.555Z" fill="#F5F5F5"/>
<path opacity="0.3" d="M133.806 185.27H99.7656C97.3787 185.27 95.0895 184.322 93.4017 182.634C91.7138 180.946 90.7656 178.657 90.7656 176.27V171.825C90.7656 169.457 91.7065 167.185 93.3812 165.511C95.0559 163.836 97.3272 162.895 99.6956 162.895H134.651C126.556 167.805 127.161 179.555 133.806 185.27Z" fill="black"/>
<path d="M210.201 174.775C210.201 174.85 194.096 174.91 174.236 174.91C154.376 174.91 138.271 174.85 138.271 174.775C138.271 174.7 154.371 174.64 174.236 174.64C194.101 174.64 210.201 174.7 210.201 174.775Z" fill="#263238"/>
<path d="M217.6 178.095C217.6 178.17 201.495 178.23 181.635 178.23C161.775 178.23 145.67 178.17 145.67 178.095C145.67 178.02 161.77 177.965 181.635 177.965C201.5 177.965 217.6 178.025 217.6 178.095Z" fill="#263238"/>
<path d="M215.42 170.065C215.42 170.14 199.315 170.2 179.455 170.2C159.595 170.2 143.485 170.14 143.485 170.065C143.485 169.99 159.585 169.93 179.455 169.93C199.325 169.93 215.42 170 215.42 170.065Z" fill="#263238"/>
<path d="M129.865 183.7C129.865 183.775 122.325 183.835 113.03 183.835C103.735 183.835 96.1953 183.775 96.1953 183.7C96.1953 183.625 103.73 183.565 113.03 183.565C122.33 183.565 129.865 183.625 129.865 183.7Z" fill="#263238"/>
<path d="M129.865 164.755C129.865 164.83 122.325 164.89 113.03 164.89C103.735 164.89 96.1953 164.83 96.1953 164.755C96.1953 164.68 103.73 164.62 113.03 164.62C122.33 164.62 129.865 164.68 129.865 164.755Z" fill="#263238"/>
<path d="M80.7703 200.97H138.215V229.78H80.7703C78.4298 229.78 76.1851 228.85 74.5301 227.195C72.8751 225.54 71.9453 223.296 71.9453 220.955V209.795C71.9453 207.454 72.8751 205.21 74.5301 203.555C76.1851 201.9 78.4298 200.97 80.7703 200.97Z" fill="#3EB449"/>
<path d="M123.86 200.97H240.075C240.464 200.97 240.837 201.124 241.111 201.399C241.386 201.674 241.54 202.046 241.54 202.435V204.29C241.54 204.679 241.386 205.051 241.111 205.326C240.837 205.601 240.464 205.755 240.075 205.755H123.86V200.97Z" fill="#3EB449"/>
<path d="M123.86 225H240.075C240.464 225 240.837 225.154 241.111 225.429C241.386 225.704 241.54 226.076 241.54 226.465V228.32C241.54 228.709 241.386 229.081 241.111 229.356C240.837 229.631 240.464 229.785 240.075 229.785H123.86V225Z" fill="#3EB449"/>
<path d="M238.03 225H137C134.448 224.999 132.001 223.984 130.197 222.179C128.393 220.374 127.38 217.927 127.38 215.375C127.38 214.112 127.629 212.861 128.112 211.694C128.596 210.526 129.304 209.466 130.198 208.573C131.091 207.679 132.151 206.971 133.318 206.487C134.486 206.004 135.737 205.755 137 205.755H238.03C236.69 208.786 235.997 212.063 235.997 215.378C235.997 218.692 236.69 221.969 238.03 225Z" fill="#F5F5F5"/>
<path opacity="0.3" d="M127.37 229.78H80.6552C79.5116 229.78 78.3793 229.555 77.3228 229.117C76.2663 228.679 75.3065 228.037 74.4981 227.229C73.6897 226.42 73.0486 225.46 72.6114 224.403C72.1742 223.346 71.9495 222.214 71.9502 221.07V210C71.9502 207.613 72.8984 205.324 74.5862 203.636C76.2741 201.948 78.5632 201 80.9502 201H128.45C118.035 207.29 118.815 222.425 127.37 229.78Z" fill="black"/>
<path d="M225.755 216.27C225.755 216.345 205.015 216.405 179.44 216.405C153.865 216.405 133.12 216.345 133.12 216.27C133.12 216.195 153.855 216.135 179.44 216.135C205.025 216.135 225.755 216.195 225.755 216.27Z" fill="#263238"/>
<path d="M235.29 220.545C235.29 220.62 214.55 220.68 188.97 220.68C163.39 220.68 142.65 220.62 142.65 220.545C142.65 220.47 163.385 220.415 188.97 220.415C214.555 220.415 235.29 220.5 235.29 220.545Z" fill="#263238"/>
<path d="M232.5 212.3C232.5 212.375 211.765 212.435 186.185 212.435C160.605 212.435 139.865 212.375 139.865 212.3C139.865 212.225 160.6 212.165 186.185 212.165C211.77 212.165 232.5 212.225 232.5 212.3Z" fill="#263238"/>
<path d="M122.296 227.76C122.296 227.835 112.591 227.895 100.616 227.895C88.6405 227.895 78.9355 227.835 78.9355 227.76C78.9355 227.685 88.6405 227.63 100.616 227.63C112.591 227.63 122.296 227.69 122.296 227.76Z" fill="#263238"/>
<path d="M122.296 203.365C122.296 203.435 112.591 203.495 100.616 203.495C88.6405 203.495 78.9355 203.435 78.9355 203.365C78.9355 203.295 88.6405 203.23 100.616 203.23C112.591 203.23 122.296 203.29 122.296 203.365Z" fill="#263238"/>
<path d="M108.09 184.58H155.42V201.08H108.09C106.366 201.08 104.713 200.395 103.494 199.176C102.275 197.957 101.59 196.304 101.59 194.58V191.08C101.59 189.356 102.275 187.703 103.494 186.484C104.713 185.265 106.366 184.58 108.09 184.58Z" fill="#455A64"/>
<path d="M143.761 184.58H237.841C238.248 184.58 238.638 184.742 238.926 185.03C239.214 185.318 239.376 185.708 239.376 186.115V186.935C239.376 187.342 239.214 187.733 238.926 188.02C238.638 188.308 238.248 188.47 237.841 188.47H143.761V184.585V184.58Z" fill="#455A64"/>
<path d="M143.761 197.19H237.841C238.248 197.19 238.638 197.352 238.926 197.64C239.214 197.928 239.376 198.318 239.376 198.725V199.545C239.376 199.952 239.214 200.343 238.926 200.63C238.638 200.918 238.248 201.08 237.841 201.08H143.761V197.195V197.19Z" fill="#455A64"/>
<path d="M236.501 197.19H151.001C149.844 197.19 148.734 196.731 147.916 195.913C147.098 195.096 146.637 193.987 146.636 192.83C146.636 191.672 147.096 190.562 147.914 189.743C148.733 188.925 149.843 188.465 151.001 188.465H236.501C234.314 191.375 234.314 194.283 236.501 197.19Z" fill="#F5F5F5"/>
<path opacity="0.3" d="M146.61 201.075H108.11C107.251 201.075 106.399 200.906 105.605 200.576C104.81 200.247 104.088 199.765 103.481 199.156C102.873 198.548 102.391 197.826 102.062 197.031C101.734 196.237 101.565 195.385 101.565 194.525V191.265C101.565 190.387 101.737 189.518 102.072 188.707C102.408 187.896 102.9 187.159 103.52 186.538C104.141 185.918 104.877 185.425 105.688 185.089C106.499 184.753 107.368 184.58 108.245 184.58H147.5C139.025 188.2 139.66 196.865 146.61 201.075Z" fill="black"/>
<path d="M226.545 192.14C226.545 192.215 209.695 192.275 188.915 192.275C168.135 192.275 151.285 192.215 151.285 192.14C151.285 192.065 168.13 192.01 188.915 192.01C209.7 192.01 226.545 192.07 226.545 192.14Z" fill="#263238"/>
<path d="M234.29 194.5C234.29 194.575 217.44 194.635 196.66 194.635C175.88 194.635 159.03 194.575 159.03 194.5C159.03 194.425 175.875 194.365 196.66 194.365C217.445 194.365 234.29 194.415 234.29 194.5Z" fill="#263238"/>
<path d="M142.501 199.435C142.501 199.51 134.616 199.57 124.886 199.57C115.156 199.57 107.271 199.51 107.271 199.435C107.271 199.36 115.156 199.3 124.886 199.3C134.616 199.3 142.501 199.36 142.501 199.435Z" fill="#263238"/>
<path d="M142.501 186.525C142.501 186.6 134.616 186.655 124.886 186.655C115.156 186.655 107.271 186.6 107.271 186.525C107.271 186.45 115.156 186.39 124.886 186.39C134.616 186.39 142.501 186.45 142.501 186.525Z" fill="#263238"/>
<path d="M238.25 184.58C238.25 184.655 209.315 184.715 173.635 184.715C137.955 184.715 109 184.655 109 184.58C109 184.505 137.925 184.445 173.62 184.445C209.315 184.445 238.25 184.5 238.25 184.58Z" fill="#263238"/>
<path d="M186.365 169.82V178.78L189.47 176.79L192.93 178.78V169.82H186.365Z" fill="#106FA4"/>
<path d="M217.92 80.885L202.285 93.91L178.505 140.89L193.33 147.59L216.46 101.515L217.92 80.885Z" fill="#ED3768"/>
<g opacity="0.7">
<path d="M216.46 101.5C216.279 101.545 216.09 101.547 215.908 101.507C215.726 101.466 215.555 101.384 215.41 101.267C215.265 101.15 215.149 101.001 215.071 100.831C214.993 100.662 214.955 100.477 214.96 100.29C214.467 100.864 213.806 101.269 213.071 101.448C212.335 101.627 211.562 101.571 210.86 101.288C210.159 101.005 209.563 100.509 209.158 99.87C208.752 99.2308 208.557 98.4807 208.6 97.725C207.941 98.0797 207.2 98.2529 206.452 98.2267C205.704 98.2005 204.977 97.9759 204.344 97.576C203.712 97.1761 203.197 96.6152 202.853 95.9507C202.509 95.2863 202.347 94.5423 202.385 93.795L217.885 80.87L216.46 101.5Z" fill="white"/>
</g>
<path d="M211.63 86.125C211.63 86.125 211.87 90.015 217.32 89.335L217.92 80.885L211.63 86.125Z" fill="#ED3768"/>
<path opacity="0.3" d="M208.62 97.74L185.695 143.885L178.505 140.885L202.285 93.885L202.405 93.785C202.369 94.4115 202.479 95.0378 202.725 95.615C203.053 96.3729 203.587 97.024 204.265 97.495C205.098 98.0639 206.109 98.3109 207.11 98.19C207.636 98.1333 208.148 97.9808 208.62 97.74Z" fill="black"/>
<path opacity="0.3" d="M215 100.305L191.45 146.73L193.35 147.59L216.46 101.5C216.147 101.557 215.823 101.495 215.552 101.327C215.282 101.159 215.083 100.896 214.995 100.59C214.988 100.495 214.989 100.4 215 100.305Z" fill="black"/>
<path d="M208.5 93.26C208.451 93.3174 208.423 93.3896 208.42 93.465C208.421 93.5743 208.462 93.6793 208.536 93.7597C208.61 93.8401 208.711 93.8901 208.82 93.9C209.175 93.9157 209.525 93.8176 209.82 93.62C210.007 93.5106 210.155 93.3466 210.245 93.15C210.295 93.0437 210.317 92.9264 210.309 92.8092C210.301 92.6921 210.264 92.5788 210.2 92.48C210.118 92.3778 210.014 92.2941 209.897 92.2346C209.78 92.1752 209.651 92.1412 209.52 92.135C209.231 92.1098 208.94 92.1266 208.655 92.185C208.019 92.291 207.411 92.5277 206.87 92.88C206.726 92.9689 206.602 93.0875 206.507 93.2281C206.412 93.3686 206.348 93.5279 206.32 93.695C206.313 93.87 206.348 94.0442 206.424 94.202C206.5 94.3599 206.614 94.4966 206.755 94.6C207.084 94.7889 207.447 94.9101 207.823 94.9564C208.199 95.0028 208.581 94.9734 208.945 94.87C209.669 94.7179 210.336 94.3697 210.875 93.8635C211.414 93.3573 211.803 92.7126 212 92C212.034 91.8425 212.031 91.6792 211.991 91.5231C211.951 91.367 211.875 91.2222 211.77 91.1C211.558 90.8731 211.294 90.7014 211 90.6C210.472 90.4066 209.917 90.2953 209.355 90.27C208.536 90.2269 207.716 90.3493 206.945 90.63C206.675 90.73 206.445 90.825 206.33 90.89C206.215 90.955 206.12 90.99 206.12 90.99C206.376 90.8279 206.647 90.6922 206.93 90.585C207.703 90.2893 208.528 90.1549 209.355 90.19C209.928 90.2094 210.495 90.3173 211.035 90.51C211.344 90.6163 211.622 90.7965 211.845 91.035C211.963 91.1703 212.047 91.331 212.093 91.5045C212.138 91.678 212.142 91.8596 212.105 92.035C211.847 92.9631 211.276 93.7732 210.488 94.3282C209.701 94.8831 208.746 95.1488 207.785 95.08C207.391 95.0597 207.012 94.9279 206.69 94.7C206.529 94.589 206.399 94.4391 206.312 94.2643C206.224 94.0894 206.182 93.8954 206.19 93.7C206.221 93.5175 206.291 93.3437 206.394 93.1902C206.497 93.0367 206.633 92.9071 206.79 92.81C207.345 92.4506 207.968 92.2105 208.62 92.105C208.915 92.0496 209.216 92.0361 209.515 92.065C209.657 92.0736 209.796 92.1123 209.922 92.1787C210.048 92.2451 210.158 92.3376 210.245 92.45C210.314 92.5606 210.355 92.6867 210.363 92.8168C210.37 92.947 210.345 93.077 210.29 93.195C210.193 93.4044 210.034 93.579 209.835 93.695C209.531 93.8912 209.171 93.9841 208.81 93.96C208.693 93.9487 208.585 93.8934 208.507 93.8052C208.429 93.7171 208.387 93.6027 208.39 93.485C208.415 93.3 208.5 93.255 208.5 93.26Z" fill="white"/>
<path d="M216.89 93C216.89 93 216.66 92.965 216.25 93C215.666 93.0383 215.095 93.1912 214.57 93.45C213.797 93.8461 213.072 94.3293 212.41 94.89C211.603 95.6001 210.684 96.1712 209.69 96.58C208.665 96.9325 207.558 96.9743 206.51 96.7C205.656 96.4747 204.871 96.0418 204.225 95.44C203.787 95.0248 203.423 94.5378 203.15 94C203.046 93.8115 202.959 93.614 202.89 93.41C202.918 93.4565 202.943 93.5049 202.965 93.555C203.01 93.655 203.085 93.8 203.185 93.98C203.477 94.4855 203.847 94.9426 204.28 95.335C204.921 95.9188 205.695 96.3375 206.535 96.555C207.565 96.814 208.649 96.7689 209.655 96.425C210.636 96.0218 211.544 95.4611 212.345 94.765C213.014 94.2016 213.75 93.7214 214.535 93.335C215.069 93.0757 215.651 92.931 216.245 92.91C216.463 92.9125 216.679 92.9427 216.89 93Z" fill="white"/>
<path d="M216.8 97.685C216.513 97.3943 216.132 97.2168 215.725 97.185C214.737 97.1762 213.753 97.3213 212.81 97.615C211.854 97.8727 210.923 98.2175 210.03 98.645C209.685 98.81 209.415 98.955 209.225 99.05C209.131 99.1093 209.033 99.1596 208.93 99.2C209.017 99.1319 209.109 99.07 209.205 99.015C209.385 98.905 209.655 98.745 209.995 98.575C210.883 98.1212 211.816 97.7625 212.78 97.505C213.309 97.36 213.847 97.2464 214.39 97.165C214.833 97.0839 215.286 97.0654 215.735 97.11C216.041 97.1427 216.332 97.2605 216.575 97.45C216.661 97.517 216.736 97.5962 216.8 97.685Z" fill="white"/>
<path d="M210.31 101C210.461 100.842 210.629 100.699 210.81 100.575C211.255 100.248 211.767 100.022 212.31 99.9149C212.581 99.8596 212.862 99.8654 213.131 99.932C213.399 99.9986 213.65 100.124 213.865 100.3C213.992 100.408 214.099 100.539 214.18 100.685C214.21 100.738 214.23 100.795 214.24 100.855C214.124 100.668 213.981 100.499 213.815 100.355C213.603 100.195 213.359 100.083 213.101 100.025C212.842 99.9675 212.574 99.9657 212.315 100.02C211.794 100.129 211.299 100.34 210.86 100.64C210.683 100.771 210.5 100.891 210.31 101Z" fill="white"/>
<path d="M217.299 90.175C217.277 90.1996 217.252 90.2214 217.224 90.24C217.174 90.275 217.099 90.33 216.994 90.395C216.873 90.4811 216.735 90.5423 216.589 90.575C216.393 90.6099 216.191 90.5979 215.999 90.54C215.574 90.445 215.099 90.23 214.564 90.04C213.984 89.843 213.389 89.6942 212.784 89.595C211.677 89.4343 210.559 89.3591 209.439 89.37H208.439C208.315 89.3827 208.189 89.3827 208.064 89.37L208.439 89.34L209.439 89.305C210.563 89.2696 211.688 89.3348 212.799 89.5C213.412 89.5969 214.015 89.7509 214.599 89.96C215.139 90.15 215.599 90.37 216.019 90.46C216.176 90.5166 216.344 90.5366 216.509 90.5184C216.675 90.5002 216.834 90.4443 216.974 90.355C217.08 90.2897 217.188 90.2296 217.299 90.175Z" fill="white"/>
<path d="M233.869 132.635V173.59C233.879 173.669 233.917 173.741 233.977 173.793C234.036 173.846 234.112 173.875 234.192 173.875C234.271 173.875 234.347 173.846 234.407 173.793C234.466 173.741 234.504 173.669 234.514 173.59V132.635C234.504 132.556 234.466 132.484 234.407 132.432C234.347 132.379 234.271 132.35 234.192 132.35C234.112 132.35 234.036 132.379 233.977 132.432C233.917 132.484 233.879 132.556 233.869 132.635Z" fill="#BFF930"/>
<path d="M236.5 164.565C236.5 165.022 236.364 165.468 236.111 165.848C235.857 166.228 235.496 166.524 235.074 166.699C234.652 166.874 234.187 166.92 233.739 166.831C233.291 166.741 232.88 166.521 232.556 166.198C232.233 165.875 232.013 165.464 231.924 165.016C231.835 164.568 231.881 164.103 232.056 163.681C232.231 163.259 232.527 162.898 232.907 162.644C233.286 162.39 233.733 162.255 234.19 162.255C234.803 162.255 235.39 162.498 235.823 162.932C236.256 163.365 236.5 163.952 236.5 164.565Z" fill="#BFF930"/>
<path d="M233.549 165.76C233.549 165.76 231.864 167.445 231.359 172.38C230.854 177.315 230.744 179.78 230.744 179.78L235.284 180.06V176.53C235.284 176.695 236.184 179.165 236.184 179.165L239.774 177.985C239.774 177.985 238.499 164.865 233.549 165.76Z" fill="#BFF930"/>
<path d="M209.935 135.985H132.835V163.78H209.935V135.985Z" fill="#263238"/>
<path d="M237.015 131.205H105.14V135.99H237.015V131.205Z" fill="#263238"/>
<path opacity="0.3" d="M132.835 155.895C132.835 155.895 156.255 147.495 171.385 144.395C186.515 141.295 209.935 142.325 209.935 142.325V136H132.835V155.895Z" fill="black"/>
<path opacity="0.3" d="M152.84 131.205H105.14V135.99H152.84V131.205Z" fill="black"/>
<path d="M236.06 136C236.06 136.075 206.735 136.135 170.56 136.135C134.385 136.135 105.06 136.075 105.06 136C105.06 135.925 134.375 135.87 170.56 135.87C206.745 135.87 236.06 135.915 236.06 136Z" fill="#455A64"/>
<path d="M152.765 136.025C152.585 134.41 152.585 132.78 152.765 131.165C152.938 132.78 152.938 134.41 152.765 136.025Z" fill="#455A64"/>
<path d="M163.76 163.785C163.69 163.785 163.63 158.36 163.63 151.67C163.63 144.98 163.69 139.56 163.76 139.56C163.83 139.56 163.895 144.98 163.895 151.67C163.895 158.36 163.835 163.785 163.76 163.785Z" fill="#455A64"/>
<path d="M52.2252 197.92L61.0902 194.34L67.8602 176.655L76.8852 181.305C76.8852 181.305 76.0152 183.05 74.1502 187.375C73.4252 189.04 71.0402 193.695 70.0702 195.96C69.1725 198.054 67.6939 199.847 65.8093 201.128C63.9246 202.408 61.7128 203.122 59.4352 203.185L51.1152 203.4L52.2252 197.92Z" fill="#FFBF9D"/>
<path d="M47.82 194.5L46.5 193.09C46.2435 192.922 45.9416 192.836 45.635 192.845L41.395 192.975C40.9992 193.013 40.6171 193.14 40.2769 193.346C39.9367 193.552 39.6473 193.832 39.43 194.165L37.885 196.79C37.885 196.79 36.85 198.585 36.98 199.025C37.0379 199.208 37.1614 199.362 37.3267 199.459C37.492 199.556 37.6874 199.589 37.875 199.55C37.875 199.55 38.025 200.38 38.3 200.55C38.4592 200.63 38.633 200.677 38.8109 200.688C38.9888 200.7 39.1671 200.675 39.335 200.615C39.408 200.772 39.5266 200.904 39.6756 200.994C39.8245 201.083 39.9968 201.125 40.17 201.115C40.2444 201.108 40.318 201.095 40.39 201.075C40.89 200.92 41.12 199.945 41.12 199.945L43.27 199.55C43.27 199.55 46.36 201.615 47.45 202.965C48.54 204.315 51.39 203.285 51.39 203.285L52.455 198.185L47.82 194.5Z" fill="#FFBF9D"/>
<path d="M44.6952 195.105C44.3936 195.198 44.0808 195.25 43.7652 195.26C43.1802 195.325 42.3552 195.35 41.4202 195.47L41.5202 195.395C41.3595 195.74 41.1758 196.074 40.9702 196.395C40.4056 197.291 39.719 198.104 38.9302 198.81C38.6204 199.121 38.2604 199.378 37.8652 199.57C37.8652 199.535 38.2402 199.235 38.8002 198.67C39.5356 197.939 40.1879 197.129 40.7452 196.255C40.9502 195.92 41.1352 195.59 41.2902 195.255L41.3202 195.19H41.3902C42.3452 195.085 43.1702 195.095 43.7552 195.075C44.0688 195.052 44.3838 195.062 44.6952 195.105Z" fill="#FF9A6C"/>
<path d="M44.7899 197.13C44.5397 197.252 44.2678 197.323 43.9899 197.34C43.2993 197.435 42.5975 197.412 41.9149 197.27L42.0699 197.185C41.9799 197.447 41.8765 197.704 41.7599 197.955C41.3733 198.753 40.831 199.465 40.1649 200.05C39.9049 200.308 39.5953 200.51 39.2549 200.645C39.5016 200.386 39.762 200.141 40.0349 199.91C40.6513 199.31 41.1588 198.608 41.5349 197.835C41.6505 197.596 41.7523 197.351 41.8399 197.1L41.8799 196.99H41.9899C42.9126 197.163 43.8545 197.21 44.7899 197.13Z" fill="#FF9A6C"/>
<path d="M50.1799 198.175L46.3949 196.415C45.8869 196.132 45.3243 195.962 44.7449 195.915C44.1251 195.969 43.5271 196.17 42.9999 196.5L40.9599 197.55C40.8499 197.61 40.7299 197.68 40.6949 197.795C40.6599 197.91 40.7549 198.11 40.8699 198.225C41.3964 198.723 42.0856 199.014 42.8099 199.043C43.5342 199.073 44.2446 198.839 44.8099 198.385C45.0861 199.286 45.5176 200.132 46.0849 200.885C46.375 201.262 46.7574 201.559 47.1953 201.745C47.6332 201.932 48.1118 202.002 48.5849 201.95" fill="#FFBF9D"/>
<path d="M48.5756 202C48.5441 202.015 48.5103 202.026 48.4756 202.03C48.3741 202.055 48.2701 202.068 48.1656 202.07C47.7684 202.071 47.3769 201.975 47.0256 201.79C46.4814 201.505 46.0199 201.085 45.6856 200.57C45.2706 199.908 44.935 199.2 44.6856 198.46L44.8756 198.505C44.5719 198.76 44.2206 198.952 43.8422 199.071C43.4637 199.189 43.0655 199.231 42.6706 199.195C42.2412 199.166 41.8225 199.048 41.4406 198.85C41.245 198.746 41.0621 198.621 40.8956 198.475C40.8053 198.4 40.7232 198.317 40.6506 198.225C40.6034 198.168 40.5696 198.101 40.5514 198.029C40.5333 197.957 40.5313 197.883 40.5456 197.81C40.5618 197.75 40.5902 197.695 40.6289 197.646C40.6676 197.598 40.7158 197.559 40.7706 197.53C40.8606 197.475 40.9356 197.44 41.0156 197.395L41.4856 197.155L42.4106 196.655C42.9852 196.318 43.5978 196.052 44.2356 195.86C44.8478 195.75 45.4794 195.846 46.0306 196.135C46.5306 196.365 47.0306 196.595 47.4306 196.8L49.4306 197.8C49.6819 197.913 49.9242 198.045 50.1556 198.195C49.891 198.117 49.6334 198.016 49.3856 197.895L47.3356 196.99L45.9256 196.36C45.4173 196.099 44.8364 196.017 44.2756 196.125C43.6604 196.317 43.0697 196.581 42.5156 196.91L41.5956 197.41L41.1256 197.655C40.9656 197.735 40.7956 197.815 40.7856 197.895C40.7756 197.975 40.9006 198.17 41.0556 198.295C41.2082 198.428 41.3761 198.542 41.5556 198.635C41.9052 198.816 42.2879 198.925 42.6806 198.955C43.4111 199.026 44.1402 198.807 44.7106 198.345L44.8406 198.235L44.8956 198.395C45.1286 199.123 45.4422 199.822 45.8306 200.48C46.1366 200.979 46.563 201.393 47.0706 201.685C47.5319 201.931 48.0541 202.041 48.5756 202Z" fill="#FF9A6C"/>
<path d="M99.4002 148.635C99.4352 145.795 99.9002 142.965 99.7702 140.135C99.6402 137.305 98.9152 134.34 96.9352 132.305C94.9552 130.27 91.5002 129.5 89.2002 131.125L88.7002 133.545C89.6102 144.495 89.4902 155.62 90.4002 166.57C90.5202 168.01 91.6852 169.315 92.3402 170.6C92.9952 171.885 94.3102 172.95 95.7502 172.86C97.6352 172.745 98.8702 170.835 99.4552 169.035C101.605 162.53 99.3152 155.5 99.4002 148.635Z" fill="#263238"/>
<path d="M92.5705 133.91C92.1913 133.188 91.704 132.529 91.1255 131.955C90.8337 131.669 90.4811 131.454 90.094 131.324C89.707 131.194 89.2955 131.153 88.8905 131.205C88.6998 131.229 88.5183 131.301 88.3633 131.415C88.2084 131.528 88.0852 131.68 88.0055 131.855C87.8805 132.215 88.1505 132.7 88.5305 132.665L88.6105 132.735C89.4605 133.488 90.3255 134.223 91.2055 134.94C91.4155 135.136 91.6618 135.289 91.9305 135.39C92.0656 135.439 92.2119 135.449 92.3525 135.419C92.4931 135.389 92.6224 135.32 92.7255 135.22C93.0405 134.87 92.8105 134.315 92.5705 133.91Z" fill="#106FA4"/>
<path d="M94.1749 136.7C91.3449 133.24 87.5449 131.245 83.0749 131.2C80.5749 131.155 79.5099 131.7 77.6949 132.17C75.8775 132.609 74.2712 133.67 73.1549 135.17C71.8699 136.995 70.7899 139.04 70.5449 141.265C70.2245 143.538 70.1157 145.836 70.2199 148.13C70.3248 150.435 71.0655 152.665 72.3599 154.575L78.1799 155.575C81.3949 155.685 84.6549 155.79 87.7899 155.075C90.9249 154.36 93.9649 152.655 95.6399 149.91C97.9699 146.07 96.9999 140.155 94.1749 136.7Z" fill="#263238"/>
<path d="M89 136.66L81.24 133.575L79.21 133.81C74.65 133.81 71.5 138.86 71.47 142.55C71.44 146.66 71.56 151.67 72.21 154.695C73.525 160.78 78.71 161.285 78.71 161.285C78.71 161.285 78.605 164.53 78.565 166.57L90.45 165.715L91.045 138.745C91.027 138.205 90.8069 137.691 90.4283 137.304C90.0496 136.918 89.54 136.688 89 136.66Z" fill="#FFBF9D"/>
<path d="M81.3353 153.27C81.2873 152.959 81.1272 152.676 80.8853 152.475C80.6652 152.285 80.3889 152.173 80.0989 152.156C79.8088 152.139 79.5212 152.218 79.2803 152.38C79.0302 152.573 78.8359 152.828 78.7173 153.121C78.5987 153.414 78.56 153.732 78.6053 154.045C78.7389 154.232 78.9111 154.389 79.1103 154.505C79.3095 154.62 79.5311 154.692 79.7603 154.715C79.8319 154.72 79.9037 154.72 79.9753 154.715C80.3462 154.723 80.7053 154.584 80.9753 154.33C81.1111 154.192 81.2139 154.024 81.2763 153.841C81.3386 153.657 81.3588 153.462 81.3353 153.27Z" fill="#FF9A6C"/>
<path d="M73.5254 147.745C73.5332 147.95 73.6214 148.145 73.771 148.286C73.9206 148.427 74.1197 148.504 74.3254 148.5C74.426 148.502 74.5261 148.484 74.6197 148.447C74.7133 148.41 74.7986 148.355 74.8707 148.284C74.9428 148.214 75.0003 148.13 75.0397 148.038C75.0791 147.945 75.0997 147.846 75.1004 147.745C75.0901 147.539 75.0004 147.346 74.8502 147.205C74.7001 147.064 74.5012 146.987 74.2954 146.99C74.195 146.988 74.0952 147.006 74.0019 147.043C73.9085 147.08 73.8235 147.135 73.7518 147.206C73.6801 147.276 73.6231 147.36 73.5843 147.452C73.5454 147.545 73.5254 147.644 73.5254 147.745Z" fill="#263238"/>
<path d="M72.8604 144.605C72.9604 144.7 73.5354 144.23 74.3604 144.185C75.1854 144.14 75.8604 144.53 75.9404 144.42C76.0204 144.31 75.8704 144.19 75.5904 144.01C75.2098 143.776 74.7661 143.666 74.3204 143.695C73.8802 143.717 73.4582 143.878 73.1154 144.155C72.8854 144.37 72.8054 144.56 72.8604 144.605Z" fill="#263238"/>
<path d="M78.3003 151.25C77.8467 151.131 77.3794 151.072 76.9103 151.075C76.6953 151.075 76.4853 151.035 76.4403 150.885C76.4132 150.664 76.4514 150.44 76.5503 150.24C76.7253 149.705 76.9103 149.145 77.1003 148.555C77.8603 146.165 78.4003 144.2 78.3003 144.17C78.2003 144.14 77.5103 146.055 76.7503 148.45L76.2503 150.14C76.1273 150.408 76.1042 150.711 76.1853 150.995C76.2199 151.069 76.2714 151.135 76.3356 151.186C76.3998 151.237 76.475 151.273 76.5553 151.29C76.6768 151.316 76.8012 151.326 76.9253 151.32C77.3848 151.351 77.8464 151.327 78.3003 151.25Z" fill="#263238"/>
<path d="M78.6999 161.28C81.5928 161.165 84.397 160.25 86.7999 158.635C86.7999 158.635 84.8449 163.01 78.6699 162.775L78.6999 161.28Z" fill="#FF9A6C"/>
<path d="M80.825 151.695C80.69 151.695 80.735 152.615 79.985 153.31C79.235 154.005 78.25 153.96 78.25 154.09C78.25 154.22 78.48 154.255 78.89 154.245C79.4307 154.224 79.9464 154.011 80.345 153.645C80.7266 153.295 80.9578 152.811 80.99 152.295C81 151.91 80.89 151.69 80.825 151.695Z" fill="#263238"/>
<path d="M73.1456 141.64C73.3006 141.835 73.9406 141.665 74.7006 141.685C75.4606 141.705 76.1006 141.87 76.2606 141.685C76.3306 141.59 76.2356 141.395 75.9606 141.185C75.5888 140.943 75.1541 140.816 74.7106 140.82C74.2671 140.808 73.8296 140.924 73.4506 141.155C73.1756 141.345 73.0806 141.54 73.1456 141.64Z" fill="#263238"/>
<path d="M82.7705 147.535C82.7746 147.74 82.6987 147.939 82.5587 148.089C82.4187 148.24 82.2256 148.33 82.0205 148.34C81.9205 148.35 81.8196 148.339 81.7237 148.309C81.6277 148.279 81.5388 148.231 81.4619 148.166C81.3851 148.101 81.322 148.022 81.2762 147.932C81.2305 147.843 81.203 147.745 81.1955 147.645C81.1912 147.44 81.2663 147.241 81.4052 147.09C81.544 146.939 81.7358 146.848 81.9405 146.835C82.0411 146.825 82.1427 146.836 82.2392 146.866C82.3357 146.896 82.4253 146.945 82.5026 147.011C82.5799 147.076 82.6434 147.156 82.6894 147.246C82.7354 147.336 82.763 147.434 82.7705 147.535Z" fill="#263238"/>
<path d="M84.3207 144.275C84.2257 144.38 83.6207 143.95 82.7707 143.965C81.9207 143.98 81.3107 144.42 81.2157 144.315C81.1207 144.21 81.2657 144.085 81.5357 143.88C81.897 143.619 82.3303 143.478 82.7757 143.475C83.2168 143.465 83.6495 143.596 84.0107 143.85C84.2757 144.045 84.3707 144.23 84.3207 144.275Z" fill="#263238"/>
<path d="M83.8102 141.565C83.6502 141.76 82.9902 141.565 82.2052 141.565C81.4202 141.565 80.7502 141.72 80.5952 141.52C80.5252 141.425 80.6302 141.23 80.9152 141.02C81.3103 140.789 81.7624 140.673 82.2202 140.685C82.6748 140.68 83.1212 140.807 83.5052 141.05C83.7902 141.27 83.8852 141.47 83.8102 141.565Z" fill="#263238"/>
<path d="M90 149.055C90 148.6 90.445 147.495 90.895 147.4C92.09 147.145 94.265 147.12 94.455 150.18C94.715 154.365 90.455 153.76 90.455 153.64C90.455 153.52 90.075 150.635 90 149.055Z" fill="#FFBF9D"/>
<path d="M91.5 152.04C91.5 152.04 91.575 152.09 91.7 152.135C91.8763 152.207 92.0737 152.207 92.25 152.135C92.68 151.945 93.01 151.22 92.985 150.465C92.9728 150.106 92.8805 149.754 92.715 149.435C92.6681 149.306 92.5902 149.191 92.4881 149.099C92.3861 149.008 92.2631 148.943 92.13 148.91C92.0454 148.893 91.9577 148.907 91.882 148.948C91.8062 148.989 91.7471 149.055 91.715 149.135C91.665 149.255 91.715 149.34 91.675 149.345C91.635 149.35 91.58 149.28 91.605 149.105C91.6216 149 91.6747 148.904 91.755 148.835C91.8085 148.788 91.8712 148.752 91.9391 148.729C92.007 148.707 92.0788 148.699 92.15 148.705C92.3243 148.726 92.49 148.792 92.6304 148.898C92.7708 149.003 92.881 149.144 92.95 149.305C93.1497 149.656 93.2612 150.051 93.275 150.455C93.3 151.3 92.915 152.115 92.325 152.325C92.2147 152.365 92.0969 152.38 91.9802 152.369C91.8634 152.357 91.7506 152.32 91.65 152.26C91.5 152.145 91.5 152.05 91.5 152.04Z" fill="#FF9A6C"/>
<path d="M91.0553 147.41L90.0003 148.5C85.4103 144.105 76.4403 133.105 76.9453 133.76C79.0374 132.982 81.2916 132.743 83.5003 133.065C86.9153 133.645 93.3853 135.355 93.2853 139.38C93.1853 143.405 91.0553 147.41 91.0553 147.41Z" fill="#263238"/>
<path d="M97.1353 146.5C97.1217 146.418 97.1 146.338 97.0703 146.26C96.9941 146.032 96.8988 145.811 96.7853 145.6C96.352 144.825 95.7548 144.155 95.0353 143.635C93.9746 142.873 92.7907 142.3 91.5353 141.94C90.1353 141.485 88.5603 141.13 87.0103 140.44C85.5486 139.831 84.1626 139.054 82.8803 138.125C81.8315 137.365 80.8542 136.512 79.9603 135.575C79.3607 134.941 78.7981 134.273 78.2753 133.575L77.8553 132.995C77.8085 132.925 77.7549 132.86 77.6953 132.8C77.7304 132.877 77.7722 132.95 77.8203 133.02C77.9053 133.16 78.0303 133.365 78.2053 133.62C78.7059 134.343 79.2555 135.032 79.8503 135.68C81.8239 137.826 84.2394 139.518 86.9303 140.64C88.4197 141.204 89.9366 141.693 91.4753 142.105C92.7252 142.446 93.9085 142.995 94.9753 143.73C95.6871 144.23 96.288 144.872 96.7403 145.615C97.0003 146.16 97.1103 146.5 97.1353 146.5Z" fill="#455A64"/>
<path d="M95.915 147.145C95.9286 146.832 95.874 146.52 95.755 146.23C95.4392 145.43 94.8905 144.744 94.18 144.26C93.1166 143.575 91.9263 143.111 90.68 142.895C89.1885 142.596 87.7347 142.133 86.345 141.515C84.961 140.884 83.6611 140.082 82.475 139.13C81.51 138.349 80.6226 137.476 79.825 136.525C79.2816 135.88 78.7806 135.2 78.325 134.49L77.97 133.905C77.9333 133.835 77.8879 133.769 77.835 133.71C77.8628 133.784 77.8963 133.856 77.935 133.925L78.255 134.535C78.6805 135.264 79.1584 135.96 79.685 136.62C80.4731 137.596 81.3594 138.49 82.33 139.285C83.523 140.256 84.8353 141.071 86.235 141.71C87.6371 142.336 89.1068 142.797 90.615 143.085C91.8388 143.289 93.0109 143.73 94.065 144.385C94.7621 144.844 95.3109 145.495 95.645 146.26C95.7619 146.546 95.8523 146.842 95.915 147.145Z" fill="#455A64"/>
<path d="M90.915 154.5C90.915 154.47 91.27 154.425 91.89 154.26C92.7593 154.009 93.5597 153.563 94.23 152.955C95.2121 152.036 95.9581 150.894 96.405 149.625C96.9761 148.079 97.2837 146.448 97.315 144.8C97.334 143.948 97.2653 143.097 97.11 142.26C96.6905 140.154 95.7013 138.203 94.25 136.62C93.3967 135.714 92.4554 134.895 91.44 134.175C91.44 134.175 91.525 134.205 91.675 134.295C91.825 134.385 92.04 134.505 92.305 134.695C93.0645 135.216 93.7653 135.818 94.395 136.49C95.3381 137.486 96.1011 138.638 96.65 139.895C96.9683 140.64 97.2112 141.416 97.375 142.21C97.5359 143.065 97.6079 143.935 97.59 144.805C97.56 146.484 97.2403 148.145 96.645 149.715C96.1718 151.013 95.3872 152.176 94.36 153.1C93.6589 153.71 92.8224 154.143 91.92 154.365C91.6745 154.421 91.4257 154.461 91.175 154.485C91.0889 154.497 91.002 154.502 90.915 154.5Z" fill="#455A64"/>
<path d="M96.2407 205.955L71.5007 209.55C62.2057 212.18 52.4157 212.95 42.1807 212.05L79.4157 229.42L94.3657 229.65C94.3657 229.65 98.9157 229.65 99.7107 225.68C100.506 221.71 101.391 209.62 101.391 209.62C101.391 209.62 98.4357 207.06 96.2407 205.955Z" fill="#263238"/>
<g opacity="0.3">
<path d="M96.165 216.37C96.5741 218.848 96.7216 221.361 96.605 223.87C97.3649 223.036 97.9247 222.039 98.2418 220.956C98.5589 219.873 98.625 218.732 98.435 217.62C98.22 216.4 97.71 215.055 98.35 213.99C98.78 213.275 99.915 212.455 99.75 211.64C99.75 211.64 98.75 211.64 97.855 211.605C97.13 211.575 95.625 211.53 95.625 211.53C96.2725 213.085 96.4125 214.805 96.025 216.445" fill="black"/>
</g>
<path d="M78.6052 165.55L90.6252 164.25L92.8251 166.25L84.2452 171.3L80.4602 173.26L76.7202 172.125L75.5352 169.895L78.6052 165.55Z" fill="#FFBF9D"/>
<path d="M62.4004 180.185C62.4004 180.185 66.1704 172.955 67.1004 171.375C68.6904 168.68 71.6604 167.155 71.6604 167.155L78.6054 165.55C78.6054 165.55 77.8854 169.05 82.2054 169.27C87.7054 169.575 91.1204 164.305 91.1204 164.305C91.1204 164.305 97.3904 164.95 99.1204 165.675C100.85 166.4 105.75 168.455 106.47 174.965L108.15 185.6L94.9004 186.6L95.0804 200.76L89.4504 205.365C89.4504 205.365 73.2854 210.93 72.2504 211.295C71.7504 211.47 71.8804 204.6 70.7254 198.71L68.5454 193.415C67.6629 191.3 67.1407 189.052 67.0004 186.765C66.9154 185.265 66.9554 184.115 66.9554 184.115C66.9554 184.115 63.5554 182.95 62.4004 180.185Z" fill="#4FB6B2"/>
<path d="M72.8406 205.745L95.0556 199.08L94.9006 186.61L106.211 185.75C106.211 185.75 105.311 192.21 105.176 195.52C104.986 200.285 102.676 206.945 101.176 208.355C99.6756 209.765 72.2656 211.305 72.2656 211.305L72.8406 205.745Z" fill="#FFBF9D"/>
<path d="M60.24 209.665C60.3471 209.848 60.5173 209.986 60.7187 210.054C60.9202 210.121 61.1392 210.112 61.335 210.03C61.835 209.83 61.7 208.82 61.7 208.82L64.065 208.24C64.065 208.24 67.33 210.01 68.565 211.24C69.8 212.47 72.515 211.185 72.515 211.185L73.08 206L68.365 202.355C68.365 202.355 68.655 202.575 68.29 201.855C67.925 201.135 66.565 201.525 66.565 201.525C66.325 201.17 65.41 201.11 65.41 201.11L61.575 201.855C61.1858 201.931 60.8185 202.093 60.5001 202.329C60.1817 202.565 59.9203 202.87 59.735 203.22L58.3 205.935C58.3 205.935 57.58 207.865 57.755 208.29C57.8304 208.466 57.9678 208.608 58.1412 208.689C58.3145 208.77 58.5116 208.785 58.695 208.73C58.695 208.73 58.98 209.94 59.305 209.955C59.6333 209.914 59.9508 209.811 60.24 209.65V209.665Z" fill="#FFBF9D"/>
<path d="M68.1857 205.365C68.1857 205.405 67.6857 205.395 66.8457 205.495C65.776 205.631 64.7298 205.912 63.7357 206.33C63.1899 206.563 62.6632 206.839 62.1607 207.155C61.7157 207.45 61.2457 207.705 61.1207 208.06C61.0937 208.136 61.0869 208.218 61.1009 208.298C61.115 208.378 61.1493 208.452 61.2007 208.515C61.2797 208.619 61.3875 208.697 61.5107 208.74C61.7207 208.805 61.8457 208.74 61.8557 208.74C61.8657 208.74 61.7407 208.855 61.4857 208.81C61.3347 208.776 61.1983 208.696 61.0957 208.58C61.0221 208.501 60.9705 208.404 60.9459 208.299C60.9213 208.193 60.9247 208.084 60.9557 207.98C61.041 207.747 61.1943 207.545 61.3957 207.4C61.5957 207.245 61.8057 207.09 62.0407 206.935C63.4731 205.997 65.1187 205.435 66.8257 205.3C67.2796 205.248 67.7389 205.27 68.1857 205.365Z" fill="#FF9A6C"/>
<path d="M68.6504 207.81C68.6504 207.88 67.0704 207.94 65.1504 208.2C63.2304 208.46 61.6904 208.82 61.6504 208.75C61.9677 208.597 62.304 208.488 62.6504 208.425C63.4607 208.221 64.282 208.064 65.1104 207.955C65.9393 207.842 66.774 207.777 67.6104 207.76C67.9577 207.729 68.3076 207.746 68.6504 207.81Z" fill="#FF9A6C"/>
<path d="M60.2556 209.565C60.2151 209.433 60.1883 209.297 60.1756 209.16C60.1241 208.784 60.0941 208.405 60.0856 208.025C60.0813 207.761 60.098 207.496 60.1356 207.235C60.182 206.927 60.289 206.631 60.4506 206.365C60.7832 205.748 61.2354 205.205 61.7806 204.765C62.32 204.324 62.9193 203.962 63.5606 203.69C64.0922 203.493 64.6466 203.363 65.2106 203.305C65.7106 203.25 66.0706 203.235 66.3406 203.22C66.4782 203.2 66.6181 203.2 66.7556 203.22C66.2611 203.333 65.7602 203.416 65.2556 203.47C64.7115 203.55 64.1782 203.691 63.6656 203.89C63.0505 204.165 62.4752 204.521 61.9556 204.95C61.4374 205.367 61.0002 205.875 60.6656 206.45C60.3987 206.924 60.2657 207.461 60.2806 208.005C60.2406 208.97 60.3106 209.565 60.2556 209.565Z" fill="#FF9A6C"/>
<path d="M65.3003 202.12C65.3003 202.16 64.7253 202.22 63.8003 202.395C62.8753 202.57 61.5003 202.775 60.8003 204.065C60.0858 205.043 59.5088 206.115 59.0853 207.25C58.9533 207.732 58.8679 208.226 58.8303 208.725C58.7836 208.594 58.7648 208.454 58.7753 208.315C58.7662 207.938 58.8134 207.563 58.9153 207.2C59.2958 206.025 59.8631 204.919 60.5953 203.925C60.7898 203.624 61.0235 203.35 61.2903 203.11C61.5476 202.889 61.8445 202.72 62.1653 202.61C62.691 202.428 63.2337 202.299 63.7853 202.225C64.2839 202.127 64.7929 202.091 65.3003 202.12Z" fill="#FF9A6C"/>
<path d="M67.6353 210.5C67.5487 210.455 67.4667 210.401 67.3903 210.34L66.7053 209.875C65.8421 209.306 64.9473 208.787 64.0253 208.32H64.0803L61.7203 208.915L61.7953 208.805C61.8178 209.001 61.8178 209.199 61.7953 209.395C61.7805 209.611 61.7022 209.818 61.5703 209.99C61.4883 210.076 61.3819 210.136 61.2653 210.16C61.1578 210.197 61.0438 210.213 60.9303 210.205C60.6955 210.188 60.4742 210.089 60.3053 209.925C60.2643 209.882 60.2259 209.837 60.1903 209.79V209.755L60.3303 209.795L60.2553 209.83C60.1581 209.881 60.0579 209.926 59.9553 209.965C59.8507 210.006 59.7438 210.041 59.6353 210.07C59.5781 210.087 59.5195 210.099 59.4603 210.105C59.3844 210.117 59.3066 210.109 59.2353 210.08C59.1211 210.008 59.0307 209.903 58.9753 209.78C58.9198 209.677 58.8714 209.57 58.8303 209.46C58.7462 209.243 58.6777 209.021 58.6253 208.795L58.7703 208.88C58.6109 208.929 58.4411 208.933 58.2797 208.891C58.1182 208.85 57.9714 208.765 57.8553 208.645C57.7346 208.517 57.6636 208.35 57.6553 208.175C57.6549 208.017 57.67 207.86 57.7003 207.705C57.834 207.103 58.0112 206.511 58.2303 205.935L58.9953 204.485L59.4953 203.57C59.6435 203.254 59.8245 202.954 60.0353 202.675C60.2645 202.407 60.545 202.188 60.8603 202.03C61.1678 201.889 61.4948 201.794 61.8303 201.75L65.4403 201.055H65.4703C65.6922 201.072 65.9118 201.112 66.1253 201.175C66.3519 201.225 66.5568 201.346 66.7103 201.52L66.5703 201.49C66.7608 201.385 66.9739 201.327 67.1916 201.322C67.4093 201.316 67.625 201.364 67.8203 201.46C68.158 201.673 68.404 202.005 68.5103 202.39L68.4753 202.345L71.7253 204.845L72.6003 205.535C72.7057 205.611 72.8044 205.697 72.8953 205.79C72.7804 205.731 72.6716 205.66 72.5703 205.58L71.6653 204.925L68.3653 202.495H68.3403V202.46C68.2472 202.125 68.0311 201.837 67.7353 201.655C67.5704 201.576 67.3888 201.538 67.206 201.544C67.0232 201.55 66.8445 201.6 66.6853 201.69L66.6003 201.73L66.5453 201.66C66.4182 201.528 66.2544 201.438 66.0753 201.4C65.8759 201.345 65.6716 201.31 65.4653 201.295H65.4953L61.8853 202.005C61.5701 202.046 61.2632 202.135 60.9753 202.27C60.6915 202.411 60.4396 202.608 60.2353 202.85C60.0384 203.116 59.8707 203.403 59.7353 203.705L59.2353 204.62C58.9703 205.12 58.7353 205.62 58.4703 206.07C58.264 206.634 58.097 207.212 57.9703 207.8C57.9415 207.936 57.9265 208.075 57.9253 208.215C57.932 208.335 57.9817 208.449 58.0653 208.535C58.1513 208.621 58.2589 208.682 58.3769 208.712C58.4948 208.742 58.6187 208.74 58.7353 208.705L58.8553 208.675V208.79C58.9103 209.005 58.9753 209.225 59.0503 209.43C59.1051 209.618 59.2046 209.789 59.3403 209.93C59.3729 209.94 59.4077 209.94 59.4403 209.93L59.5853 209.9C59.6863 209.877 59.7851 209.846 59.8803 209.805C59.9753 209.77 60.0703 209.725 60.1653 209.68L60.2353 209.65L60.3803 209.69V209.715C60.4075 209.754 60.4376 209.791 60.4703 209.825C60.5635 209.924 60.6831 209.995 60.8151 210.029C60.9471 210.062 61.0859 210.058 61.2153 210.015C61.2951 210.001 61.3686 209.963 61.4253 209.905C61.6015 209.603 61.6669 209.25 61.6103 208.905V208.815H61.6903L64.0603 208.255H64.0903C65.0117 208.735 65.8989 209.278 66.7453 209.88C67.0403 210.095 67.2453 210.265 67.4103 210.38C67.4881 210.415 67.5632 210.455 67.6353 210.5Z" fill="#FF9A6C"/>
<path d="M56.0853 213.71C56.0853 213.71 40.4103 208.785 35.4903 207.21C26.9903 204.46 21.4603 207.24 19.7103 210.27C17.4403 214.205 22.8853 221.88 24.9853 223.645C31.2003 228.87 41.8553 229.575 41.8553 229.575L80.1653 229.505L69.0003 214.315L56.0853 213.71Z" fill="#263238"/>
<path d="M58.4355 220.82C52.0516 221.563 45.5835 220.682 39.6305 218.26C38.6149 217.801 37.5691 217.412 36.5005 217.095C35.4441 216.829 34.349 216.751 33.2655 216.865C32.8355 216.876 32.4121 216.973 32.0204 217.151C31.6288 217.329 31.2768 217.584 30.9855 217.9C30.2205 218.9 30.6105 220.34 31.0355 221.53C31.5355 222.93 32.0355 224.36 33.0355 225.48C34.1705 226.785 35.8205 227.535 37.4755 228.055C40.7105 229.055 44.1255 229.37 47.5155 229.5L59.1555 228.865L58.4355 220.82Z" fill="#E0E0E0"/>
<path d="M35.9551 217.1C36.0316 217.194 36.0908 217.3 36.1301 217.415C36.2653 217.713 36.3692 218.025 36.4401 218.345C36.6914 219.409 36.6473 220.521 36.3124 221.562C35.9775 222.603 35.3647 223.532 34.5401 224.25C34.2946 224.465 34.0302 224.657 33.7501 224.825C33.5451 224.94 33.4301 224.99 33.4201 224.975C33.4101 224.96 33.8401 224.685 34.4201 224.12C35.1811 223.392 35.7484 222.486 36.0705 221.484C36.3927 220.482 36.4596 219.415 36.2651 218.38C36.1251 217.58 35.9151 217.115 35.9551 217.1Z" fill="#263238"/>
<path d="M96.0952 212.75C95.1852 210.17 95.0352 206.38 89.4202 204.56C83.8052 202.74 79.5652 206.23 76.6802 207.44C73.7952 208.65 58.0302 217.3 58.0302 217.3C58.0302 217.3 55.0602 222.595 55.9052 224.935C56.7502 227.275 60.5902 229.585 60.5902 229.585H78.2252C82.7752 229.585 91.2252 229.43 91.2252 229.43C92.3566 227.575 93.3702 225.652 94.2602 223.67L94.4102 222.91C94.4252 222.305 97.0002 215.33 96.0952 212.75Z" fill="#263238"/>
<path d="M86.325 226.145C86.3021 226.234 86.2574 226.317 86.195 226.385C86.024 226.583 85.8292 226.76 85.615 226.91C84.8275 227.453 83.9905 227.92 83.115 228.305C82.5169 228.584 81.9025 228.826 81.275 229.03C80.5486 229.259 79.8043 229.426 79.05 229.53C77.3289 229.701 75.5991 229.768 73.87 229.73C70.205 229.79 66.87 229.93 64.47 229.9C63.265 229.9 62.29 229.845 61.62 229.775C61.3615 229.752 61.1044 229.716 60.85 229.665C60.7598 229.654 60.671 229.634 60.585 229.605C60.585 229.58 60.955 229.645 61.625 229.68C62.295 229.715 63.27 229.74 64.47 229.73C66.875 229.73 70.195 229.545 73.87 229.485C75.5903 229.522 77.3114 229.462 79.025 229.305C79.7659 229.214 80.4982 229.064 81.215 228.855C81.8385 228.662 82.4496 228.432 83.045 228.165C83.9145 227.799 84.7509 227.359 85.545 226.85C85.7609 226.705 85.9604 226.538 86.14 226.35C86.28 226.23 86.31 226.14 86.325 226.145Z" fill="#263238"/>
<path d="M60.59 229.585L60.355 229.46C60.205 229.375 59.985 229.235 59.7 229.05C58.8707 228.509 58.094 227.891 57.38 227.205C56.8627 226.709 56.4213 226.14 56.07 225.515C55.7109 224.733 55.6195 223.854 55.81 223.015C56.2387 221.005 56.958 219.068 57.945 217.265V217.24C60.835 215.65 64.15 213.845 67.77 211.9C69.58 210.93 71.465 209.925 73.425 208.9C74.425 208.4 75.425 207.9 76.425 207.4C77.425 206.9 78.45 206.4 79.485 205.86C80.9149 205.077 82.4484 204.499 84.04 204.145C84.8217 203.989 85.6179 203.917 86.415 203.93C87.1949 203.954 87.9697 204.064 88.725 204.26C90.1893 204.621 91.5643 205.277 92.765 206.19C93.3233 206.652 93.8176 207.187 94.235 207.78C94.6187 208.364 94.9357 208.99 95.18 209.645C95.43 210.285 95.605 210.93 95.785 211.56C95.9912 212.172 96.1583 212.797 96.285 213.43C96.3636 214.64 96.2625 215.855 95.985 217.035C95.76 218.16 95.485 219.21 95.2 220.185C95.06 220.685 94.92 221.15 94.79 221.605C94.66 222.06 94.51 222.51 94.44 222.91C94.38 223.195 94.335 223.41 94.285 223.665C93.8034 225.21 93.1227 226.686 92.26 228.055C91.9543 228.545 91.5937 228.997 91.185 229.405L91.25 229.315C91.305 229.25 91.375 229.17 91.46 229.06C91.725 228.727 91.972 228.38 92.2 228.02C93.0329 226.643 93.6897 225.166 94.155 223.625C94.44 223.385 94.385 223.15 94.3 222.865C94.3874 222.409 94.5009 221.958 94.64 221.515L95.045 220.1C95.315 219.1 95.585 218.07 95.805 216.955C96.0713 215.793 96.1656 214.599 96.085 213.41C95.9535 212.789 95.7865 212.177 95.585 211.575C95.4 210.945 95.22 210.305 94.975 209.68C94.7364 209.04 94.426 208.43 94.05 207.86C93.6443 207.286 93.1633 206.77 92.62 206.325C90.8218 204.977 88.6555 204.21 86.41 204.125C85.6311 204.112 84.8532 204.184 84.09 204.34C82.5172 204.689 81.0021 205.26 79.59 206.035C78.59 206.535 77.59 207.135 76.515 207.58C75.44 208.025 74.515 208.555 73.515 209.08C71.56 210.08 69.67 211.08 67.86 212.08L58.02 217.385L58.055 217.345C57.0708 219.127 56.3484 221.042 55.91 223.03C55.7127 223.841 55.7919 224.694 56.135 225.455C56.4716 226.074 56.8997 226.639 57.405 227.13C58.1062 227.821 58.8675 228.449 59.68 229.005L60.32 229.435C60.5 229.53 60.59 229.585 60.59 229.585Z" fill="#263238"/>
<path d="M89.2902 223.04C89.2902 223.04 94.5452 223.67 94.0802 226.24C93.6152 228.81 91.8952 229.675 91.8952 229.675L77.6152 229.705C77.6152 229.705 86.1402 229.115 89.2902 223.04Z" fill="#E0E0E0"/>
<path d="M89.8 221.795C89.7989 222.045 89.7443 222.292 89.64 222.52C89.4466 223.095 89.1594 223.634 88.79 224.115C88.292 224.816 87.5955 225.353 86.79 225.655C87.4532 225.157 88.0616 224.591 88.605 223.965C89.0635 223.276 89.4632 222.55 89.8 221.795Z" fill="#263238"/>
<path d="M88.0006 222.8C88.009 223.445 87.8358 224.079 87.5006 224.63C87.244 225.214 86.8514 225.728 86.3556 226.13C86.3006 226.085 86.8156 225.42 87.2806 224.505C87.7456 223.59 87.9106 222.79 88.0006 222.8Z" fill="#263238"/>
<path d="M94.68 228.96C94.64 228.96 94.98 228.29 95.39 227.185C96.4664 224.299 96.8217 221.194 96.425 218.14C96.27 216.975 96.09 216.26 96.13 216.25C96.2091 216.408 96.2663 216.576 96.3 216.75C96.4235 217.203 96.522 217.662 96.595 218.125C97.0953 221.206 96.7354 224.365 95.555 227.255C95.3767 227.681 95.1747 228.097 94.95 228.5C94.8785 228.663 94.7879 228.818 94.68 228.96Z" fill="#455A64"/>
<g opacity="0.3">
<path d="M91.71 221.655C91.67 221.31 91.535 220.9 91.21 220.83C90.79 220.745 90.505 221.225 90.34 221.615C88.5 225.8 82.555 229.065 78 229.5C80.2092 229.495 82.4145 229.315 84.595 228.96C86.4546 228.681 88.1979 227.884 89.625 226.66C90.3346 226.043 90.8919 225.27 91.2536 224.402C91.6153 223.533 91.7715 222.593 91.71 221.655Z" fill="black"/>
</g>
<path d="M56.92 215.96C56.0492 215.715 55.2024 215.392 54.39 214.995C53.5455 214.675 52.7321 214.278 51.96 213.81C52.8296 214.056 53.6761 214.377 54.49 214.77C55.3347 215.091 56.1481 215.49 56.92 215.96Z" fill="#263238"/>
<g opacity="0.2">
<path d="M61.9998 213.75C55.1998 212.45 48.3748 211.295 41.5248 210.285L36.4248 211.895C37.8548 214.555 40.6798 216.25 43.6148 216.95C46.5498 217.65 49.6148 217.485 52.6148 217.21C55.9248 216.905 59.3248 216.44 62.2048 214.78C62.4248 214.655 62.6748 214.465 62.6448 214.21C62.6148 213.955 62.2948 213.805 61.9998 213.75Z" fill="black"/>
</g>
<path d="M28.5302 193.5L37.1002 212.45C37.2735 212.836 37.5542 213.165 37.9087 213.396C38.2633 213.627 38.6768 213.752 39.1002 213.755L64.1002 214.08L67.2502 212.385L62.3152 212.025L54.6352 193.595C54.5156 193.308 54.3145 193.063 54.0567 192.89C53.7989 192.716 53.4958 192.622 53.1852 192.62L29.2402 192.44C29.1125 192.435 28.9857 192.463 28.8718 192.521C28.758 192.58 28.6609 192.666 28.5898 192.772C28.5186 192.878 28.4758 193.001 28.4654 193.128C28.455 193.256 28.4773 193.384 28.5302 193.5Z" fill="#E0E0E0"/>
<path d="M28.5307 193.5C28.4898 193.429 28.4643 193.351 28.4557 193.27C28.4399 193.15 28.453 193.028 28.4939 192.914C28.5347 192.8 28.6022 192.697 28.6907 192.615C28.8274 192.488 29.0045 192.414 29.1907 192.405H31.3857L41.4107 192.44L48.3807 192.475L52.2757 192.5H53.2757C53.6461 192.527 53.9974 192.674 54.2757 192.92C54.544 193.172 54.7421 193.489 54.8507 193.84L55.2607 194.84C57.4457 200.075 59.8607 205.865 62.4207 211.985L62.3007 211.9L67.0657 212.25H67.2357L67.7357 212.285L67.3107 212.515L64.1607 214.21H64.1257H64.0907L45.1407 213.95L40.9107 213.89C40.2207 213.89 39.5607 213.89 38.8757 213.85C38.5336 213.81 38.2045 213.695 37.9116 213.513C37.6188 213.332 37.3693 213.088 37.1807 212.8C36.0657 210.455 35.1357 208.3 34.2307 206.3L30.0407 196.93C29.5407 195.835 29.1807 194.98 28.9207 194.385C28.7957 194.105 28.7057 193.885 28.6357 193.725C28.5657 193.565 28.5457 193.495 28.5457 193.495C28.5884 193.566 28.6268 193.639 28.6607 193.715L28.9707 194.365C29.2407 194.95 29.6307 195.8 30.1357 196.865L34.4057 206.205C35.3107 208.17 36.2807 210.38 37.3707 212.66C37.5404 212.92 37.7656 213.139 38.0302 213.302C38.2948 213.464 38.5921 213.566 38.9007 213.6C39.5407 213.63 40.2357 213.625 40.9007 213.635L45.1307 213.685L64.0807 213.915H64.0107L67.1607 212.215L67.2207 212.48H67.0507L62.2857 212.135H62.2007L62.1657 212.06C59.6207 205.93 57.2107 200.14 55.0307 194.9L54.6257 193.925C54.5366 193.607 54.3639 193.319 54.1257 193.09C53.888 192.875 53.5852 192.747 53.2657 192.725H52.2657L48.3707 192.69L41.4057 192.62L31.3707 192.5H29.8007H29.1807C29.0817 192.504 28.9844 192.527 28.8949 192.57C28.8054 192.612 28.7254 192.673 28.6599 192.747C28.5944 192.821 28.5448 192.908 28.5139 193.003C28.4831 193.097 28.4718 193.196 28.4807 193.295C28.4936 193.364 28.5103 193.433 28.5307 193.5Z" fill="#263238"/>
<path d="M61.5602 214.045C61.5136 213.98 61.4749 213.909 61.4452 213.835L61.1602 213.225C60.9102 212.655 60.5702 211.885 60.1602 210.955C59.3252 209.03 58.1902 206.37 56.9702 203.41C55.7502 200.45 54.6702 197.765 53.9252 195.81C53.5502 194.81 53.2552 194.035 53.0652 193.48C52.9752 193.225 52.9052 193.015 52.8452 192.84C52.8172 192.766 52.7971 192.689 52.7852 192.61C52.8309 192.675 52.8679 192.745 52.8952 192.82L53.1552 193.445C53.3902 194.025 53.7052 194.8 54.0852 195.745C54.8952 197.715 55.9902 200.375 57.1952 203.32C58.4002 206.265 59.5102 208.915 60.3202 210.885L61.2552 213.185C61.3502 213.44 61.4302 213.645 61.4952 213.815C61.5298 213.887 61.5518 213.965 61.5602 214.045Z" fill="#263238"/>
<path d="M46.0606 202.685C46.0616 202.929 45.9901 203.167 45.8554 203.37C45.7206 203.573 45.5285 203.732 45.3036 203.825C45.0786 203.919 44.8309 203.944 44.5919 203.897C44.3528 203.849 44.1332 203.732 43.9608 203.56C43.7885 203.387 43.6713 203.168 43.624 202.929C43.5767 202.69 43.6015 202.442 43.6952 202.217C43.7889 201.992 43.9473 201.8 44.1503 201.665C44.3534 201.53 44.5919 201.459 44.8356 201.46C45.1605 201.46 45.4721 201.589 45.7018 201.819C45.9315 202.048 46.0606 202.36 46.0606 202.685Z" fill="white"/>
<path d="M70.3852 172.2C70.4252 172.2 70.0652 172.895 69.5602 174.015C68.2384 176.939 67.3749 180.048 67.0002 183.235C66.8502 184.46 66.8102 185.235 66.7652 185.235C66.7384 185.056 66.7384 184.874 66.7652 184.695C66.7652 184.35 66.7652 183.85 66.8352 183.23C67.1178 180.003 67.996 176.857 69.4252 173.95C69.7002 173.395 69.9252 172.95 70.1202 172.66C70.1896 172.496 70.2786 172.342 70.3852 172.2Z" fill="#263238"/>
<path d="M108.15 185.6C108.061 185.627 107.969 185.642 107.875 185.645L107.08 185.72L104.11 185.97L93.9552 186.735H93.8252V186.605C93.7402 185.255 93.6502 183.83 93.5602 182.37C93.4152 179.82 93.2902 177.37 93.2502 175.175C93.1209 173.198 93.571 171.225 94.5452 169.5C95.2141 168.336 96.201 167.387 97.3902 166.765C97.7113 166.604 98.0459 166.472 98.3902 166.37C98.5099 166.332 98.6318 166.302 98.7552 166.28C98.7552 166.32 98.2552 166.425 97.4302 166.855C96.2836 167.499 95.3372 168.447 94.6952 169.595C93.7687 171.303 93.3538 173.242 93.5002 175.18C93.5502 177.385 93.6802 179.815 93.8252 182.365C93.9152 183.825 94.0002 185.25 94.0852 186.595L93.9452 186.475L104.11 185.805L107.11 185.63L107.905 185.6H108.15Z" fill="#263238"/>
<path d="M83.2353 194.26C83.0812 194.23 82.9327 194.176 82.7953 194.1C82.6233 194.028 82.4563 193.944 82.2953 193.85C82.0797 193.734 81.871 193.605 81.6703 193.465C81.1384 193.106 80.6472 192.69 80.2053 192.225C79.6708 191.648 79.2013 191.014 78.8053 190.335C78.4234 189.648 78.1198 188.92 77.9003 188.165C77.7262 187.548 77.6189 186.915 77.5803 186.275C77.5657 186.03 77.5657 185.785 77.5803 185.54C77.5811 185.354 77.5944 185.169 77.6203 184.985C77.6249 184.826 77.6553 184.669 77.7103 184.52C77.7603 184.52 77.6753 185.195 77.7803 186.26C77.8432 186.882 77.9654 187.496 78.1453 188.095C78.3753 188.827 78.6785 189.534 79.0503 190.205C79.4332 190.867 79.8839 191.487 80.3953 192.055C80.8206 192.515 81.2876 192.935 81.7903 193.31C82.6403 193.945 83.2603 194.215 83.2353 194.26Z" fill="#263238"/>
</svg>
